G04*
G04 #@! TF.GenerationSoftware,Altium Limited,Altium Designer,22.8.2 (66)*
G04*
G04 Layer_Physical_Order=6*
G04 Layer_Color=16711680*
%FSLAX44Y44*%
%MOMM*%
G71*
G04*
G04 #@! TF.SameCoordinates,B9550543-2847-43AE-AA18-711D015818A4*
G04*
G04*
G04 #@! TF.FilePolarity,Positive*
G04*
G01*
G75*
%ADD13C,0.5000*%
%ADD15R,1.7500X2.4500*%
%ADD34C,1.0000*%
%ADD36C,3.5000*%
%ADD37C,3.0000*%
%ADD38C,2.5000*%
%ADD39C,3.2000*%
%ADD40C,1.5000*%
%ADD41C,1.6000*%
%ADD42O,7.2000X2.7500*%
%ADD43O,1.7000X1.5000*%
%ADD44O,4.5000X7.0000*%
%ADD45O,10.0000X2.0000*%
%ADD46C,2.7000*%
%ADD47O,3.0000X2.2000*%
%ADD48C,8.0000*%
%ADD49R,1.5000X1.5000*%
%ADD50R,1.5000X1.5000*%
%ADD51C,1.7500*%
%ADD52R,0.9500X0.7000*%
G36*
X1724324Y1713339D02*
X1697750D01*
X1693239Y1712984D01*
X1688838Y1711927D01*
X1684657Y1710196D01*
X1680799Y1707831D01*
X1677358Y1704892D01*
X1675412Y1702614D01*
X1674143Y1702564D01*
X1673760Y1702948D01*
X1669870Y1705547D01*
X1665548Y1707337D01*
X1660959Y1708250D01*
X1656281D01*
X1651692Y1707337D01*
X1647370Y1705547D01*
X1645920Y1704578D01*
X1644470Y1705547D01*
X1640148Y1707337D01*
X1635559Y1708250D01*
X1630881D01*
X1626292Y1707337D01*
X1621970Y1705547D01*
X1618080Y1702948D01*
X1614772Y1699640D01*
X1612173Y1695750D01*
X1610383Y1691428D01*
X1609470Y1686839D01*
Y1682161D01*
X1610383Y1677572D01*
X1612173Y1673250D01*
X1614772Y1669360D01*
X1618080Y1666052D01*
X1621970Y1663453D01*
X1626292Y1661663D01*
X1630881Y1660750D01*
X1635559D01*
X1640148Y1661663D01*
X1644470Y1663453D01*
X1645920Y1664422D01*
X1647370Y1663453D01*
X1651692Y1661663D01*
X1656281Y1660750D01*
X1660959D01*
X1665548Y1661663D01*
X1669870Y1663453D01*
X1673760Y1666052D01*
X1674143Y1666436D01*
X1675412Y1666386D01*
X1677358Y1664108D01*
X1680799Y1661169D01*
X1684657Y1658804D01*
X1686877Y1657885D01*
Y1656615D01*
X1684657Y1655696D01*
X1680799Y1653331D01*
X1677358Y1650392D01*
X1674419Y1646951D01*
X1672054Y1643093D01*
X1670323Y1638912D01*
X1669266Y1634511D01*
X1668911Y1630000D01*
X1669266Y1625489D01*
X1670323Y1621088D01*
X1672054Y1616907D01*
X1674419Y1613049D01*
X1677358Y1609608D01*
X1680799Y1606669D01*
X1684657Y1604304D01*
X1686877Y1603385D01*
Y1602115D01*
X1684657Y1601196D01*
X1680799Y1598831D01*
X1677358Y1595892D01*
X1674419Y1592451D01*
X1672054Y1588593D01*
X1670323Y1584412D01*
X1669266Y1580011D01*
X1668911Y1575500D01*
X1669266Y1570989D01*
X1670323Y1566588D01*
X1672054Y1562407D01*
X1674419Y1558549D01*
X1677358Y1555108D01*
X1680799Y1552169D01*
X1684657Y1549804D01*
X1688838Y1548073D01*
X1693239Y1547016D01*
X1697750Y1546661D01*
X1724324D01*
Y1538339D01*
X1697750D01*
X1693239Y1537984D01*
X1688838Y1536927D01*
X1684657Y1535196D01*
X1680799Y1532831D01*
X1677358Y1529892D01*
X1675412Y1527614D01*
X1674143Y1527564D01*
X1673760Y1527948D01*
X1669870Y1530547D01*
X1665548Y1532337D01*
X1660959Y1533250D01*
X1656281D01*
X1651692Y1532337D01*
X1647370Y1530547D01*
X1645920Y1529578D01*
X1644470Y1530547D01*
X1640148Y1532337D01*
X1635559Y1533250D01*
X1630881D01*
X1626292Y1532337D01*
X1621970Y1530547D01*
X1618080Y1527948D01*
X1614772Y1524640D01*
X1612173Y1520750D01*
X1610383Y1516428D01*
X1609470Y1511839D01*
Y1507161D01*
X1610383Y1502572D01*
X1612173Y1498250D01*
X1614772Y1494360D01*
X1618080Y1491052D01*
X1621970Y1488453D01*
X1626292Y1486663D01*
X1630881Y1485750D01*
X1635559D01*
X1640148Y1486663D01*
X1644470Y1488453D01*
X1645920Y1489422D01*
X1647370Y1488453D01*
X1651692Y1486663D01*
X1656281Y1485750D01*
X1660959D01*
X1665548Y1486663D01*
X1669870Y1488453D01*
X1673760Y1491052D01*
X1674143Y1491436D01*
X1675412Y1491386D01*
X1677358Y1489108D01*
X1680799Y1486169D01*
X1684657Y1483804D01*
X1686877Y1482885D01*
Y1481615D01*
X1684657Y1480696D01*
X1680799Y1478331D01*
X1677358Y1475392D01*
X1674419Y1471951D01*
X1672054Y1468093D01*
X1670323Y1463912D01*
X1669266Y1459511D01*
X1668911Y1455000D01*
X1669266Y1450489D01*
X1670323Y1446088D01*
X1672054Y1441907D01*
X1674419Y1438049D01*
X1677358Y1434608D01*
X1680799Y1431669D01*
X1684657Y1429304D01*
X1686877Y1428385D01*
Y1427115D01*
X1684657Y1426196D01*
X1680799Y1423831D01*
X1677358Y1420892D01*
X1674419Y1417451D01*
X1672054Y1413593D01*
X1670323Y1409412D01*
X1669266Y1405011D01*
X1668911Y1400500D01*
X1669266Y1395989D01*
X1670323Y1391588D01*
X1672054Y1387407D01*
X1674419Y1383549D01*
X1677358Y1380108D01*
X1680799Y1377169D01*
X1684657Y1374804D01*
X1688838Y1373073D01*
X1693239Y1372016D01*
X1697750Y1371661D01*
X1724324D01*
X1724324Y1343339D01*
X1697750D01*
X1693239Y1342984D01*
X1688838Y1341927D01*
X1684657Y1340196D01*
X1680799Y1337831D01*
X1677358Y1334892D01*
X1675412Y1332614D01*
X1674143Y1332564D01*
X1673760Y1332948D01*
X1669870Y1335547D01*
X1665548Y1337337D01*
X1660959Y1338250D01*
X1656281D01*
X1651692Y1337337D01*
X1647370Y1335547D01*
X1645920Y1334578D01*
X1644470Y1335547D01*
X1640148Y1337337D01*
X1635559Y1338250D01*
X1630881D01*
X1626292Y1337337D01*
X1621970Y1335547D01*
X1618080Y1332948D01*
X1614772Y1329640D01*
X1612173Y1325750D01*
X1610383Y1321428D01*
X1609470Y1316839D01*
Y1312161D01*
X1610383Y1307572D01*
X1612173Y1303250D01*
X1614772Y1299360D01*
X1618080Y1296052D01*
X1621970Y1293453D01*
X1626292Y1291663D01*
X1630881Y1290750D01*
X1635559D01*
X1640148Y1291663D01*
X1644470Y1293453D01*
X1645920Y1294422D01*
X1647370Y1293453D01*
X1651692Y1291663D01*
X1656281Y1290750D01*
X1660959D01*
X1665548Y1291663D01*
X1669870Y1293453D01*
X1673760Y1296052D01*
X1674143Y1296436D01*
X1675412Y1296386D01*
X1677358Y1294108D01*
X1680799Y1291169D01*
X1684657Y1288804D01*
X1686877Y1287885D01*
Y1286615D01*
X1684657Y1285696D01*
X1680799Y1283331D01*
X1677358Y1280392D01*
X1674419Y1276951D01*
X1672054Y1273093D01*
X1670323Y1268912D01*
X1669266Y1264511D01*
X1668911Y1260000D01*
X1669266Y1255489D01*
X1670323Y1251088D01*
X1672054Y1246907D01*
X1674419Y1243049D01*
X1677358Y1239608D01*
X1680799Y1236669D01*
X1684657Y1234304D01*
X1686877Y1233385D01*
Y1232115D01*
X1684657Y1231196D01*
X1680799Y1228831D01*
X1677358Y1225892D01*
X1674419Y1222451D01*
X1672054Y1218593D01*
X1670323Y1214412D01*
X1669266Y1210011D01*
X1668911Y1205500D01*
X1669266Y1200989D01*
X1670323Y1196588D01*
X1672054Y1192407D01*
X1674419Y1188549D01*
X1677358Y1185108D01*
X1680799Y1182169D01*
X1684657Y1179804D01*
X1688838Y1178073D01*
X1693239Y1177016D01*
X1697750Y1176661D01*
X1724324D01*
Y1168339D01*
X1697750D01*
X1693239Y1167984D01*
X1688838Y1166927D01*
X1684657Y1165196D01*
X1680799Y1162831D01*
X1677358Y1159892D01*
X1675412Y1157614D01*
X1674143Y1157564D01*
X1673760Y1157948D01*
X1669870Y1160547D01*
X1665548Y1162337D01*
X1660959Y1163250D01*
X1656281D01*
X1651692Y1162337D01*
X1647370Y1160547D01*
X1645920Y1159578D01*
X1644470Y1160547D01*
X1640148Y1162337D01*
X1635559Y1163250D01*
X1630881D01*
X1626292Y1162337D01*
X1621970Y1160547D01*
X1618080Y1157948D01*
X1614772Y1154640D01*
X1612173Y1150750D01*
X1610383Y1146428D01*
X1609470Y1141839D01*
Y1137161D01*
X1610383Y1132572D01*
X1612173Y1128250D01*
X1614772Y1124360D01*
X1618080Y1121052D01*
X1621970Y1118453D01*
X1626292Y1116663D01*
X1630881Y1115750D01*
X1635559D01*
X1640148Y1116663D01*
X1644470Y1118453D01*
X1645920Y1119422D01*
X1647370Y1118453D01*
X1651692Y1116663D01*
X1656281Y1115750D01*
X1660959D01*
X1665548Y1116663D01*
X1669870Y1118453D01*
X1673760Y1121052D01*
X1674143Y1121436D01*
X1675412Y1121386D01*
X1677358Y1119108D01*
X1680799Y1116169D01*
X1684657Y1113804D01*
X1686877Y1112885D01*
Y1111615D01*
X1684657Y1110696D01*
X1680799Y1108331D01*
X1677358Y1105392D01*
X1674419Y1101951D01*
X1672054Y1098093D01*
X1670323Y1093912D01*
X1669266Y1089511D01*
X1668911Y1085000D01*
X1669266Y1080489D01*
X1670323Y1076088D01*
X1672054Y1071907D01*
X1674419Y1068049D01*
X1677358Y1064608D01*
X1680799Y1061669D01*
X1684657Y1059304D01*
X1686877Y1058385D01*
Y1057115D01*
X1684657Y1056196D01*
X1680799Y1053831D01*
X1677358Y1050892D01*
X1674419Y1047451D01*
X1672054Y1043593D01*
X1670323Y1039412D01*
X1669266Y1035011D01*
X1668911Y1030500D01*
X1669266Y1025989D01*
X1670323Y1021588D01*
X1672054Y1017407D01*
X1674419Y1013549D01*
X1677358Y1010108D01*
X1680799Y1007169D01*
X1684657Y1004804D01*
X1688838Y1003073D01*
X1693239Y1002016D01*
X1697750Y1001661D01*
X1724324D01*
Y993140D01*
X1724668Y990530D01*
X1725675Y988097D01*
X1727278Y986008D01*
X1729367Y984405D01*
X1731800Y983398D01*
X1734410Y983054D01*
X1820690D01*
X1821337Y981784D01*
X1819230Y978883D01*
X1817265Y975026D01*
X1815927Y970910D01*
X1815250Y966634D01*
Y962306D01*
X1815927Y958030D01*
X1817265Y953914D01*
X1819230Y950057D01*
X1821774Y946555D01*
X1824835Y943494D01*
X1828337Y940950D01*
X1832194Y938985D01*
X1836310Y937647D01*
X1840586Y936970D01*
X1844914D01*
X1849190Y937647D01*
X1853306Y938985D01*
X1857163Y940950D01*
X1860665Y943494D01*
X1863726Y946555D01*
X1866270Y950057D01*
X1868235Y953914D01*
X1869573Y958030D01*
X1870250Y962306D01*
Y966634D01*
X1869573Y970910D01*
X1868235Y975026D01*
X1866270Y978883D01*
X1864163Y981784D01*
X1864810Y983054D01*
X1989913Y983054D01*
X1989914Y524436D01*
X586188D01*
X585796Y525644D01*
X587527Y526901D01*
X590699Y530074D01*
X593335Y533703D01*
X595372Y537700D01*
X596758Y541966D01*
X597460Y546397D01*
Y550883D01*
X596758Y555314D01*
X595372Y559580D01*
X593335Y563577D01*
X590699Y567206D01*
X587527Y570379D01*
X583897Y573015D01*
X583133Y573405D01*
Y574675D01*
X583897Y575065D01*
X587527Y577701D01*
X590699Y580873D01*
X593335Y584503D01*
X595372Y588500D01*
X596758Y592766D01*
X597460Y597197D01*
Y601683D01*
X596758Y606114D01*
X595372Y610380D01*
X593335Y614377D01*
X590699Y618007D01*
X587527Y621179D01*
X583897Y623815D01*
X583133Y624205D01*
Y625475D01*
X583897Y625865D01*
X587527Y628501D01*
X590699Y631674D01*
X593335Y635303D01*
X595372Y639300D01*
X596758Y643566D01*
X597460Y647997D01*
Y652483D01*
X596758Y656914D01*
X595372Y661180D01*
X593335Y665177D01*
X590699Y668807D01*
X587527Y671979D01*
X583897Y674615D01*
X583133Y675005D01*
Y676275D01*
X583897Y676665D01*
X587527Y679301D01*
X590699Y682474D01*
X593335Y686103D01*
X595372Y690100D01*
X596758Y694366D01*
X597460Y698797D01*
Y703283D01*
X596758Y707714D01*
X595372Y711980D01*
X593335Y715977D01*
X590699Y719606D01*
X587527Y722779D01*
X583897Y725415D01*
X579900Y727452D01*
X575634Y728838D01*
X571203Y729540D01*
X566717D01*
X562286Y728838D01*
X558020Y727452D01*
X554023Y725415D01*
X550393Y722779D01*
X547221Y719606D01*
X544585Y715977D01*
X542548Y711980D01*
X541162Y707714D01*
X540460Y703283D01*
Y698797D01*
X541162Y694366D01*
X542548Y690100D01*
X544585Y686103D01*
X547221Y682474D01*
X550393Y679301D01*
X554023Y676665D01*
X554787Y676275D01*
Y675005D01*
X554023Y674615D01*
X550393Y671979D01*
X547221Y668807D01*
X544585Y665177D01*
X542548Y661180D01*
X541162Y656914D01*
X540460Y652483D01*
Y647997D01*
X541162Y643566D01*
X542548Y639300D01*
X544585Y635303D01*
X547221Y631674D01*
X550393Y628501D01*
X554023Y625865D01*
X554787Y625475D01*
Y624205D01*
X554023Y623815D01*
X550393Y621179D01*
X547221Y618007D01*
X544585Y614377D01*
X542548Y610380D01*
X541162Y606114D01*
X540460Y601683D01*
Y597197D01*
X541162Y592766D01*
X542548Y588500D01*
X544585Y584503D01*
X547221Y580873D01*
X550393Y577701D01*
X554023Y575065D01*
X554787Y574675D01*
Y573405D01*
X554023Y573015D01*
X550393Y570379D01*
X547221Y567206D01*
X544585Y563577D01*
X542548Y559580D01*
X541162Y555314D01*
X540460Y550883D01*
Y546397D01*
X541162Y541966D01*
X542548Y537700D01*
X544585Y533703D01*
X547221Y530074D01*
X550393Y526901D01*
X552124Y525644D01*
X551732Y524436D01*
X510086D01*
X510086Y983054D01*
X627040D01*
X627336Y981784D01*
X624113Y980194D01*
X620518Y977436D01*
X617531Y974030D01*
X615266Y970106D01*
X613810Y965816D01*
X613218Y961324D01*
X613515Y956803D01*
X614687Y952427D01*
X616691Y948364D01*
X619449Y944769D01*
X622855Y941782D01*
X626779Y939517D01*
X631069Y938061D01*
X635561Y937469D01*
X640082Y937766D01*
X644458Y938938D01*
X648521Y940942D01*
X652116Y943700D01*
X655103Y947106D01*
X657368Y951030D01*
X658825Y955320D01*
X659416Y959812D01*
X659120Y964333D01*
X657947Y968709D01*
X655943Y972772D01*
X653185Y976367D01*
X649779Y979354D01*
X645855Y981619D01*
X645321Y981801D01*
X645527Y983054D01*
X765590D01*
X768200Y983398D01*
X770633Y984405D01*
X772722Y986008D01*
X774324Y988097D01*
X775332Y990530D01*
X775676Y993140D01*
Y1001661D01*
X802250D01*
X806761Y1002016D01*
X811161Y1003073D01*
X815342Y1004804D01*
X819201Y1007169D01*
X822642Y1010108D01*
X824587Y1012386D01*
X825856Y1012436D01*
X826240Y1012052D01*
X830130Y1009453D01*
X834452Y1007663D01*
X839040Y1006750D01*
X843719D01*
X848307Y1007663D01*
X852629Y1009453D01*
X854080Y1010422D01*
X855530Y1009453D01*
X859852Y1007663D01*
X864440Y1006750D01*
X869119D01*
X873707Y1007663D01*
X878029Y1009453D01*
X881919Y1012052D01*
X885227Y1015360D01*
X887826Y1019250D01*
X889617Y1023572D01*
X890529Y1028161D01*
Y1032839D01*
X889617Y1037428D01*
X887826Y1041750D01*
X885227Y1045640D01*
X881919Y1048948D01*
X878029Y1051547D01*
X873707Y1053337D01*
X869119Y1054250D01*
X864440D01*
X859852Y1053337D01*
X855530Y1051547D01*
X854080Y1050578D01*
X852629Y1051547D01*
X848307Y1053337D01*
X843719Y1054250D01*
X839040D01*
X834452Y1053337D01*
X830130Y1051547D01*
X826240Y1048948D01*
X825856Y1048564D01*
X824587Y1048614D01*
X822642Y1050892D01*
X819201Y1053831D01*
X815342Y1056196D01*
X813123Y1057115D01*
Y1058385D01*
X815342Y1059304D01*
X819201Y1061669D01*
X822642Y1064608D01*
X825581Y1068049D01*
X827945Y1071907D01*
X829677Y1076088D01*
X830733Y1080489D01*
X831088Y1085000D01*
X830733Y1089511D01*
X829677Y1093912D01*
X827945Y1098093D01*
X825581Y1101951D01*
X822642Y1105392D01*
X819201Y1108331D01*
X815342Y1110696D01*
X813123Y1111615D01*
Y1112885D01*
X815342Y1113804D01*
X819201Y1116169D01*
X822642Y1119108D01*
X825581Y1122549D01*
X827945Y1126407D01*
X829677Y1130588D01*
X830733Y1134989D01*
X831088Y1139500D01*
X830733Y1144011D01*
X829677Y1148412D01*
X827945Y1152593D01*
X825581Y1156451D01*
X822642Y1159892D01*
X819201Y1162831D01*
X815342Y1165196D01*
X811161Y1166927D01*
X806761Y1167984D01*
X802250Y1168339D01*
X775676D01*
Y1176661D01*
X802250D01*
X806761Y1177016D01*
X811161Y1178073D01*
X815342Y1179804D01*
X819201Y1182169D01*
X822642Y1185108D01*
X824587Y1187386D01*
X825856Y1187436D01*
X826240Y1187052D01*
X830130Y1184453D01*
X834452Y1182663D01*
X839040Y1181750D01*
X843719D01*
X848307Y1182663D01*
X852629Y1184453D01*
X854080Y1185422D01*
X855530Y1184453D01*
X859852Y1182663D01*
X864440Y1181750D01*
X869119D01*
X873707Y1182663D01*
X878029Y1184453D01*
X881919Y1187052D01*
X885227Y1190360D01*
X887826Y1194250D01*
X889617Y1198572D01*
X890529Y1203161D01*
Y1207839D01*
X889617Y1212428D01*
X887826Y1216750D01*
X885227Y1220640D01*
X881919Y1223948D01*
X878029Y1226547D01*
X873707Y1228337D01*
X869119Y1229250D01*
X864440D01*
X859852Y1228337D01*
X855530Y1226547D01*
X854080Y1225578D01*
X852629Y1226547D01*
X848307Y1228337D01*
X843719Y1229250D01*
X839040D01*
X834452Y1228337D01*
X830130Y1226547D01*
X826240Y1223948D01*
X825856Y1223564D01*
X824587Y1223614D01*
X822642Y1225892D01*
X819201Y1228831D01*
X815342Y1231196D01*
X813123Y1232115D01*
Y1233385D01*
X815342Y1234304D01*
X819201Y1236669D01*
X822642Y1239608D01*
X825581Y1243049D01*
X827945Y1246907D01*
X829677Y1251088D01*
X830733Y1255489D01*
X831088Y1260000D01*
X830733Y1264511D01*
X829677Y1268912D01*
X827945Y1273093D01*
X825581Y1276951D01*
X822642Y1280392D01*
X819201Y1283331D01*
X815342Y1285696D01*
X813123Y1286615D01*
Y1287885D01*
X815342Y1288804D01*
X819201Y1291169D01*
X822642Y1294108D01*
X825581Y1297549D01*
X827945Y1301407D01*
X829677Y1305588D01*
X830733Y1309989D01*
X831088Y1314500D01*
X830733Y1319011D01*
X829677Y1323412D01*
X827945Y1327593D01*
X825581Y1331451D01*
X822642Y1334892D01*
X819201Y1337831D01*
X815342Y1340196D01*
X811161Y1341927D01*
X806761Y1342984D01*
X802250Y1343339D01*
X775676D01*
X775676Y1371661D01*
X802250D01*
X806761Y1372016D01*
X811161Y1373073D01*
X815342Y1374804D01*
X819201Y1377169D01*
X822642Y1380108D01*
X824587Y1382386D01*
X825856Y1382436D01*
X826240Y1382052D01*
X830130Y1379453D01*
X834452Y1377663D01*
X839040Y1376750D01*
X843719D01*
X848307Y1377663D01*
X852629Y1379453D01*
X854080Y1380422D01*
X855530Y1379453D01*
X859852Y1377663D01*
X864440Y1376750D01*
X869119D01*
X873707Y1377663D01*
X878029Y1379453D01*
X881919Y1382052D01*
X885227Y1385360D01*
X887827Y1389250D01*
X889617Y1393572D01*
X890529Y1398161D01*
Y1402839D01*
X889617Y1407428D01*
X887827Y1411750D01*
X885227Y1415640D01*
X881919Y1418948D01*
X878029Y1421547D01*
X873707Y1423337D01*
X869119Y1424250D01*
X864440D01*
X859852Y1423337D01*
X855530Y1421547D01*
X854080Y1420578D01*
X852629Y1421547D01*
X848307Y1423337D01*
X843719Y1424250D01*
X839040D01*
X834452Y1423337D01*
X830130Y1421547D01*
X826240Y1418948D01*
X825856Y1418564D01*
X824587Y1418614D01*
X822642Y1420892D01*
X819201Y1423831D01*
X815342Y1426196D01*
X813123Y1427115D01*
Y1428385D01*
X815342Y1429304D01*
X819201Y1431669D01*
X822642Y1434608D01*
X825581Y1438049D01*
X827945Y1441907D01*
X829677Y1446088D01*
X830733Y1450489D01*
X831088Y1455000D01*
X830733Y1459511D01*
X829677Y1463912D01*
X827945Y1468093D01*
X825581Y1471951D01*
X822642Y1475392D01*
X819201Y1478331D01*
X815342Y1480696D01*
X813123Y1481615D01*
Y1482885D01*
X815342Y1483804D01*
X819201Y1486169D01*
X822642Y1489108D01*
X825581Y1492549D01*
X827945Y1496407D01*
X829677Y1500588D01*
X830733Y1504989D01*
X831088Y1509500D01*
X830733Y1514011D01*
X829677Y1518412D01*
X827945Y1522593D01*
X825581Y1526451D01*
X822642Y1529892D01*
X819201Y1532831D01*
X815342Y1535196D01*
X811161Y1536927D01*
X806761Y1537984D01*
X802250Y1538339D01*
X775676D01*
Y1546661D01*
X802250D01*
X806761Y1547016D01*
X811161Y1548073D01*
X815342Y1549804D01*
X819201Y1552169D01*
X822642Y1555108D01*
X824587Y1557386D01*
X825856Y1557436D01*
X826240Y1557052D01*
X830130Y1554453D01*
X834452Y1552663D01*
X839040Y1551750D01*
X843719D01*
X848307Y1552663D01*
X852629Y1554453D01*
X854080Y1555422D01*
X855530Y1554453D01*
X859852Y1552663D01*
X864440Y1551750D01*
X869119D01*
X873707Y1552663D01*
X878029Y1554453D01*
X881919Y1557052D01*
X885227Y1560360D01*
X887827Y1564250D01*
X889617Y1568572D01*
X890529Y1573161D01*
Y1577839D01*
X889617Y1582428D01*
X887827Y1586750D01*
X885227Y1590640D01*
X881919Y1593948D01*
X878029Y1596547D01*
X873707Y1598337D01*
X869119Y1599250D01*
X864440D01*
X859852Y1598337D01*
X855530Y1596547D01*
X854080Y1595578D01*
X852629Y1596547D01*
X848307Y1598337D01*
X843719Y1599250D01*
X839040D01*
X834452Y1598337D01*
X830130Y1596547D01*
X826240Y1593948D01*
X825856Y1593564D01*
X824587Y1593614D01*
X822642Y1595892D01*
X819201Y1598831D01*
X815342Y1601196D01*
X813123Y1602115D01*
Y1603385D01*
X815342Y1604304D01*
X819201Y1606669D01*
X822642Y1609608D01*
X825581Y1613049D01*
X827945Y1616907D01*
X829677Y1621088D01*
X830733Y1625489D01*
X831088Y1630000D01*
X830733Y1634511D01*
X829677Y1638912D01*
X827945Y1643093D01*
X825581Y1646951D01*
X822642Y1650392D01*
X819201Y1653331D01*
X815342Y1655696D01*
X813123Y1656615D01*
Y1657885D01*
X815342Y1658804D01*
X819201Y1661169D01*
X822642Y1664108D01*
X825581Y1667549D01*
X827945Y1671407D01*
X829677Y1675588D01*
X830733Y1679989D01*
X831088Y1684500D01*
X830733Y1689011D01*
X829677Y1693412D01*
X827945Y1697593D01*
X825581Y1701451D01*
X822642Y1704892D01*
X819201Y1707831D01*
X815342Y1710196D01*
X811161Y1711927D01*
X806761Y1712984D01*
X802250Y1713339D01*
X775676D01*
Y1714914D01*
X1123731D01*
X1123986Y1714412D01*
X1124236Y1713644D01*
X1122163Y1709576D01*
X1120704Y1705085D01*
X1119965Y1700421D01*
Y1695699D01*
X1120704Y1691035D01*
X1122163Y1686544D01*
X1124307Y1682337D01*
X1127082Y1678516D01*
X1130421Y1675177D01*
X1134241Y1672402D01*
X1138449Y1670258D01*
X1142940Y1668799D01*
X1147604Y1668060D01*
X1152326D01*
X1156990Y1668799D01*
X1161481Y1670258D01*
X1165688Y1672402D01*
X1169509Y1675177D01*
X1172848Y1678516D01*
X1175623Y1682337D01*
X1177767Y1686544D01*
X1179226Y1691035D01*
X1179965Y1695699D01*
Y1700421D01*
X1179226Y1705085D01*
X1177767Y1709576D01*
X1175694Y1713644D01*
X1175944Y1714412D01*
X1176199Y1714914D01*
X1326731D01*
X1326986Y1714412D01*
X1327236Y1713644D01*
X1325163Y1709576D01*
X1323704Y1705085D01*
X1322965Y1700421D01*
Y1695699D01*
X1323704Y1691035D01*
X1325163Y1686544D01*
X1327307Y1682337D01*
X1330082Y1678516D01*
X1333421Y1675177D01*
X1337242Y1672402D01*
X1341449Y1670258D01*
X1345940Y1668799D01*
X1350604Y1668060D01*
X1355326D01*
X1359990Y1668799D01*
X1364481Y1670258D01*
X1368688Y1672402D01*
X1372509Y1675177D01*
X1375848Y1678516D01*
X1378623Y1682337D01*
X1380767Y1686544D01*
X1382226Y1691035D01*
X1382965Y1695699D01*
Y1700421D01*
X1382226Y1705085D01*
X1380767Y1709576D01*
X1378694Y1713644D01*
X1378944Y1714412D01*
X1379199Y1714914D01*
X1724324D01*
Y1713339D01*
D02*
G37*
%LPC*%
G36*
X1249372Y1653060D02*
X1244650D01*
X1239986Y1652321D01*
X1235495Y1650862D01*
X1231288Y1648718D01*
X1227467Y1645943D01*
X1224128Y1642604D01*
X1221353Y1638783D01*
X1219209Y1634576D01*
X1217750Y1630085D01*
X1217011Y1625421D01*
Y1620699D01*
X1217750Y1616035D01*
X1219209Y1611544D01*
X1221353Y1607337D01*
X1224128Y1603516D01*
X1227467Y1600177D01*
X1231288Y1597402D01*
X1235495Y1595258D01*
X1239986Y1593799D01*
X1244650Y1593060D01*
X1249372D01*
X1254036Y1593799D01*
X1258527Y1595258D01*
X1262734Y1597402D01*
X1266555Y1600177D01*
X1269894Y1603516D01*
X1272669Y1607337D01*
X1274813Y1611544D01*
X1276272Y1616035D01*
X1277011Y1620699D01*
Y1625421D01*
X1276272Y1630085D01*
X1274813Y1634576D01*
X1272669Y1638783D01*
X1269894Y1642604D01*
X1266555Y1645943D01*
X1262734Y1648718D01*
X1258527Y1650862D01*
X1254036Y1652321D01*
X1249372Y1653060D01*
D02*
G37*
G36*
X1052976Y1620160D02*
X1048544D01*
X1044197Y1619295D01*
X1040102Y1617599D01*
X1036417Y1615137D01*
X1033283Y1612003D01*
X1030821Y1608318D01*
X1029125Y1604223D01*
X1028260Y1599876D01*
Y1595444D01*
X1029125Y1591097D01*
X1030821Y1587002D01*
X1033283Y1583317D01*
X1036417Y1580183D01*
X1040102Y1577721D01*
X1044197Y1576025D01*
X1048544Y1575160D01*
X1052976D01*
X1057323Y1576025D01*
X1061418Y1577721D01*
X1065103Y1580183D01*
X1068237Y1583317D01*
X1070699Y1587002D01*
X1072395Y1591097D01*
X1073260Y1595444D01*
Y1599876D01*
X1072395Y1604223D01*
X1070699Y1608318D01*
X1068237Y1612003D01*
X1065103Y1615137D01*
X1061418Y1617599D01*
X1057323Y1619295D01*
X1052976Y1620160D01*
D02*
G37*
G36*
X1564598Y1540500D02*
X1559718D01*
X1554899Y1539737D01*
X1550258Y1538229D01*
X1545911Y1536014D01*
X1541963Y1533145D01*
X1539983Y1531166D01*
X1538003Y1533145D01*
X1534056Y1536014D01*
X1529708Y1538229D01*
X1525067Y1539737D01*
X1520248Y1540500D01*
X1515368D01*
X1510549Y1539737D01*
X1505908Y1538229D01*
X1501561Y1536014D01*
X1497613Y1533145D01*
X1495633Y1531166D01*
X1493653Y1533145D01*
X1489706Y1536014D01*
X1485358Y1538229D01*
X1480717Y1539737D01*
X1475898Y1540500D01*
X1471019D01*
X1466199Y1539737D01*
X1461558Y1538229D01*
X1457211Y1536014D01*
X1453263Y1533145D01*
X1449813Y1529695D01*
X1446945Y1525748D01*
X1444729Y1521400D01*
X1443222Y1516759D01*
X1442458Y1511940D01*
Y1507060D01*
X1443222Y1502241D01*
X1444729Y1497600D01*
X1446945Y1493253D01*
X1449813Y1489305D01*
X1451793Y1487325D01*
X1449813Y1485345D01*
X1446945Y1481398D01*
X1444729Y1477050D01*
X1443222Y1472409D01*
X1442458Y1467590D01*
Y1462710D01*
X1443222Y1457891D01*
X1444729Y1453250D01*
X1446945Y1448902D01*
X1449813Y1444955D01*
X1451793Y1442975D01*
X1449813Y1440995D01*
X1446945Y1437047D01*
X1444729Y1432700D01*
X1443222Y1428059D01*
X1442458Y1423240D01*
Y1418360D01*
X1443222Y1413541D01*
X1444729Y1408900D01*
X1446945Y1404552D01*
X1449813Y1400605D01*
X1453263Y1397155D01*
X1457211Y1394286D01*
X1461558Y1392071D01*
X1466199Y1390563D01*
X1471019Y1389800D01*
X1475898D01*
X1480717Y1390563D01*
X1485358Y1392071D01*
X1489706Y1394286D01*
X1493653Y1397155D01*
X1495633Y1399134D01*
X1497613Y1397155D01*
X1501561Y1394286D01*
X1505908Y1392071D01*
X1510549Y1390563D01*
X1515368Y1389800D01*
X1520248D01*
X1525067Y1390563D01*
X1529708Y1392071D01*
X1534056Y1394286D01*
X1538003Y1397155D01*
X1539983Y1399134D01*
X1541963Y1397155D01*
X1545911Y1394286D01*
X1550258Y1392071D01*
X1554899Y1390563D01*
X1559718Y1389800D01*
X1564598D01*
X1569418Y1390563D01*
X1574058Y1392071D01*
X1578406Y1394286D01*
X1582353Y1397155D01*
X1585804Y1400605D01*
X1588672Y1404552D01*
X1590887Y1408900D01*
X1592395Y1413541D01*
X1593158Y1418360D01*
Y1423240D01*
X1592395Y1428059D01*
X1590887Y1432700D01*
X1588672Y1437047D01*
X1585804Y1440995D01*
X1583824Y1442975D01*
X1585804Y1444955D01*
X1588672Y1448902D01*
X1590887Y1453250D01*
X1592395Y1457891D01*
X1593158Y1462710D01*
Y1467590D01*
X1592395Y1472409D01*
X1590887Y1477050D01*
X1588672Y1481398D01*
X1585804Y1485345D01*
X1583824Y1487325D01*
X1585804Y1489305D01*
X1588672Y1493253D01*
X1590887Y1497600D01*
X1592395Y1502241D01*
X1593158Y1507060D01*
Y1511940D01*
X1592395Y1516759D01*
X1590887Y1521400D01*
X1588672Y1525748D01*
X1585804Y1529695D01*
X1582353Y1533145D01*
X1578406Y1536014D01*
X1574058Y1538229D01*
X1569418Y1539737D01*
X1564598Y1540500D01*
D02*
G37*
G36*
X1052976Y1549040D02*
X1048544D01*
X1044197Y1548175D01*
X1040102Y1546479D01*
X1036417Y1544017D01*
X1033283Y1540883D01*
X1030821Y1537198D01*
X1029125Y1533103D01*
X1028260Y1528756D01*
Y1524324D01*
X1029125Y1519977D01*
X1030821Y1515882D01*
X1033283Y1512197D01*
X1036417Y1509063D01*
X1040102Y1506601D01*
X1044197Y1504905D01*
X1048544Y1504040D01*
X1052976D01*
X1057323Y1504905D01*
X1061418Y1506601D01*
X1065103Y1509063D01*
X1068237Y1512197D01*
X1070699Y1515882D01*
X1072395Y1519977D01*
X1073260Y1524324D01*
Y1528756D01*
X1072395Y1533103D01*
X1070699Y1537198D01*
X1068237Y1540883D01*
X1065103Y1544017D01*
X1061418Y1546479D01*
X1057323Y1548175D01*
X1052976Y1549040D01*
D02*
G37*
G36*
X1564598Y1325200D02*
X1559718D01*
X1554899Y1324437D01*
X1550258Y1322929D01*
X1545911Y1320714D01*
X1541963Y1317845D01*
X1539983Y1315866D01*
X1538003Y1317845D01*
X1534056Y1320714D01*
X1529708Y1322929D01*
X1525067Y1324437D01*
X1520248Y1325200D01*
X1515368D01*
X1510549Y1324437D01*
X1505908Y1322929D01*
X1501561Y1320714D01*
X1497613Y1317845D01*
X1495633Y1315866D01*
X1493653Y1317845D01*
X1489706Y1320714D01*
X1485358Y1322929D01*
X1480717Y1324437D01*
X1475898Y1325200D01*
X1471019D01*
X1466199Y1324437D01*
X1461558Y1322929D01*
X1457211Y1320714D01*
X1453263Y1317845D01*
X1449813Y1314395D01*
X1446945Y1310448D01*
X1444729Y1306100D01*
X1443222Y1301459D01*
X1442458Y1296640D01*
Y1291760D01*
X1443222Y1286941D01*
X1444729Y1282300D01*
X1446945Y1277952D01*
X1449813Y1274005D01*
X1451793Y1272025D01*
X1449813Y1270045D01*
X1446945Y1266097D01*
X1444729Y1261750D01*
X1443222Y1257109D01*
X1442458Y1252290D01*
Y1247410D01*
X1443222Y1242591D01*
X1444729Y1237950D01*
X1446945Y1233603D01*
X1449813Y1229655D01*
X1451793Y1227675D01*
X1449813Y1225695D01*
X1446945Y1221748D01*
X1444729Y1217400D01*
X1443222Y1212759D01*
X1442458Y1207940D01*
Y1203060D01*
X1443222Y1198241D01*
X1444729Y1193600D01*
X1446945Y1189252D01*
X1449813Y1185305D01*
X1453263Y1181854D01*
X1457211Y1178986D01*
X1461558Y1176771D01*
X1466199Y1175263D01*
X1471019Y1174500D01*
X1475898D01*
X1480717Y1175263D01*
X1485358Y1176771D01*
X1489706Y1178986D01*
X1493653Y1181854D01*
X1495633Y1183834D01*
X1497613Y1181854D01*
X1501561Y1178986D01*
X1505908Y1176771D01*
X1510549Y1175263D01*
X1515368Y1174500D01*
X1520248D01*
X1525067Y1175263D01*
X1529708Y1176771D01*
X1534056Y1178986D01*
X1538003Y1181854D01*
X1539983Y1183834D01*
X1541963Y1181854D01*
X1545911Y1178986D01*
X1550258Y1176771D01*
X1554899Y1175263D01*
X1559718Y1174500D01*
X1564598D01*
X1569418Y1175263D01*
X1574058Y1176771D01*
X1578406Y1178986D01*
X1582353Y1181854D01*
X1585804Y1185305D01*
X1588672Y1189252D01*
X1590887Y1193600D01*
X1592395Y1198241D01*
X1593158Y1203060D01*
Y1207940D01*
X1592395Y1212759D01*
X1590887Y1217400D01*
X1588672Y1221748D01*
X1585804Y1225695D01*
X1583824Y1227675D01*
X1585804Y1229655D01*
X1588672Y1233603D01*
X1590887Y1237950D01*
X1592395Y1242591D01*
X1593158Y1247410D01*
Y1252290D01*
X1592395Y1257109D01*
X1590887Y1261750D01*
X1588672Y1266097D01*
X1585804Y1270045D01*
X1583824Y1272025D01*
X1585804Y1274005D01*
X1588672Y1277952D01*
X1590887Y1282300D01*
X1592395Y1286941D01*
X1593158Y1291760D01*
Y1296640D01*
X1592395Y1301459D01*
X1590887Y1306100D01*
X1588672Y1310448D01*
X1585804Y1314395D01*
X1582353Y1317845D01*
X1578406Y1320714D01*
X1574058Y1322929D01*
X1569418Y1324437D01*
X1564598Y1325200D01*
D02*
G37*
G36*
X990395Y1414070D02*
X983185D01*
X976037Y1413129D01*
X969073Y1411263D01*
X962412Y1408504D01*
X956168Y1404899D01*
X950448Y1400510D01*
X945350Y1395412D01*
X940961Y1389692D01*
X937356Y1383448D01*
X934597Y1376787D01*
X932731Y1369823D01*
X931790Y1362675D01*
Y1355465D01*
X932731Y1348317D01*
X934597Y1341353D01*
X937356Y1334692D01*
X940961Y1328448D01*
X945350Y1322728D01*
X950448Y1317630D01*
X956168Y1313241D01*
X962412Y1309636D01*
X969073Y1306877D01*
X976037Y1305011D01*
X983185Y1304070D01*
X990395D01*
X997543Y1305011D01*
X1004507Y1306877D01*
X1011168Y1309636D01*
X1017412Y1313241D01*
X1023132Y1317630D01*
X1028230Y1322728D01*
X1032619Y1328448D01*
X1036224Y1334692D01*
X1038983Y1341353D01*
X1040849Y1348317D01*
X1041790Y1355465D01*
Y1362675D01*
X1040849Y1369823D01*
X1038983Y1376787D01*
X1036224Y1383448D01*
X1032619Y1389692D01*
X1028230Y1395412D01*
X1023132Y1400510D01*
X1017412Y1404899D01*
X1011168Y1408504D01*
X1004507Y1411263D01*
X997543Y1413129D01*
X990395Y1414070D01*
D02*
G37*
G36*
X1052976Y1273450D02*
X1048544D01*
X1044197Y1272585D01*
X1040102Y1270889D01*
X1036417Y1268427D01*
X1033283Y1265293D01*
X1030821Y1261608D01*
X1029125Y1257513D01*
X1028260Y1253166D01*
Y1248734D01*
X1029125Y1244387D01*
X1030821Y1240292D01*
X1033283Y1236607D01*
X1036417Y1233473D01*
X1040102Y1231011D01*
X1044197Y1229315D01*
X1048544Y1228450D01*
X1052976D01*
X1057323Y1229315D01*
X1061418Y1231011D01*
X1065103Y1233473D01*
X1068237Y1236607D01*
X1070699Y1240292D01*
X1072395Y1244387D01*
X1073260Y1248734D01*
Y1253166D01*
X1072395Y1257513D01*
X1070699Y1261608D01*
X1068237Y1265293D01*
X1065103Y1268427D01*
X1061418Y1270889D01*
X1057323Y1272585D01*
X1052976Y1273450D01*
D02*
G37*
G36*
X1249372Y1278060D02*
X1244650D01*
X1239986Y1277321D01*
X1235495Y1275862D01*
X1231288Y1273718D01*
X1227467Y1270943D01*
X1224128Y1267604D01*
X1221353Y1263783D01*
X1219209Y1259576D01*
X1217750Y1255085D01*
X1217011Y1250421D01*
Y1245699D01*
X1217750Y1241035D01*
X1219209Y1236544D01*
X1221353Y1232337D01*
X1224128Y1228516D01*
X1227467Y1225177D01*
X1231288Y1222402D01*
X1235495Y1220258D01*
X1239986Y1218799D01*
X1244650Y1218060D01*
X1249372D01*
X1254036Y1218799D01*
X1258527Y1220258D01*
X1262734Y1222402D01*
X1266555Y1225177D01*
X1269894Y1228516D01*
X1272669Y1232337D01*
X1274813Y1236544D01*
X1276272Y1241035D01*
X1277011Y1245699D01*
Y1250421D01*
X1276272Y1255085D01*
X1274813Y1259576D01*
X1272669Y1263783D01*
X1269894Y1267604D01*
X1266555Y1270943D01*
X1262734Y1273718D01*
X1258527Y1275862D01*
X1254036Y1277321D01*
X1249372Y1278060D01*
D02*
G37*
G36*
X1052976Y1202330D02*
X1048544D01*
X1044197Y1201465D01*
X1040102Y1199769D01*
X1036417Y1197307D01*
X1033283Y1194173D01*
X1030821Y1190488D01*
X1029125Y1186393D01*
X1028260Y1182046D01*
Y1177614D01*
X1029125Y1173267D01*
X1030821Y1169172D01*
X1033283Y1165487D01*
X1036417Y1162353D01*
X1040102Y1159891D01*
X1044197Y1158195D01*
X1048544Y1157330D01*
X1052976D01*
X1057323Y1158195D01*
X1061418Y1159891D01*
X1065103Y1162353D01*
X1068237Y1165487D01*
X1070699Y1169172D01*
X1072395Y1173267D01*
X1073260Y1177614D01*
Y1182046D01*
X1072395Y1186393D01*
X1070699Y1190488D01*
X1068237Y1194173D01*
X1065103Y1197307D01*
X1061418Y1199769D01*
X1057323Y1201465D01*
X1052976Y1202330D01*
D02*
G37*
G36*
X1355326Y1203060D02*
X1350604D01*
X1345940Y1202321D01*
X1341449Y1200862D01*
X1337242Y1198718D01*
X1333421Y1195943D01*
X1330082Y1192604D01*
X1327307Y1188783D01*
X1325163Y1184576D01*
X1323704Y1180085D01*
X1322965Y1175421D01*
Y1170699D01*
X1323704Y1166035D01*
X1325163Y1161544D01*
X1327307Y1157337D01*
X1330082Y1153516D01*
X1333421Y1150177D01*
X1337242Y1147402D01*
X1341449Y1145258D01*
X1345940Y1143799D01*
X1349864Y1143177D01*
X1350185Y1141841D01*
X1346908Y1139460D01*
X1345905Y1138457D01*
X1344902Y1139460D01*
X1340764Y1142467D01*
X1336206Y1144789D01*
X1331340Y1146370D01*
X1326288Y1147170D01*
X1321172D01*
X1316120Y1146370D01*
X1311254Y1144789D01*
X1306696Y1142467D01*
X1302558Y1139460D01*
X1301555Y1138457D01*
X1300552Y1139460D01*
X1296414Y1142467D01*
X1291856Y1144789D01*
X1286990Y1146370D01*
X1281938Y1147170D01*
X1276822D01*
X1271770Y1146370D01*
X1266904Y1144789D01*
X1262346Y1142467D01*
X1258208Y1139460D01*
X1254590Y1135842D01*
X1251583Y1131704D01*
X1249428Y1127473D01*
X1248932Y1127341D01*
X1248528D01*
X1248032Y1127473D01*
X1245876Y1131704D01*
X1242870Y1135842D01*
X1239252Y1139460D01*
X1235114Y1142467D01*
X1230556Y1144789D01*
X1225690Y1146370D01*
X1220638Y1147170D01*
X1215522D01*
X1210470Y1146370D01*
X1205604Y1144789D01*
X1201046Y1142467D01*
X1196908Y1139460D01*
X1195905Y1138457D01*
X1194902Y1139460D01*
X1190764Y1142467D01*
X1186206Y1144789D01*
X1181340Y1146370D01*
X1176288Y1147170D01*
X1171172D01*
X1166515Y1146432D01*
X1166015Y1147639D01*
X1169509Y1150177D01*
X1172848Y1153516D01*
X1175623Y1157337D01*
X1177767Y1161544D01*
X1179226Y1166035D01*
X1179965Y1170699D01*
Y1175421D01*
X1179226Y1180085D01*
X1177767Y1184576D01*
X1175623Y1188783D01*
X1172848Y1192604D01*
X1169509Y1195943D01*
X1165688Y1198718D01*
X1161481Y1200862D01*
X1156990Y1202321D01*
X1152326Y1203060D01*
X1147604D01*
X1142940Y1202321D01*
X1138449Y1200862D01*
X1134241Y1198718D01*
X1130421Y1195943D01*
X1127082Y1192604D01*
X1124307Y1188783D01*
X1122163Y1184576D01*
X1120704Y1180085D01*
X1119965Y1175421D01*
Y1170699D01*
X1120704Y1166035D01*
X1122163Y1161544D01*
X1124307Y1157337D01*
X1127082Y1153516D01*
X1130421Y1150177D01*
X1133028Y1148283D01*
X1132529Y1147076D01*
X1131938Y1147170D01*
X1126822D01*
X1121770Y1146370D01*
X1116904Y1144789D01*
X1112346Y1142467D01*
X1108208Y1139460D01*
X1104590Y1135842D01*
X1101583Y1131704D01*
X1099261Y1127146D01*
X1097680Y1122280D01*
X1096880Y1117228D01*
Y1112112D01*
X1097680Y1107060D01*
X1099261Y1102194D01*
X1101583Y1097636D01*
X1104590Y1093498D01*
X1105593Y1092495D01*
X1104590Y1091492D01*
X1101583Y1087354D01*
X1099261Y1082796D01*
X1097680Y1077930D01*
X1096880Y1072878D01*
Y1067762D01*
X1097680Y1062710D01*
X1099261Y1057844D01*
X1101583Y1053286D01*
X1104590Y1049148D01*
X1105593Y1048145D01*
X1104590Y1047142D01*
X1101583Y1043004D01*
X1099261Y1038446D01*
X1097680Y1033580D01*
X1096880Y1028528D01*
Y1023412D01*
X1097680Y1018360D01*
X1099261Y1013494D01*
X1101583Y1008936D01*
X1104590Y1004798D01*
X1108208Y1001180D01*
X1112346Y998174D01*
X1116904Y995851D01*
X1121770Y994270D01*
X1126822Y993470D01*
X1131938D01*
X1136990Y994270D01*
X1140711Y995479D01*
X1141549Y994416D01*
X1140214Y992237D01*
X1137955Y986784D01*
X1136577Y981044D01*
X1136114Y975160D01*
Y950160D01*
X1136577Y944276D01*
X1137955Y938536D01*
X1140214Y933083D01*
X1143298Y928050D01*
X1147132Y923561D01*
X1151620Y919728D01*
X1156653Y916644D01*
X1162106Y914385D01*
X1166572Y913313D01*
Y912007D01*
X1162106Y910935D01*
X1156653Y908676D01*
X1151620Y905592D01*
X1147132Y901758D01*
X1143298Y897270D01*
X1140214Y892237D01*
X1137955Y886784D01*
X1136577Y881044D01*
X1136114Y875160D01*
Y850160D01*
X1136577Y844276D01*
X1137955Y838536D01*
X1140214Y833083D01*
X1143298Y828050D01*
X1147132Y823561D01*
X1151620Y819728D01*
X1156653Y816644D01*
X1162106Y814385D01*
X1167846Y813007D01*
X1173730Y812544D01*
X1179614Y813007D01*
X1185354Y814385D01*
X1190807Y816644D01*
X1195840Y819728D01*
X1200329Y823561D01*
X1204162Y828050D01*
X1207246Y833083D01*
X1209505Y838536D01*
X1210883Y844276D01*
X1211346Y850160D01*
Y875160D01*
X1210883Y881044D01*
X1209505Y886784D01*
X1207246Y892237D01*
X1204162Y897270D01*
X1200329Y901758D01*
X1195840Y905592D01*
X1190807Y908676D01*
X1185354Y910935D01*
X1180889Y912007D01*
Y913313D01*
X1185354Y914385D01*
X1190807Y916644D01*
X1195840Y919728D01*
X1200329Y923561D01*
X1204162Y928050D01*
X1207246Y933083D01*
X1209505Y938536D01*
X1210883Y944276D01*
X1211346Y950160D01*
Y975160D01*
X1210883Y981044D01*
X1209505Y986784D01*
X1207246Y992237D01*
X1205911Y994416D01*
X1206749Y995479D01*
X1210470Y994270D01*
X1215522Y993470D01*
X1220638D01*
X1225690Y994270D01*
X1230556Y995851D01*
X1235114Y998174D01*
X1239252Y1001180D01*
X1242870Y1004798D01*
X1245876Y1008936D01*
X1248032Y1013167D01*
X1248528Y1013299D01*
X1248932D01*
X1249428Y1013167D01*
X1251583Y1008936D01*
X1254590Y1004798D01*
X1258208Y1001180D01*
X1262346Y998174D01*
X1266904Y995851D01*
X1271770Y994270D01*
X1276822Y993470D01*
X1281938D01*
X1286990Y994270D01*
X1291856Y995851D01*
X1296414Y998174D01*
X1300552Y1001180D01*
X1301555Y1002183D01*
X1302558Y1001180D01*
X1306696Y998174D01*
X1311254Y995851D01*
X1316120Y994270D01*
X1321172Y993470D01*
X1326288D01*
X1331340Y994270D01*
X1336206Y995851D01*
X1340764Y998174D01*
X1344902Y1001180D01*
X1345905Y1002183D01*
X1346908Y1001180D01*
X1351046Y998174D01*
X1355604Y995851D01*
X1360470Y994270D01*
X1365522Y993470D01*
X1370638D01*
X1375690Y994270D01*
X1380556Y995851D01*
X1385114Y998174D01*
X1389252Y1001180D01*
X1392870Y1004798D01*
X1395876Y1008936D01*
X1398199Y1013494D01*
X1399780Y1018360D01*
X1400580Y1023412D01*
Y1028528D01*
X1399780Y1033580D01*
X1398199Y1038446D01*
X1395876Y1043004D01*
X1392870Y1047142D01*
X1391867Y1048145D01*
X1392870Y1049148D01*
X1395876Y1053286D01*
X1398199Y1057844D01*
X1399780Y1062710D01*
X1400580Y1067762D01*
Y1072878D01*
X1399780Y1077930D01*
X1398199Y1082796D01*
X1395876Y1087354D01*
X1392870Y1091492D01*
X1391867Y1092495D01*
X1392870Y1093498D01*
X1395876Y1097636D01*
X1398199Y1102194D01*
X1399780Y1107060D01*
X1400580Y1112112D01*
Y1117228D01*
X1399780Y1122280D01*
X1398199Y1127146D01*
X1395876Y1131704D01*
X1392870Y1135842D01*
X1389252Y1139460D01*
X1385114Y1142467D01*
X1380556Y1144789D01*
X1375690Y1146370D01*
X1370638Y1147170D01*
X1370530D01*
X1370117Y1148440D01*
X1372509Y1150177D01*
X1375848Y1153516D01*
X1378623Y1157337D01*
X1380767Y1161544D01*
X1382226Y1166035D01*
X1382965Y1170699D01*
Y1175421D01*
X1382226Y1180085D01*
X1380767Y1184576D01*
X1378623Y1188783D01*
X1375848Y1192604D01*
X1372509Y1195943D01*
X1368688Y1198718D01*
X1364481Y1200862D01*
X1359990Y1202321D01*
X1355326Y1203060D01*
D02*
G37*
G36*
X1624044Y973650D02*
X1619716D01*
X1615440Y972973D01*
X1611324Y971635D01*
X1607467Y969670D01*
X1603965Y967126D01*
X1600904Y964065D01*
X1598360Y960563D01*
X1597115Y958120D01*
X1595845D01*
X1594600Y960563D01*
X1592056Y964065D01*
X1588995Y967126D01*
X1585493Y969670D01*
X1581636Y971635D01*
X1577520Y972973D01*
X1573244Y973650D01*
X1568916D01*
X1564640Y972973D01*
X1560524Y971635D01*
X1556667Y969670D01*
X1553165Y967126D01*
X1550104Y964065D01*
X1547560Y960563D01*
X1546315Y958120D01*
X1545045D01*
X1543800Y960563D01*
X1541256Y964065D01*
X1538195Y967126D01*
X1534693Y969670D01*
X1530836Y971635D01*
X1526720Y972973D01*
X1522444Y973650D01*
X1518116D01*
X1513840Y972973D01*
X1509724Y971635D01*
X1505867Y969670D01*
X1502365Y967126D01*
X1499304Y964065D01*
X1496760Y960563D01*
X1494795Y956706D01*
X1493457Y952590D01*
X1492780Y948314D01*
Y943986D01*
X1493457Y939710D01*
X1494795Y935594D01*
X1496760Y931737D01*
X1499304Y928235D01*
X1502365Y925174D01*
X1505867Y922630D01*
X1509724Y920665D01*
X1513840Y919327D01*
X1518116Y918650D01*
X1522444D01*
X1526720Y919327D01*
X1530836Y920665D01*
X1534693Y922630D01*
X1538195Y925174D01*
X1541256Y928235D01*
X1543800Y931737D01*
X1545045Y934180D01*
X1546315D01*
X1547560Y931737D01*
X1550104Y928235D01*
X1553165Y925174D01*
X1556667Y922630D01*
X1560524Y920665D01*
X1564640Y919327D01*
X1568916Y918650D01*
X1573244D01*
X1577520Y919327D01*
X1581636Y920665D01*
X1585493Y922630D01*
X1588995Y925174D01*
X1592056Y928235D01*
X1594600Y931737D01*
X1595845Y934180D01*
X1597115D01*
X1598360Y931737D01*
X1600904Y928235D01*
X1603965Y925174D01*
X1607467Y922630D01*
X1611324Y920665D01*
X1615440Y919327D01*
X1619716Y918650D01*
X1624044D01*
X1628320Y919327D01*
X1632436Y920665D01*
X1636293Y922630D01*
X1639795Y925174D01*
X1642856Y928235D01*
X1645400Y931737D01*
X1647365Y935594D01*
X1648703Y939710D01*
X1649380Y943986D01*
Y948314D01*
X1648703Y952590D01*
X1647365Y956706D01*
X1645400Y960563D01*
X1642856Y964065D01*
X1639795Y967126D01*
X1636293Y969670D01*
X1632436Y971635D01*
X1628320Y972973D01*
X1624044Y973650D01*
D02*
G37*
G36*
X776201Y983667D02*
X771709Y983075D01*
X767419Y981619D01*
X763495Y979354D01*
X760089Y976367D01*
X757331Y972772D01*
X755327Y968709D01*
X754155Y964333D01*
X753858Y959812D01*
X754450Y955320D01*
X755906Y951030D01*
X758171Y947106D01*
X761158Y943700D01*
X764753Y940942D01*
X768816Y938938D01*
X773192Y937765D01*
X777713Y937469D01*
X782205Y938061D01*
X786495Y939517D01*
X790419Y941782D01*
X793825Y944769D01*
X796583Y948364D01*
X798587Y952427D01*
X799760Y956803D01*
X800056Y961324D01*
X799465Y965816D01*
X798008Y970106D01*
X795743Y974030D01*
X792756Y977436D01*
X789161Y980194D01*
X785098Y982198D01*
X780722Y983371D01*
X776201Y983667D01*
D02*
G37*
G36*
X1624044Y897450D02*
X1619716D01*
X1615440Y896773D01*
X1611324Y895435D01*
X1607467Y893470D01*
X1603965Y890926D01*
X1600904Y887865D01*
X1598360Y884363D01*
X1597115Y881920D01*
X1595845D01*
X1594600Y884363D01*
X1592056Y887865D01*
X1588995Y890926D01*
X1585493Y893470D01*
X1581636Y895435D01*
X1577520Y896773D01*
X1573244Y897450D01*
X1568916D01*
X1564640Y896773D01*
X1560524Y895435D01*
X1556667Y893470D01*
X1553165Y890926D01*
X1550104Y887865D01*
X1547560Y884363D01*
X1546315Y881920D01*
X1545045D01*
X1543800Y884363D01*
X1541256Y887865D01*
X1538195Y890926D01*
X1534693Y893470D01*
X1530836Y895435D01*
X1526720Y896773D01*
X1522444Y897450D01*
X1518116D01*
X1513840Y896773D01*
X1509724Y895435D01*
X1505867Y893470D01*
X1502365Y890926D01*
X1499304Y887865D01*
X1496760Y884363D01*
X1494795Y880506D01*
X1493457Y876390D01*
X1492780Y872114D01*
Y867786D01*
X1493457Y863510D01*
X1494795Y859394D01*
X1496760Y855537D01*
X1499304Y852035D01*
X1502365Y848974D01*
X1505867Y846430D01*
X1509724Y844465D01*
X1513840Y843127D01*
X1518116Y842450D01*
X1522444D01*
X1526720Y843127D01*
X1530836Y844465D01*
X1534693Y846430D01*
X1538195Y848974D01*
X1541256Y852035D01*
X1543800Y855537D01*
X1545045Y857980D01*
X1546315D01*
X1547560Y855537D01*
X1550104Y852035D01*
X1553165Y848974D01*
X1556667Y846430D01*
X1560524Y844465D01*
X1564640Y843127D01*
X1568916Y842450D01*
X1573244D01*
X1577520Y843127D01*
X1581636Y844465D01*
X1585493Y846430D01*
X1588995Y848974D01*
X1592056Y852035D01*
X1594600Y855537D01*
X1595845Y857980D01*
X1597115D01*
X1598360Y855537D01*
X1600904Y852035D01*
X1603965Y848974D01*
X1607467Y846430D01*
X1611324Y844465D01*
X1615440Y843127D01*
X1619716Y842450D01*
X1624044D01*
X1628320Y843127D01*
X1632436Y844465D01*
X1636293Y846430D01*
X1637186Y847079D01*
X1638278Y846430D01*
X1637750Y842419D01*
Y836521D01*
X1638520Y830672D01*
X1640047Y824974D01*
X1642304Y819524D01*
X1645254Y814416D01*
X1648845Y809736D01*
X1653016Y805565D01*
X1657696Y801974D01*
X1662804Y799024D01*
X1668254Y796767D01*
X1673952Y795240D01*
X1679801Y794470D01*
X1685699D01*
X1691548Y795240D01*
X1697246Y796767D01*
X1702696Y799024D01*
X1707804Y801974D01*
X1712484Y805565D01*
X1716655Y809736D01*
X1720246Y814416D01*
X1723196Y819524D01*
X1725453Y824974D01*
X1726980Y830672D01*
X1727750Y836521D01*
Y842419D01*
X1726980Y848268D01*
X1725453Y853966D01*
X1723196Y859416D01*
X1720246Y864524D01*
X1716655Y869204D01*
X1712484Y873375D01*
X1707804Y876966D01*
X1702696Y879916D01*
X1697246Y882173D01*
X1691548Y883700D01*
X1685699Y884470D01*
X1679801D01*
X1673952Y883700D01*
X1668254Y882173D01*
X1662804Y879916D01*
X1657696Y876966D01*
X1653016Y873375D01*
X1650553Y870913D01*
X1649380Y871399D01*
Y872114D01*
X1648703Y876390D01*
X1647365Y880506D01*
X1645400Y884363D01*
X1642856Y887865D01*
X1639795Y890926D01*
X1636293Y893470D01*
X1632436Y895435D01*
X1628320Y896773D01*
X1624044Y897450D01*
D02*
G37*
G36*
X874339Y957371D02*
X869847Y956779D01*
X865557Y955323D01*
X861633Y953058D01*
X858227Y950071D01*
X855469Y946476D01*
X853465Y942413D01*
X852293Y938037D01*
X851996Y933516D01*
X852588Y929024D01*
X854044Y924734D01*
X856309Y920810D01*
X857847Y919057D01*
X856309Y917303D01*
X854044Y913380D01*
X852588Y909089D01*
X851996Y904597D01*
X852293Y900077D01*
X853465Y895700D01*
X855469Y891637D01*
X858227Y888043D01*
X861633Y885055D01*
X865557Y882790D01*
X869847Y881334D01*
X874339Y880742D01*
X878860Y881039D01*
X883236Y882211D01*
X887299Y884215D01*
X890894Y886973D01*
X893881Y890380D01*
X896146Y894303D01*
X897603Y898593D01*
X898194Y903085D01*
X897898Y907606D01*
X896725Y911982D01*
X894721Y916046D01*
X892411Y919057D01*
X894721Y922068D01*
X896725Y926131D01*
X897898Y930507D01*
X898194Y935028D01*
X897603Y939520D01*
X896146Y943810D01*
X893881Y947734D01*
X890894Y951140D01*
X887299Y953898D01*
X883236Y955902D01*
X878860Y957075D01*
X874339Y957371D01*
D02*
G37*
G36*
X538935D02*
X534414Y957075D01*
X530038Y955902D01*
X525975Y953898D01*
X522380Y951140D01*
X519393Y947734D01*
X517128Y943810D01*
X515672Y939520D01*
X515080Y935028D01*
X515377Y930507D01*
X516549Y926131D01*
X518553Y922068D01*
X520863Y919057D01*
X518553Y916046D01*
X516549Y911982D01*
X515377Y907606D01*
X515080Y903085D01*
X515672Y898593D01*
X517128Y894303D01*
X519393Y890380D01*
X522380Y886973D01*
X525975Y884215D01*
X530038Y882211D01*
X534414Y881039D01*
X538935Y880742D01*
X543427Y881334D01*
X547717Y882790D01*
X551641Y885055D01*
X555047Y888043D01*
X557805Y891637D01*
X559809Y895700D01*
X560982Y900077D01*
X561278Y904597D01*
X560687Y909089D01*
X559230Y913380D01*
X556965Y917303D01*
X555427Y919057D01*
X556965Y920810D01*
X559230Y924734D01*
X560687Y929024D01*
X561278Y933516D01*
X560982Y938037D01*
X559809Y942413D01*
X557805Y946476D01*
X555047Y950071D01*
X551641Y953058D01*
X547717Y955323D01*
X543427Y956779D01*
X538935Y957371D01*
D02*
G37*
G36*
X1915350Y979296D02*
X1907350D01*
X1902253Y978794D01*
X1897352Y977307D01*
X1892835Y974893D01*
X1888876Y971644D01*
X1885627Y967685D01*
X1883213Y963168D01*
X1881726Y958267D01*
X1881224Y953170D01*
X1881726Y948073D01*
X1883213Y943172D01*
X1885627Y938655D01*
X1888876Y934696D01*
X1892835Y931447D01*
X1897352Y929033D01*
X1899422Y928405D01*
Y927135D01*
X1897352Y926507D01*
X1892835Y924093D01*
X1888876Y920844D01*
X1885627Y916885D01*
X1883213Y912368D01*
X1881726Y907467D01*
X1881224Y902370D01*
X1881726Y897273D01*
X1883213Y892372D01*
X1885627Y887855D01*
X1888876Y883896D01*
X1892835Y880647D01*
X1897352Y878233D01*
X1902253Y876746D01*
X1907350Y876244D01*
X1915350D01*
X1920447Y876746D01*
X1925348Y878233D01*
X1929865Y880647D01*
X1933824Y883896D01*
X1937073Y887855D01*
X1939487Y892372D01*
X1940974Y897273D01*
X1941476Y902370D01*
X1940974Y907467D01*
X1939487Y912368D01*
X1937073Y916885D01*
X1933824Y920844D01*
X1929865Y924093D01*
X1925348Y926507D01*
X1923278Y927135D01*
Y928405D01*
X1925348Y929033D01*
X1929865Y931447D01*
X1933824Y934696D01*
X1937073Y938655D01*
X1939487Y943172D01*
X1940974Y948073D01*
X1941476Y953170D01*
X1940974Y958267D01*
X1939487Y963168D01*
X1937073Y967685D01*
X1933824Y971644D01*
X1929865Y974893D01*
X1925348Y977307D01*
X1920447Y978794D01*
X1915350Y979296D01*
D02*
G37*
G36*
X945790Y960560D02*
X900790D01*
Y915560D01*
X900790D01*
X900900Y915427D01*
X900790Y914876D01*
Y910444D01*
X901655Y906097D01*
X903351Y902002D01*
X904715Y899960D01*
X903351Y897918D01*
X901655Y893823D01*
X900790Y889476D01*
Y885044D01*
X901655Y880697D01*
X903351Y876602D01*
X905813Y872917D01*
X908947Y869783D01*
X912632Y867321D01*
X916727Y865625D01*
X921074Y864760D01*
X925506D01*
X929853Y865625D01*
X933948Y867321D01*
X937633Y869783D01*
X940767Y872917D01*
X942810Y875975D01*
X944690D01*
X946169Y874761D01*
X950078Y872672D01*
X954319Y871386D01*
X958730Y870951D01*
X960730D01*
X965141Y871386D01*
X969382Y872672D01*
X973291Y874761D01*
X976717Y877573D01*
X979529Y880999D01*
X981618Y884908D01*
X982905Y889149D01*
X983339Y893560D01*
X982905Y897971D01*
X981618Y902212D01*
X981138Y903110D01*
X981618Y904008D01*
X982904Y908249D01*
X983339Y912660D01*
X982904Y917071D01*
X981618Y921312D01*
X981138Y922210D01*
X981618Y923108D01*
X982904Y927349D01*
X983339Y931760D01*
X982904Y936171D01*
X981618Y940412D01*
X979529Y944321D01*
X976717Y947747D01*
X973291Y950559D01*
X969382Y952648D01*
X965141Y953934D01*
X960730Y954369D01*
X958730D01*
X954319Y953934D01*
X950078Y952648D01*
X947060Y951035D01*
X945790Y951796D01*
Y960560D01*
D02*
G37*
G36*
X1782756Y911970D02*
X1778324D01*
X1773977Y911105D01*
X1769882Y909409D01*
X1766197Y906947D01*
X1763063Y903813D01*
X1760601Y900128D01*
X1758905Y896033D01*
X1758040Y891686D01*
Y887254D01*
X1758905Y882907D01*
X1760601Y878812D01*
X1763063Y875127D01*
X1766197Y871993D01*
X1769882Y869531D01*
X1773977Y867835D01*
X1778324Y866970D01*
X1782756D01*
X1787103Y867835D01*
X1791198Y869531D01*
X1794883Y871993D01*
X1798017Y875127D01*
X1800479Y878812D01*
X1802175Y882907D01*
X1803040Y887254D01*
Y891686D01*
X1802175Y896033D01*
X1800479Y900128D01*
X1798017Y903813D01*
X1794883Y906947D01*
X1791198Y909409D01*
X1787103Y911105D01*
X1782756Y911970D01*
D02*
G37*
G36*
X1844914Y916970D02*
X1840586D01*
X1836310Y916293D01*
X1832194Y914955D01*
X1828337Y912990D01*
X1824835Y910446D01*
X1821774Y907385D01*
X1819230Y903883D01*
X1817265Y900026D01*
X1815927Y895910D01*
X1815250Y891634D01*
Y887306D01*
X1815927Y883030D01*
X1817265Y878914D01*
X1819230Y875057D01*
X1821774Y871555D01*
X1824835Y868494D01*
X1828337Y865950D01*
X1832194Y863985D01*
X1836310Y862647D01*
X1840586Y861970D01*
X1844914D01*
X1849190Y862647D01*
X1853306Y863985D01*
X1857163Y865950D01*
X1860665Y868494D01*
X1863726Y871555D01*
X1866270Y875057D01*
X1868235Y878914D01*
X1869573Y883030D01*
X1870250Y887306D01*
Y891634D01*
X1869573Y895910D01*
X1868235Y900026D01*
X1866270Y903883D01*
X1863726Y907385D01*
X1860665Y910446D01*
X1857163Y912990D01*
X1853306Y914955D01*
X1849190Y916293D01*
X1844914Y916970D01*
D02*
G37*
G36*
X635561Y900644D02*
X631069Y900053D01*
X626779Y898597D01*
X622855Y896331D01*
X619449Y893344D01*
X616691Y889750D01*
X614687Y885686D01*
X613515Y881310D01*
X613218Y876789D01*
X613810Y872297D01*
X615266Y868007D01*
X617531Y864083D01*
X619069Y862330D01*
X617531Y860576D01*
X615266Y856653D01*
X613810Y852363D01*
X613218Y847871D01*
X613515Y843350D01*
X614687Y838974D01*
X616691Y834910D01*
X619449Y831316D01*
X622855Y828329D01*
X626779Y826064D01*
X631069Y824607D01*
X635561Y824016D01*
X640082Y824312D01*
X644458Y825485D01*
X648521Y827489D01*
X652116Y830247D01*
X655103Y833653D01*
X657368Y837577D01*
X658825Y841867D01*
X659416Y846358D01*
X659120Y850879D01*
X657947Y855256D01*
X655943Y859319D01*
X653633Y862330D01*
X655943Y865341D01*
X657947Y869404D01*
X659120Y873781D01*
X659416Y878301D01*
X658825Y882793D01*
X657368Y887084D01*
X655103Y891007D01*
X652116Y894413D01*
X648521Y897171D01*
X644458Y899175D01*
X640082Y900348D01*
X635561Y900644D01*
D02*
G37*
G36*
X777713D02*
X773192Y900348D01*
X768816Y899175D01*
X764753Y897171D01*
X761158Y894413D01*
X758171Y891007D01*
X755906Y887084D01*
X754450Y882793D01*
X753858Y878301D01*
X754155Y873781D01*
X755327Y869404D01*
X757331Y865341D01*
X759641Y862330D01*
X757331Y859319D01*
X755327Y855256D01*
X754155Y850879D01*
X753858Y846358D01*
X754450Y841867D01*
X755906Y837577D01*
X758171Y833653D01*
X761158Y830247D01*
X764753Y827488D01*
X768816Y825485D01*
X773192Y824312D01*
X777713Y824016D01*
X782205Y824607D01*
X786495Y826063D01*
X790419Y828329D01*
X793825Y831316D01*
X796583Y834910D01*
X798587Y838974D01*
X799760Y843350D01*
X800056Y847871D01*
X799465Y852363D01*
X798008Y856653D01*
X795743Y860576D01*
X794205Y862330D01*
X795743Y864083D01*
X798008Y868007D01*
X799465Y872297D01*
X800056Y876789D01*
X799760Y881310D01*
X798587Y885686D01*
X796583Y889750D01*
X793825Y893344D01*
X790419Y896331D01*
X786495Y898597D01*
X782205Y900053D01*
X777713Y900644D01*
D02*
G37*
G36*
X1101429Y818165D02*
X1097101D01*
X1092825Y817488D01*
X1088709Y816150D01*
X1084852Y814185D01*
X1081350Y811641D01*
X1078289Y808580D01*
X1075745Y805078D01*
X1074500Y802635D01*
X1073230D01*
X1071985Y805078D01*
X1069441Y808580D01*
X1066380Y811641D01*
X1062878Y814185D01*
X1059021Y816150D01*
X1054904Y817488D01*
X1050629Y818165D01*
X1046301D01*
X1042025Y817488D01*
X1037909Y816150D01*
X1034052Y814185D01*
X1030550Y811641D01*
X1027489Y808580D01*
X1024945Y805078D01*
X1023700Y802635D01*
X1022430D01*
X1021185Y805078D01*
X1018641Y808580D01*
X1015580Y811641D01*
X1012078Y814185D01*
X1008221Y816150D01*
X1004105Y817488D01*
X999829Y818165D01*
X995501D01*
X991225Y817488D01*
X987109Y816150D01*
X983252Y814185D01*
X979750Y811641D01*
X976689Y808580D01*
X974145Y805078D01*
X972180Y801221D01*
X970842Y797105D01*
X970165Y792830D01*
Y788501D01*
X970842Y784226D01*
X972180Y780109D01*
X974145Y776252D01*
X976689Y772750D01*
X979750Y769689D01*
X983252Y767145D01*
X987109Y765180D01*
X991225Y763842D01*
X995501Y763165D01*
X999829D01*
X1004105Y763842D01*
X1008221Y765180D01*
X1012078Y767145D01*
X1015580Y769689D01*
X1018641Y772750D01*
X1021185Y776252D01*
X1022430Y778695D01*
X1023700D01*
X1024945Y776252D01*
X1027489Y772750D01*
X1030550Y769689D01*
X1034052Y767145D01*
X1037909Y765180D01*
X1042025Y763842D01*
X1046301Y763165D01*
X1050629D01*
X1054904Y763842D01*
X1059021Y765180D01*
X1062878Y767145D01*
X1066380Y769689D01*
X1069441Y772750D01*
X1071985Y776252D01*
X1073230Y778695D01*
X1074500D01*
X1075745Y776252D01*
X1078289Y772750D01*
X1081350Y769689D01*
X1084852Y767145D01*
X1088709Y765180D01*
X1092825Y763842D01*
X1097101Y763165D01*
X1101429D01*
X1105704Y763842D01*
X1109821Y765180D01*
X1113678Y767145D01*
X1117180Y769689D01*
X1120241Y772750D01*
X1122785Y776252D01*
X1124750Y780109D01*
X1126088Y784226D01*
X1126765Y788501D01*
Y792830D01*
X1126088Y797105D01*
X1124750Y801221D01*
X1122785Y805078D01*
X1120241Y808580D01*
X1117180Y811641D01*
X1113678Y814185D01*
X1109821Y816150D01*
X1105704Y817488D01*
X1101429Y818165D01*
D02*
G37*
G36*
X1624044Y817440D02*
X1619716D01*
X1615440Y816763D01*
X1611324Y815425D01*
X1607467Y813460D01*
X1603965Y810916D01*
X1600904Y807855D01*
X1598360Y804353D01*
X1597115Y801910D01*
X1595845D01*
X1594600Y804353D01*
X1592056Y807855D01*
X1588995Y810916D01*
X1585493Y813460D01*
X1581636Y815425D01*
X1577520Y816763D01*
X1573244Y817440D01*
X1568916D01*
X1564640Y816763D01*
X1560524Y815425D01*
X1556667Y813460D01*
X1553165Y810916D01*
X1550104Y807855D01*
X1547560Y804353D01*
X1546315Y801910D01*
X1545045D01*
X1543800Y804353D01*
X1541256Y807855D01*
X1538195Y810916D01*
X1534693Y813460D01*
X1530836Y815425D01*
X1526720Y816763D01*
X1522444Y817440D01*
X1518116D01*
X1513840Y816763D01*
X1509724Y815425D01*
X1505867Y813460D01*
X1502365Y810916D01*
X1499304Y807855D01*
X1496760Y804353D01*
X1494795Y800496D01*
X1493457Y796380D01*
X1492780Y792104D01*
Y787776D01*
X1493457Y783500D01*
X1494795Y779384D01*
X1496760Y775527D01*
X1499304Y772025D01*
X1502365Y768964D01*
X1505867Y766420D01*
X1509724Y764455D01*
X1513840Y763117D01*
X1518116Y762440D01*
X1522444D01*
X1526720Y763117D01*
X1530836Y764455D01*
X1534693Y766420D01*
X1538195Y768964D01*
X1541256Y772025D01*
X1543800Y775527D01*
X1545045Y777970D01*
X1546315D01*
X1547560Y775527D01*
X1550104Y772025D01*
X1553165Y768964D01*
X1556667Y766420D01*
X1560524Y764455D01*
X1564640Y763117D01*
X1568916Y762440D01*
X1573244D01*
X1577520Y763117D01*
X1581636Y764455D01*
X1585493Y766420D01*
X1588995Y768964D01*
X1592056Y772025D01*
X1594600Y775527D01*
X1595845Y777970D01*
X1597115D01*
X1598360Y775527D01*
X1600904Y772025D01*
X1603965Y768964D01*
X1607467Y766420D01*
X1611324Y764455D01*
X1615440Y763117D01*
X1619716Y762440D01*
X1624044D01*
X1628320Y763117D01*
X1632436Y764455D01*
X1636293Y766420D01*
X1639795Y768964D01*
X1642856Y772025D01*
X1645400Y775527D01*
X1647365Y779384D01*
X1648703Y783500D01*
X1649380Y787776D01*
Y792104D01*
X1648703Y796380D01*
X1647365Y800496D01*
X1645400Y804353D01*
X1642856Y807855D01*
X1639795Y810916D01*
X1636293Y813460D01*
X1632436Y815425D01*
X1628320Y816763D01*
X1624044Y817440D01*
D02*
G37*
G36*
X1844914Y841970D02*
X1840586D01*
X1836310Y841293D01*
X1832194Y839955D01*
X1828337Y837990D01*
X1824835Y835446D01*
X1821774Y832385D01*
X1819230Y828883D01*
X1817265Y825026D01*
X1815927Y820910D01*
X1815250Y816634D01*
Y812306D01*
X1815927Y808030D01*
X1817265Y803914D01*
X1819230Y800057D01*
X1821774Y796555D01*
X1824835Y793494D01*
X1828337Y790950D01*
X1832194Y788985D01*
X1836310Y787647D01*
X1840586Y786970D01*
X1844914D01*
X1849190Y787647D01*
X1853306Y788985D01*
X1857163Y790950D01*
X1860665Y793494D01*
X1863726Y796555D01*
X1866270Y800057D01*
X1868235Y803914D01*
X1869573Y808030D01*
X1870250Y812306D01*
Y816634D01*
X1869573Y820910D01*
X1868235Y825026D01*
X1866270Y828883D01*
X1863726Y832385D01*
X1860665Y835446D01*
X1857163Y837990D01*
X1853306Y839955D01*
X1849190Y841293D01*
X1844914Y841970D01*
D02*
G37*
G36*
X874339Y843917D02*
X869847Y843326D01*
X865557Y841870D01*
X861633Y839604D01*
X858227Y836617D01*
X855469Y833023D01*
X853465Y828960D01*
X852293Y824583D01*
X851996Y820062D01*
X852588Y815571D01*
X854044Y811281D01*
X856309Y807357D01*
X857847Y805603D01*
X856309Y803850D01*
X854044Y799926D01*
X852588Y795636D01*
X851996Y791144D01*
X852293Y786623D01*
X853465Y782247D01*
X855469Y778184D01*
X858227Y774589D01*
X861633Y771602D01*
X865557Y769337D01*
X869847Y767880D01*
X874339Y767289D01*
X878860Y767586D01*
X883236Y768758D01*
X887299Y770762D01*
X890894Y773520D01*
X893881Y776926D01*
X896146Y780850D01*
X897603Y785140D01*
X898194Y789632D01*
X897898Y794153D01*
X896725Y798529D01*
X894721Y802592D01*
X892411Y805603D01*
X894721Y808614D01*
X896725Y812678D01*
X897898Y817054D01*
X898194Y821575D01*
X897603Y826067D01*
X896146Y830357D01*
X893881Y834280D01*
X890894Y837687D01*
X887299Y840445D01*
X883236Y842449D01*
X878860Y843621D01*
X874339Y843917D01*
D02*
G37*
G36*
X538935D02*
X534414Y843621D01*
X530038Y842449D01*
X525975Y840445D01*
X522380Y837687D01*
X519393Y834280D01*
X517128Y830357D01*
X515672Y826067D01*
X515080Y821575D01*
X515377Y817054D01*
X516549Y812678D01*
X518553Y808614D01*
X520863Y805603D01*
X518553Y802592D01*
X516549Y798529D01*
X515377Y794153D01*
X515080Y789632D01*
X515672Y785140D01*
X517128Y780850D01*
X519393Y776926D01*
X522380Y773520D01*
X525975Y770762D01*
X530038Y768758D01*
X534414Y767586D01*
X538935Y767289D01*
X543427Y767880D01*
X547717Y769337D01*
X551641Y771602D01*
X555047Y774589D01*
X557805Y778184D01*
X559809Y782247D01*
X560982Y786623D01*
X561278Y791144D01*
X560687Y795636D01*
X559230Y799926D01*
X556965Y803850D01*
X555427Y805603D01*
X556965Y807357D01*
X559230Y811281D01*
X560687Y815571D01*
X561278Y820062D01*
X560982Y824583D01*
X559809Y828960D01*
X557805Y833023D01*
X555047Y836617D01*
X551641Y839604D01*
X547717Y841870D01*
X543427Y843326D01*
X538935Y843917D01*
D02*
G37*
G36*
X1782756Y811170D02*
X1778324D01*
X1773977Y810305D01*
X1769882Y808609D01*
X1766197Y806147D01*
X1763063Y803013D01*
X1760601Y799328D01*
X1758905Y795233D01*
X1758040Y790886D01*
Y786454D01*
X1758905Y782107D01*
X1760601Y778012D01*
X1763063Y774327D01*
X1766197Y771193D01*
X1769882Y768731D01*
X1773977Y767035D01*
X1778324Y766170D01*
X1782756D01*
X1787103Y767035D01*
X1791198Y768731D01*
X1794883Y771193D01*
X1798017Y774327D01*
X1800479Y778012D01*
X1802175Y782107D01*
X1803040Y786454D01*
Y790886D01*
X1802175Y795233D01*
X1800479Y799328D01*
X1798017Y803013D01*
X1794883Y806147D01*
X1791198Y808609D01*
X1787103Y810305D01*
X1782756Y811170D01*
D02*
G37*
G36*
X777713Y787191D02*
X773192Y786895D01*
X768816Y785722D01*
X764753Y783718D01*
X761158Y780960D01*
X758171Y777554D01*
X755906Y773630D01*
X754450Y769340D01*
X753858Y764848D01*
X754155Y760327D01*
X755327Y755951D01*
X757331Y751888D01*
X760089Y748293D01*
X763495Y745306D01*
X767419Y743041D01*
X771709Y741584D01*
X776201Y740993D01*
X780722Y741289D01*
X785098Y742462D01*
X789161Y744466D01*
X792756Y747224D01*
X795743Y750630D01*
X798008Y754554D01*
X799465Y758844D01*
X800056Y763336D01*
X799760Y767857D01*
X798587Y772233D01*
X796583Y776296D01*
X793825Y779891D01*
X790419Y782878D01*
X786495Y785143D01*
X782205Y786600D01*
X777713Y787191D01*
D02*
G37*
G36*
X635561D02*
X631069Y786600D01*
X626779Y785143D01*
X622855Y782878D01*
X619449Y779891D01*
X616691Y776296D01*
X614687Y772233D01*
X613515Y767857D01*
X613218Y763336D01*
X613810Y758844D01*
X615266Y754554D01*
X617531Y750630D01*
X620518Y747224D01*
X624113Y744466D01*
X628176Y742462D01*
X632552Y741289D01*
X637073Y740993D01*
X641565Y741584D01*
X645855Y743041D01*
X649779Y745306D01*
X653185Y748293D01*
X655943Y751888D01*
X657947Y755951D01*
X659120Y760327D01*
X659416Y764848D01*
X658825Y769340D01*
X657368Y773630D01*
X655103Y777554D01*
X652116Y780960D01*
X648521Y783718D01*
X644458Y785722D01*
X640082Y786895D01*
X635561Y787191D01*
D02*
G37*
G36*
X716440Y771800D02*
Y771800D01*
X671440D01*
Y726800D01*
X716440D01*
Y726800D01*
X716573Y726909D01*
X717124Y726800D01*
X721556D01*
X725903Y727665D01*
X729998Y729361D01*
X733683Y731823D01*
X736817Y734957D01*
X739279Y738642D01*
X740975Y742737D01*
X741840Y747084D01*
Y751516D01*
X740975Y755863D01*
X739279Y759958D01*
X736817Y763643D01*
X733683Y766777D01*
X729998Y769239D01*
X725903Y770935D01*
X721556Y771800D01*
X717124D01*
X716573Y771691D01*
X716440Y771800D01*
D02*
G37*
G36*
X1101429Y741965D02*
X1097101D01*
X1092825Y741288D01*
X1088709Y739950D01*
X1084852Y737985D01*
X1081350Y735441D01*
X1078289Y732380D01*
X1075745Y728878D01*
X1074500Y726435D01*
X1073230D01*
X1071985Y728878D01*
X1069441Y732380D01*
X1066380Y735441D01*
X1062878Y737985D01*
X1059021Y739950D01*
X1054904Y741288D01*
X1050629Y741965D01*
X1046301D01*
X1042025Y741288D01*
X1037909Y739950D01*
X1034052Y737985D01*
X1030550Y735441D01*
X1027489Y732380D01*
X1024945Y728878D01*
X1023700Y726435D01*
X1022430D01*
X1021185Y728878D01*
X1018641Y732380D01*
X1015580Y735441D01*
X1012078Y737985D01*
X1008221Y739950D01*
X1004105Y741288D01*
X999829Y741965D01*
X995501D01*
X991225Y741288D01*
X987109Y739950D01*
X983252Y737985D01*
X979750Y735441D01*
X976689Y732380D01*
X974145Y728878D01*
X972180Y725022D01*
X970842Y720905D01*
X970165Y716629D01*
Y712301D01*
X970842Y708026D01*
X972180Y703909D01*
X974145Y700052D01*
X976689Y696550D01*
X979750Y693489D01*
X983252Y690945D01*
X987109Y688980D01*
X991225Y687642D01*
X995501Y686965D01*
X999829D01*
X1004105Y687642D01*
X1008221Y688980D01*
X1012078Y690945D01*
X1015580Y693489D01*
X1018641Y696550D01*
X1021185Y700052D01*
X1022430Y702495D01*
X1023700D01*
X1024945Y700052D01*
X1027489Y696550D01*
X1030550Y693489D01*
X1034052Y690945D01*
X1037909Y688980D01*
X1042025Y687642D01*
X1046301Y686965D01*
X1050629D01*
X1054904Y687642D01*
X1059021Y688980D01*
X1062878Y690945D01*
X1066380Y693489D01*
X1069441Y696550D01*
X1071985Y700052D01*
X1073230Y702495D01*
X1074500D01*
X1075745Y700052D01*
X1078289Y696550D01*
X1081350Y693489D01*
X1084852Y690945D01*
X1088709Y688980D01*
X1092825Y687642D01*
X1097101Y686965D01*
X1101429D01*
X1105704Y687642D01*
X1109821Y688980D01*
X1113678Y690945D01*
X1117180Y693489D01*
X1120241Y696550D01*
X1122785Y700052D01*
X1124750Y703909D01*
X1126088Y708026D01*
X1126765Y712301D01*
Y716629D01*
X1126088Y720905D01*
X1124750Y725022D01*
X1122785Y728878D01*
X1120241Y732380D01*
X1117180Y735441D01*
X1113678Y737985D01*
X1109821Y739950D01*
X1105704Y741288D01*
X1101429Y741965D01*
D02*
G37*
G36*
X1624044Y741240D02*
X1619716D01*
X1615440Y740563D01*
X1611324Y739225D01*
X1607467Y737260D01*
X1603965Y734716D01*
X1600904Y731655D01*
X1598360Y728153D01*
X1597115Y725710D01*
X1595845D01*
X1594600Y728153D01*
X1592056Y731655D01*
X1588995Y734716D01*
X1585493Y737260D01*
X1581636Y739225D01*
X1577520Y740563D01*
X1573244Y741240D01*
X1568916D01*
X1564640Y740563D01*
X1560524Y739225D01*
X1556667Y737260D01*
X1553165Y734716D01*
X1550104Y731655D01*
X1547560Y728153D01*
X1546315Y725710D01*
X1545045D01*
X1543800Y728153D01*
X1541256Y731655D01*
X1538195Y734716D01*
X1534693Y737260D01*
X1530836Y739225D01*
X1526720Y740563D01*
X1522444Y741240D01*
X1518116D01*
X1513840Y740563D01*
X1509724Y739225D01*
X1505867Y737260D01*
X1502365Y734716D01*
X1499304Y731655D01*
X1496760Y728153D01*
X1494795Y724296D01*
X1493457Y720180D01*
X1492780Y715904D01*
Y711576D01*
X1493457Y707300D01*
X1494795Y703184D01*
X1496760Y699327D01*
X1499304Y695825D01*
X1502365Y692764D01*
X1505867Y690220D01*
X1509724Y688255D01*
X1513840Y686917D01*
X1518116Y686240D01*
X1522444D01*
X1526720Y686917D01*
X1530836Y688255D01*
X1534693Y690220D01*
X1538195Y692764D01*
X1541256Y695825D01*
X1543800Y699327D01*
X1545045Y701770D01*
X1546315D01*
X1547560Y699327D01*
X1550104Y695825D01*
X1553165Y692764D01*
X1556667Y690220D01*
X1560524Y688255D01*
X1564640Y686917D01*
X1568916Y686240D01*
X1573244D01*
X1577520Y686917D01*
X1581636Y688255D01*
X1585493Y690220D01*
X1588995Y692764D01*
X1592056Y695825D01*
X1594600Y699327D01*
X1595845Y701770D01*
X1597115D01*
X1598360Y699327D01*
X1600904Y695825D01*
X1603965Y692764D01*
X1607467Y690220D01*
X1611324Y688255D01*
X1615440Y686917D01*
X1619716Y686240D01*
X1624044D01*
X1628320Y686917D01*
X1632436Y688255D01*
X1636293Y690220D01*
X1639795Y692764D01*
X1642856Y695825D01*
X1645400Y699327D01*
X1647365Y703184D01*
X1648703Y707300D01*
X1649380Y711576D01*
Y715904D01*
X1648703Y720180D01*
X1647365Y724296D01*
X1645400Y728153D01*
X1642856Y731655D01*
X1639795Y734716D01*
X1636293Y737260D01*
X1632436Y739225D01*
X1628320Y740563D01*
X1624044Y741240D01*
D02*
G37*
G36*
X1915350Y826896D02*
X1907350D01*
X1902253Y826394D01*
X1897352Y824907D01*
X1892835Y822493D01*
X1888876Y819244D01*
X1885627Y815285D01*
X1883213Y810768D01*
X1881726Y805867D01*
X1881224Y800770D01*
X1881726Y795673D01*
X1883213Y790772D01*
X1885627Y786255D01*
X1888876Y782296D01*
X1892835Y779047D01*
X1897352Y776633D01*
X1899422Y776005D01*
Y774735D01*
X1897352Y774107D01*
X1892835Y771693D01*
X1888876Y768444D01*
X1885627Y764485D01*
X1883213Y759968D01*
X1881726Y755067D01*
X1881224Y749970D01*
X1881726Y744873D01*
X1883213Y739972D01*
X1885627Y735455D01*
X1888876Y731496D01*
X1892835Y728247D01*
X1897352Y725833D01*
X1902253Y724346D01*
X1907350Y723844D01*
X1915350D01*
X1920447Y724346D01*
X1925348Y725833D01*
X1929865Y728247D01*
X1933824Y731496D01*
X1937073Y735455D01*
X1939487Y739972D01*
X1940974Y744873D01*
X1941476Y749970D01*
X1940974Y755067D01*
X1939487Y759968D01*
X1937073Y764485D01*
X1933824Y768444D01*
X1929865Y771693D01*
X1925348Y774107D01*
X1923278Y774735D01*
Y776005D01*
X1925348Y776633D01*
X1929865Y779047D01*
X1933824Y782296D01*
X1937073Y786255D01*
X1939487Y790772D01*
X1940974Y795673D01*
X1941476Y800770D01*
X1940974Y805867D01*
X1939487Y810768D01*
X1937073Y815285D01*
X1933824Y819244D01*
X1929865Y822493D01*
X1925348Y824907D01*
X1920447Y826394D01*
X1915350Y826896D01*
D02*
G37*
G36*
X1253629Y818165D02*
X1249301D01*
X1245025Y817488D01*
X1240909Y816150D01*
X1237052Y814185D01*
X1233550Y811641D01*
X1230489Y808580D01*
X1227945Y805078D01*
X1225980Y801221D01*
X1224642Y797105D01*
X1223965Y792830D01*
Y788501D01*
X1224642Y784226D01*
X1225980Y780109D01*
X1227945Y776252D01*
X1230489Y772750D01*
X1233550Y769689D01*
X1237052Y767145D01*
X1240909Y765180D01*
X1245025Y763842D01*
X1249301Y763165D01*
X1250544D01*
X1257680Y756029D01*
Y749101D01*
X1250544Y741965D01*
X1249301D01*
X1245025Y741288D01*
X1240909Y739950D01*
X1237052Y737985D01*
X1233550Y735441D01*
X1230489Y732380D01*
X1227945Y728878D01*
X1225980Y725022D01*
X1224642Y720905D01*
X1223965Y716629D01*
Y712301D01*
X1224642Y708026D01*
X1225980Y703909D01*
X1227945Y700052D01*
X1230489Y696550D01*
X1233550Y693489D01*
X1237052Y690945D01*
X1240909Y688980D01*
X1245025Y687642D01*
X1249301Y686965D01*
X1253629D01*
X1257905Y687642D01*
X1262021Y688980D01*
X1265878Y690945D01*
X1269380Y693489D01*
X1272441Y696550D01*
X1274985Y700052D01*
X1276950Y703909D01*
X1277002Y704069D01*
X1305180D01*
Y718652D01*
X1306162Y719457D01*
X1307556Y719180D01*
X1311989D01*
X1316335Y720045D01*
X1320430Y721741D01*
X1324115Y724203D01*
X1327249Y727337D01*
X1329712Y731022D01*
X1331408Y735117D01*
X1332272Y739464D01*
Y743896D01*
X1332163Y744447D01*
X1332272Y744580D01*
X1332272D01*
Y789580D01*
X1305180D01*
Y801569D01*
X1276773D01*
X1274985Y805078D01*
X1272441Y808580D01*
X1269380Y811641D01*
X1265878Y814185D01*
X1262021Y816150D01*
X1257905Y817488D01*
X1253629Y818165D01*
D02*
G37*
G36*
X1844914Y741970D02*
X1840586D01*
X1836310Y741293D01*
X1832194Y739955D01*
X1828337Y737990D01*
X1824835Y735446D01*
X1821774Y732385D01*
X1819230Y728883D01*
X1817265Y725026D01*
X1815927Y720910D01*
X1815250Y716634D01*
Y712306D01*
X1815927Y708030D01*
X1817265Y703914D01*
X1819230Y700057D01*
X1821774Y696555D01*
X1824835Y693494D01*
X1828337Y690950D01*
X1832194Y688985D01*
X1836310Y687647D01*
X1840586Y686970D01*
X1844914D01*
X1849190Y687647D01*
X1853306Y688985D01*
X1857163Y690950D01*
X1860665Y693494D01*
X1863726Y696555D01*
X1866270Y700057D01*
X1868235Y703914D01*
X1869573Y708030D01*
X1870250Y712306D01*
Y716634D01*
X1869573Y720910D01*
X1868235Y725026D01*
X1866270Y728883D01*
X1863726Y732385D01*
X1860665Y735446D01*
X1857163Y737990D01*
X1853306Y739955D01*
X1849190Y741293D01*
X1844914Y741970D01*
D02*
G37*
G36*
X1370244Y973650D02*
X1365916D01*
X1361640Y972973D01*
X1357524Y971635D01*
X1353667Y969670D01*
X1350165Y967126D01*
X1347104Y964065D01*
X1344560Y960563D01*
X1342595Y956706D01*
X1342543Y956546D01*
X1314830D01*
Y944520D01*
X1287272D01*
Y899520D01*
X1287272D01*
X1287382Y899387D01*
X1287272Y898836D01*
Y894404D01*
X1288137Y890057D01*
X1289833Y885962D01*
X1292296Y882277D01*
X1295430Y879143D01*
X1299115Y876681D01*
X1303209Y874985D01*
X1307556Y874120D01*
X1311989D01*
X1313848Y874490D01*
X1314830Y873684D01*
Y859046D01*
X1342772D01*
X1344560Y855537D01*
X1347104Y852035D01*
X1347983Y851156D01*
Y808734D01*
X1347104Y807855D01*
X1344560Y804353D01*
X1342595Y800496D01*
X1341257Y796380D01*
X1340580Y792104D01*
Y787776D01*
X1341257Y783500D01*
X1342595Y779384D01*
X1344560Y775527D01*
X1347104Y772025D01*
X1350165Y768964D01*
X1353667Y766420D01*
X1357524Y764455D01*
X1361640Y763117D01*
X1365916Y762440D01*
X1370244D01*
X1372128Y762738D01*
X1373093Y761914D01*
Y747174D01*
X1367159Y741240D01*
X1365916D01*
X1361640Y740563D01*
X1357524Y739225D01*
X1353667Y737260D01*
X1350165Y734716D01*
X1347104Y731655D01*
X1344560Y728153D01*
X1342595Y724296D01*
X1341257Y720180D01*
X1340580Y715904D01*
Y711576D01*
X1341257Y707300D01*
X1342595Y703184D01*
X1344560Y699327D01*
X1347104Y695825D01*
X1350165Y692764D01*
X1353667Y690220D01*
X1357524Y688255D01*
X1361640Y686917D01*
X1365916Y686240D01*
X1370244D01*
X1374520Y686917D01*
X1378636Y688255D01*
X1382493Y690220D01*
X1385995Y692764D01*
X1389056Y695825D01*
X1391600Y699327D01*
X1393565Y703184D01*
X1394903Y707300D01*
X1395580Y711576D01*
Y712819D01*
X1407400Y724639D01*
X1407401Y724639D01*
X1409900Y727685D01*
X1411757Y731159D01*
X1412901Y734929D01*
X1413287Y738850D01*
Y921040D01*
X1412901Y924961D01*
X1411757Y928731D01*
X1409900Y932205D01*
X1407401Y935251D01*
X1407400Y935251D01*
X1395580Y947071D01*
Y948314D01*
X1394903Y952590D01*
X1393565Y956706D01*
X1391600Y960563D01*
X1389056Y964065D01*
X1385995Y967126D01*
X1382493Y969670D01*
X1378636Y971635D01*
X1374520Y972973D01*
X1370244Y973650D01*
D02*
G37*
G36*
X1798320Y625831D02*
X1718320D01*
X1713419Y625348D01*
X1708707Y623919D01*
X1704364Y621597D01*
X1700557Y618473D01*
X1697433Y614666D01*
X1695111Y610323D01*
X1693682Y605611D01*
X1693199Y600710D01*
X1693682Y595809D01*
X1695111Y591097D01*
X1697433Y586754D01*
X1700557Y582947D01*
X1704364Y579823D01*
X1708707Y577501D01*
X1713419Y576072D01*
X1718320Y575589D01*
X1798320D01*
X1803221Y576072D01*
X1807933Y577501D01*
X1812276Y579823D01*
X1816083Y582947D01*
X1819207Y586754D01*
X1821529Y591097D01*
X1822958Y595809D01*
X1823441Y600710D01*
X1822958Y605611D01*
X1821529Y610323D01*
X1819207Y614666D01*
X1816083Y618473D01*
X1812276Y621597D01*
X1807933Y623919D01*
X1803221Y625348D01*
X1798320Y625831D01*
D02*
G37*
G36*
X1401440D02*
X1321440D01*
X1316539Y625348D01*
X1311827Y623919D01*
X1307484Y621597D01*
X1303677Y618473D01*
X1300553Y614666D01*
X1298231Y610323D01*
X1296802Y605611D01*
X1296319Y600710D01*
X1296802Y595809D01*
X1298231Y591097D01*
X1300553Y586754D01*
X1303677Y582947D01*
X1307484Y579823D01*
X1311827Y577501D01*
X1316539Y576072D01*
X1321440Y575589D01*
X1401440D01*
X1406341Y576072D01*
X1411053Y577501D01*
X1415397Y579823D01*
X1419203Y582947D01*
X1422327Y586754D01*
X1424649Y591097D01*
X1426078Y595809D01*
X1426561Y600710D01*
X1426078Y605611D01*
X1424649Y610323D01*
X1422327Y614666D01*
X1419203Y618473D01*
X1415397Y621597D01*
X1411053Y623919D01*
X1406341Y625348D01*
X1401440Y625831D01*
D02*
G37*
G36*
X1173160D02*
X1093160D01*
X1088259Y625348D01*
X1083547Y623919D01*
X1079203Y621597D01*
X1075397Y618473D01*
X1072273Y614666D01*
X1069951Y610323D01*
X1068522Y605611D01*
X1068039Y600710D01*
X1068522Y595809D01*
X1069951Y591097D01*
X1072273Y586754D01*
X1075397Y582947D01*
X1079203Y579823D01*
X1083547Y577501D01*
X1088259Y576072D01*
X1093160Y575589D01*
X1173160D01*
X1178061Y576072D01*
X1182773Y577501D01*
X1187116Y579823D01*
X1190923Y582947D01*
X1194047Y586754D01*
X1196369Y591097D01*
X1197798Y595809D01*
X1198281Y600710D01*
X1197798Y605611D01*
X1196369Y610323D01*
X1194047Y614666D01*
X1190923Y618473D01*
X1187116Y621597D01*
X1182773Y623919D01*
X1178061Y625348D01*
X1173160Y625831D01*
D02*
G37*
G36*
X776280D02*
X696280D01*
X691379Y625348D01*
X686667Y623919D01*
X682324Y621597D01*
X678517Y618473D01*
X675393Y614666D01*
X673071Y610323D01*
X671642Y605611D01*
X671159Y600710D01*
X671642Y595809D01*
X673071Y591097D01*
X675393Y586754D01*
X678517Y582947D01*
X682324Y579823D01*
X686667Y577501D01*
X691379Y576072D01*
X696280Y575589D01*
X776280D01*
X781181Y576072D01*
X785893Y577501D01*
X790237Y579823D01*
X794043Y582947D01*
X797167Y586754D01*
X799489Y591097D01*
X800918Y595809D01*
X801401Y600710D01*
X800918Y605611D01*
X799489Y610323D01*
X797167Y614666D01*
X794043Y618473D01*
X790237Y621597D01*
X785893Y623919D01*
X781181Y625348D01*
X776280Y625831D01*
D02*
G37*
%LPD*%
G36*
X1373093Y912716D02*
Y897977D01*
X1372128Y897152D01*
X1370244Y897450D01*
X1369001D01*
X1362330Y904121D01*
Y911979D01*
X1368080Y917729D01*
X1373093Y912716D01*
D02*
G37*
D13*
X929590Y893560D02*
X959730D01*
X923290Y887260D02*
X929590Y893560D01*
X923290Y912660D02*
X959730D01*
X929590Y931760D02*
X959730D01*
X923290Y938060D02*
X929590Y931760D01*
D15*
X1338580Y929296D02*
D03*
Y886296D02*
D03*
X1281430Y731319D02*
D03*
Y774319D02*
D03*
D34*
X1343950Y922020D02*
X1368080Y946150D01*
Y713740D02*
X1393190Y738850D01*
Y921040D01*
X1368080Y946150D02*
X1393190Y921040D01*
X1341410Y896620D02*
X1368080Y869950D01*
Y789940D02*
Y869950D01*
X1278680Y741680D02*
X1309772D01*
X1251465Y714465D02*
X1278680Y741680D01*
X1275050Y767080D02*
X1309772D01*
X1251465Y790665D02*
X1275050Y767080D01*
X1309772Y922020D02*
X1343950D01*
X1309772Y896620D02*
X1341410D01*
D36*
X1323730Y1070320D02*
D03*
X1279380Y1114670D02*
D03*
X1323730D02*
D03*
X1368080D02*
D03*
X1279380Y1070320D02*
D03*
X1368080D02*
D03*
X1279380Y1025970D02*
D03*
X1323730D02*
D03*
X1368080D02*
D03*
X1218080D02*
D03*
X1173730D02*
D03*
X1129380D02*
D03*
X1218080Y1070320D02*
D03*
X1129380D02*
D03*
X1218080Y1114670D02*
D03*
X1173730D02*
D03*
X1129380D02*
D03*
X1173730Y1070320D02*
D03*
D37*
X1517808Y1249850D02*
D03*
Y1465150D02*
D03*
X1247011Y1623060D02*
D03*
Y1248060D02*
D03*
X1149965Y1173060D02*
D03*
Y1698060D02*
D03*
X1352965Y1173060D02*
D03*
Y1698060D02*
D03*
D38*
X1842750Y964470D02*
D03*
Y889470D02*
D03*
Y814470D02*
D03*
Y714470D02*
D03*
X1048465Y714465D02*
D03*
Y790665D02*
D03*
X1520280Y869950D02*
D03*
X1571080D02*
D03*
X1621880D02*
D03*
X1520280Y946150D02*
D03*
X1571080D02*
D03*
X1621880D02*
D03*
X1368080Y869950D02*
D03*
Y946150D02*
D03*
X1251465Y714465D02*
D03*
Y790665D02*
D03*
X997665Y714465D02*
D03*
X1099265D02*
D03*
X997665Y790665D02*
D03*
X1099265D02*
D03*
X1520280Y713740D02*
D03*
X1571080D02*
D03*
X1621880D02*
D03*
X1520280Y789940D02*
D03*
X1571080D02*
D03*
X1621880D02*
D03*
X1368080Y713740D02*
D03*
Y789940D02*
D03*
D39*
X1473458Y1509500D02*
D03*
X1517808D02*
D03*
X1562158D02*
D03*
X1473458Y1465150D02*
D03*
X1562158D02*
D03*
X1473458Y1420800D02*
D03*
X1517808D02*
D03*
X1562158D02*
D03*
X1473458Y1294200D02*
D03*
X1517808D02*
D03*
X1562158D02*
D03*
X1473458Y1249850D02*
D03*
X1562158D02*
D03*
X1473458Y1205500D02*
D03*
X1517808D02*
D03*
X1562158D02*
D03*
D40*
X1730540Y788670D02*
D03*
X1780540D02*
D03*
X1050760Y1179830D02*
D03*
X1000760D02*
D03*
X1050760Y1250950D02*
D03*
X1000760D02*
D03*
Y1526540D02*
D03*
X1050760D02*
D03*
X1000760Y1597660D02*
D03*
X1050760D02*
D03*
X1780540Y889470D02*
D03*
X1730540D02*
D03*
X1309772Y896620D02*
D03*
X719340Y749300D02*
D03*
X923290Y912660D02*
D03*
Y887260D02*
D03*
X1309772Y741680D02*
D03*
D41*
X636317Y847115D02*
D03*
X538179Y820819D02*
D03*
X776957Y847115D02*
D03*
X875095Y820819D02*
D03*
X776957Y764092D02*
D03*
X875095Y790388D02*
D03*
Y934272D02*
D03*
X776957Y960568D02*
D03*
X636317Y764092D02*
D03*
X538179Y790388D02*
D03*
X776957Y877545D02*
D03*
X875095Y903841D02*
D03*
X538179Y934272D02*
D03*
X636317Y960568D02*
D03*
Y877545D02*
D03*
X538179Y903841D02*
D03*
D42*
X1720000Y1030500D02*
D03*
Y1085000D02*
D03*
Y1139500D02*
D03*
Y1205500D02*
D03*
Y1260000D02*
D03*
Y1314500D02*
D03*
Y1400500D02*
D03*
Y1455000D02*
D03*
Y1509500D02*
D03*
Y1575500D02*
D03*
Y1630000D02*
D03*
Y1684500D02*
D03*
X779999Y1630000D02*
D03*
Y1684500D02*
D03*
Y1575500D02*
D03*
Y1509500D02*
D03*
Y1455000D02*
D03*
Y1400500D02*
D03*
Y1314500D02*
D03*
Y1260000D02*
D03*
Y1205500D02*
D03*
Y1030500D02*
D03*
Y1085000D02*
D03*
Y1139500D02*
D03*
D43*
X959730Y912660D02*
D03*
X959730Y893560D02*
D03*
X959730Y931760D02*
D03*
D44*
X1173730Y862660D02*
D03*
Y962660D02*
D03*
D45*
X736280Y600710D02*
D03*
X1361440D02*
D03*
X1758320D02*
D03*
X1133160D02*
D03*
D46*
X568960Y701040D02*
D03*
Y650240D02*
D03*
Y599440D02*
D03*
Y548640D02*
D03*
D47*
X1911350Y953170D02*
D03*
Y902370D02*
D03*
Y851570D02*
D03*
Y800770D02*
D03*
Y749970D02*
D03*
D48*
X707390Y814070D02*
D03*
X1517808Y1675000D02*
D03*
X976214D02*
D03*
X1517808Y1040000D02*
D03*
X976214D02*
D03*
X1925000Y620000D02*
D03*
D49*
X1309772Y922020D02*
D03*
X923290Y938060D02*
D03*
X1309772Y767080D02*
D03*
D50*
X693940Y749300D02*
D03*
D51*
X1658620Y1314500D02*
D03*
X1633220D02*
D03*
X1658620Y1139500D02*
D03*
X1633220D02*
D03*
X1658620Y1509500D02*
D03*
X1633220D02*
D03*
X1658620Y1684500D02*
D03*
X1633220D02*
D03*
X866779Y1030500D02*
D03*
X841379D02*
D03*
X866779Y1400500D02*
D03*
X841379D02*
D03*
X866779Y1575500D02*
D03*
X841379D02*
D03*
X866779Y1205500D02*
D03*
X841379D02*
D03*
D52*
X942340Y928520D02*
D03*
Y915520D02*
D03*
M02*
