M48
;Layer_Color=9474304
;FILE_FORMAT=4:4
METRIC,LZ
;TYPE=PLATED
T2F00S00C0.8000
T3F00S00C0.9000
T4F00S00C1.2000
T5F00S00C1.3000
T6F00S00C1.3500
T7F00S00C1.5000
T9F00S00C1.8500
T11F00S00C4.5000
T12F00S00C5.5000
T13F00S00C6.0000
T14F00S00C8.0000
%
T02
X0173054Y0078867
X0178054
X00875095Y00790388
X00776957Y00764092
X00636317
X00538179Y00790388
Y00820819
Y00903841
Y00934272
X00636317Y00960568
Y00877545
Y00847115
X00776957Y00847115
Y00877545
Y00960568
X00875095Y00934272
Y00903841
Y00820819
X0095973Y0089356
X0095973Y0091266
Y0093176
X0100076Y0117983
X0105076
X0173054Y0088947
X0178054
X0105076Y0125095
X0100076
Y0152654
X0105076
Y0159766
X0100076
T03
X01309772Y0074168
Y0076708
X0071934Y007493
X0069394
X0092329Y0088726
Y0091266
Y0093806
X00866779Y010305
X00841379
X01309772Y0092202
Y0089662
X0163322Y011395
X0165862
Y013145
X0163322
Y015095
X0165862
X00866779Y015755
X00841379
Y014005
X00866779
X00866779Y012055
X00841379
X0163322Y016845
X0165862
T04
X0162188Y0071374
Y0078994
X0157108
X0152028
Y0071374
X0157108
X0136808
Y0078994
X01251465Y00790665
Y00714465
X01099265
X01048465
X00997665
Y00790665
X01048465
X01099265
X0136808Y0086995
Y0094615
X0152028
X0157108
Y0086995
X0152028
X0162188
Y0094615
X01247011Y0124806
Y0162306
T05
X0184275Y0071447
Y0081447
Y0088947
Y0096447
T06
X01149965Y0117306
X01352965
X01149965Y0169806
X01352965
T07
X0191135Y0074997
X0056896Y0070104
Y0065024
Y0059944
Y0054864
X0191135Y0080077
Y0085157
Y0090237
Y0095317
T09
X0112938Y0102597
X0117373
Y0107032
X0112938
Y0111467
X0117373
X0121808
Y0107032
Y0102597
X0127938
Y0107032
X0132373
Y0111467
X0127938
X0136808
Y0107032
Y0102597
X0132373
X01473458Y012055
Y0124985
Y012942
X01517808
X01562158
Y0124985
Y012055
X01517808
Y014208
X01473458
Y0146515
Y015095
X01517808
X01562158
Y0146515
Y014208
T11
X01925Y0062
X0070739Y0081407
X00976214Y0104
X01517808
X00976214Y01675
X01517808
T12
X01517808Y0124985
Y0146515
T13
X0168275Y0083947
T14
X0098679Y0135907
M30
