%FSTAX23Y23*%
%MOIN*%
%SFA1B1*%

%IPPOS*%
%ADD12R,0.409450X0.440940*%
%ADD13R,0.037400X0.161420*%
%ADD14R,0.222440X0.263780*%
%ADD15R,0.047240X0.116140*%
%ADD21R,0.325000X0.325000*%
%ADD22R,0.425000X0.330000*%
%ADD23C,0.236220*%
%LNalu_test-1*%
%LPD*%
G36*
X04394Y03018D02*
X0341D01*
Y04002*
X04394*
Y03018*
G37*
G36*
X05102Y03796D02*
X05111Y03778D01*
X05123Y03762*
X05137Y03747*
X05153Y03735*
X05171Y03726*
X05178Y03724*
Y03211*
X04587*
Y03801*
X051*
X05102Y03796*
G37*
%LNalu_test-2*%
%LPC*%
G36*
X03577Y03973D02*
X03557D01*
X03537Y0397*
X03518Y03964*
X035Y03955*
X03484Y03943*
X03469Y03928*
X03457Y03912*
X03448Y03894*
X03442Y03875*
X03439Y03855*
Y03835*
X03442Y03815*
X03448Y03796*
X03457Y03778*
X03469Y03762*
X03484Y03747*
X035Y03735*
X03518Y03726*
X03537Y0372*
X03557Y03717*
X03577*
X03597Y0372*
X03616Y03726*
X03634Y03735*
X0365Y03747*
X03665Y03762*
X03677Y03778*
X03686Y03796*
X03692Y03815*
X03695Y03835*
Y03855*
X03692Y03875*
X03686Y03894*
X03677Y03912*
X03665Y03928*
X0365Y03943*
X03634Y03955*
X03616Y03964*
X03597Y0397*
X03577Y03973*
G37*
G36*
X04026Y03738D02*
X0391D01*
Y03601*
X04026*
Y03738*
G37*
G36*
X039D02*
X03784D01*
Y03601*
X039*
Y03738*
G37*
G36*
X04026Y03591D02*
X0391D01*
Y03454*
X04026*
Y03591*
G37*
G36*
X039D02*
X03784D01*
Y03454*
X039*
Y03591*
G37*
G36*
X04029Y0341D02*
X03962D01*
Y03274*
X04029*
Y0341*
G37*
G36*
X03849D02*
X03781D01*
Y03274*
X03849*
Y0341*
G37*
G36*
X05008Y03738D02*
X04892D01*
Y03601*
X05008*
Y03738*
G37*
G36*
X04882D02*
X04766D01*
Y03601*
X04882*
Y03738*
G37*
G36*
X05008Y03591D02*
X04892D01*
Y03454*
X05008*
Y03591*
G37*
G36*
X04882D02*
X04766D01*
Y03454*
X04882*
Y03591*
G37*
G36*
X05011Y0341D02*
X04944D01*
Y03274*
X05011*
Y0341*
G37*
G36*
X04831D02*
X04763D01*
Y03274*
X04831*
Y0341*
G37*
%LNalu_test-3*%
%LPD*%
G54D12*
X04887Y02626D03*
G54D13*
X04987Y02278D03*
X04787D03*
G54D14*
X039Y02612D03*
X04887Y03596D03*
X03905D03*
G54D15*
X0399Y02358D03*
X0381D03*
X04977Y03342D03*
X04797D03*
X03995D03*
X03815D03*
G54D21*
X04882Y03592D03*
G54D22*
X03927Y03595D03*
G54D23*
X05221Y02191D03*
X03567D03*
Y03845D03*
X05221D03*
M02*