%FSTAX23Y23*%
%MOIN*%
%SFA1B1*%

%IPPOS*%
%ADD10C,0.009840*%
%ADD11C,0.007870*%
%LNalu_test-1*%
%LPD*%
G36*
X05016Y03112D02*
Y03112D01*
Y03111*
X05016*
Y03111*
Y03111*
X05016*
Y0311*
X05015*
Y0311*
Y0311*
X05014*
Y03109*
Y03109*
X05014*
Y03109*
Y03108*
X05014*
Y03108*
X05013*
Y03108*
Y03107*
X05013*
Y03107*
X05012*
Y03107*
Y03106*
Y03106*
X05012*
Y03106*
X05012*
Y03105*
X05011*
Y03105*
Y03105*
X05011*
Y03104*
Y03104*
Y03104*
X0501*
Y03103*
X0501*
Y03103*
X0501*
Y03103*
Y03102*
X05009*
Y03102*
X05009*
Y03102*
Y03101*
X05009*
Y03101*
X05008*
Y03101*
X05008*
Y031*
Y031*
X05008*
Y031*
X05007*
Y03099*
X05007*
Y03099*
Y03099*
X05007*
Y03098*
X05006*
Y03098*
Y03098*
X05005*
Y03097*
Y03097*
Y03097*
Y03096*
X05005*
Y03096*
X05005*
Y03096*
X05004*
Y03095*
Y03095*
X05004*
Y03095*
X05004*
Y03094*
Y03094*
X05003*
Y03094*
X05003*
Y03093*
X05003*
Y03093*
Y03093*
X05002*
Y03092*
X05002*
Y03092*
X05002*
Y03092*
Y03091*
X05001*
Y03091*
X05001*
Y03091*
Y0309*
X05001*
Y0309*
X05*
Y0309*
X05*
Y03089*
Y03089*
X05*
Y03089*
X04999*
Y03088*
X04999*
Y03088*
Y03088*
X04999*
Y03087*
X04998*
Y03087*
Y03087*
X04998*
Y03086*
X04998*
Y03086*
Y03086*
X04997*
Y03085*
X04997*
Y03085*
X04997*
Y03085*
X04996*
Y03084*
Y03084*
X04996*
Y03084*
X04996*
Y03083*
Y03083*
X04995*
Y03083*
X04995*
Y03082*
Y03082*
X04995*
Y03082*
X04994*
Y03081*
X04994*
Y03081*
Y03081*
X04993*
Y0308*
Y0308*
Y0308*
X04993*
Y03079*
X04993*
Y03079*
X04992*
Y03079*
Y03078*
X04992*
Y03078*
X04992*
Y03078*
X04991*
Y03077*
Y03077*
X04991*
Y03077*
X04991*
Y03076*
Y03076*
X0499*
Y03076*
X0499*
Y03075*
X0499*
Y03075*
Y03075*
X04989*
Y03074*
Y03074*
X04989*
Y03074*
Y03073*
X04988*
Y03073*
X04988*
Y03073*
X04988*
Y03072*
Y03072*
X04987*
Y03072*
X04987*
Y03071*
X04987*
Y03071*
Y03071*
X04986*
Y0307*
Y0307*
X04986*
Y0307*
X04985*
Y03069*
X04985*
Y03069*
Y03069*
Y03068*
X04984*
Y03068*
Y03068*
Y03067*
X04984*
Y03067*
X04984*
Y03067*
Y03066*
X04983*
Y03066*
Y03066*
X04983*
Y03065*
Y03065*
X04982*
Y03065*
X04982*
Y03064*
Y03064*
X04982*
Y03064*
X04981*
Y03063*
X04981*
Y03063*
Y03063*
X04981*
Y03062*
X0498*
Y03062*
X0498*
Y03062*
Y03061*
X0498*
Y03061*
X04979*
Y03061*
Y0306*
X04979*
Y0306*
Y0306*
X04978*
Y03059*
Y03059*
X04978*
Y03059*
X04978*
Y03058*
Y03058*
X04977*
Y03058*
X04977*
Y03057*
X04977*
Y03057*
Y03056*
X04976*
Y03056*
X04976*
Y03056*
X04976*
Y03055*
Y03055*
X04975*
Y03055*
X04975*
Y03054*
Y03054*
X04975*
Y03054*
X04974*
Y03053*
X04974*
Y03053*
Y03053*
X04973*
Y03052*
Y03052*
Y03052*
Y03051*
X04972*
Y03051*
Y03051*
Y0305*
X04972*
Y0305*
X04972*
Y0305*
X04971*
Y03049*
Y03049*
X04971*
Y03049*
X04971*
Y03048*
Y03048*
X0497*
Y03048*
Y03047*
X0497*
Y03047*
Y03047*
X04969*
Y03046*
Y03046*
X04969*
Y03046*
Y03045*
X04968*
Y03045*
Y03045*
Y03044*
X04967*
Y03044*
X04967*
Y03044*
Y03043*
Y03043*
X04967*
Y03043*
X04966*
Y03042*
Y03042*
X04966*
Y03042*
X04966*
Y03041*
X04965*
Y03041*
Y03041*
X04965*
Y0304*
X04965*
Y0304*
X04964*
Y0304*
Y03039*
X04964*
Y03039*
X04964*
Y03039*
Y03038*
Y03038*
X04964*
Y03038*
Y03037*
X04964*
Y03037*
Y03037*
X04965*
Y03036*
Y03036*
X04965*
Y03036*
Y03035*
X04966*
Y03035*
X04966*
Y03035*
Y03034*
X04966*
Y03034*
X04967*
Y03034*
Y03033*
X04967*
Y03033*
X04967*
Y03033*
X04968*
Y03032*
Y03032*
Y03032*
X04968*
Y03031*
Y03031*
X04969*
Y03031*
X04969*
Y0303*
X04969*
Y0303*
Y0303*
X0497*
Y03029*
Y03029*
X0497*
Y03029*
X0497*
Y03028*
Y03028*
X04971*
Y03028*
X04971*
Y03027*
X04971*
Y03027*
Y03027*
X04972*
Y03026*
X04972*
Y03026*
X04972*
Y03026*
Y03025*
X04973*
Y03025*
X04973*
Y03025*
Y03024*
X04973*
Y03024*
Y03024*
X04974*
Y03023*
X04974*
Y03023*
X04974*
Y03023*
Y03022*
X04975*
Y03022*
X04975*
Y03022*
X04975*
Y03021*
Y03021*
X04976*
Y03021*
X04976*
Y0302*
Y0302*
X04976*
Y0302*
X04977*
Y03019*
Y03019*
X04977*
Y03019*
X04977*
Y03018*
Y03018*
X04978*
Y03018*
X04978*
Y03017*
X04978*
Y03017*
Y03017*
Y03016*
X04979*
Y03016*
Y03016*
X04979*
Y03015*
X0498*
Y03015*
Y03015*
X0498*
Y03014*
X0498*
Y03014*
Y03014*
Y03013*
X04981*
Y03013*
X04981*
Y03013*
Y03012*
Y03012*
X04982*
Y03012*
Y03011*
X04982*
Y03011*
X04983*
Y03011*
Y0301*
X04983*
Y0301*
X04983*
Y0301*
Y03009*
Y03009*
Y03009*
X04984*
Y03008*
Y03008*
X04985*
Y03008*
X04985*
Y03007*
Y03007*
X04985*
Y03007*
X04986*
Y03006*
Y03006*
X04986*
Y03006*
X04986*
Y03005*
Y03005*
X04987*
Y03005*
X04987*
Y03004*
X04987*
Y03004*
Y03004*
X04988*
Y03003*
Y03003*
X04988*
Y03003*
Y03002*
X04989*
Y03002*
Y03002*
X04989*
Y03001*
X04989*
Y03001*
Y03001*
X0499*
Y03*
X0499*
Y03*
X0499*
Y03*
Y02999*
X04991*
Y02999*
Y02999*
Y02998*
X04991*
Y02998*
X04992*
Y02998*
Y02997*
X04992*
Y02997*
X04992*
Y02997*
Y02996*
Y02996*
X04993*
Y02996*
X04993*
Y02995*
Y02995*
Y02995*
X04994*
Y02994*
Y02994*
X04994*
Y02994*
X04995*
Y02993*
Y02993*
X04995*
Y02993*
X04995*
Y02992*
X04996*
Y02992*
Y02992*
X04996*
Y02991*
X04996*
Y02991*
Y02991*
Y0299*
X04997*
Y0299*
Y0299*
X04997*
Y02989*
Y02989*
Y02989*
X04998*
Y02988*
X04998*
Y02988*
X04999*
Y02988*
Y02987*
X04999*
Y02987*
X04999*
Y02987*
Y02986*
X05*
Y02986*
Y02986*
X05*
Y02985*
Y02985*
X05001*
Y02985*
Y02984*
X05001*
Y02984*
X05001*
Y02984*
X05002*
Y02983*
Y02983*
X05002*
Y02983*
X05002*
Y02982*
Y02982*
X05003*
Y02982*
Y02981*
X05003*
Y02981*
X05003*
Y02981*
X05004*
Y0298*
Y0298*
X05004*
Y0298*
X05004*
Y02979*
X05005*
Y02979*
Y02979*
Y02978*
X05005*
Y02978*
Y02978*
X05006*
Y02977*
Y02977*
X05006*
Y02977*
X05006*
Y02976*
X05007*
Y02976*
Y02976*
X05007*
Y02975*
X05007*
Y02975*
X05008*
Y02975*
Y02974*
X05008*
Y02974*
Y02974*
Y02973*
X05009*
Y02973*
X05009*
Y02973*
Y02972*
X05009*
Y02972*
X0501*
Y02972*
Y02971*
X0501*
Y02971*
X0501*
Y02971*
X05011*
Y0297*
Y0297*
X05011*
Y0297*
X05011*
Y02969*
Y02969*
X05012*
Y02969*
X05012*
Y02968*
Y02968*
X05012*
Y02968*
X05013*
Y02967*
Y02967*
X05013*
Y02967*
Y02966*
X05014*
Y02966*
Y02966*
X05014*
Y02965*
X05014*
Y02965*
Y02965*
X05015*
Y02964*
X05015*
Y02964*
Y02964*
X05016*
Y02963*
X05016*
Y02963*
Y02963*
Y02962*
X05017*
Y02962*
X05017*
Y02962*
Y02961*
Y02961*
Y02961*
X04972*
Y02961*
X04972*
Y02961*
Y02962*
X04971*
Y02962*
X04971*
Y02962*
Y02963*
X04971*
Y02963*
Y02963*
Y02964*
X0497*
Y02964*
Y02964*
X0497*
Y02965*
X04969*
Y02965*
Y02965*
X04969*
Y02966*
X04969*
Y02966*
Y02966*
X04968*
Y02967*
X04968*
Y02967*
Y02967*
X04968*
Y02968*
X04967*
Y02968*
Y02968*
X04967*
Y02969*
X04967*
Y02969*
Y02969*
X04966*
Y0297*
X04966*
Y0297*
Y0297*
X04966*
Y02971*
Y02971*
X04965*
Y02971*
X04965*
Y02972*
Y02972*
Y02972*
X04964*
Y02973*
X04964*
Y02973*
Y02973*
X04964*
Y02974*
X04963*
Y02974*
Y02974*
X04963*
Y02975*
Y02975*
X04963*
Y02975*
Y02976*
X04962*
Y02976*
Y02976*
X04962*
Y02977*
Y02977*
X04961*
Y02977*
X04961*
Y02978*
Y02978*
X04961*
Y02978*
X0496*
Y02979*
Y02979*
X0496*
Y02979*
X0496*
Y0298*
Y0298*
X04959*
Y0298*
X04959*
Y02981*
Y02981*
X04959*
Y02981*
X04958*
Y02982*
Y02982*
X04958*
Y02982*
X04958*
Y02983*
Y02983*
X04957*
Y02983*
X04957*
Y02984*
Y02984*
X04957*
Y02984*
X04956*
Y02985*
Y02985*
X04956*
Y02985*
X04956*
Y02986*
Y02986*
X04955*
Y02986*
X04955*
Y02987*
Y02987*
X04955*
Y02987*
X04954*
Y02988*
Y02988*
X04954*
Y02988*
Y02989*
Y02989*
X04954*
Y02989*
X04953*
Y0299*
X04953*
Y0299*
X04953*
Y0299*
Y02991*
X04952*
Y02991*
X04952*
Y02991*
Y02992*
X04952*
Y02992*
X04951*
Y02992*
Y02993*
X04951*
Y02993*
X04951*
Y02993*
Y02994*
X0495*
Y02994*
X0495*
Y02994*
Y02995*
X0495*
Y02995*
X04949*
Y02995*
Y02996*
Y02996*
Y02996*
X04949*
Y02997*
X04948*
Y02997*
X04948*
Y02997*
Y02998*
X04948*
Y02998*
X04947*
Y02998*
Y02999*
X04947*
Y02999*
X04947*
Y02999*
Y03*
X04946*
Y03*
X04946*
Y03*
Y03001*
X04946*
Y03001*
Y03001*
X04945*
Y03002*
X04945*
Y03002*
Y03002*
Y03003*
X04944*
Y03003*
Y03003*
X04944*
Y03004*
X04944*
Y03004*
Y03004*
X04943*
Y03005*
X04943*
Y03005*
Y03005*
X04943*
Y03006*
X04942*
Y03006*
Y03006*
X04942*
Y03007*
X04942*
Y03007*
Y03007*
X04941*
Y03008*
Y03008*
X04941*
Y03008*
X04941*
Y03009*
X0494*
Y03009*
Y03009*
Y0301*
X0494*
Y0301*
Y0301*
X04939*
Y0301*
X04939*
Y0301*
Y03009*
X04938*
Y03009*
X04938*
Y03009*
Y03008*
X04938*
Y03008*
X04937*
Y03008*
Y03007*
X04937*
Y03007*
X04937*
Y03007*
Y03006*
X04936*
Y03006*
X04936*
Y03006*
X04935*
Y03005*
Y03005*
Y03005*
X04935*
Y03004*
Y03004*
X04935*
Y03004*
Y03003*
X04934*
Y03003*
X04934*
Y03003*
Y03002*
X04934*
Y03002*
X04933*
Y03002*
Y03001*
X04933*
Y03001*
X04933*
Y03001*
Y03*
X04932*
Y03*
X04932*
Y03*
Y02999*
X04932*
Y02999*
X04931*
Y02999*
Y02998*
X04931*
Y02998*
X04931*
Y02998*
Y02997*
X0493*
Y02997*
X0493*
Y02997*
Y02996*
X0493*
Y02996*
X04929*
Y02996*
Y02995*
X04929*
Y02995*
X04929*
Y02995*
Y02994*
X04928*
Y02994*
X04928*
Y02994*
Y02993*
X04928*
Y02993*
X04927*
Y02993*
Y02992*
X04927*
Y02992*
X04927*
Y02992*
Y02991*
X04926*
Y02991*
Y02991*
X04926*
Y0299*
Y0299*
X04925*
Y0299*
Y02989*
Y02989*
X04925*
Y02989*
X04925*
Y02988*
Y02988*
Y02988*
X04926*
Y02987*
Y02987*
X04926*
Y02987*
Y02986*
Y02986*
X04926*
Y02986*
Y02985*
X04927*
Y02985*
Y02985*
Y02984*
X04927*
Y02984*
Y02984*
X04927*
Y02983*
Y02983*
Y02983*
X04928*
Y02982*
Y02982*
X04928*
Y02982*
Y02981*
Y02981*
X04928*
Y02981*
Y0298*
Y0298*
X04929*
Y0298*
Y02979*
X04929*
Y02979*
Y02979*
Y02978*
Y02978*
X04929*
Y02978*
Y02977*
X0493*
Y02977*
Y02977*
X0493*
Y02976*
Y02976*
X0493*
Y02976*
Y02975*
Y02975*
X04931*
Y02975*
Y02974*
Y02974*
X04931*
Y02974*
Y02973*
Y02973*
X04931*
Y02973*
Y02972*
Y02972*
X04932*
Y02972*
X04932*
Y02971*
Y02971*
Y02971*
Y0297*
X04932*
Y0297*
X04933*
Y0297*
Y02969*
Y02969*
Y02969*
Y02968*
X04933*
Y02968*
X04933*
Y02968*
Y02967*
X04934*
Y02967*
Y02967*
Y02966*
X04934*
Y02966*
Y02966*
X04934*
Y02965*
Y02965*
Y02965*
X04935*
Y02964*
Y02964*
X04935*
Y02964*
Y02963*
Y02963*
Y02963*
X04935*
Y02962*
Y02962*
X04936*
Y02962*
Y02961*
X04936*
Y02961*
Y02961*
X04911*
Y02961*
Y02961*
X0491*
Y02962*
Y02962*
X0491*
Y02962*
Y02963*
Y02963*
Y02963*
X0491*
Y02964*
Y02964*
X04909*
Y02964*
Y02965*
X04909*
Y02965*
X04909*
Y02965*
X04908*
Y02964*
X04908*
Y02964*
Y02964*
X04908*
Y02963*
X04907*
Y02963*
Y02963*
X04907*
Y02962*
X04906*
Y02962*
Y02962*
X04906*
Y02961*
X04906*
Y02961*
Y02961*
X04863*
Y02961*
Y02961*
Y02962*
Y02962*
X04864*
Y02962*
X04864*
Y02963*
Y02963*
X04865*
Y02963*
X04865*
Y02964*
Y02964*
Y02964*
X04865*
Y02965*
X04866*
Y02965*
X04866*
Y02965*
Y02966*
X04866*
Y02966*
X04867*
Y02966*
Y02967*
X04867*
Y02967*
X04867*
Y02967*
X04868*
Y02968*
Y02968*
X04868*
Y02968*
X04868*
Y02969*
Y02969*
X04869*
Y02969*
X04869*
Y0297*
Y0297*
X04869*
Y0297*
X0487*
Y02971*
X0487*
Y02971*
Y02971*
Y02972*
X04871*
Y02972*
Y02972*
X04871*
Y02973*
X04871*
Y02973*
X04872*
Y02973*
Y02974*
X04872*
Y02974*
X04872*
Y02974*
X04873*
Y02975*
Y02975*
X04873*
Y02975*
X04873*
Y02976*
Y02976*
X04874*
Y02976*
Y02977*
Y02977*
X04874*
Y02977*
X04875*
Y02978*
Y02978*
X04875*
Y02978*
X04875*
Y02979*
X04876*
Y02979*
Y02979*
X04876*
Y0298*
X04876*
Y0298*
Y0298*
X04877*
Y02981*
X04877*
Y02981*
X04877*
Y02981*
Y02982*
X04878*
Y02982*
X04878*
Y02982*
Y02983*
X04878*
Y02983*
X04879*
Y02983*
X04879*
Y02984*
Y02984*
X0488*
Y02984*
Y02985*
Y02985*
X0488*
Y02985*
X0488*
Y02986*
X04881*
Y02986*
Y02986*
X04881*
Y02987*
X04881*
Y02987*
Y02987*
X04847*
Y02987*
X04847*
Y02987*
Y02986*
Y02986*
Y02986*
X04846*
Y02985*
Y02985*
X04846*
Y02985*
Y02984*
Y02984*
X04846*
Y02984*
Y02983*
X04845*
Y02983*
Y02983*
X04845*
Y02982*
Y02982*
Y02982*
X04845*
Y02981*
Y02981*
Y02981*
X04844*
Y0298*
Y0298*
X04844*
Y0298*
Y02979*
Y02979*
X04844*
Y02979*
Y02978*
X04843*
Y02978*
Y02978*
Y02977*
X04843*
Y02977*
Y02977*
X04843*
Y02976*
Y02976*
Y02976*
X04842*
Y02975*
Y02975*
X04842*
Y02975*
X04842*
Y02974*
Y02974*
Y02974*
Y02973*
Y02973*
X04841*
Y02973*
Y02972*
X04841*
Y02972*
X04841*
Y02972*
Y02971*
Y02971*
Y02971*
X0484*
Y0297*
Y0297*
Y0297*
X0484*
Y02969*
Y02969*
X0484*
Y02969*
Y02968*
X04839*
Y02968*
Y02968*
Y02967*
X04839*
Y02967*
Y02967*
Y02966*
X04839*
Y02966*
Y02966*
X04838*
Y02965*
Y02965*
Y02965*
X04838*
Y02964*
Y02964*
X04838*
Y02964*
Y02963*
Y02963*
X04837*
Y02963*
Y02962*
X04837*
Y02962*
Y02962*
Y02961*
X04837*
Y02961*
Y02961*
X04811*
Y02961*
Y02961*
X04812*
Y02962*
Y02962*
X04812*
Y02962*
Y02963*
Y02963*
X04812*
Y02963*
Y02964*
Y02964*
X04813*
Y02964*
Y02965*
X04813*
Y02965*
Y02965*
X04813*
Y02966*
Y02966*
Y02966*
X04814*
Y02967*
Y02967*
Y02967*
X04814*
Y02968*
Y02968*
X04814*
Y02968*
Y02969*
Y02969*
X04815*
Y02969*
Y0297*
X04815*
Y0297*
Y0297*
Y02971*
X04815*
Y02971*
Y02971*
Y02972*
X04816*
Y02972*
Y02972*
Y02973*
X04816*
Y02973*
Y02973*
X04816*
Y02974*
Y02974*
Y02974*
X04817*
Y02975*
Y02975*
X04817*
Y02975*
Y02976*
Y02976*
X04817*
Y02976*
Y02977*
X04818*
Y02977*
Y02977*
Y02978*
X04818*
Y02978*
Y02978*
X04818*
Y02979*
Y02979*
Y02979*
X04819*
Y0298*
X04819*
Y0298*
Y0298*
Y02981*
X04819*
Y02981*
Y02981*
Y02982*
Y02982*
X0482*
Y02982*
Y02983*
X0482*
Y02983*
Y02983*
Y02984*
X0482*
Y02984*
Y02984*
X04821*
Y02985*
Y02985*
Y02985*
X04821*
Y02986*
Y02986*
X04821*
Y02986*
Y02987*
Y02987*
X04822*
Y02987*
Y02988*
Y02988*
X04822*
Y02988*
Y02989*
X04822*
Y02989*
Y02989*
Y0299*
X04823*
Y0299*
Y0299*
Y02991*
X04823*
Y02991*
Y02991*
X04823*
Y02992*
Y02992*
Y02992*
X04824*
Y02993*
X04824*
Y02993*
Y02993*
Y02994*
Y02994*
X04824*
Y02994*
Y02995*
Y02995*
X04825*
Y02995*
Y02996*
X04825*
Y02996*
Y02996*
Y02997*
X04825*
Y02997*
Y02997*
X04826*
Y02998*
Y02998*
X04826*
Y02998*
Y02999*
Y02999*
X04826*
Y02999*
Y03*
Y03*
X04827*
Y03*
Y03001*
X04827*
Y03001*
Y03001*
Y03002*
X04827*
Y03002*
Y03002*
X04828*
Y03003*
Y03003*
X04828*
Y03003*
Y03004*
Y03004*
X04828*
Y03004*
Y03005*
Y03005*
Y03005*
X04829*
Y03006*
Y03006*
X04829*
Y03006*
X04829*
Y03007*
Y03007*
Y03007*
X0483*
Y03008*
Y03008*
Y03008*
Y03009*
X0483*
Y03009*
Y03009*
X0483*
Y0301*
Y0301*
Y0301*
X04831*
Y03011*
Y03011*
Y03011*
X04831*
Y03012*
Y03012*
X04831*
Y03012*
Y03013*
Y03013*
X04832*
Y03013*
Y03014*
X04832*
Y03014*
Y03014*
Y03015*
X04832*
Y03015*
Y03015*
Y03016*
X04833*
Y03016*
Y03016*
X04833*
Y03017*
Y03017*
Y03017*
X04833*
Y03018*
Y03018*
X04834*
Y03018*
Y03019*
Y03019*
X04834*
Y03019*
Y0302*
Y0302*
X04834*
Y0302*
Y03021*
X04835*
Y03021*
Y03021*
Y03022*
X04835*
Y03022*
Y03022*
X04835*
Y03023*
Y03023*
Y03023*
X04836*
Y03024*
Y03024*
X04836*
Y03024*
Y03025*
Y03025*
X04836*
Y03025*
Y03026*
Y03026*
X04837*
Y03026*
Y03027*
X04837*
Y03027*
Y03027*
Y03028*
X04837*
Y03028*
Y03028*
X04838*
Y03029*
Y03029*
X04838*
Y03029*
Y0303*
Y0303*
Y0303*
X04838*
Y03031*
X04839*
Y03031*
Y03031*
Y03032*
Y03032*
X04839*
Y03032*
Y03033*
X04839*
Y03033*
Y03033*
X0484*
Y03034*
Y03034*
X0484*
Y03034*
Y03035*
X0484*
Y03035*
Y03035*
Y03036*
Y03036*
X04841*
Y03036*
Y03037*
Y03037*
X04841*
Y03037*
Y03038*
Y03038*
X04841*
Y03038*
Y03039*
X04842*
Y03039*
Y03039*
Y0304*
X04842*
Y0304*
Y0304*
Y03041*
X04842*
Y03041*
X04843*
Y03041*
Y03042*
Y03042*
Y03042*
X04843*
Y03043*
Y03043*
X04843*
Y03043*
Y03044*
Y03044*
X04844*
Y03044*
Y03045*
X04844*
Y03045*
Y03045*
Y03046*
X04844*
Y03046*
Y03046*
Y03047*
X04845*
Y03047*
Y03047*
X04845*
Y03048*
Y03048*
Y03048*
X04845*
Y03049*
Y03049*
X04846*
Y03049*
Y0305*
Y0305*
X04846*
Y0305*
Y03051*
X04846*
Y03051*
Y03051*
X04847*
Y03052*
Y03052*
Y03052*
X04847*
Y03053*
Y03053*
Y03053*
X04847*
Y03054*
Y03054*
Y03054*
X04848*
Y03055*
Y03055*
X04848*
Y03055*
Y03056*
Y03056*
X04848*
Y03056*
Y03057*
Y03057*
X04849*
Y03058*
Y03058*
X04849*
Y03058*
Y03059*
X04849*
Y03059*
Y03059*
Y0306*
X0485*
Y0306*
Y0306*
Y03061*
X0485*
Y03061*
Y03061*
Y03062*
X0485*
Y03062*
X04851*
Y03062*
Y03063*
Y03063*
Y03063*
X04851*
Y03064*
Y03064*
X04851*
Y03064*
Y03065*
Y03065*
X04852*
Y03065*
X04852*
Y03066*
Y03066*
Y03066*
Y03067*
X04852*
Y03067*
Y03067*
X04853*
Y03068*
Y03068*
X04853*
Y03068*
Y03069*
Y03069*
Y03069*
X04853*
Y0307*
Y0307*
Y0307*
X04854*
Y03071*
X04854*
Y03071*
Y03071*
Y03072*
X04854*
Y03072*
Y03072*
Y03073*
X04855*
Y03073*
Y03073*
Y03074*
X04855*
Y03074*
Y03074*
X04855*
Y03075*
Y03075*
Y03075*
X04856*
Y03076*
Y03076*
Y03076*
X04856*
Y03077*
Y03077*
X04856*
Y03077*
Y03078*
Y03078*
X04857*
Y03078*
Y03079*
X04857*
Y03079*
Y03079*
Y0308*
X04857*
Y0308*
Y0308*
X04858*
Y03081*
Y03081*
Y03081*
X04858*
Y03082*
Y03082*
Y03082*
X04858*
Y03083*
Y03083*
X04781*
Y03083*
Y03082*
Y03082*
Y03082*
Y03081*
Y03081*
Y03081*
Y0308*
X04782*
Y0308*
Y0308*
Y03079*
Y03079*
X04782*
Y03079*
Y03078*
Y03078*
Y03078*
Y03077*
Y03077*
Y03077*
Y03076*
X04782*
Y03076*
Y03076*
Y03075*
Y03075*
X04783*
Y03075*
Y03074*
Y03074*
Y03074*
Y03073*
Y03073*
X04783*
Y03073*
Y03072*
Y03072*
Y03072*
Y03071*
Y03071*
X04783*
Y03071*
Y0307*
Y0307*
Y0307*
Y03069*
Y03069*
X04784*
Y03069*
Y03068*
Y03068*
Y03068*
Y03067*
Y03067*
Y03067*
X04784*
Y03066*
Y03066*
Y03066*
Y03065*
Y03065*
X04784*
Y03065*
Y03064*
Y03064*
Y03064*
Y03063*
X04785*
Y03063*
Y03063*
Y03062*
Y03062*
Y03062*
Y03061*
X04785*
Y03061*
Y03061*
Y0306*
Y0306*
Y0306*
Y03059*
Y03059*
Y03059*
X04785*
Y03058*
Y03058*
Y03058*
Y03057*
Y03057*
X04786*
Y03056*
Y03056*
Y03056*
Y03055*
Y03055*
X04786*
Y03055*
Y03054*
Y03054*
Y03054*
Y03053*
Y03053*
Y03053*
Y03052*
X04786*
Y03052*
Y03052*
Y03051*
Y03051*
X04787*
Y03051*
Y0305*
Y0305*
Y0305*
Y03049*
Y03049*
Y03049*
X04787*
Y03048*
Y03048*
Y03048*
Y03047*
Y03047*
Y03047*
X04787*
Y03046*
Y03046*
Y03046*
Y03045*
X04788*
Y03045*
Y03045*
Y03044*
Y03044*
Y03044*
Y03043*
Y03043*
Y03043*
X04788*
Y03042*
Y03042*
Y03042*
Y03041*
X04788*
Y03041*
Y03041*
Y0304*
Y0304*
Y0304*
Y03039*
X04789*
Y03039*
Y03039*
Y03038*
Y03038*
Y03038*
Y03037*
X04789*
Y03037*
Y03037*
Y03036*
Y03036*
Y03036*
Y03035*
X04789*
Y03035*
Y03035*
Y03034*
Y03034*
Y03034*
X0479*
Y03033*
Y03033*
Y03033*
Y03032*
Y03032*
Y03032*
X0479*
Y03031*
Y03031*
Y03031*
Y0303*
Y0303*
Y0303*
Y03029*
X0479*
Y03029*
Y03029*
Y03028*
Y03028*
Y03028*
X04791*
Y03027*
Y03027*
Y03027*
Y03026*
Y03026*
Y03026*
Y03025*
Y03025*
X04791*
Y03025*
Y03024*
Y03024*
Y03024*
Y03023*
Y03023*
X04791*
Y03023*
Y03022*
Y03022*
Y03022*
X04792*
Y03021*
Y03021*
Y03021*
Y0302*
Y0302*
X04792*
Y0302*
Y03019*
Y03019*
Y03019*
Y03018*
Y03018*
X04792*
Y03018*
Y03017*
Y03017*
Y03017*
Y03016*
Y03016*
Y03016*
Y03015*
X04793*
Y03015*
Y03015*
Y03014*
Y03014*
X04793*
Y03014*
Y03013*
Y03013*
Y03013*
Y03012*
Y03012*
X04793*
Y03012*
Y03011*
Y03011*
Y03011*
Y0301*
Y0301*
X04794*
Y0301*
Y03009*
Y03009*
Y03009*
Y03008*
Y03008*
X04794*
Y03008*
Y03007*
Y03007*
Y03007*
Y03006*
Y03006*
X04794*
Y03006*
Y03005*
Y03005*
Y03005*
Y03004*
X04795*
Y03004*
Y03004*
Y03003*
Y03003*
Y03003*
Y03002*
X04795*
Y03002*
Y03002*
Y03001*
Y03001*
Y03001*
Y03*
Y03*
X04795*
Y03*
Y02999*
Y02999*
Y02999*
Y02998*
X04796*
Y02998*
Y02998*
Y02997*
Y02997*
Y02997*
Y02996*
X04796*
Y02996*
Y02996*
Y02995*
Y02995*
Y02995*
Y02994*
Y02994*
X04796*
Y02994*
Y02993*
Y02993*
Y02993*
Y02992*
X04797*
Y02992*
Y02992*
Y02991*
Y02991*
Y02991*
Y0299*
X04797*
Y0299*
Y0299*
Y02989*
Y02989*
Y02989*
X04797*
Y02988*
Y02988*
Y02988*
Y02987*
Y02987*
Y02987*
Y02986*
Y02986*
X04798*
Y02986*
Y02985*
Y02985*
Y02985*
Y02984*
Y02984*
X04798*
Y02984*
Y02983*
Y02983*
Y02983*
Y02982*
X04798*
Y02982*
Y02982*
Y02981*
Y02981*
Y02981*
X04799*
Y0298*
Y0298*
Y0298*
Y02979*
Y02979*
Y02979*
X04799*
Y02978*
Y02978*
Y02978*
Y02977*
Y02977*
Y02977*
Y02976*
X04799*
Y02976*
Y02976*
Y02975*
Y02975*
X048*
Y02975*
Y02974*
Y02974*
Y02974*
Y02973*
Y02973*
Y02973*
X048*
Y02972*
Y02972*
Y02972*
Y02971*
Y02971*
Y02971*
Y0297*
X04801*
Y0297*
Y0297*
Y02969*
Y02969*
X04801*
Y02969*
Y02968*
Y02968*
Y02968*
Y02967*
Y02967*
Y02967*
Y02966*
X04801*
Y02966*
Y02966*
Y02965*
Y02965*
X04802*
Y02965*
Y02964*
Y02964*
Y02964*
Y02963*
Y02963*
X04802*
Y02963*
Y02962*
Y02962*
Y02962*
Y02961*
Y02961*
Y02961*
X04778*
Y02961*
Y02961*
Y02962*
Y02962*
Y02962*
X04778*
Y02963*
Y02963*
Y02963*
Y02964*
Y02964*
Y02964*
X04778*
Y02965*
Y02965*
Y02965*
Y02966*
Y02966*
Y02966*
Y02967*
X04777*
Y02967*
Y02967*
Y02968*
Y02968*
X04777*
Y02968*
Y02969*
Y02969*
Y02969*
Y0297*
Y0297*
X04777*
Y0297*
Y02971*
Y02971*
Y02971*
Y02972*
Y02972*
X04776*
Y02972*
Y02973*
Y02973*
Y02973*
Y02974*
Y02974*
X04776*
Y02974*
Y02975*
Y02975*
Y02975*
Y02976*
Y02976*
X04776*
Y02976*
Y02977*
Y02977*
Y02977*
Y02978*
X04775*
Y02978*
Y02978*
Y02979*
Y02979*
Y02979*
Y0298*
X04775*
Y0298*
Y0298*
Y02981*
Y02981*
Y02981*
Y02982*
X04775*
Y02982*
Y02982*
Y02983*
Y02983*
Y02983*
Y02984*
Y02984*
X04774*
Y02984*
Y02985*
Y02985*
Y02985*
Y02986*
Y02986*
Y02986*
X04774*
Y02987*
Y02987*
Y02987*
Y02988*
X04774*
Y02988*
Y02988*
Y02989*
Y02989*
Y02989*
Y0299*
X04773*
Y0299*
Y0299*
Y02991*
Y02991*
Y02991*
Y02992*
X04773*
Y02992*
Y02992*
Y02993*
Y02993*
Y02993*
Y02994*
Y02994*
X04773*
Y02994*
Y02995*
Y02995*
Y02995*
Y02996*
Y02996*
X04772*
Y02996*
Y02997*
Y02997*
Y02997*
X04772*
Y02998*
Y02998*
Y02998*
Y02999*
Y02999*
Y02999*
Y03*
Y03*
X04772*
Y03*
Y03001*
Y03001*
Y03001*
X04771*
Y03002*
Y03002*
Y03002*
Y03003*
Y03003*
Y03003*
X04771*
Y03004*
Y03004*
Y03004*
Y03005*
Y03005*
Y03005*
X04771*
Y03006*
Y03006*
Y03006*
Y03007*
Y03007*
Y03007*
X0477*
Y03008*
Y03008*
Y03008*
Y03009*
Y03009*
Y03009*
X0477*
Y0301*
Y0301*
Y0301*
Y03011*
Y03011*
X0477*
Y03011*
Y03012*
Y03012*
Y03012*
Y03013*
Y03013*
X04769*
Y03013*
Y03014*
Y03014*
Y03014*
Y03015*
Y03015*
Y03015*
Y03016*
X04769*
Y03016*
Y03016*
Y03017*
Y03017*
X04769*
Y03017*
Y03018*
Y03018*
Y03018*
Y03019*
Y03019*
X04768*
Y03019*
Y0302*
Y0302*
Y0302*
Y03021*
Y03021*
X04768*
Y03021*
Y03022*
Y03022*
Y03022*
Y03023*
Y03023*
X04768*
Y03023*
Y03024*
Y03024*
Y03024*
Y03025*
Y03025*
Y03025*
X04767*
Y03026*
Y03026*
Y03026*
Y03027*
Y03027*
X04767*
Y03027*
Y03028*
Y03028*
Y03028*
Y03029*
X04767*
Y03029*
Y03029*
Y0303*
Y0303*
Y0303*
Y03031*
X04766*
Y03031*
Y03031*
Y03032*
Y03032*
Y03032*
Y03033*
X04766*
Y03033*
Y03033*
Y03034*
Y03034*
Y03034*
Y03035*
X04766*
Y03035*
Y03035*
Y03036*
Y03036*
Y03036*
Y03037*
Y03037*
X04765*
Y03037*
Y03038*
Y03038*
Y03038*
X04765*
Y03039*
Y03039*
Y03039*
Y0304*
Y0304*
Y0304*
X04764*
Y0304*
X04764*
Y0304*
Y03039*
Y03039*
X04763*
Y03039*
X04763*
Y03038*
Y03038*
Y03038*
Y03037*
Y03037*
X04763*
Y03037*
Y03036*
Y03036*
X04762*
Y03036*
Y03035*
X04762*
Y03035*
Y03035*
Y03034*
X04762*
Y03034*
Y03034*
Y03033*
X04761*
Y03033*
Y03033*
Y03032*
X04761*
Y03032*
Y03032*
Y03031*
X04761*
Y03031*
Y03031*
Y0303*
Y0303*
X0476*
Y0303*
Y03029*
X0476*
Y03029*
Y03029*
Y03028*
X0476*
Y03028*
Y03028*
Y03027*
X04759*
Y03027*
Y03027*
Y03026*
X04759*
Y03026*
Y03026*
X04759*
Y03025*
Y03025*
Y03025*
Y03024*
X04758*
Y03024*
Y03024*
Y03023*
X04758*
Y03023*
Y03023*
Y03022*
Y03022*
X04758*
Y03022*
Y03021*
X04757*
Y03021*
Y03021*
Y0302*
X04757*
Y0302*
Y0302*
X04757*
Y03019*
Y03019*
Y03019*
Y03018*
X04756*
Y03018*
Y03018*
X04756*
Y03017*
Y03017*
Y03017*
Y03016*
X04756*
Y03016*
Y03016*
X04755*
Y03015*
Y03015*
Y03015*
Y03014*
X04755*
Y03014*
Y03014*
Y03013*
X04755*
Y03013*
Y03013*
Y03012*
X04754*
Y03012*
Y03012*
X04754*
Y03011*
Y03011*
Y03011*
Y0301*
X04754*
Y0301*
Y0301*
Y03009*
X04753*
Y03009*
Y03009*
Y03008*
X04753*
Y03008*
Y03008*
X04753*
Y03007*
Y03007*
Y03007*
Y03006*
X04752*
Y03006*
Y03006*
Y03005*
X04752*
Y03005*
Y03005*
X04752*
Y03004*
Y03004*
Y03004*
Y03003*
X04751*
Y03003*
Y03003*
Y03002*
X04751*
Y03002*
Y03002*
X04751*
Y03001*
Y03001*
Y03001*
Y03*
X0475*
Y03*
Y03*
Y02999*
X0475*
Y02999*
Y02999*
Y02998*
X0475*
Y02998*
Y02998*
Y02997*
X04749*
Y02997*
Y02997*
Y02996*
X04749*
Y02996*
Y02996*
Y02995*
X04749*
Y02995*
Y02995*
Y02994*
X04748*
Y02994*
Y02994*
X04748*
Y02993*
Y02993*
Y02993*
Y02992*
X04748*
Y02992*
Y02992*
Y02991*
X04747*
Y02991*
Y02991*
Y0299*
X04747*
Y0299*
Y0299*
Y02989*
X04747*
Y02989*
Y02989*
Y02988*
X04746*
Y02988*
Y02988*
Y02987*
X04746*
Y02987*
Y02987*
Y02986*
X04746*
Y02986*
Y02986*
Y02985*
X04745*
Y02985*
Y02985*
Y02984*
X04745*
Y02984*
Y02984*
Y02983*
X04745*
Y02983*
Y02983*
Y02982*
X04744*
Y02982*
Y02982*
Y02981*
X04744*
Y02981*
Y02981*
Y0298*
X04744*
Y0298*
Y0298*
Y02979*
X04743*
Y02979*
Y02979*
Y02978*
X04743*
Y02978*
Y02978*
X04743*
Y02977*
Y02977*
Y02977*
Y02976*
X04742*
Y02976*
Y02976*
Y02975*
X04742*
Y02975*
Y02975*
Y02974*
X04742*
Y02974*
Y02974*
Y02973*
X04741*
Y02973*
Y02973*
Y02972*
X04741*
Y02972*
Y02972*
Y02971*
X04741*
Y02971*
Y02971*
Y0297*
X0474*
Y0297*
Y0297*
X0474*
Y02969*
Y02969*
Y02969*
Y02968*
X0474*
Y02968*
Y02968*
Y02967*
X04739*
Y02967*
Y02967*
X04739*
Y02966*
Y02966*
Y02966*
Y02965*
X04739*
Y02965*
Y02965*
X04738*
Y02964*
Y02964*
Y02964*
Y02963*
X04738*
Y02963*
Y02963*
Y02962*
X04738*
Y02962*
Y02962*
X04737*
Y02961*
Y02961*
Y02961*
X04716*
Y02961*
X04715*
Y02961*
Y02962*
Y02962*
X04715*
Y02962*
Y02963*
Y02963*
X04715*
Y02963*
Y02964*
Y02964*
Y02964*
X04714*
Y02965*
Y02965*
X04714*
Y02965*
Y02966*
Y02966*
X04714*
Y02966*
Y02967*
Y02967*
X04713*
Y02967*
Y02968*
Y02968*
X04713*
Y02968*
Y02969*
Y02969*
Y02969*
X04713*
Y0297*
Y0297*
Y0297*
Y02971*
X04712*
Y02971*
X04712*
Y02971*
Y02972*
Y02972*
X04712*
Y02972*
Y02973*
Y02973*
Y02973*
X04711*
Y02974*
Y02974*
X04711*
Y02974*
Y02975*
Y02975*
Y02975*
X04711*
Y02976*
Y02976*
X0471*
Y02976*
Y02977*
Y02977*
X0471*
Y02977*
Y02978*
Y02978*
X0471*
Y02978*
Y02979*
Y02979*
X04709*
Y02979*
Y0298*
Y0298*
X04709*
Y0298*
Y02981*
Y02981*
X04709*
Y02981*
Y02982*
Y02982*
X04708*
Y02982*
Y02983*
Y02983*
X04708*
Y02983*
Y02984*
Y02984*
X04708*
Y02984*
Y02985*
Y02985*
X04707*
Y02985*
Y02986*
Y02986*
X04707*
Y02986*
Y02987*
Y02987*
X04707*
Y02987*
Y02988*
Y02988*
X04706*
Y02988*
Y02989*
Y02989*
Y02989*
X04706*
Y0299*
Y0299*
X04706*
Y0299*
Y02991*
Y02991*
X04705*
Y02991*
Y02992*
Y02992*
X04705*
Y02992*
Y02993*
Y02993*
X04705*
Y02993*
Y02994*
Y02994*
X04704*
Y02994*
Y02995*
Y02995*
X04704*
Y02995*
Y02996*
Y02996*
Y02996*
X04704*
Y02997*
Y02997*
X04703*
Y02997*
Y02998*
Y02998*
X04703*
Y02998*
Y02999*
Y02999*
X04703*
Y02999*
Y03*
Y03*
X04702*
Y03*
Y03001*
Y03001*
X04702*
Y03001*
Y03002*
Y03002*
Y03002*
Y03003*
X04702*
Y03003*
X04701*
Y03003*
Y03004*
Y03004*
Y03004*
X04701*
Y03005*
Y03005*
Y03005*
Y03006*
X04701*
Y03006*
Y03006*
Y03007*
X047*
Y03007*
X047*
Y03007*
Y03008*
Y03008*
X047*
Y03008*
Y03009*
Y03009*
Y03009*
X04699*
Y0301*
Y0301*
Y0301*
X04699*
Y03011*
Y03011*
X04699*
Y03011*
Y03012*
Y03012*
X04698*
Y03012*
Y03013*
Y03013*
X04698*
Y03013*
Y03014*
Y03014*
X04698*
Y03014*
Y03015*
Y03015*
X04697*
Y03015*
Y03016*
Y03016*
X04697*
Y03016*
Y03017*
Y03017*
Y03017*
X04697*
Y03018*
Y03018*
Y03018*
X04696*
Y03019*
Y03019*
X04696*
Y03019*
Y0302*
Y0302*
X04696*
Y0302*
Y03021*
Y03021*
Y03021*
X04695*
Y03022*
Y03022*
X04695*
Y03022*
Y03023*
Y03023*
Y03023*
X04695*
Y03024*
Y03024*
Y03024*
X04694*
Y03025*
Y03025*
Y03025*
X04694*
Y03026*
Y03026*
X04694*
Y03026*
Y03027*
Y03027*
X04693*
Y03027*
Y03028*
Y03028*
Y03028*
X04693*
Y03029*
Y03029*
Y03029*
X04693*
Y0303*
Y0303*
X04692*
Y0303*
Y03031*
Y03031*
Y03031*
X04692*
Y03032*
Y03032*
X04691*
Y03032*
Y03033*
Y03033*
Y03033*
X04691*
Y03034*
Y03034*
Y03034*
X04691*
Y03035*
Y03035*
X0469*
Y03035*
Y03036*
Y03036*
Y03036*
X0469*
Y03037*
Y03037*
X0469*
Y03037*
Y03038*
Y03038*
X04689*
Y03038*
Y03039*
Y03039*
Y03039*
Y0304*
X04689*
Y0304*
Y0304*
X04689*
Y03041*
Y03041*
X04688*
Y03041*
Y0304*
Y0304*
Y0304*
Y03039*
Y03039*
Y03039*
X04687*
Y03038*
Y03038*
Y03038*
Y03037*
Y03037*
Y03037*
X04687*
Y03036*
Y03036*
Y03036*
Y03035*
Y03035*
X04687*
Y03035*
Y03034*
Y03034*
Y03034*
Y03033*
Y03033*
X04686*
Y03033*
Y03032*
Y03032*
Y03032*
X04686*
Y03031*
Y03031*
Y03031*
Y0303*
Y0303*
Y0303*
Y03029*
X04686*
Y03029*
Y03029*
Y03028*
Y03028*
Y03028*
X04685*
Y03027*
Y03027*
Y03027*
Y03026*
Y03026*
Y03026*
X04685*
Y03025*
Y03025*
Y03025*
Y03024*
Y03024*
Y03024*
X04685*
Y03023*
Y03023*
Y03023*
Y03022*
Y03022*
X04684*
Y03022*
Y03021*
Y03021*
Y03021*
Y0302*
Y0302*
X04684*
Y0302*
Y03019*
Y03019*
Y03019*
X04684*
Y03018*
Y03018*
Y03018*
Y03017*
Y03017*
Y03017*
Y03016*
X04683*
Y03016*
Y03016*
Y03015*
Y03015*
Y03015*
X04683*
Y03014*
Y03014*
Y03014*
Y03013*
Y03013*
Y03013*
X04683*
Y03012*
Y03012*
Y03012*
Y03011*
Y03011*
Y03011*
X04682*
Y0301*
Y0301*
Y0301*
Y03009*
X04682*
Y03009*
Y03009*
Y03008*
Y03008*
Y03008*
Y03007*
Y03007*
X04682*
Y03007*
Y03006*
Y03006*
Y03006*
Y03005*
Y03005*
X04681*
Y03005*
Y03004*
Y03004*
Y03004*
Y03003*
X04681*
Y03003*
Y03003*
Y03002*
Y03002*
X04681*
Y03002*
Y03001*
Y03001*
Y03001*
Y03*
Y03*
Y03*
Y02999*
X0468*
Y02999*
Y02999*
Y02998*
Y02998*
Y02998*
Y02997*
X0468*
Y02997*
Y02997*
Y02996*
X0468*
Y02996*
Y02996*
Y02995*
Y02995*
Y02995*
Y02994*
Y02994*
Y02994*
X04679*
Y02993*
Y02993*
Y02993*
Y02992*
Y02992*
X04679*
Y02992*
Y02991*
Y02991*
Y02991*
Y0299*
Y0299*
X04679*
Y0299*
Y02989*
Y02989*
Y02989*
Y02988*
X04678*
Y02988*
Y02988*
Y02987*
Y02987*
Y02987*
Y02986*
X04678*
Y02986*
Y02986*
Y02985*
Y02985*
Y02985*
Y02984*
X04678*
Y02984*
Y02984*
Y02983*
Y02983*
X04677*
Y02983*
Y02982*
Y02982*
Y02982*
Y02981*
Y02981*
Y02981*
X04677*
Y0298*
Y0298*
Y0298*
Y02979*
Y02979*
X04677*
Y02979*
Y02978*
Y02978*
Y02978*
Y02977*
Y02977*
X04676*
Y02977*
Y02976*
Y02976*
Y02976*
X04676*
Y02975*
Y02975*
Y02975*
Y02974*
Y02974*
Y02974*
Y02973*
X04676*
Y02973*
Y02973*
Y02972*
Y02972*
Y02972*
Y02971*
X04675*
Y02971*
Y02971*
Y0297*
Y0297*
X04675*
Y0297*
Y02969*
Y02969*
Y02969*
Y02968*
Y02968*
Y02968*
X04675*
Y02967*
Y02967*
Y02967*
Y02966*
Y02966*
Y02966*
X04674*
Y02965*
Y02965*
Y02965*
Y02964*
Y02964*
X04674*
Y02964*
Y02963*
Y02963*
Y02963*
Y02962*
Y02962*
X04674*
Y02962*
Y02961*
Y02961*
Y02961*
X0465*
Y02961*
Y02961*
Y02962*
Y02962*
Y02962*
Y02963*
Y02963*
X04651*
Y02963*
Y02964*
Y02964*
Y02964*
Y02965*
Y02965*
X04651*
Y02965*
Y02966*
Y02966*
Y02966*
Y02967*
X04651*
Y02967*
Y02967*
Y02968*
Y02968*
X04652*
Y02968*
Y02969*
Y02969*
Y02969*
Y0297*
Y0297*
Y0297*
Y02971*
X04652*
Y02971*
Y02971*
Y02972*
Y02972*
Y02972*
X04652*
Y02973*
Y02973*
Y02973*
Y02974*
Y02974*
X04653*
Y02974*
Y02975*
Y02975*
Y02975*
Y02976*
Y02976*
X04653*
Y02976*
Y02977*
Y02977*
Y02977*
Y02978*
Y02978*
X04653*
Y02978*
Y02979*
Y02979*
Y02979*
Y0298*
X04654*
Y0298*
Y0298*
Y02981*
Y02981*
Y02981*
Y02982*
X04654*
Y02982*
Y02982*
Y02983*
Y02983*
X04654*
Y02983*
Y02984*
Y02984*
Y02984*
Y02985*
Y02985*
Y02985*
X04655*
Y02986*
Y02986*
Y02986*
Y02987*
Y02987*
Y02987*
X04655*
Y02988*
Y02988*
Y02988*
Y02989*
Y02989*
Y02989*
X04655*
Y0299*
Y0299*
Y0299*
Y02991*
Y02991*
X04656*
Y02991*
Y02992*
Y02992*
Y02992*
Y02993*
Y02993*
X04656*
Y02993*
Y02994*
Y02994*
Y02994*
X04656*
Y02995*
Y02995*
Y02995*
Y02996*
Y02996*
Y02996*
X04657*
Y02997*
Y02997*
Y02997*
Y02998*
Y02998*
Y02998*
Y02999*
X04657*
Y02999*
Y02999*
Y03*
Y03*
X04657*
Y03*
Y03001*
Y03001*
Y03001*
Y03002*
Y03002*
Y03002*
X04658*
Y03003*
Y03003*
Y03003*
Y03004*
Y03004*
X04658*
Y03004*
Y03005*
Y03005*
Y03005*
Y03006*
Y03006*
X04658*
Y03006*
Y03007*
Y03007*
Y03007*
Y03008*
Y03008*
X04659*
Y03008*
Y03009*
Y03009*
X04659*
Y03009*
Y0301*
Y0301*
Y0301*
Y03011*
Y03011*
Y03011*
X04659*
Y03012*
Y03012*
Y03012*
Y03013*
Y03013*
Y03013*
X0466*
Y03014*
Y03014*
Y03014*
Y03015*
Y03015*
Y03015*
X0466*
Y03016*
Y03016*
Y03016*
Y03017*
Y03017*
Y03017*
X0466*
Y03018*
Y03018*
Y03018*
Y03019*
Y03019*
X04661*
Y03019*
Y0302*
Y0302*
Y0302*
Y03021*
X04661*
Y03021*
Y03021*
Y03022*
Y03022*
Y03022*
Y03023*
X04661*
Y03023*
Y03023*
Y03024*
Y03024*
Y03024*
Y03025*
X04662*
Y03025*
Y03025*
Y03026*
Y03026*
Y03026*
Y03027*
X04662*
Y03027*
Y03027*
Y03028*
Y03028*
Y03028*
X04662*
Y03029*
Y03029*
Y03029*
Y0303*
Y0303*
Y0303*
X04663*
Y03031*
Y03031*
Y03031*
Y03032*
Y03032*
Y03032*
X04663*
Y03033*
Y03033*
Y03033*
Y03034*
Y03034*
X04663*
Y03034*
Y03035*
Y03035*
Y03035*
Y03036*
Y03036*
X04664*
Y03036*
Y03037*
Y03037*
Y03037*
Y03038*
X04664*
Y03038*
Y03038*
Y03039*
Y03039*
X04664*
Y03039*
Y0304*
Y0304*
Y0304*
Y03041*
Y03041*
Y03041*
Y03042*
X04665*
Y03042*
Y03042*
Y03043*
Y03043*
Y03043*
X04665*
Y03044*
Y03044*
Y03044*
Y03045*
Y03045*
Y03045*
X04665*
Y03046*
Y03046*
Y03046*
Y03047*
X04666*
Y03047*
Y03047*
Y03048*
Y03048*
Y03048*
Y03049*
Y03049*
X04666*
Y03049*
Y0305*
Y0305*
Y0305*
Y03051*
Y03051*
X04666*
Y03051*
Y03052*
Y03052*
Y03052*
Y03053*
X04667*
Y03053*
Y03053*
Y03054*
Y03054*
X04667*
Y03054*
Y03055*
Y03055*
Y03055*
Y03056*
Y03056*
Y03056*
X04667*
Y03057*
Y03057*
Y03058*
Y03058*
Y03058*
X04668*
Y03059*
Y03059*
Y03059*
Y0306*
Y0306*
Y0306*
Y03061*
X04668*
Y03061*
Y03061*
Y03062*
Y03062*
Y03062*
X04668*
Y03063*
Y03063*
Y03063*
Y03064*
Y03064*
X04669*
Y03064*
Y03065*
Y03065*
Y03065*
Y03066*
X04669*
Y03066*
Y03066*
Y03067*
Y03067*
Y03067*
Y03068*
Y03068*
X04669*
Y03068*
Y03069*
Y03069*
Y03069*
Y0307*
Y0307*
X0467*
Y0307*
Y03071*
Y03071*
Y03071*
Y03072*
X0467*
Y03072*
Y03072*
Y03073*
Y03073*
Y03073*
Y03074*
X0467*
Y03074*
Y03074*
Y03075*
Y03075*
Y03075*
Y03076*
X04671*
Y03076*
Y03076*
Y03077*
Y03077*
Y03077*
X04671*
Y03078*
Y03078*
Y03078*
Y03079*
Y03079*
Y03079*
X04671*
Y0308*
Y0308*
Y0308*
Y03081*
Y03081*
X04672*
Y03081*
Y03082*
Y03082*
Y03082*
Y03083*
Y03083*
X04633*
Y03083*
Y03082*
Y03082*
Y03082*
Y03081*
Y03081*
Y03081*
Y0308*
Y0308*
Y0308*
Y03079*
Y03079*
Y03079*
Y03078*
Y03078*
Y03078*
Y03077*
Y03077*
Y03077*
Y03076*
Y03076*
Y03076*
Y03075*
Y03075*
Y03075*
Y03074*
Y03074*
Y03074*
Y03073*
Y03073*
Y03073*
Y03072*
Y03072*
Y03072*
Y03071*
Y03071*
Y03071*
Y0307*
Y0307*
Y0307*
Y03069*
Y03069*
Y03069*
Y03068*
Y03068*
Y03068*
Y03067*
Y03067*
Y03067*
Y03066*
Y03066*
Y03066*
Y03065*
Y03065*
Y03065*
Y03064*
Y03064*
Y03064*
Y03063*
Y03063*
Y03063*
Y03062*
Y03062*
Y03062*
Y03061*
Y03061*
Y03061*
Y0306*
Y0306*
Y0306*
Y03059*
Y03059*
Y03059*
Y03058*
Y03058*
Y03058*
Y03057*
Y03057*
Y03056*
Y03056*
Y03056*
Y03055*
Y03055*
Y03055*
Y03054*
Y03054*
Y03054*
Y03053*
Y03053*
Y03053*
Y03052*
Y03052*
Y03052*
Y03051*
Y03051*
Y03051*
Y0305*
Y0305*
Y0305*
Y03049*
Y03049*
Y03049*
Y03048*
Y03048*
Y03048*
Y03047*
Y03047*
Y03047*
Y03046*
Y03046*
Y03046*
Y03045*
Y03045*
Y03045*
Y03044*
Y03044*
Y03044*
Y03043*
Y03043*
Y03043*
Y03042*
Y03042*
Y03042*
Y03041*
Y03041*
Y03041*
Y0304*
Y0304*
Y0304*
Y03039*
Y03039*
Y03039*
Y03038*
Y03038*
Y03038*
Y03037*
Y03037*
Y03037*
Y03036*
Y03036*
Y03036*
Y03035*
Y03035*
Y03035*
Y03034*
Y03034*
Y03034*
Y03033*
Y03033*
Y03033*
Y03032*
Y03032*
Y03032*
Y03031*
Y03031*
Y03031*
Y0303*
Y0303*
Y0303*
Y03029*
Y03029*
Y03029*
Y03028*
Y03028*
Y03028*
Y03027*
Y03027*
Y03027*
Y03026*
Y03026*
Y03026*
Y03025*
Y03025*
Y03025*
Y03024*
Y03024*
Y03024*
Y03023*
Y03023*
Y03023*
Y03022*
Y03022*
Y03022*
Y03021*
Y03021*
Y03021*
Y0302*
Y0302*
Y0302*
Y03019*
Y03019*
Y03019*
Y03018*
Y03018*
Y03018*
Y03017*
Y03017*
Y03017*
Y03016*
Y03016*
Y03016*
Y03015*
Y03015*
Y03015*
Y03014*
Y03014*
Y03014*
Y03013*
Y03013*
Y03013*
Y03012*
Y03012*
Y03012*
Y03011*
Y03011*
Y03011*
Y0301*
Y0301*
Y0301*
Y03009*
Y03009*
Y03009*
Y03008*
Y03008*
Y03008*
Y03007*
Y03007*
Y03007*
Y03006*
Y03006*
Y03006*
Y03005*
Y03005*
Y03005*
Y03004*
Y03004*
Y03004*
Y03003*
Y03003*
Y03003*
Y03002*
Y03002*
Y03002*
Y03001*
Y03001*
Y03001*
Y03*
Y03*
Y03*
Y02999*
Y02999*
Y02999*
Y02998*
Y02998*
Y02998*
Y02997*
Y02997*
Y02997*
Y02996*
Y02996*
Y02996*
Y02995*
Y02995*
Y02995*
Y02994*
Y02994*
Y02994*
Y02993*
Y02993*
Y02993*
Y02992*
Y02992*
Y02992*
Y02991*
Y02991*
Y02991*
Y0299*
Y0299*
Y0299*
Y02989*
Y02989*
Y02989*
Y02988*
Y02988*
Y02988*
Y02987*
Y02987*
Y02987*
Y02986*
Y02986*
Y02986*
Y02985*
Y02985*
Y02985*
Y02984*
Y02984*
Y02984*
Y02983*
Y02983*
Y02983*
Y02982*
Y02982*
Y02982*
Y02981*
Y02981*
Y02981*
Y0298*
Y0298*
Y0298*
Y02979*
Y02979*
Y02979*
Y02978*
Y02978*
Y02978*
Y02977*
Y02977*
Y02977*
Y02976*
Y02976*
Y02976*
Y02975*
Y02975*
Y02975*
Y02974*
Y02974*
Y02974*
Y02973*
Y02973*
Y02973*
Y02972*
Y02972*
Y02972*
Y02971*
Y02971*
Y02971*
Y0297*
Y0297*
Y0297*
Y02969*
Y02969*
Y02969*
Y02968*
Y02968*
Y02968*
Y02967*
Y02967*
Y02967*
Y02966*
Y02966*
Y02966*
Y02965*
Y02965*
Y02965*
Y02964*
Y02964*
Y02964*
Y02963*
Y02963*
Y02963*
Y02962*
Y02962*
Y02962*
Y02961*
Y02961*
Y02961*
X04594*
Y02961*
Y02961*
Y02962*
Y02962*
Y02962*
Y02963*
Y02963*
Y02963*
Y02964*
Y02964*
Y02964*
Y02965*
Y02965*
Y02965*
Y02966*
Y02966*
Y02966*
Y02967*
Y02967*
Y02967*
Y02968*
Y02968*
Y02968*
Y02969*
Y02969*
Y02969*
Y0297*
Y0297*
Y0297*
Y02971*
Y02971*
Y02971*
Y02972*
Y02972*
Y02972*
Y02973*
Y02973*
Y02973*
Y02974*
Y02974*
Y02974*
Y02975*
Y02975*
Y02975*
Y02976*
Y02976*
Y02976*
Y02977*
Y02977*
Y02977*
Y02978*
Y02978*
Y02978*
Y02979*
Y02979*
Y02979*
Y0298*
Y0298*
Y0298*
Y02981*
Y02981*
Y02981*
Y02982*
Y02982*
Y02982*
Y02983*
Y02983*
Y02983*
Y02984*
Y02984*
Y02984*
Y02985*
Y02985*
Y02985*
Y02986*
Y02986*
Y02986*
Y02987*
Y02987*
Y02987*
Y02988*
Y02988*
Y02988*
Y02989*
Y02989*
Y02989*
Y0299*
Y0299*
Y0299*
Y02991*
Y02991*
Y02991*
Y02992*
Y02992*
Y02992*
Y02993*
Y02993*
Y02993*
Y02994*
Y02994*
Y02994*
Y02995*
Y02995*
Y02995*
Y02996*
Y02996*
Y02996*
Y02997*
Y02997*
Y02997*
Y02998*
Y02998*
Y02998*
Y02999*
Y02999*
Y02999*
Y03*
Y03*
Y03*
Y03001*
Y03001*
Y03001*
Y03002*
Y03002*
Y03002*
Y03003*
Y03003*
Y03003*
Y03004*
Y03004*
Y03004*
Y03005*
Y03005*
Y03005*
Y03006*
Y03006*
Y03006*
Y03007*
Y03007*
Y03007*
Y03008*
Y03008*
Y03008*
Y03009*
Y03009*
Y03009*
Y0301*
Y0301*
Y0301*
Y03011*
Y03011*
Y03011*
Y03012*
Y03012*
Y03012*
Y03013*
Y03013*
Y03013*
Y03014*
Y03014*
Y03014*
Y03015*
Y03015*
Y03015*
Y03016*
Y03016*
Y03016*
Y03017*
Y03017*
Y03017*
Y03018*
Y03018*
Y03018*
Y03019*
Y03019*
Y03019*
Y0302*
Y0302*
Y0302*
Y03021*
Y03021*
Y03021*
Y03022*
Y03022*
Y03022*
Y03023*
Y03023*
Y03023*
Y03024*
Y03024*
Y03024*
Y03025*
Y03025*
Y03025*
Y03026*
Y03026*
Y03026*
Y03027*
Y03027*
Y03027*
Y03028*
Y03028*
Y03028*
Y03029*
Y03029*
Y03029*
Y0303*
Y0303*
Y0303*
Y03031*
Y03031*
Y03031*
Y03032*
Y03032*
Y03032*
Y03033*
Y03033*
Y03033*
Y03034*
Y03034*
Y03034*
Y03035*
Y03035*
Y03035*
Y03036*
Y03036*
Y03036*
Y03037*
Y03037*
Y03037*
Y03038*
Y03038*
Y03038*
Y03039*
Y03039*
Y03039*
Y0304*
Y0304*
Y0304*
Y03041*
Y03041*
Y03041*
Y03042*
Y03042*
Y03042*
Y03043*
Y03043*
Y03043*
Y03044*
Y03044*
Y03044*
Y03045*
Y03045*
Y03045*
Y03046*
Y03046*
Y03046*
Y03047*
Y03047*
Y03047*
Y03048*
Y03048*
Y03048*
Y03049*
Y03049*
Y03049*
Y0305*
Y0305*
Y0305*
Y03051*
Y03051*
Y03051*
Y03052*
Y03052*
Y03052*
Y03053*
Y03053*
Y03053*
Y03054*
Y03054*
Y03054*
Y03055*
Y03055*
Y03055*
Y03056*
Y03056*
Y03056*
Y03057*
Y03057*
Y03058*
Y03058*
Y03058*
Y03059*
Y03059*
Y03059*
Y0306*
Y0306*
Y0306*
Y03061*
Y03061*
Y03061*
Y03062*
Y03062*
Y03062*
Y03063*
Y03063*
Y03063*
Y03064*
Y03064*
Y03064*
Y03065*
Y03065*
Y03065*
Y03066*
Y03066*
Y03066*
Y03067*
Y03067*
Y03067*
Y03068*
Y03068*
Y03068*
Y03069*
Y03069*
Y03069*
Y0307*
Y0307*
Y0307*
Y03071*
Y03071*
Y03071*
Y03072*
Y03072*
Y03072*
Y03073*
Y03073*
Y03073*
Y03074*
Y03074*
Y03074*
Y03075*
Y03075*
Y03075*
Y03076*
Y03076*
Y03076*
Y03077*
Y03077*
Y03077*
Y03078*
Y03078*
Y03078*
Y03079*
Y03079*
Y03079*
Y0308*
Y0308*
Y0308*
Y03081*
Y03081*
Y03081*
Y03082*
Y03082*
Y03082*
Y03083*
Y03083*
X04547*
Y03083*
Y03084*
Y03084*
Y03084*
Y03085*
Y03085*
Y03085*
Y03086*
Y03086*
Y03086*
Y03087*
Y03087*
Y03087*
Y03088*
Y03088*
Y03088*
Y03089*
Y03089*
Y03089*
Y0309*
Y0309*
Y0309*
Y03091*
Y03091*
Y03091*
Y03092*
Y03092*
Y03092*
Y03093*
Y03093*
Y03093*
Y03094*
Y03094*
Y03094*
Y03095*
Y03095*
Y03095*
Y03096*
Y03096*
Y03096*
Y03097*
Y03097*
Y03097*
Y03098*
Y03098*
Y03098*
Y03099*
Y03099*
Y03099*
Y031*
Y031*
Y031*
Y03101*
Y03101*
Y03101*
Y03102*
Y03102*
Y03102*
Y03103*
Y03103*
Y03103*
Y03104*
Y03104*
Y03104*
Y03105*
Y03105*
Y03105*
Y03106*
Y03106*
Y03106*
Y03107*
Y03107*
Y03107*
Y03108*
Y03108*
Y03108*
Y03109*
Y03109*
Y03109*
Y0311*
Y0311*
Y0311*
Y03111*
Y03111*
Y03111*
Y03112*
X04547*
Y03112*
X04547*
Y03112*
X04909*
Y03112*
Y03112*
X0491*
Y03111*
X0491*
Y03111*
Y03111*
X0491*
Y0311*
X04911*
Y0311*
Y0311*
X04911*
Y03109*
X04911*
Y03109*
Y03109*
Y03108*
X04912*
Y03108*
Y03108*
X04912*
Y03107*
X04913*
Y03107*
Y03107*
X04913*
Y03106*
X04913*
Y03106*
Y03106*
X04914*
Y03105*
X04914*
Y03105*
Y03105*
X04914*
Y03104*
Y03104*
X04915*
Y03104*
X04915*
Y03103*
Y03103*
X04915*
Y03103*
X04916*
Y03102*
X04916*
Y03102*
Y03102*
X04916*
Y03101*
Y03101*
X04917*
Y03101*
Y031*
X04917*
Y031*
Y031*
X04918*
Y03099*
X04918*
Y03099*
Y03099*
X04918*
Y03098*
X04919*
Y03098*
Y03098*
Y03097*
X04919*
Y03097*
Y03097*
X0492*
Y03096*
Y03096*
X0492*
Y03096*
X0492*
Y03095*
Y03095*
X04921*
Y03095*
X04921*
Y03094*
X04921*
Y03094*
Y03094*
X04922*
Y03093*
X04922*
Y03093*
Y03093*
Y03092*
X04923*
Y03092*
Y03092*
X04923*
Y03091*
X04923*
Y03091*
Y03091*
X04924*
Y0309*
X04924*
Y0309*
Y0309*
X04924*
Y03089*
X04925*
Y03089*
Y03089*
Y03088*
X04924*
Y03088*
X04925*
Y03088*
X04926*
Y03087*
Y03087*
X04926*
Y03087*
X04926*
Y03086*
Y03086*
X04927*
Y03086*
X04927*
Y03085*
X04927*
Y03085*
Y03085*
X04928*
Y03084*
X04928*
Y03084*
Y03084*
X04928*
Y03083*
X04929*
Y03083*
Y03083*
X04929*
Y03082*
X04929*
Y03082*
X0493*
Y03082*
Y03081*
X0493*
Y03081*
Y03081*
X0493*
Y0308*
X04931*
Y0308*
X04931*
Y0308*
Y03079*
X04931*
Y03079*
X04932*
Y03079*
Y03078*
X04932*
Y03078*
X04932*
Y03078*
Y03077*
X04933*
Y03077*
X04933*
Y03077*
Y03076*
Y03076*
X04934*
Y03076*
Y03075*
Y03075*
X04934*
Y03075*
Y03074*
X04935*
Y03074*
X04935*
Y03074*
Y03073*
X04935*
Y03073*
X04936*
Y03073*
Y03072*
Y03072*
X04936*
Y03072*
Y03071*
X04937*
Y03071*
X04937*
Y03071*
Y0307*
X04937*
Y0307*
X04938*
Y0307*
Y03069*
Y03069*
X04938*
Y03069*
Y03068*
X04939*
Y03068*
X04939*
Y03068*
Y03067*
Y03067*
X0494*
Y03067*
Y03066*
X0494*
Y03066*
X0494*
Y03066*
Y03065*
X04941*
Y03065*
X04941*
Y03065*
X04941*
Y03066*
X04942*
Y03066*
Y03066*
X04942*
Y03067*
X04942*
Y03067*
Y03067*
X04943*
Y03068*
Y03068*
X04943*
Y03068*
Y03069*
X04944*
Y03069*
Y03069*
Y0307*
X04944*
Y0307*
X04945*
Y0307*
Y03071*
X04945*
Y03071*
X04945*
Y03071*
Y03072*
X04946*
Y03072*
X04946*
Y03072*
Y03073*
Y03073*
X04947*
Y03073*
X04947*
Y03074*
Y03074*
X04947*
Y03074*
X04948*
Y03075*
X04948*
Y03075*
Y03075*
X04948*
Y03076*
Y03076*
X04949*
Y03076*
X04949*
Y03077*
X04949*
Y03077*
Y03077*
X0495*
Y03078*
X0495*
Y03078*
Y03078*
X0495*
Y03079*
X04951*
Y03079*
Y03079*
X04951*
Y0308*
X04951*
Y0308*
Y0308*
X04952*
Y03081*
X04952*
Y03081*
X04952*
Y03081*
Y03082*
X04953*
Y03082*
X04953*
Y03082*
Y03083*
X04953*
Y03083*
X04954*
Y03083*
Y03084*
X04954*
Y03084*
X04954*
Y03084*
Y03085*
X04955*
Y03085*
X04955*
Y03085*
X04955*
Y03086*
Y03086*
X04956*
Y03086*
X04956*
Y03087*
Y03087*
X04956*
Y03087*
X04957*
Y03088*
Y03088*
X04957*
Y03088*
X04957*
Y03089*
X04958*
Y03089*
Y03089*
X04958*
Y0309*
Y0309*
Y0309*
X04959*
Y03091*
X04959*
Y03091*
Y03091*
X04959*
Y03092*
X0496*
Y03092*
Y03092*
X0496*
Y03093*
X0496*
Y03093*
Y03093*
X04961*
Y03094*
X04961*
Y03094*
Y03094*
Y03095*
X04962*
Y03095*
X04962*
Y03095*
Y03096*
X04962*
Y03096*
X04963*
Y03096*
Y03097*
X04963*
Y03097*
X04963*
Y03097*
Y03098*
X04964*
Y03098*
X04964*
Y03098*
Y03099*
X04964*
Y03099*
X04965*
Y03099*
Y031*
Y031*
X04965*
Y031*
X04966*
Y03101*
Y03101*
X04966*
Y03101*
X04966*
Y03102*
X04967*
Y03102*
Y03102*
X04967*
Y03103*
Y03103*
X04967*
Y03103*
X04968*
Y03104*
X04968*
Y03104*
X04968*
Y03104*
Y03105*
X04969*
Y03105*
Y03105*
X04969*
Y03106*
X04969*
Y03106*
Y03106*
X0497*
Y03107*
X0497*
Y03107*
Y03107*
Y03108*
X04971*
Y03108*
X04971*
Y03108*
Y03109*
X04971*
Y03109*
X04972*
Y03109*
Y0311*
X04972*
Y0311*
X04973*
Y0311*
Y03111*
Y03111*
X04973*
Y03111*
X04973*
Y03112*
Y03112*
X04974*
Y03112*
X05016*
Y03112*
G37*
G36*
X05106Y02949D02*
X05106Y02949D01*
X05106Y02949*
X05107Y02949*
X05107Y02949*
X05108Y02948*
X05108Y02948*
X05108Y02948*
X05108Y02948*
X05108Y02948*
X05108Y02947*
X05109Y02947*
X05109Y02946*
X05109Y02946*
Y02946*
Y02945*
X05109Y02945*
X05109Y02945*
X05108Y02944*
X05108Y02944*
X05108Y02944*
X05108Y02943*
X05108Y02943*
X05107Y02943*
X05107Y02943*
X05107Y02943*
X05107Y02942*
X05106Y02942*
X05106Y02942*
X05105Y02942*
X05105*
X05104Y02942*
X05104Y02942*
X05104Y02942*
X05103Y02942*
X05103Y02943*
X05102Y02943*
X05102Y02943*
X05102Y02943*
X05102Y02944*
X05102Y02944*
X05102Y02944*
X05101Y02945*
X05101Y02945*
X05101Y02946*
Y02946*
Y02946*
X05101Y02946*
X05101Y02947*
X05102Y02947*
X05102Y02947*
X05102Y02948*
X05102Y02948*
X05102Y02948*
X05103Y02948*
X05103Y02949*
X05103Y02949*
X05103Y02949*
X05104Y02949*
X05104Y02949*
X05105Y02949*
X05105*
X05106Y02949*
G37*
G36*
X05013Y02936D02*
X05013Y02936D01*
X05014Y02936*
X05015Y02935*
X05015Y02935*
X05016Y02935*
X05014Y02931*
X05014Y02931*
X05013Y02931*
X05013Y02931*
X05013Y02931*
X05012Y02931*
X05012Y02931*
X05011*
X05011Y02931*
X0501Y02931*
X05009Y02931*
X05008Y02931*
X05008Y0293*
X05007Y0293*
X05007Y0293*
X05007Y02929*
X05006Y02929*
X05006Y02928*
X05005Y02927*
X05005Y02926*
X05004Y02925*
X05004Y02924*
Y02924*
X05004Y02924*
Y02924*
X05004Y02923*
X05004Y02923*
X05003Y02922*
X05003Y02922*
X05003Y02921*
X05003Y0292*
X05003Y0292*
X05003Y02919*
X05003Y02918*
X05003Y02916*
Y02915*
X05003Y02913*
Y02912*
Y029*
X04998*
Y02935*
X05003*
Y0293*
X05003Y0293*
X05003Y0293*
X05003Y0293*
X05004Y02931*
X05004Y02932*
X05005Y02932*
X05006Y02933*
X05006Y02934*
X05007Y02934*
X05007Y02934*
X05008Y02935*
X05008Y02935*
X05009Y02935*
X05009Y02935*
X0501Y02936*
X05011Y02936*
X05012Y02936*
X05012*
X05013Y02936*
G37*
G36*
X05081D02*
X05082D01*
X05082Y02936*
X05083Y02936*
X05084Y02935*
X05085Y02935*
X05087Y02934*
X05088Y02934*
X05088*
X05088Y02934*
X05088Y02934*
X05088Y02933*
X05089Y02933*
X05089Y02932*
X0509Y02932*
X05091Y02931*
X05092Y0293*
X05092Y02928*
Y02928*
X05092Y02928*
X05092Y02928*
X05092Y02928*
X05093Y02927*
X05093Y02927*
X05093Y02926*
X05093Y02926*
X05093Y02925*
X05093Y02924*
X05093Y02924*
X05094Y02923*
X05094Y02922*
X05094Y0292*
X05094Y02919*
Y02918*
Y029*
X05089*
Y02917*
Y02917*
Y02917*
Y02917*
Y02918*
Y02918*
Y02919*
X05089Y0292*
X05089Y02921*
X05089Y02923*
X05089Y02923*
X05089Y02924*
X05089Y02924*
X05089Y02925*
Y02925*
X05089Y02925*
X05089Y02925*
X05089Y02925*
X05088Y02926*
X05088Y02927*
X05088Y02928*
X05087Y02928*
X05086Y02929*
X05086Y0293*
X05086Y0293*
X05085Y0293*
X05085Y0293*
X05084Y02931*
X05083Y02931*
X05082Y02931*
X05081Y02932*
X0508Y02932*
X0508*
X05079Y02932*
X05079*
X05078Y02932*
X05077Y02931*
X05076Y02931*
X05075Y02931*
X05074Y0293*
X05074Y0293*
X05073Y02929*
X05073Y02929*
X05072Y02929*
X05072Y02929*
X05072Y02929*
X05072Y02928*
X05072Y02928*
X05071Y02928*
X05071Y02927*
X0507Y02926*
X05069Y02925*
X05069Y02924*
X05068Y02922*
Y02922*
Y02922*
X05068Y02922*
X05068Y02922*
X05068Y02921*
Y02921*
X05068Y02921*
X05068Y0292*
X05068Y0292*
X05068Y02919*
X05068Y02918*
X05068Y02917*
X05068Y02916*
Y02915*
X05068Y02914*
Y02913*
Y029*
X05063*
Y02935*
X05068*
Y02929*
X05068Y02929*
X05068Y02929*
X05068Y02929*
X05068Y02929*
X05069Y0293*
X05069Y02931*
X0507Y02932*
X05071Y02932*
X05072Y02933*
X05074Y02934*
X05074*
X05074Y02934*
X05074Y02934*
X05074Y02934*
X05075Y02934*
X05075Y02935*
X05076Y02935*
X05077Y02935*
X05078Y02936*
X05079Y02936*
X05081Y02936*
X05081*
X05081Y02936*
G37*
G36*
X05238Y029D02*
X05234D01*
Y02906*
X05234Y02906*
X05234Y02906*
X05233Y02906*
X05233Y02905*
X05233Y02905*
X05232Y02904*
X05231Y02903*
X0523Y02902*
X05229Y02901*
X05227Y02901*
X05227*
X05227Y02901*
X05227Y02901*
X05227Y029*
X05226Y029*
X05226Y029*
X05226Y029*
X05225Y029*
X05224Y029*
X05223Y02899*
X05221Y02899*
X0522Y02899*
X05219*
X05219Y02899*
X05218Y02899*
X05218Y02899*
X05217Y02899*
X05216Y029*
X05215Y029*
X05214Y029*
X05213Y029*
X05212Y02901*
X05211Y02901*
X0521Y02902*
X05209Y02903*
X05208Y02903*
X05207Y02904*
X05207Y02904*
X05207Y02905*
X05206Y02905*
X05206Y02905*
X05206Y02906*
X05205Y02907*
X05205Y02907*
X05204Y02908*
X05204Y02909*
X05203Y0291*
X05203Y02911*
X05202Y02912*
X05202Y02913*
X05202Y02915*
X05202Y02916*
X05202Y02918*
Y02918*
Y02918*
X05202Y02918*
X05202Y02919*
X05202Y02919*
X05202Y0292*
X05202Y02921*
X05202Y02922*
X05203Y02923*
X05203Y02924*
X05203Y02925*
X05204Y02926*
X05205Y02927*
X05205Y02928*
X05206Y02929*
X05207Y0293*
X05207Y02931*
X05207Y02931*
X05208Y02931*
X05208Y02931*
X05208Y02932*
X05209Y02932*
X0521Y02933*
X05211Y02933*
X05211Y02934*
X05212Y02934*
X05213Y02935*
X05215Y02935*
X05216Y02935*
X05217Y02936*
X05218Y02936*
X0522Y02936*
X0522*
X05221Y02936*
X05221Y02936*
X05222Y02936*
X05222Y02936*
X05224Y02935*
X05225Y02935*
X05226Y02935*
X05227Y02934*
X05228*
X05228Y02934*
X05228Y02934*
X05228Y02934*
X05228Y02933*
X05229Y02933*
X0523Y02933*
X05231Y02932*
X05232Y02931*
X05233Y0293*
X05234Y02928*
Y02949*
X05238*
Y029*
G37*
G36*
X05168Y02936D02*
X05168D01*
X05168Y02936*
X05169Y02936*
X0517Y02935*
X0517Y02935*
X05171Y02935*
X05172Y02935*
X05172Y02934*
X05173Y02934*
X05174Y02933*
X05175Y02933*
X05176Y02932*
X05177Y02931*
X05174Y02928*
X05174Y02928*
X05174Y02928*
X05174Y02929*
X05173Y02929*
X05173Y02929*
X05173Y02929*
X05172Y0293*
X05171Y02931*
X05169Y02931*
X05169Y02931*
X05168Y02932*
X05168Y02932*
X05167Y02932*
X05167*
X05166Y02932*
X05166Y02932*
X05165Y02931*
X05164Y02931*
X05164Y02931*
X05163Y0293*
X05163Y0293*
X05163Y0293*
X05163Y0293*
X05162Y02929*
X05162Y02929*
X05162Y02928*
X05162Y02928*
X05162Y02927*
Y02927*
Y02927*
X05162Y02926*
X05162Y02926*
X05162Y02925*
X05162Y02925*
X05162Y02924*
X05163Y02924*
X05163Y02924*
X05163Y02923*
X05164Y02923*
X05164Y02923*
X05165Y02922*
X05165Y02922*
X05166Y02921*
X05166Y02921*
X05167Y02921*
X05168Y0292*
X05168Y0292*
X05168Y0292*
X05169Y0292*
X05169Y0292*
X05169Y02919*
X0517Y02919*
X0517Y02919*
X05171Y02918*
X05172Y02918*
X05173Y02917*
X05174Y02916*
X05175Y02915*
X05175Y02915*
X05175Y02915*
X05175Y02914*
X05176Y02914*
X05176Y02913*
X05176Y02912*
X05177Y02912*
X05177Y0291*
X05177Y02909*
Y02909*
Y02909*
Y02909*
X05177Y02909*
X05177Y02908*
X05177Y02908*
X05177Y02907*
X05176Y02906*
X05176Y02904*
X05175Y02904*
X05175Y02903*
X05174Y02903*
X05174Y02902*
X05174Y02902*
X05174Y02902*
X05174Y02902*
X05173Y02902*
X05173Y02901*
X05173Y02901*
X05172Y02901*
X05172Y02901*
X05171Y029*
X05169Y029*
X05168Y02899*
X05167Y02899*
X05166Y02899*
X05166*
X05165Y02899*
X05164Y02899*
X05164Y02899*
X05163Y029*
X05162Y029*
X05161Y029*
X0516*
X0516Y029*
X0516Y02901*
X0516Y02901*
X05159Y02901*
X05158Y02902*
X05157Y02902*
X05157Y02903*
X05156Y02904*
X05159Y02907*
X05159Y02907*
X05159Y02907*
X05159Y02907*
X05159Y02907*
X0516Y02906*
X0516Y02906*
X05161Y02905*
X05162Y02905*
X05163Y02904*
X05164Y02904*
X05165Y02904*
X05165Y02903*
X05166Y02903*
X05166*
X05167Y02903*
X05167Y02903*
X05168Y02904*
X05168Y02904*
X05169Y02904*
X0517Y02905*
X05171Y02905*
X05171Y02905*
X05171Y02905*
X05171Y02906*
X05172Y02906*
X05172Y02907*
X05172Y02908*
X05173Y02908*
X05173Y02909*
Y02909*
Y02909*
X05173Y0291*
X05172Y0291*
X05172Y02911*
X05172Y02911*
X05172Y02912*
X05171Y02913*
X05171Y02913*
X05171Y02913*
X05171Y02913*
X0517Y02914*
X0517Y02914*
X05169Y02914*
X05169Y02914*
X05168Y02915*
X05168Y02915*
X05167Y02916*
X05167Y02916*
X05166Y02916*
X05166Y02916*
X05165Y02916*
X05165Y02917*
X05165Y02917*
X05165Y02917*
X05164Y02917*
X05163Y02918*
X05162Y02919*
X05161Y02919*
X0516Y0292*
X0516Y02921*
X05159Y02921*
Y02921*
X05159Y02921*
X05159Y02922*
X05159Y02922*
X05158Y02923*
X05158Y02924*
X05158Y02924*
X05158Y02925*
X05158Y02927*
Y02927*
Y02927*
Y02927*
X05158Y02927*
X05158Y02928*
X05158Y02928*
X05158Y02929*
X05158Y0293*
X05159Y02931*
X05159Y02932*
X05159Y02932*
X0516Y02933*
X0516Y02933*
X0516Y02933*
X0516Y02933*
X05161Y02933*
X05161Y02934*
X05161Y02934*
X05161Y02934*
X05162Y02935*
X05163Y02935*
X05164Y02935*
X05166Y02936*
X05166Y02936*
X05167Y02936*
X05167*
X05168Y02936*
G37*
G36*
X05135D02*
X05136D01*
X05137Y02936*
X05138Y02936*
X05139Y02935*
X0514Y02935*
X05141Y02935*
X05141*
X05141Y02935*
X05142Y02935*
X05142Y02935*
X05142Y02934*
X05143Y02934*
X05144Y02934*
X05145Y02933*
X05146Y02933*
X05147Y02932*
X05147Y02932*
X05147Y02932*
X05148Y02931*
X05148Y02931*
X05149Y0293*
X05149Y02929*
X0515Y02929*
X05151Y02928*
X05147Y02925*
X05147Y02925*
X05147Y02926*
X05147Y02926*
X05146Y02926*
X05146Y02927*
X05145Y02927*
X05144Y02928*
X05144Y02929*
X05143Y02929*
X05142Y0293*
X05141Y0293*
X0514Y02931*
X05138Y02931*
X05137Y02931*
X05136Y02932*
X05134Y02932*
X05134*
X05133Y02932*
X05133Y02931*
X05132Y02931*
X05131Y02931*
X05131Y02931*
X0513Y02931*
X05129Y02931*
X05128Y0293*
X05127Y0293*
X05126Y02929*
X05125Y02929*
X05124Y02928*
X05124Y02927*
X05124Y02927*
X05123Y02927*
X05123Y02927*
X05123Y02927*
X05123Y02926*
X05122Y02926*
X05122Y02925*
X05122Y02925*
X05121Y02924*
X05121Y02923*
X0512Y02922*
X0512Y02922*
X0512Y02921*
X0512Y0292*
X05119Y02919*
X05119Y02917*
Y02917*
Y02917*
Y02917*
X05119Y02917*
Y02916*
X0512Y02916*
X0512Y02915*
X0512Y02914*
X0512Y02913*
X05121Y02912*
X05121Y0291*
Y0291*
X05121Y0291*
X05122Y0291*
X05122Y0291*
X05122Y02909*
X05123Y02908*
X05124Y02908*
X05124Y02907*
X05126Y02906*
X05127Y02905*
X05127*
X05127Y02905*
X05127Y02905*
X05127Y02905*
X05128Y02905*
X05128Y02904*
X05128Y02904*
X05129Y02904*
X0513Y02904*
X05131Y02903*
X05133Y02903*
X05134Y02903*
X05135*
X05135Y02903*
X05136Y02903*
X05136Y02903*
X05137Y02904*
X05138Y02904*
X05139Y02904*
X0514Y02904*
X05141Y02905*
X05142Y02905*
X05143Y02906*
X05144Y02907*
X05145Y02907*
X05146Y02908*
X05147Y02909*
X05151Y02907*
X05151Y02907*
X05151Y02907*
X0515Y02907*
X0515Y02906*
X0515Y02906*
X0515Y02906*
X05149Y02905*
X05148Y02904*
X05147Y02903*
X05145Y02902*
X05144Y02901*
X05144*
X05144Y02901*
X05143Y02901*
X05143Y02901*
X05143Y02901*
X05142Y029*
X05142Y029*
X05141Y029*
X0514Y029*
X0514Y029*
X05138Y02899*
X05136Y02899*
X05134Y02899*
X05134*
X05133Y02899*
X05133Y02899*
X05132Y02899*
X05131Y02899*
X0513Y029*
X05129Y029*
X05128Y029*
X05127Y029*
X05126Y02901*
X05125Y02901*
X05124Y02902*
X05123Y02903*
X05121Y02903*
X0512Y02904*
X0512Y02904*
X0512Y02905*
X0512Y02905*
X05119Y02905*
X05119Y02906*
X05119Y02906*
X05118Y02907*
X05118Y02908*
X05117Y02909*
X05117Y0291*
X05116Y02911*
X05116Y02912*
X05115Y02913*
X05115Y02914*
X05115Y02916*
X05115Y02917*
Y02917*
Y02917*
Y02918*
X05115Y02918*
Y02918*
X05115Y02919*
X05115Y0292*
X05115Y0292*
X05116Y02922*
X05116Y02923*
X05117Y02925*
X05117Y02926*
X05117Y02927*
X05117Y02927*
X05118Y02927*
X05118Y02927*
X05118Y02927*
X05118Y02928*
X05118Y02928*
X05119Y02929*
X0512Y0293*
X05121Y02931*
X05123Y02932*
X05124Y02933*
X05125Y02933*
X05125Y02934*
X05125Y02934*
X05125Y02934*
X05126Y02934*
X05126Y02934*
X05127Y02934*
X05127Y02935*
X05128Y02935*
X05129Y02935*
X05131Y02935*
X05132Y02936*
X05133Y02936*
X05135*
X05135Y02936*
G37*
G36*
X04976D02*
X04976D01*
X04977Y02936*
X04978Y02936*
X0498Y02935*
X04981Y02935*
X04982Y02935*
X04982*
X04982Y02935*
X04982Y02935*
X04983Y02935*
X04983Y02934*
X04984Y02934*
X04985Y02934*
X04986Y02933*
X04987Y02933*
X04987Y02932*
X04988Y02932*
X04988Y02932*
X04988Y02931*
X04989Y02931*
X04989Y0293*
X0499Y02929*
X04991Y02929*
X04991Y02928*
X04988Y02925*
X04988Y02925*
X04988Y02926*
X04987Y02926*
X04987Y02926*
X04986Y02927*
X04986Y02927*
X04985Y02928*
X04984Y02929*
X04984Y02929*
X04983Y0293*
X04982Y0293*
X0498Y02931*
X04979Y02931*
X04978Y02931*
X04977Y02932*
X04975Y02932*
X04974*
X04974Y02932*
X04973Y02931*
X04973Y02931*
X04972Y02931*
X04971Y02931*
X0497Y02931*
X0497Y02931*
X04969Y0293*
X04968Y0293*
X04967Y02929*
X04966Y02929*
X04965Y02928*
X04964Y02927*
X04964Y02927*
X04964Y02927*
X04964Y02927*
X04964Y02927*
X04963Y02926*
X04963Y02926*
X04963Y02925*
X04962Y02925*
X04962Y02924*
X04961Y02923*
X04961Y02922*
X04961Y02922*
X04961Y02921*
X0496Y0292*
X0496Y02919*
X0496Y02917*
Y02917*
Y02917*
Y02917*
X0496Y02917*
Y02916*
X0496Y02916*
X0496Y02915*
X04961Y02914*
X04961Y02913*
X04961Y02912*
X04962Y0291*
Y0291*
X04962Y0291*
X04962Y0291*
X04962Y0291*
X04963Y02909*
X04964Y02908*
X04964Y02908*
X04965Y02907*
X04966Y02906*
X04967Y02905*
X04967*
X04968Y02905*
X04968Y02905*
X04968Y02905*
X04968Y02905*
X04969Y02904*
X04969Y02904*
X0497Y02904*
X04971Y02904*
X04972Y02903*
X04974Y02903*
X04975Y02903*
X04975*
X04976Y02903*
X04976Y02903*
X04977Y02903*
X04978Y02904*
X04979Y02904*
X0498Y02904*
X04981Y02904*
X04982Y02905*
X04983Y02905*
X04984Y02906*
X04985Y02907*
X04986Y02907*
X04987Y02908*
X04988Y02909*
X04991Y02907*
X04991Y02907*
X04991Y02907*
X04991Y02907*
X04991Y02906*
X04991Y02906*
X0499Y02906*
X0499Y02905*
X04989Y02904*
X04987Y02903*
X04986Y02902*
X04985Y02901*
X04984*
X04984Y02901*
X04984Y02901*
X04984Y02901*
X04983Y02901*
X04983Y029*
X04982Y029*
X04982Y029*
X04981Y029*
X0498Y029*
X04979Y02899*
X04977Y02899*
X04975Y02899*
X04975*
X04974Y02899*
X04974Y02899*
X04973Y02899*
X04972Y02899*
X04971Y029*
X0497Y029*
X04969Y029*
X04968Y029*
X04967Y02901*
X04966Y02901*
X04964Y02902*
X04963Y02903*
X04962Y02903*
X04961Y02904*
X04961Y02904*
X04961Y02905*
X04961Y02905*
X0496Y02905*
X0496Y02906*
X04959Y02906*
X04959Y02907*
X04958Y02908*
X04958Y02909*
X04957Y0291*
X04957Y02911*
X04957Y02912*
X04956Y02913*
X04956Y02914*
X04956Y02916*
X04956Y02917*
Y02917*
Y02917*
Y02918*
X04956Y02918*
Y02918*
X04956Y02919*
X04956Y0292*
X04956Y0292*
X04956Y02922*
X04957Y02923*
X04957Y02925*
X04958Y02926*
X04958Y02927*
X04958Y02927*
X04958Y02927*
X04958Y02927*
X04959Y02927*
X04959Y02928*
X04959Y02928*
X0496Y02929*
X04961Y0293*
X04962Y02931*
X04964Y02932*
X04965Y02933*
X04965Y02933*
X04965Y02934*
X04966Y02934*
X04966Y02934*
X04966Y02934*
X04967Y02934*
X04967Y02934*
X04968Y02935*
X04969Y02935*
X0497Y02935*
X04971Y02935*
X04973Y02936*
X04974Y02936*
X04976*
X04976Y02936*
G37*
G36*
X04859Y02916D02*
X04841D01*
Y0292*
X04859*
Y02916*
G37*
G36*
X05107Y029D02*
X05103D01*
Y02935*
X05107*
Y029*
G37*
G36*
X04905D02*
X04901D01*
Y02949*
X04905*
Y029*
G37*
G36*
X04894Y02943D02*
X04871D01*
Y02928*
X04894*
Y02923*
X04871*
Y02905*
X04894*
Y029*
X04867*
Y02947*
X04894*
Y02943*
G37*
G36*
X05266Y02936D02*
X05266Y02936D01*
X05267Y02936*
X05268Y02935*
X05269Y02935*
X0527Y02935*
X05271Y02935*
X05272Y02934*
X05273Y02934*
X05275Y02933*
X05276Y02932*
X05277Y02931*
X05278Y0293*
X05279Y02929*
X05279Y02929*
X05279Y02929*
X05279Y02929*
X0528Y02928*
X0528Y02928*
X0528Y02927*
X05281Y02927*
X05281Y02926*
X05281Y02925*
X05282Y02924*
X05282Y02923*
X05282Y02922*
X05283Y02921*
X05283Y0292*
X05283Y02918*
X05283Y02917*
X05251*
Y02917*
Y02917*
X05251Y02917*
Y02916*
X05252Y02916*
X05252Y02915*
X05252Y02914*
X05252Y02914*
X05252Y02912*
X05253Y02911*
X05253Y0291*
X05253Y02909*
X05254Y02909*
X05255Y02908*
X05255Y02907*
X05255Y02907*
X05255Y02907*
X05256Y02907*
X05256Y02906*
X05256Y02906*
X05257Y02906*
X05257Y02906*
X05258Y02905*
X05259Y02905*
X05259Y02904*
X0526Y02904*
X05261Y02904*
X05262Y02904*
X05263Y02903*
X05264Y02903*
X05265Y02903*
X05265*
X05266Y02903*
X05266Y02903*
X05267Y02903*
X05268Y02904*
X05269Y02904*
X0527Y02904*
X0527*
X0527Y02904*
X0527Y02904*
X05271Y02905*
X05271Y02905*
X05272Y02905*
X05273Y02906*
X05273Y02906*
X05274Y02907*
X05274Y02907*
X05274Y02907*
X05275Y02907*
X05275Y02908*
X05276Y02909*
X05277Y02909*
X05277Y0291*
X05278Y02912*
X05282Y0291*
Y02909*
X05282Y02909*
X05282Y02909*
X05281Y02909*
X05281Y02909*
X05281Y02908*
X05281Y02907*
X0528Y02906*
X05279Y02906*
X05278Y02905*
X05277Y02904*
X05277Y02903*
X05277Y02903*
X05277Y02903*
X05276Y02902*
X05275Y02902*
X05274Y02901*
X05273Y02901*
X05272Y029*
X05272*
X05272Y029*
X05272Y029*
X05271Y029*
X05271Y029*
X05271Y029*
X0527Y029*
X05269Y02899*
X05268Y02899*
X05266Y02899*
X05265Y02899*
X05265*
X05264Y02899*
X05264Y02899*
X05263Y02899*
X05262Y02899*
X05261Y029*
X0526Y029*
X05259Y029*
X05258Y029*
X05257Y02901*
X05256Y02901*
X05255Y02902*
X05253Y02903*
X05252Y02904*
X05252Y02905*
X05251Y02905*
X05251Y02905*
X05251Y02905*
X05251Y02906*
X0525Y02906*
X0525Y02907*
X0525Y02908*
X05249Y02908*
X05249Y02909*
X05248Y0291*
X05248Y02911*
X05247Y02912*
X05247Y02914*
X05247Y02915*
X05247Y02916*
X05247Y02917*
Y02917*
Y02918*
X05247Y02918*
Y02919*
X05247Y02919*
X05247Y0292*
X05247Y02921*
X05247Y02921*
X05247Y02922*
X05248Y02923*
X05248Y02924*
X05248Y02925*
X05249Y02926*
X05249Y02927*
X0525Y02928*
X05251Y02929*
X05251Y02929*
X05251Y02929*
X05251Y0293*
X05252Y0293*
X05252Y02931*
X05253Y02931*
X05254Y02932*
X05255Y02933*
X05255Y02933*
X05256Y02934*
X05258Y02934*
X05259Y02935*
X0526Y02935*
X05262Y02936*
X05263Y02936*
X05265Y02936*
X05265*
X05266Y02936*
G37*
G36*
X0519Y02907D02*
X05191Y02907D01*
X05191Y02907*
X05192Y02907*
X05192Y02906*
X05193Y02906*
X05193Y02906*
X05193Y02906*
X05193Y02905*
X05193Y02905*
X05193Y02905*
X05194Y02904*
X05194Y02904*
X05194Y02903*
Y02903*
Y02903*
X05194Y02902*
X05194Y02902*
X05194Y02902*
X05193Y02901*
X05193Y02901*
X05193Y029*
X05193Y029*
X05192Y029*
X05192Y029*
X05192Y029*
X05191Y02899*
X05191Y02899*
X0519Y02899*
X0519Y02899*
X0519*
X05189Y02899*
X05189Y02899*
X05188Y02899*
X05188Y029*
X05187Y029*
X05187Y029*
X05187Y029*
X05187Y029*
X05187Y02901*
X05186Y02901*
X05186Y02901*
X05186Y02902*
X05186Y02902*
X05186Y02903*
Y02903*
Y02903*
X05186Y02904*
X05186Y02904*
X05186Y02904*
X05186Y02905*
X05187Y02905*
X05187Y02906*
X05187Y02906*
X05187Y02906*
X05187Y02906*
X05188Y02906*
X05188Y02907*
X05189Y02907*
X05189Y02907*
X0519Y02907*
X0519*
X0519Y02907*
G37*
G36*
X05037Y02936D02*
X05038Y02936D01*
X05039Y02936*
X05039Y02936*
X0504Y02935*
X05041Y02935*
X05042Y02935*
X05043Y02934*
X05044Y02934*
X05046Y02933*
X05047Y02933*
X05048Y02932*
X05049Y02931*
X0505Y0293*
X0505Y0293*
X0505Y0293*
X0505Y02929*
X05051Y02929*
X05051Y02928*
X05051Y02928*
X05052Y02927*
X05052Y02926*
X05053Y02925*
X05053Y02925*
X05054Y02924*
X05054Y02922*
X05054Y02921*
X05055Y0292*
X05055Y02919*
X05055Y02917*
Y02917*
Y02917*
X05055Y02917*
Y02916*
X05055Y02915*
X05055Y02915*
X05054Y02914*
X05054Y02913*
X05054Y02912*
X05054Y02911*
X05053Y0291*
X05053Y02909*
X05052Y02908*
X05051Y02907*
X05051Y02906*
X0505Y02905*
X0505Y02904*
X05049Y02904*
X05049Y02904*
X05049Y02904*
X05048Y02903*
X05048Y02903*
X05047Y02902*
X05046Y02902*
X05045Y02901*
X05044Y02901*
X05043Y029*
X05042Y029*
X05041Y029*
X05039Y02899*
X05038Y02899*
X05037Y02899*
X05036*
X05036Y02899*
X05035Y02899*
X05034Y02899*
X05034Y02899*
X05033Y029*
X05032Y029*
X05031Y029*
X0503Y029*
X05029Y02901*
X05028Y02901*
X05026Y02902*
X05025Y02903*
X05024Y02904*
X05023Y02905*
X05023Y02905*
X05023Y02905*
X05023Y02905*
X05023Y02906*
X05022Y02906*
X05022Y02907*
X05021Y02907*
X05021Y02908*
X0502Y02909*
X0502Y0291*
X05019Y02911*
X05019Y02912*
X05019Y02913*
X05018Y02915*
X05018Y02916*
X05018Y02917*
Y02917*
Y02918*
X05018Y02918*
Y02919*
X05018Y02919*
X05018Y0292*
X05019Y02921*
X05019Y02922*
X05019Y02923*
X05019Y02924*
X0502Y02925*
X0502Y02926*
X05021Y02927*
X05021Y02928*
X05022Y02929*
X05023Y0293*
X05023Y0293*
X05023Y0293*
X05024Y02931*
X05024Y02931*
X05024Y02931*
X05025Y02932*
X05026Y02932*
X05027Y02933*
X05028Y02933*
X05029Y02934*
X0503Y02934*
X05031Y02935*
X05032Y02935*
X05034Y02936*
X05035Y02936*
X05037Y02936*
X05037*
X05037Y02936*
G37*
G36*
X04932D02*
X04932Y02936D01*
X04933Y02936*
X04934Y02935*
X04935Y02935*
X04936Y02935*
X04937Y02935*
X04938Y02934*
X04939Y02934*
X04941Y02933*
X04942Y02932*
X04943Y02931*
X04944Y0293*
X04945Y02929*
X04945Y02929*
X04945Y02929*
X04945Y02929*
X04946Y02928*
X04946Y02928*
X04946Y02927*
X04947Y02927*
X04947Y02926*
X04947Y02925*
X04948Y02924*
X04948Y02923*
X04948Y02922*
X04949Y02921*
X04949Y0292*
X04949Y02918*
X04949Y02917*
X04917*
Y02917*
Y02917*
X04917Y02917*
Y02916*
X04918Y02916*
X04918Y02915*
X04918Y02914*
X04918Y02914*
X04918Y02912*
X04919Y02911*
X04919Y0291*
X04919Y02909*
X0492Y02909*
X04921Y02908*
X04921Y02907*
X04921Y02907*
X04921Y02907*
X04922Y02907*
X04922Y02906*
X04922Y02906*
X04923Y02906*
X04923Y02906*
X04924Y02905*
X04925Y02905*
X04925Y02904*
X04926Y02904*
X04927Y02904*
X04928Y02904*
X04929Y02903*
X0493Y02903*
X04931Y02903*
X04931*
X04932Y02903*
X04932Y02903*
X04933Y02903*
X04934Y02904*
X04935Y02904*
X04936Y02904*
X04936*
X04936Y02904*
X04936Y02904*
X04937Y02905*
X04937Y02905*
X04938Y02905*
X04939Y02906*
X04939Y02906*
X0494Y02907*
X0494Y02907*
X0494Y02907*
X04941Y02907*
X04941Y02908*
X04942Y02909*
X04943Y02909*
X04943Y0291*
X04944Y02912*
X04948Y0291*
Y02909*
X04948Y02909*
X04948Y02909*
X04948Y02909*
X04947Y02909*
X04947Y02908*
X04947Y02907*
X04946Y02906*
X04945Y02906*
X04944Y02905*
X04943Y02904*
X04943Y02903*
X04943Y02903*
X04943Y02903*
X04942Y02902*
X04941Y02902*
X0494Y02901*
X04939Y02901*
X04938Y029*
X04938*
X04938Y029*
X04938Y029*
X04937Y029*
X04937Y029*
X04937Y029*
X04936Y029*
X04935Y02899*
X04934Y02899*
X04932Y02899*
X04931Y02899*
X04931*
X0493Y02899*
X0493Y02899*
X04929Y02899*
X04928Y02899*
X04927Y029*
X04926Y029*
X04925Y029*
X04924Y029*
X04923Y02901*
X04922Y02901*
X04921Y02902*
X04919Y02903*
X04918Y02904*
X04918Y02905*
X04917Y02905*
X04917Y02905*
X04917Y02905*
X04917Y02906*
X04916Y02906*
X04916Y02907*
X04916Y02908*
X04915Y02908*
X04915Y02909*
X04914Y0291*
X04914Y02911*
X04913Y02912*
X04913Y02914*
X04913Y02915*
X04913Y02916*
X04913Y02917*
Y02917*
Y02918*
X04913Y02918*
Y02919*
X04913Y02919*
X04913Y0292*
X04913Y02921*
X04913Y02921*
X04913Y02922*
X04914Y02923*
X04914Y02924*
X04914Y02925*
X04915Y02926*
X04915Y02927*
X04916Y02928*
X04917Y02929*
X04917Y02929*
X04917Y02929*
X04917Y0293*
X04918Y0293*
X04918Y02931*
X04919Y02931*
X0492Y02932*
X04921Y02933*
X04921Y02933*
X04923Y02934*
X04924Y02934*
X04925Y02935*
X04926Y02935*
X04928Y02936*
X04929Y02936*
X04931Y02936*
X04931*
X04932Y02936*
G37*
G36*
X04568Y03142D02*
Y03142D01*
Y03141*
Y03141*
Y03141*
X04568Y0314*
X04568Y03139*
X04568Y03139*
X04568Y03138*
X04567Y03136*
X04567Y03134*
X04567Y03132*
X04566Y03132*
X04566Y03131*
Y03131*
X04566Y03131*
X04566Y03131*
X04566Y0313*
X04566Y0313*
X04565Y0313*
X04565Y03129*
X04564Y03128*
X04563Y03127*
X04562Y03126*
X04561Y03125*
X04561*
X04561Y03125*
X04561Y03125*
X0456Y03125*
X0456Y03125*
X0456Y03124*
X04559Y03124*
X04559Y03124*
X04558Y03124*
X04558Y03124*
X04557Y03124*
X04556Y03123*
X04554Y03123*
X04553Y03123*
X04552*
X04552Y03123*
X04551*
X04551Y03123*
X0455Y03123*
X0455Y03123*
X04548Y03124*
X04547Y03124*
X04545Y03124*
X04544Y03125*
X04544*
X04544Y03125*
X04544Y03125*
X04543Y03126*
X04543Y03126*
X04542Y03127*
X04541Y03127*
X0454Y03128*
X0454Y0313*
X04539Y03131*
Y03131*
X04539Y03131*
X04539Y03131*
X04539Y03132*
X04538Y03132*
X04538Y03133*
X04538Y03133*
X04538Y03134*
X04538Y03134*
X04538Y03135*
X04538Y03136*
X04537Y03137*
X04537Y03138*
X04537Y03139*
X04537Y03141*
Y03142*
Y03159*
X04542*
Y03143*
Y03143*
Y03142*
Y03142*
Y03142*
Y03141*
X04542Y03141*
Y0314*
Y03139*
X04542Y03138*
X04542Y03137*
X04542Y03136*
X04542Y03135*
X04542Y03135*
X04542Y03134*
Y03134*
X04542Y03134*
X04542Y03134*
X04543Y03134*
X04543Y03133*
X04543Y03133*
X04544Y03132*
X04544Y03131*
X04545Y0313*
X04546Y03129*
X04546*
X04546Y03129*
X04546Y03129*
X04547Y03129*
X04547Y03129*
X04548Y03128*
X04549Y03128*
X0455Y03128*
X04551Y03127*
X04553Y03127*
X04553*
X04553Y03127*
X04553*
X04554Y03128*
X04555Y03128*
X04556Y03128*
X04557Y03128*
X04558Y03129*
X04559Y03129*
X04559*
X04559Y03129*
X04559Y0313*
X0456Y0313*
X0456Y0313*
X04561Y03131*
X04562Y03132*
X04562Y03133*
X04563Y03134*
X04563Y03134*
Y03134*
X04563Y03134*
X04563Y03135*
X04563Y03135*
X04563Y03135*
X04563Y03136*
X04563Y03136*
X04563Y03137*
X04563Y03138*
X04563Y03139*
X04563Y03139*
Y0314*
X04563Y03141*
Y03143*
Y03159*
X04568*
Y03142*
G37*
G36*
X04733Y03172D02*
X04733Y03172D01*
X04734Y03172*
X04735Y03172*
X04736Y03172*
X04738Y03171*
X04739Y03171*
X04739*
X04739Y03171*
X04739Y03171*
X04739Y0317*
X0474Y0317*
X04741Y0317*
X04741Y03169*
X04742Y03168*
X04743Y03167*
X04744Y03166*
Y03166*
X04744Y03166*
X04744Y03166*
X04744Y03166*
X04744Y03165*
X04745Y03164*
X04745Y03164*
X04745Y03162*
X04745Y03161*
X04746Y0316*
Y0316*
Y0316*
X04745Y0316*
X04745Y03159*
X04745Y03159*
X04745Y03158*
X04745Y03157*
X04745Y03157*
X04744Y03156*
X04744Y03155*
X04744Y03154*
X04743Y03154*
X04742Y03153*
X04741Y03152*
X04741Y03151*
X04739Y03151*
X04739*
X0474Y0315*
X0474Y0315*
X0474Y0315*
X04741Y0315*
X04741Y03149*
X04742Y03149*
X04743Y03148*
X04744Y03147*
X04745Y03146*
X04745Y03146*
X04745Y03146*
X04745Y03146*
X04746Y03146*
X04746Y03145*
X04746Y03145*
X04746Y03145*
X04747Y03144*
X04747Y03143*
X04747Y03143*
X04748Y03141*
X04748Y03141*
X04748Y0314*
X04748Y03139*
X04748Y03138*
Y03138*
Y03138*
Y03138*
X04748Y03137*
Y03137*
X04748Y03137*
X04748Y03136*
X04748Y03136*
X04748Y03134*
X04747Y03133*
X04747Y03132*
X04746Y0313*
Y0313*
X04746Y0313*
X04746Y0313*
X04746Y0313*
X04745Y03129*
X04745Y03129*
X04745Y03128*
X04744Y03127*
X04743Y03126*
X04742Y03126*
X0474Y03125*
X0474*
X0474Y03125*
X0474Y03125*
X0474Y03124*
X04739Y03124*
X04739Y03124*
X04738Y03124*
X04738Y03124*
X04737Y03123*
X04735Y03123*
X04734Y03123*
X04732Y03123*
X04731*
X04731Y03123*
X0473Y03123*
X0473Y03123*
X04729Y03123*
X04728Y03123*
X04727Y03124*
X04726Y03124*
X04725Y03124*
X04724Y03125*
X04723Y03125*
X04723Y03126*
X04722Y03126*
X04722Y03126*
X04722Y03126*
X04721Y03127*
X04721Y03127*
X04721Y03127*
X0472Y03128*
X0472Y03128*
X0472Y03129*
X04719Y0313*
X04719Y0313*
X04718Y03131*
X04718Y03132*
X04717Y03133*
X04717Y03134*
X04717Y03135*
X04717Y03137*
X04721*
Y03137*
X04721Y03136*
X04721Y03136*
X04721Y03136*
X04721Y03135*
X04722Y03135*
X04722Y03134*
X04723Y03133*
X04723Y03132*
X04724Y03131*
X04724Y0313*
X04725Y0313*
X04725*
X04725Y0313*
X04725Y0313*
X04725Y0313*
X04725Y03129*
X04726Y03129*
X04726Y03129*
X04727Y03129*
X04728Y03128*
X04729Y03128*
X0473Y03127*
X04731Y03127*
X04732Y03127*
X04733*
X04733Y03127*
X04733Y03127*
X04734Y03127*
X04734Y03128*
X04735Y03128*
X04736Y03128*
X04738Y03129*
X04738Y03129*
X04739Y03129*
X0474Y0313*
X0474Y0313*
X0474Y0313*
X0474Y03131*
X04741Y03131*
X04741Y03131*
X04741Y03131*
X04741Y03132*
X04742Y03132*
X04742Y03132*
X04742Y03134*
X04743Y03135*
X04743Y03135*
X04743Y03136*
X04743Y03137*
X04743Y03138*
Y03138*
Y03138*
Y03138*
Y03138*
X04743Y03139*
X04743Y03139*
X04743Y0314*
X04743Y03141*
X04742Y03142*
X04742Y03143*
Y03143*
X04742Y03143*
X04742Y03143*
X04741Y03144*
X04741Y03144*
X0474Y03145*
X04739Y03145*
X04739Y03146*
X04738Y03146*
X04738*
X04738Y03146*
X04737Y03147*
X04737Y03147*
X04737Y03147*
X04737Y03147*
X04736Y03147*
X04736Y03147*
X04735Y03147*
X04735Y03147*
X04734Y03148*
X04733Y03148*
X04732Y03148*
X04732Y03148*
X04731Y03148*
X0473Y03148*
Y03152*
X0473*
X04731Y03152*
X04732Y03153*
X04733Y03153*
X04733Y03153*
X04735Y03153*
X04736Y03153*
X04736*
X04736Y03154*
X04736Y03154*
X04736Y03154*
X04737Y03154*
X04738Y03155*
X04738Y03155*
X04739Y03156*
X04739Y03156*
X04739Y03157*
X0474Y03157*
X0474Y03157*
X0474Y03158*
X0474Y03158*
X0474Y03159*
X04741Y0316*
X04741Y0316*
Y0316*
Y0316*
Y03161*
X04741Y03161*
X04741Y03161*
X0474Y03162*
X0474Y03163*
X0474Y03164*
X04739Y03165*
X04739Y03165*
X04738Y03166*
Y03166*
X04738Y03166*
X04738Y03166*
X04737Y03166*
X04736Y03167*
X04736Y03167*
X04735Y03168*
X04733Y03168*
X04732Y03168*
X04731*
X04731Y03168*
X0473Y03168*
X04729Y03168*
X04728Y03167*
X04728Y03167*
X04727Y03166*
X04727Y03166*
X04726Y03166*
X04726Y03165*
X04725Y03165*
X04725Y03164*
X04724Y03163*
X04724Y03162*
X04723Y03161*
X04723Y0316*
X04718*
Y0316*
X04718Y03161*
X04718Y03161*
X04718Y03161*
X04719Y03162*
X04719Y03162*
X04719Y03163*
X04719Y03164*
X0472Y03165*
X04721Y03167*
X04722Y03168*
X04722Y03169*
X04723Y03169*
X04723Y03169*
X04723Y0317*
X04723Y0317*
X04724Y0317*
X04724Y0317*
X04725Y0317*
X04725Y03171*
X04726Y03171*
X04726Y03171*
X04727Y03172*
X04728Y03172*
X04729Y03172*
X0473Y03172*
X04731Y03172*
X04732Y03173*
X04733*
X04733Y03172*
G37*
G36*
X04527Y03139D02*
Y03139D01*
Y03139*
Y03139*
Y03138*
X04527Y03137*
Y03137*
X04527Y03136*
X04527Y03135*
X04527Y03134*
X04527Y03132*
X04526Y03131*
X04526Y0313*
X04526Y0313*
X04526Y03129*
Y03129*
X04526Y03129*
X04526Y03129*
X04526Y03129*
X04525Y03128*
X04525Y03127*
X04524Y03127*
X04524Y03126*
X04523Y03125*
X04522Y03124*
X04522*
X04522Y03124*
X04522Y03124*
X04522Y03124*
X04521Y03124*
X0452Y03124*
X04519Y03123*
X04518Y03123*
X04517Y03123*
X04516Y03123*
X04515*
X04515Y03123*
X04514Y03123*
X04513Y03123*
X04512Y03123*
X04511Y03123*
X0451Y03124*
X0451*
X0451Y03124*
X0451Y03124*
X04509Y03124*
X04509Y03124*
X04508Y03125*
X04507Y03125*
X04506Y03126*
X04505Y03127*
X04504Y03128*
X04506Y03132*
X04506Y03131*
X04506Y03131*
X04507Y03131*
X04507Y03131*
X04507Y03131*
X04508Y03131*
X04508Y0313*
X04509Y03129*
X0451Y03129*
X04511Y03128*
X04512Y03128*
X04512*
X04513Y03128*
X04513Y03128*
X04513Y03127*
X04514Y03127*
X04514Y03127*
X04515Y03127*
X04516Y03127*
X04516*
X04516Y03127*
X04517Y03127*
X04517Y03127*
X04518Y03128*
X04519Y03128*
X04519Y03128*
X04519Y03128*
X0452Y03129*
X0452Y03129*
X0452Y03129*
X04521Y0313*
X04521Y0313*
X04521Y03131*
X04522Y03132*
X04522Y03132*
Y03132*
X04522Y03132*
X04522Y03132*
X04522Y03133*
X04522Y03133*
X04522Y03133*
X04522Y03134*
X04522Y03134*
X04522Y03135*
X04522Y03136*
X04522Y03137*
Y03137*
X04522Y03138*
Y03139*
Y03171*
X04527*
Y03139*
G37*
G36*
X04698Y03172D02*
X04698Y03172D01*
X04699Y03172*
X04699Y03172*
X047Y03172*
X04701Y03172*
X04702Y03171*
X04703Y03171*
X04704Y03171*
X04705Y0317*
X04705Y0317*
X04706Y03169*
X04707Y03168*
X04707Y03168*
X04707Y03168*
X04707Y03168*
X04708Y03168*
X04708Y03167*
X04708Y03167*
X04709Y03166*
X04709Y03165*
X04709Y03165*
X0471Y03164*
X0471Y03163*
X0471Y03162*
X04711Y03161*
X04711Y0316*
X04711Y03159*
X04711Y03158*
Y03158*
Y03158*
Y03158*
X04711Y03158*
Y03157*
X04711Y03157*
X04711Y03156*
X04711Y03156*
X04711Y03155*
X0471Y03153*
X0471Y03152*
X04709Y03151*
Y03151*
X04709Y03151*
X04709Y0315*
X04709Y0315*
X04709Y0315*
X04708Y03149*
X04708Y03149*
X04707Y03148*
X04707Y03148*
X04706Y03147*
X04706Y03146*
X04705Y03145*
X04704Y03144*
X04704Y03143*
X04703Y03142*
X04702Y03141*
X0469Y03128*
X04712*
Y03124*
X0468*
X04698Y03143*
X04698Y03143*
X04698Y03144*
X04698Y03144*
X04699Y03144*
X04699Y03145*
X047Y03145*
X047Y03146*
X04701Y03147*
X04702Y03148*
X04703Y0315*
X04704Y0315*
X04704Y03151*
X04704Y03152*
X04705Y03152*
Y03152*
X04705Y03152*
X04705Y03152*
X04705Y03153*
X04705Y03153*
X04706Y03154*
X04706Y03155*
X04706Y03156*
X04706Y03157*
X04707Y03158*
Y03158*
Y03158*
Y03159*
X04706Y03159*
X04706Y03159*
X04706Y0316*
X04706Y03161*
X04706Y03162*
X04705Y03163*
X04705Y03163*
X04704Y03164*
X04704Y03165*
X04704Y03165*
X04703Y03165*
X04703Y03165*
X04703Y03165*
X04703Y03166*
X04703Y03166*
X04702Y03166*
X04702Y03166*
X04701Y03167*
X047Y03167*
X04699Y03168*
X04698Y03168*
X04697Y03168*
X04696Y03168*
X04696*
X04695Y03168*
X04695Y03168*
X04695Y03168*
X04694Y03168*
X04692Y03167*
X04691Y03167*
X0469Y03166*
X0469Y03166*
X04689Y03166*
X04689Y03165*
X04689Y03165*
X04688Y03165*
X04688Y03165*
X04688Y03164*
X04688Y03164*
X04688Y03164*
X04687Y03163*
X04687Y03163*
X04687Y03162*
X04686Y03162*
X04686Y03161*
X04686Y0316*
X04686Y03159*
X04685Y03158*
X04685Y03158*
X04685Y03157*
X04681*
Y03157*
Y03157*
X04681Y03157*
X04681Y03158*
X04681Y03158*
X04681Y03159*
X04681Y0316*
X04681Y03161*
X04682Y03162*
X04682Y03162*
X04682Y03163*
X04683Y03164*
X04683Y03165*
X04684Y03166*
X04685Y03167*
X04685Y03168*
X04685Y03168*
X04686Y03168*
X04686Y03168*
X04686Y03169*
X04687Y03169*
X04687Y03169*
X04688Y0317*
X04688Y0317*
X04689Y03171*
X0469Y03171*
X04691Y03171*
X04692Y03172*
X04693Y03172*
X04694Y03172*
X04695Y03172*
X04696Y03173*
X04697*
X04698Y03172*
G37*
G36*
X04624D02*
X04625Y03172D01*
X04626Y03172*
X04626Y03172*
X04627Y03172*
X04628Y03172*
X04629Y03171*
X0463Y03171*
X04631Y03171*
X04631Y0317*
X04632Y0317*
X04633Y03169*
X04634Y03168*
X04634Y03168*
X04634Y03168*
X04634Y03168*
X04634Y03168*
X04635Y03167*
X04635Y03167*
X04636Y03166*
X04636Y03165*
X04636Y03165*
X04637Y03164*
X04637Y03163*
X04637Y03162*
X04638Y03161*
X04638Y0316*
X04638Y03159*
X04638Y03158*
Y03158*
Y03158*
Y03158*
X04638Y03158*
Y03157*
X04638Y03157*
X04638Y03156*
X04638Y03156*
X04637Y03155*
X04637Y03153*
X04637Y03152*
X04636Y03151*
Y03151*
X04636Y03151*
X04636Y0315*
X04636Y0315*
X04635Y0315*
X04635Y03149*
X04635Y03149*
X04634Y03148*
X04634Y03148*
X04633Y03147*
X04633Y03146*
X04632Y03145*
X04631Y03144*
X0463Y03143*
X04629Y03142*
X04628Y03141*
X04617Y03128*
X04639*
Y03124*
X04606*
X04625Y03143*
X04625Y03143*
X04625Y03144*
X04625Y03144*
X04625Y03144*
X04626Y03145*
X04626Y03145*
X04627Y03146*
X04627Y03147*
X04629Y03148*
X0463Y0315*
X0463Y0315*
X04631Y03151*
X04631Y03152*
X04632Y03152*
Y03152*
X04632Y03152*
X04632Y03152*
X04632Y03153*
X04632Y03153*
X04633Y03154*
X04633Y03155*
X04633Y03156*
X04633Y03157*
X04633Y03158*
Y03158*
Y03158*
Y03159*
X04633Y03159*
X04633Y03159*
X04633Y0316*
X04633Y03161*
X04633Y03162*
X04632Y03163*
X04632Y03163*
X04631Y03164*
X04631Y03165*
X0463Y03165*
X0463Y03165*
X0463Y03165*
X0463Y03165*
X0463Y03166*
X0463Y03166*
X04629Y03166*
X04629Y03166*
X04628Y03167*
X04627Y03167*
X04626Y03168*
X04625Y03168*
X04624Y03168*
X04623Y03168*
X04623*
X04622Y03168*
X04622Y03168*
X04621Y03168*
X0462Y03168*
X04619Y03167*
X04618Y03167*
X04617Y03166*
X04617Y03166*
X04616Y03166*
X04615Y03165*
X04615Y03165*
X04615Y03165*
X04615Y03165*
X04615Y03164*
X04615Y03164*
X04614Y03164*
X04614Y03163*
X04614Y03163*
X04614Y03162*
X04613Y03162*
X04613Y03161*
X04613Y0316*
X04612Y03159*
X04612Y03158*
X04612Y03158*
X04612Y03157*
X04608*
Y03157*
Y03157*
X04608Y03157*
X04608Y03158*
X04608Y03158*
X04608Y03159*
X04608Y0316*
X04608Y03161*
X04608Y03162*
X04609Y03162*
X04609Y03163*
X0461Y03164*
X0461Y03165*
X04611Y03166*
X04611Y03167*
X04612Y03168*
X04612Y03168*
X04612Y03168*
X04613Y03168*
X04613Y03169*
X04613Y03169*
X04614Y03169*
X04615Y0317*
X04615Y0317*
X04616Y03171*
X04617Y03171*
X04618Y03171*
X04619Y03172*
X0462Y03172*
X04621Y03172*
X04622Y03172*
X04623Y03173*
X04624*
X04624Y03172*
G37*
G36*
X04582Y03124D02*
X04577D01*
Y03173*
X04582*
Y03124*
G37*
G36*
X04477Y03174D02*
X04478Y03173D01*
X04479Y03173*
X0448Y03173*
X0448Y03173*
X04481Y03173*
X04482Y03173*
X04483Y03172*
X04484Y03172*
X04486Y03172*
X04487Y03171*
X04488Y03171*
X04489Y0317*
X04489Y0317*
X04489Y0317*
X04489Y0317*
X0449Y0317*
X0449Y03169*
X04491Y03169*
X04492Y03168*
X04492Y03168*
X04493Y03167*
X04494Y03166*
X04495Y03166*
X04495Y03165*
X04496Y03164*
X04497Y03163*
X04498Y03162*
X04498Y03161*
X04498Y03161*
X04498Y03161*
X04499Y0316*
X04499Y0316*
X04499Y03159*
X04499Y03159*
X045Y03158*
X045Y03157*
X045Y03156*
X04501Y03155*
X04501Y03154*
X04501Y03153*
X04501Y03152*
X04501Y03151*
X04502Y0315*
X04502Y03148*
Y03148*
Y03148*
Y03148*
X04502Y03147*
X04501Y03147*
X04501Y03146*
X04501Y03145*
X04501Y03144*
X04501Y03143*
X04501Y03142*
X04501Y03141*
X045Y0314*
X045Y03139*
X04499Y03138*
X04499Y03137*
X04498Y03136*
X04498Y03136*
X04498Y03135*
X04498Y03135*
X04498Y03135*
X04497Y03134*
X04497Y03134*
X04496Y03133*
X04496Y03132*
X04495Y03132*
X04494Y03131*
X04494Y0313*
X04493Y03129*
X04492Y03129*
X04491Y03128*
X0449Y03127*
X04489Y03126*
X04489Y03126*
X04489Y03126*
X04488Y03126*
X04488Y03126*
X04487Y03126*
X04487Y03125*
X04486Y03125*
X04485Y03125*
X04484Y03124*
X04483Y03124*
X04482Y03124*
X04481Y03124*
X0448Y03123*
X04479Y03123*
X04478Y03123*
X04476Y03123*
X04476*
X04475Y03123*
X04475Y03123*
X04474Y03123*
X04473Y03123*
X04472Y03124*
X04471Y03124*
X0447Y03124*
X04469Y03124*
X04468Y03124*
X04467Y03125*
X04466Y03125*
X04465Y03126*
X04464Y03126*
X04464Y03127*
X04463Y03127*
X04463Y03127*
X04463Y03127*
X04462Y03127*
X04462Y03128*
X04461Y03128*
X0446Y03129*
X04459Y0313*
X04459Y0313*
X04458Y03131*
X04457Y03132*
X04456Y03133*
X04456Y03134*
X04455Y03135*
X04454Y03136*
X04454Y03136*
X04454Y03136*
X04454Y03136*
X04454Y03137*
X04454Y03137*
X04453Y03138*
X04453Y03139*
X04453Y03139*
X04452Y0314*
X04452Y03141*
X04452Y03142*
X04452Y03143*
X04451Y03145*
X04451Y03146*
X04451Y03147*
X04451Y03148*
Y03148*
Y03149*
Y03149*
X04451Y03149*
X04451Y0315*
X04451Y03151*
X04451Y03152*
X04451Y03152*
X04452Y03153*
X04452Y03154*
X04452Y03155*
X04452Y03156*
X04453Y03158*
X04453Y03159*
X04454Y0316*
X04454Y03161*
X04454Y03161*
X04454Y03161*
X04455Y03161*
X04455Y03162*
X04455Y03162*
X04456Y03163*
X04456Y03164*
X04457Y03164*
X04457Y03165*
X04458Y03166*
X04459Y03167*
X0446Y03167*
X04461Y03168*
X04462Y03169*
X04463Y0317*
X04464Y0317*
X04464Y0317*
X04464Y0317*
X04464Y03171*
X04465Y03171*
X04465Y03171*
X04466Y03171*
X04467Y03172*
X04467Y03172*
X04468Y03172*
X04469Y03172*
X0447Y03173*
X04471Y03173*
X04473Y03173*
X04474Y03173*
X04475Y03174*
X04476Y03174*
X04477*
X04477Y03174*
G37*
G36*
X0466Y03172D02*
X0466D01*
X04661Y03172*
X04661Y03172*
X04662Y03172*
X04663Y03172*
X04664Y03171*
X04665Y03171*
X04666Y03171*
X04667Y0317*
X04667Y0317*
X04667Y0317*
X04667Y0317*
X04668Y0317*
X04668Y03169*
X04668Y03169*
X04669Y03169*
X04669Y03168*
X04669Y03168*
X0467Y03167*
X0467Y03167*
X04671Y03166*
X04671Y03165*
X04672Y03165*
X04672Y03164*
X04673Y03163*
X04673Y03162*
Y03162*
X04673Y03162*
X04673Y03161*
X04674Y03161*
X04674Y0316*
X04674Y0316*
X04674Y03159*
X04674Y03158*
X04675Y03157*
X04675Y03156*
X04675Y03155*
X04675Y03154*
X04675Y03152*
X04675Y03151*
X04675Y03149*
Y03148*
Y03147*
Y03147*
Y03147*
X04675Y03146*
Y03145*
X04675Y03144*
X04675Y03144*
X04675Y03142*
X04675Y03141*
X04675Y0314*
X04675Y03138*
X04674Y03136*
X04674Y03134*
X04673Y03133*
Y03133*
X04673Y03133*
X04673Y03133*
X04673Y03133*
X04673Y03132*
X04672Y03132*
X04672Y0313*
X04671Y03129*
X0467Y03128*
X04669Y03127*
X04668Y03126*
X04667Y03125*
X04667Y03125*
X04667Y03125*
X04667Y03125*
X04667Y03125*
X04666Y03125*
X04666Y03125*
X04665Y03124*
X04665Y03124*
X04664Y03124*
X04662Y03123*
X04661Y03123*
X0466Y03123*
X04659Y03123*
X04659*
X04658Y03123*
X04658*
X04657Y03123*
X04657Y03123*
X04656Y03123*
X04655Y03123*
X04654Y03124*
X04652Y03124*
X04651Y03125*
X04651Y03125*
X04651Y03125*
X04651Y03125*
X0465Y03126*
X0465Y03126*
X0465Y03126*
X0465Y03126*
X04649Y03127*
X04649Y03127*
X04648Y03128*
X04648Y03128*
X04647Y03129*
X04647Y0313*
X04646Y0313*
X04646Y03131*
X04645Y03132*
X04645Y03133*
Y03133*
X04645Y03133*
X04645Y03134*
X04645Y03134*
X04645Y03135*
X04644Y03135*
X04644Y03136*
X04644Y03137*
X04644Y03138*
X04644Y03139*
X04644Y0314*
X04643Y03141*
X04643Y03143*
X04643Y03144*
X04643Y03146*
Y03148*
Y03148*
Y03148*
Y03148*
Y03149*
X04643Y03149*
Y0315*
X04643Y03151*
X04643Y03152*
X04643Y03153*
X04643Y03154*
X04644Y03155*
X04644Y03158*
X04644Y03159*
X04644Y0316*
X04645Y03161*
X04645Y03162*
Y03162*
X04645Y03162*
X04645Y03163*
X04645Y03163*
X04646Y03163*
X04646Y03164*
X04647Y03165*
X04647Y03166*
X04648Y03168*
X04649Y03169*
X0465Y03169*
X04651Y0317*
X04651Y0317*
X04651Y0317*
X04651Y0317*
X04651Y0317*
X04652Y0317*
X04652Y03171*
X04653Y03171*
X04653Y03171*
X04654Y03172*
X04656Y03172*
X04657Y03172*
X04658Y03172*
X04659Y03173*
X04659*
X0466Y03172*
G37*
G36*
X04236Y02905D02*
X04237Y02905D01*
X04238Y02905*
X04239Y02905*
X04239*
X0424Y02905*
X0424Y02905*
X04241Y02905*
X04243Y02905*
X04244Y02905*
X04245Y02904*
X04247Y02904*
Y02896*
X04247*
X04246Y02897*
X04246*
X04246Y02897*
X04245Y02897*
X04244Y02897*
X04243Y02897*
X04242Y02897*
X04239Y02898*
X04239*
X04238Y02898*
X04238Y02898*
X04237Y02898*
X04236Y02898*
X04235Y02898*
X04234Y02898*
X04232*
X04231Y02898*
X0423Y02898*
X04229Y02898*
X04228Y02898*
X04227Y02898*
X04227*
X04227Y02898*
X04227Y02898*
X04226Y02897*
X04225Y02897*
X04224Y02896*
X04224*
X04224Y02896*
X04223Y02896*
X04222Y02895*
X04222Y02894*
Y02894*
X04222Y02894*
X04222Y02894*
X04222Y02894*
X04221Y02893*
X04221Y02892*
Y02892*
Y02892*
Y02891*
X04221Y02891*
X04222Y0289*
X04222Y0289*
Y02889*
X04222Y02889*
X04222Y02889*
X04223Y02888*
X04223Y02888*
X04224Y02887*
X04224Y02887*
X04224Y02887*
X04224Y02887*
X04225Y02887*
X04225Y02887*
X04226Y02886*
X04227Y02886*
X04228Y02885*
X04228Y02885*
X04228Y02885*
X04229Y02885*
X04229Y02885*
X0423Y02884*
X04231Y02884*
X04233Y02884*
X04234Y02883*
X04234*
X04234Y02883*
X04235*
X04235Y02883*
X04236Y02883*
X04237Y02882*
X04238Y02882*
X04239Y02882*
X0424Y02881*
X04241Y02881*
X04242Y02881*
X04242Y0288*
X04243Y0288*
X04243Y0288*
X04244Y02879*
X04245Y02879*
X04246Y02878*
X04246Y02877*
X04246Y02877*
X04247Y02877*
X04247Y02877*
X04247Y02876*
X04248Y02876*
X04248Y02875*
X04249Y02874*
X04249Y02874*
Y02873*
X04249Y02873*
X04249Y02873*
X0425Y02872*
X0425Y02871*
X0425Y02871*
X0425Y0287*
Y02869*
Y02869*
Y02868*
X0425Y02868*
Y02867*
X0425Y02866*
X0425Y02866*
X04249Y02865*
X04249Y02864*
Y02864*
X04249Y02864*
X04249Y02863*
X04248Y02863*
X04248Y02862*
X04247Y0286*
X04246Y0286*
X04246Y0286*
X04246Y0286*
X04246Y02859*
X04245Y02859*
X04244Y02858*
X04243Y02858*
X04243Y02857*
X04243Y02857*
X04242Y02857*
X04242Y02857*
X04241Y02857*
X0424Y02856*
X04239Y02856*
X04239*
X04238Y02856*
X04238Y02855*
X04237Y02855*
X04237Y02855*
X04236Y02855*
X04234Y02855*
X04234*
X04234Y02855*
X04233Y02855*
X04233*
X04232Y02854*
X04231Y02854*
X04229Y02854*
X04228*
X04226Y02854*
X04225*
X04223Y02855*
X04222Y02855*
X0422Y02855*
X0422*
X0422Y02855*
X04219*
X04219Y02855*
X04217Y02855*
X04216Y02855*
X04215Y02855*
X04213Y02856*
X04212Y02856*
Y02864*
X04212*
X04212Y02864*
X04212*
X04213Y02864*
X04213Y02864*
X04215Y02863*
X04216Y02863*
X04217Y02863*
X04219Y02862*
X0422Y02862*
X04221*
X04221Y02862*
X04221*
X04222Y02862*
X04223Y02862*
X04224Y02862*
X04226Y02862*
X04227Y02861*
X0423*
X0423Y02862*
X04231*
X04232Y02862*
X04234Y02862*
X04235Y02862*
X04237Y02863*
X04238Y02863*
X04238Y02863*
X04239Y02863*
X04239Y02864*
X0424Y02864*
X0424Y02865*
X04241Y02866*
X04241Y02867*
X04241Y02868*
Y02868*
Y02868*
Y02868*
X04241Y02869*
X04241Y0287*
X04241Y0287*
Y0287*
X0424Y02871*
X0424Y02871*
X0424Y02872*
X04239Y02872*
X04239Y02872*
X04239Y02872*
X04238Y02873*
X04238Y02873*
X04237Y02873*
X04237Y02874*
X04236Y02874*
X04235Y02874*
X04235Y02874*
X04235Y02874*
X04234Y02875*
X04233Y02875*
X04232Y02875*
X04231Y02876*
X0423Y02876*
X04228Y02877*
X04228Y02877*
X04227Y02877*
X04227Y02877*
X04226Y02877*
X04225Y02878*
X04224Y02878*
X04222Y02879*
X04222Y02879*
X04221Y02879*
X04221Y02879*
X0422Y0288*
X04219Y0288*
X04219Y02881*
X04217Y02882*
X04217Y02882*
X04217Y02882*
X04216Y02883*
X04216Y02883*
X04215Y02884*
X04215Y02884*
X04214Y02885*
X04214Y02886*
X04214Y02886*
X04214Y02886*
X04213Y02887*
X04213Y02887*
X04213Y02888*
X04213Y02889*
X04213Y0289*
X04213Y02891*
Y02891*
Y02892*
X04213Y02892*
Y02893*
X04213Y02893*
X04213Y02894*
X04213Y02895*
X04213Y02896*
X04214Y02896*
X04214Y02896*
X04214Y02897*
X04214Y02897*
X04215Y02898*
X04215Y02899*
X04216Y029*
X04217Y02901*
X04217Y02901*
X04217Y02901*
X04218Y02901*
X04218Y02902*
X04219Y02902*
X0422Y02903*
X04222Y02903*
X04223Y02904*
X04223*
X04223Y02904*
X04223Y02904*
X04224Y02904*
X04225Y02905*
X04226Y02905*
X04227Y02905*
X04229Y02905*
X04231Y02905*
X04233Y02906*
X04235*
X04236Y02905*
G37*
G36*
X03962D02*
X03963Y02905D01*
X03964Y02905*
X03965Y02905*
X03967Y02904*
X03968Y02904*
X03969Y02903*
X0397Y02903*
X03971Y02902*
X03972Y02901*
X03973Y02901*
X03973Y029*
X03973Y029*
X03973Y029*
X03973Y029*
X03973Y02899*
X03974Y02898*
X03974Y02898*
X03975Y02897*
X03975Y02896*
X03975Y02895*
X03976Y02894*
X03976Y02892*
X03976Y02891*
X03976Y02889*
X03976Y02888*
Y02886*
X03968*
Y02886*
Y02886*
Y02886*
Y02887*
Y02887*
X03968Y02888*
X03967Y02889*
X03967Y02891*
X03967Y02892*
X03966Y02894*
X03966Y02895*
X03966Y02895*
X03966Y02895*
X03965Y02896*
X03965Y02896*
X03964Y02897*
X03963Y02897*
X03962Y02898*
X03961Y02898*
X0396Y02898*
X03959*
X03959Y02898*
X03958Y02898*
X03956Y02897*
X03956*
X03956Y02897*
X03956Y02897*
X03955Y02897*
X03955Y02897*
X03954Y02896*
X03953Y02895*
X03953Y02895*
X03952Y02895*
X03952Y02895*
X03952Y02895*
X03951Y02894*
X0395Y02893*
X0395Y02893*
X03949Y02892*
X03949Y02892*
X03948Y02892*
X03948Y02891*
X03947Y02891*
X03947Y0289*
X03946Y02889*
X03945Y02888*
X03944Y02887*
Y02855*
X03936*
Y02905*
X03943*
X03944Y02895*
X03944Y02896*
X03944Y02896*
X03944Y02896*
X03944Y02896*
X03945Y02897*
X03947Y02898*
X03948Y029*
X03949Y02901*
X03951Y02902*
X03952Y02903*
X03953*
X03953Y02903*
X03953Y02903*
X03953Y02904*
X03954Y02904*
X03955Y02904*
X03956Y02905*
X03958Y02905*
X03959Y02905*
X03961Y02906*
X03962*
X03962Y02905*
G37*
G36*
X0385Y02905D02*
X03851Y02905D01*
X03852Y02905*
X03855Y02905*
X03855*
X03855Y02905*
X03856Y02904*
X03857Y02904*
X03858Y02904*
X03859Y02904*
X03861Y02903*
Y02895*
X03861Y02895*
X03861Y02895*
X0386Y02895*
X03859Y02896*
X03858Y02896*
X03857Y02896*
X03856Y02897*
X03855Y02897*
X03854*
X03854Y02897*
X03853Y02897*
X03853Y02898*
X03851Y02898*
X0385Y02898*
X03849Y02898*
X03847*
X03847Y02898*
X03846Y02898*
X03845Y02898*
X03844Y02897*
X03843Y02897*
X03842Y02897*
X03841Y02897*
X03841Y02896*
X0384Y02896*
X0384Y02896*
X03839Y02895*
X03838Y02895*
X03837Y02894*
X03836Y02893*
X03836Y02893*
X03836Y02893*
X03836Y02892*
X03835Y02891*
X03835Y02891*
X03834Y0289*
X03833Y02889*
X03833Y02887*
X03833Y02887*
X03833Y02887*
X03832Y02886*
X03832Y02885*
X03832Y02884*
X03832Y02883*
X03832Y02881*
X03832Y0288*
Y0288*
Y02879*
Y02879*
X03832Y02878*
X03832Y02877*
X03832Y02877*
X03832Y02876*
X03832Y02875*
X03833Y02872*
X03833Y0287*
X03834Y02869*
X03835Y02868*
X03835Y02867*
X03836Y02866*
X03836Y02866*
X03836Y02866*
X03836Y02866*
X03837Y02866*
X03837Y02865*
X03838Y02865*
X03838Y02864*
X03839Y02864*
X0384Y02864*
X03841Y02863*
X03842Y02863*
X03843Y02862*
X03844Y02862*
X03845Y02862*
X03847Y02862*
X03848Y02862*
X03849*
X03849Y02862*
X0385*
X03851Y02862*
X03852Y02862*
X03855Y02863*
X03855*
X03855Y02863*
X03856Y02863*
X03857Y02863*
X03858Y02864*
X03859Y02864*
X03861Y02865*
Y02857*
X03861Y02857*
X03861Y02857*
X0386Y02857*
X03859Y02856*
X03858Y02856*
X03857Y02856*
X03856Y02855*
X03854Y02855*
X03854*
X03854Y02855*
X03853Y02855*
X03852Y02855*
X03851Y02855*
X0385Y02855*
X03848Y02855*
X03847*
X03846Y02855*
X03845*
X03844Y02855*
X03843Y02855*
X03842Y02855*
X0384Y02855*
X03839Y02856*
X03837Y02856*
X03836Y02857*
X03835Y02857*
X03833Y02858*
X03832Y02859*
X0383Y0286*
X03829Y02861*
X03829Y02861*
X03829Y02861*
X03828Y02861*
X03828Y02862*
X03828Y02863*
X03827Y02863*
X03826Y02864*
X03826Y02866*
X03825Y02867*
X03825Y02868*
X03824Y0287*
X03824Y02871*
X03823Y02873*
X03823Y02875*
X03823Y02877*
X03823Y02879*
Y02879*
Y0288*
Y0288*
Y0288*
X03823Y02881*
Y02881*
X03823Y02883*
X03823Y02885*
X03823Y02886*
X03824Y02888*
X03825Y0289*
Y0289*
X03825Y0289*
X03825Y0289*
X03825Y02891*
X03825Y02892*
X03826Y02893*
X03827Y02894*
X03827Y02895*
X03828Y02897*
X0383Y02898*
X0383Y02898*
X0383Y02899*
X03831Y02899*
X03832Y029*
X03833Y02901*
X03834Y02902*
X03836Y02903*
X03837Y02903*
X03838*
X03838Y02903*
X03838Y02904*
X03838Y02904*
X03839Y02904*
X03839Y02904*
X0384Y02904*
X03842Y02905*
X03844Y02905*
X03846Y02905*
X03848Y02905*
X03849*
X0385Y02905*
G37*
G36*
X04398Y02905D02*
X04399Y02905D01*
X044Y02905*
X044*
X044Y02905*
X044Y02905*
X04401Y02904*
X04401Y02904*
X04402Y02903*
X04402Y02903*
X04402Y02903*
X04403Y02903*
X04403Y02902*
X04403Y02902*
X04404Y02901*
Y02901*
X04404Y02901*
X04404Y029*
X04404Y029*
X04404Y02899*
X04404Y02898*
Y02898*
Y02898*
Y02897*
X04404Y02897*
X04404Y02896*
X04404Y02895*
Y02895*
X04404Y02895*
X04404Y02894*
X04403Y02894*
X04403Y02893*
X04402Y02893*
X04402*
X04402Y02892*
X04402Y02892*
X04401Y02892*
X04401Y02891*
X044Y02891*
X044*
X04399Y02891*
X04399Y02891*
X04399Y02891*
X04398Y02891*
X04397Y0289*
X04396*
X04396Y02891*
X04395Y02891*
X04394Y02891*
X04394*
X04394Y02891*
X04393Y02891*
X04393Y02891*
X04392Y02892*
X04392Y02893*
Y02893*
X04391Y02893*
X04391Y02893*
X0439Y02894*
X0439Y02895*
Y02895*
X0439Y02895*
X0439Y02895*
X0439Y02896*
X04389Y02897*
X04389Y02898*
Y02898*
Y02898*
Y02898*
X04389Y02899*
X0439Y029*
X0439Y02901*
Y02901*
X0439Y02901*
X0439Y02901*
X0439Y02902*
X04391Y02902*
X04392Y02903*
X04392Y02903*
X04392Y02903*
X04392Y02904*
X04393Y02904*
X04394Y02905*
X04394*
X04394Y02905*
X04394Y02905*
X04395Y02905*
X04396Y02905*
X04397Y02906*
X04397*
X04398Y02905*
G37*
G36*
X03752Y02855D02*
X03744D01*
X03744Y02863*
X03744Y02863*
X03743Y02863*
X03743Y02862*
X03742Y02862*
X03742Y02861*
X03741Y0286*
X03739Y02859*
X03739Y02859*
X03739Y02859*
X03739Y02858*
X03738Y02858*
X03738Y02857*
X03737Y02857*
X03735Y02856*
X03735*
X03735Y02856*
X03735Y02856*
X03734Y02856*
X03734Y02855*
X03733Y02855*
X03731Y02855*
X03731*
X03731Y02855*
X03731Y02855*
X0373Y02855*
X0373Y02854*
X03729Y02854*
X03727Y02854*
X03727*
X03726Y02854*
X03725Y02854*
X03725Y02855*
X03723Y02855*
X03721Y02855*
X03719Y02856*
X03718Y02857*
X03717Y02857*
X03717Y02858*
X03716Y02859*
Y02859*
X03716Y02859*
X03715Y02859*
X03715Y0286*
X03715Y0286*
X03715Y02861*
X03714Y02861*
X03714Y02862*
X03713Y02863*
X03713Y02864*
X03713Y02865*
X03712Y02866*
X03712Y02868*
X03712Y02869*
X03712Y02871*
X03712Y02872*
Y02905*
X03721*
Y02873*
Y02873*
Y02872*
X03721Y02872*
X03721Y02871*
X03721Y0287*
X03721Y02869*
X03721Y02868*
X03722Y02867*
X03722Y02866*
X03723Y02865*
X03723Y02864*
X03724Y02863*
X03725Y02863*
X03726Y02862*
X03728Y02862*
X03729Y02862*
X0373*
X0373Y02862*
X03731Y02862*
X03732Y02862*
X03732*
X03732Y02862*
X03733Y02862*
X03733Y02862*
X03734Y02863*
X03735Y02864*
X03735Y02864*
X03736Y02864*
X03736Y02864*
X03736Y02864*
X03737Y02865*
X03737Y02865*
X03738Y02866*
X03739Y02867*
X03739Y02867*
X03739Y02867*
X0374Y02868*
X0374Y02868*
X03741Y02869*
X03741Y0287*
X03742Y02871*
X03743Y02872*
Y02905*
X03752*
Y02855*
G37*
G36*
X03682Y02862D02*
X03697D01*
Y02855*
X03657*
Y02862*
X03673*
Y02918*
X03659*
Y02925*
X03682*
Y02862*
G37*
G36*
X03648Y02855D02*
X03639D01*
X03634Y02869*
X03607*
X03603Y02855*
X03594*
X03615Y0292*
X03627*
X03648Y02855*
G37*
G36*
X04284Y02905D02*
X04306D01*
Y02897*
X04284*
Y02872*
Y02872*
Y02872*
Y02872*
X04284Y02871*
X04284Y02871*
X04284Y02869*
X04285Y02868*
X04285Y02867*
X04286Y02865*
X04287Y02864*
X04287Y02864*
X04287Y02864*
X04288Y02864*
X04289Y02863*
X0429Y02863*
X04291Y02862*
X04293Y02862*
X04295Y02862*
X04296*
X04297Y02862*
X04297*
X04298Y02862*
X04299Y02862*
X043Y02862*
X043*
X04301Y02862*
X04301Y02862*
X04302Y02862*
X04303Y02863*
X04304Y02863*
X04305Y02863*
X04306Y02863*
Y02856*
X04306*
X04306Y02856*
X04305Y02856*
X04304Y02855*
X04303Y02855*
X04302Y02855*
X043Y02855*
X043*
X04299Y02855*
X04299*
X04298Y02855*
X04297Y02855*
X04296*
X04294Y02855*
X04293*
X04292Y02855*
X04291Y02855*
X04291Y02855*
X0429Y02855*
X04289Y02855*
X04286Y02855*
X04284Y02856*
X04283Y02857*
X04282Y02857*
X04281Y02858*
X0428Y02859*
X0428Y02859*
X0428Y02859*
X04279Y02859*
X04279Y0286*
X04279Y0286*
X04278Y0286*
X04278Y02861*
X04278Y02862*
X04277Y02863*
X04277Y02864*
X04276Y02865*
X04276Y02866*
X04276Y02867*
X04275Y02869*
X04275Y0287*
X04275Y02872*
Y02897*
X04261*
Y02905*
X04275*
Y02918*
X04284Y0292*
Y02905*
G37*
G36*
X04118D02*
X0414D01*
Y02897*
X04118*
Y02872*
Y02872*
Y02872*
Y02872*
X04118Y02871*
X04118Y02871*
X04118Y02869*
X04118Y02868*
X04119Y02867*
X04119Y02865*
X0412Y02864*
X04121Y02864*
X04121Y02864*
X04122Y02864*
X04122Y02863*
X04124Y02863*
X04125Y02862*
X04127Y02862*
X04129Y02862*
X0413*
X0413Y02862*
X04131*
X04132Y02862*
X04133Y02862*
X04134Y02862*
X04134*
X04134Y02862*
X04135Y02862*
X04136Y02862*
X04137Y02863*
X04138Y02863*
X04139Y02863*
X0414Y02863*
Y02856*
X0414*
X04139Y02856*
X04139Y02856*
X04138Y02855*
X04137Y02855*
X04136Y02855*
X04134Y02855*
X04134*
X04133Y02855*
X04133*
X04132Y02855*
X04131Y02855*
X0413*
X04127Y02855*
X04127*
X04126Y02855*
X04125Y02855*
X04124Y02855*
X04123Y02855*
X04122Y02855*
X0412Y02855*
X04118Y02856*
X04117Y02857*
X04115Y02857*
X04114Y02858*
X04114Y02859*
X04113Y02859*
X04113Y02859*
X04113Y02859*
X04113Y0286*
X04112Y0286*
X04112Y0286*
X04112Y02861*
X04111Y02862*
X04111Y02863*
X0411Y02864*
X0411Y02865*
X0411Y02866*
X04109Y02867*
X04109Y02869*
X04109Y0287*
X04109Y02872*
Y02897*
X04095*
Y02905*
X04109*
Y02918*
X04118Y0292*
Y02905*
G37*
G36*
X04398Y02869D02*
X04399Y02869D01*
X044Y02869*
X044*
X044Y02869*
X044Y02868*
X04401Y02868*
X04401Y02868*
X04402Y02867*
X04402Y02867*
X04402Y02867*
X04403Y02867*
X04403Y02866*
X04403Y02866*
X04404Y02865*
Y02865*
X04404Y02864*
X04404Y02864*
X04404Y02864*
X04404Y02863*
X04404Y02862*
Y02862*
Y02861*
Y02861*
X04404Y02861*
X04404Y0286*
X04404Y02859*
Y02859*
X04404Y02859*
X04404Y02858*
X04403Y02858*
X04403Y02857*
X04402Y02856*
X04402*
X04402Y02856*
X04402Y02856*
X04401Y02856*
X04401Y02855*
X044Y02855*
X044*
X04399Y02855*
X04399Y02855*
X04399Y02855*
X04398Y02854*
X04397Y02854*
X04396*
X04396Y02854*
X04395Y02855*
X04394Y02855*
X04394*
X04394Y02855*
X04393Y02855*
X04393Y02855*
X04392Y02856*
X04392Y02856*
Y02856*
X04391Y02857*
X04391Y02857*
X0439Y02858*
X0439Y02859*
Y02859*
X0439Y02859*
X0439Y02859*
X0439Y0286*
X04389Y02861*
X04389Y02862*
Y02862*
Y02862*
Y02862*
X04389Y02863*
X0439Y02864*
X0439Y02865*
Y02865*
X0439Y02865*
X0439Y02865*
X0439Y02865*
X04391Y02866*
X04392Y02867*
X04392Y02867*
X04392Y02867*
X04392Y02868*
X04393Y02868*
X04394Y02869*
X04394*
X04394Y02869*
X04394Y02869*
X04395Y02869*
X04396Y02869*
X04397Y02869*
X04397*
X04398Y02869*
G37*
G36*
X04177Y02905D02*
X04178D01*
X04179Y02905*
X0418Y02905*
X04182Y02905*
X04183Y02904*
X04185Y02904*
X04185*
X04185Y02904*
X04185Y02904*
X04186Y02903*
X04187Y02903*
X04188Y02902*
X04189Y02901*
X0419Y029*
X04192Y02899*
X04192Y02899*
X04192Y02899*
X04192Y02898*
X04193Y02897*
X04194Y02896*
X04194Y02895*
X04195Y02894*
X04196Y02892*
Y02892*
X04196Y02892*
X04196Y02892*
X04196Y02891*
X04196Y0289*
X04196Y02889*
X04197Y02888*
X04197Y02886*
X04197Y02884*
X04197Y02882*
Y02882*
Y02882*
Y02882*
Y02881*
Y0288*
X04197Y02879*
Y02879*
Y02879*
Y02879*
X04197Y02879*
Y02878*
X04197Y02877*
X04162*
Y02877*
Y02877*
Y02876*
X04162Y02876*
X04162Y02875*
X04162Y02875*
X04163Y02873*
X04163Y02871*
X04164Y02869*
X04164Y02868*
X04165Y02867*
X04166Y02866*
X04166Y02865*
X04166Y02865*
X04167Y02865*
X04167Y02865*
X04167Y02865*
X04168Y02865*
X04168Y02864*
X04169Y02864*
X04169Y02863*
X0417Y02863*
X04171Y02863*
X04172Y02862*
X04173Y02862*
X04174Y02862*
X04176Y02862*
X04177Y02861*
X04179Y02861*
X0418*
X04181Y02861*
X04181*
X04183Y02862*
X04183*
X04184Y02862*
X04184*
X04185Y02862*
X04186Y02862*
X04187Y02862*
X04187*
X04187Y02862*
X04188Y02862*
X04188Y02862*
X04189Y02862*
X0419Y02862*
X04191Y02863*
X04191*
X04191Y02863*
X04192Y02863*
X04192Y02863*
X04193Y02863*
X04194Y02864*
Y02856*
X04194*
X04194Y02856*
X04193Y02856*
X04192Y02856*
X04191Y02856*
X0419Y02855*
X04188Y02855*
X04187Y02855*
X04186*
X04186Y02855*
X04186*
X04185Y02855*
X04184Y02855*
X04182Y02855*
X04181Y02854*
X04179Y02854*
X04176*
X04176Y02854*
X04175*
X04174Y02855*
X04172Y02855*
X0417Y02855*
X04168Y02855*
X04166Y02856*
X04166*
X04166Y02856*
X04166Y02856*
X04166Y02856*
X04165Y02857*
X04164Y02857*
X04163Y02858*
X04161Y02859*
X0416Y0286*
X04159Y02861*
X04159Y02861*
X04158Y02862*
X04158Y02862*
X04157Y02863*
X04157Y02864*
X04156Y02866*
X04155Y02867*
X04155Y02869*
Y02869*
X04155Y02869*
X04154Y02869*
X04154Y0287*
X04154Y0287*
X04154Y02871*
X04154Y02872*
X04154Y02874*
X04153Y02876*
X04153Y02878*
X04153Y0288*
Y0288*
Y0288*
Y0288*
Y02881*
X04153Y02881*
Y02882*
X04153Y02883*
X04154Y02884*
X04154Y02886*
X04154Y02888*
X04155Y0289*
Y0289*
X04155Y0289*
X04155Y0289*
X04155Y0289*
X04155Y02891*
X04156Y02892*
X04156Y02894*
X04157Y02895*
X04158Y02896*
X04159Y02898*
Y02898*
X04159Y02898*
X0416Y02898*
X0416Y02899*
X04161Y029*
X04162Y02901*
X04163Y02902*
X04165Y02903*
X04166Y02903*
X04166*
X04166Y02903*
X04167Y02904*
X04167Y02904*
X04168Y02904*
X04169Y02904*
X0417Y02905*
X04172Y02905*
X04174Y02905*
X04176Y02906*
X04177*
X04177Y02905*
G37*
G36*
X04011D02*
X04011D01*
X04012Y02905*
X04014Y02905*
X04015Y02905*
X04017Y02904*
X04019Y02904*
X04019*
X04019Y02904*
X04019Y02904*
X0402Y02903*
X04021Y02903*
X04022Y02902*
X04023Y02901*
X04024Y029*
X04025Y02899*
X04025Y02899*
X04026Y02899*
X04026Y02898*
X04027Y02897*
X04027Y02896*
X04028Y02895*
X04029Y02894*
X04029Y02892*
Y02892*
X04029Y02892*
X0403Y02892*
X0403Y02891*
X0403Y0289*
X0403Y02889*
X0403Y02888*
X04031Y02886*
X04031Y02884*
X04031Y02882*
Y02882*
Y02882*
Y02882*
Y02881*
Y0288*
X04031Y02879*
Y02879*
Y02879*
Y02879*
X04031Y02879*
Y02878*
X04031Y02877*
X03996*
Y02877*
Y02877*
Y02876*
X03996Y02876*
X03996Y02875*
X03996Y02875*
X03996Y02873*
X03997Y02871*
X03998Y02869*
X03998Y02868*
X03999Y02867*
X03999Y02866*
X04Y02865*
X04Y02865*
X04Y02865*
X04Y02865*
X04001Y02865*
X04001Y02865*
X04002Y02864*
X04002Y02864*
X04003Y02863*
X04004Y02863*
X04005Y02863*
X04006Y02862*
X04007Y02862*
X04008Y02862*
X04009Y02862*
X04011Y02861*
X04012Y02861*
X04014*
X04014Y02861*
X04015*
X04017Y02862*
X04017*
X04017Y02862*
X04018*
X04019Y02862*
X04019Y02862*
X04021Y02862*
X04021*
X04021Y02862*
X04022Y02862*
X04022Y02862*
X04023Y02862*
X04023Y02862*
X04025Y02863*
X04025*
X04025Y02863*
X04025Y02863*
X04026Y02863*
X04027Y02863*
X04028Y02864*
Y02856*
X04028*
X04028Y02856*
X04027Y02856*
X04026Y02856*
X04025Y02856*
X04023Y02855*
X04022Y02855*
X0402Y02855*
X0402*
X0402Y02855*
X0402*
X04019Y02855*
X04017Y02855*
X04016Y02855*
X04014Y02854*
X04013Y02854*
X0401*
X04009Y02854*
X04009*
X04007Y02855*
X04006Y02855*
X04004Y02855*
X04002Y02855*
X04Y02856*
X04*
X04Y02856*
X04Y02856*
X03999Y02856*
X03999Y02857*
X03998Y02857*
X03996Y02858*
X03995Y02859*
X03994Y0286*
X03993Y02861*
X03992Y02861*
X03992Y02862*
X03992Y02862*
X03991Y02863*
X0399Y02864*
X0399Y02866*
X03989Y02867*
X03988Y02869*
Y02869*
X03988Y02869*
X03988Y02869*
X03988Y0287*
X03988Y0287*
X03988Y02871*
X03988Y02872*
X03987Y02874*
X03987Y02876*
X03987Y02878*
X03987Y0288*
Y0288*
Y0288*
Y0288*
Y02881*
X03987Y02881*
Y02882*
X03987Y02883*
X03987Y02884*
X03988Y02886*
X03988Y02888*
X03988Y0289*
Y0289*
X03989Y0289*
X03989Y0289*
X03989Y0289*
X03989Y02891*
X03989Y02892*
X0399Y02894*
X03991Y02895*
X03992Y02896*
X03993Y02898*
Y02898*
X03993Y02898*
X03993Y02898*
X03994Y02899*
X03995Y029*
X03996Y02901*
X03997Y02902*
X03998Y02903*
X04Y02903*
X04*
X04Y02903*
X04Y02904*
X04001Y02904*
X04001Y02904*
X04003Y02904*
X04004Y02905*
X04006Y02905*
X04007Y02905*
X04009Y02906*
X0401*
X04011Y02905*
G37*
G36*
X039D02*
X039D01*
X03902Y02905*
X03903Y02905*
X03905Y02905*
X03906Y02904*
X03908Y02904*
X03908*
X03908Y02904*
X03908Y02904*
X03909Y02903*
X03909Y02903*
X03911Y02903*
X03912Y02902*
X03913Y02901*
X03914Y029*
X03915Y02899*
X03915Y02899*
X03916Y02898*
X03916Y02898*
X03917Y02897*
X03918Y02896*
X03918Y02894*
X03919Y02893*
X0392Y02891*
Y02891*
X0392Y02891*
X0392Y02891*
X0392Y0289*
X0392Y0289*
X0392Y02889*
X03921Y02888*
X03921Y02886*
X03921Y02885*
X03921Y02882*
X03921Y0288*
Y0288*
Y0288*
Y0288*
Y02879*
X03921Y02879*
Y02878*
X03921Y02877*
X03921Y02875*
X03921Y02873*
X0392Y02872*
X0392Y0287*
Y0287*
X0392Y02869*
X03919Y02869*
X03919Y02869*
X03919Y02868*
X03918Y02867*
X03918Y02866*
X03917Y02864*
X03916Y02863*
X03915Y02861*
X03915Y02861*
X03914Y02861*
X03914Y0286*
X03913Y0286*
X03912Y02859*
X0391Y02858*
X03909Y02857*
X03907Y02856*
X03907*
X03907Y02856*
X03907Y02856*
X03907Y02856*
X03906Y02856*
X03906Y02856*
X03905Y02855*
X03903Y02855*
X03901Y02855*
X039Y02854*
X03897Y02854*
X03897*
X03896Y02854*
X03896*
X03894Y02855*
X03893Y02855*
X03891Y02855*
X0389Y02855*
X03888Y02856*
X03888*
X03888Y02856*
X03888Y02856*
X03887Y02856*
X03886Y02857*
X03886Y02857*
X03884Y02858*
X03883Y02859*
X03882Y0286*
X03881Y02861*
X03881Y02861*
X0388Y02861*
X0388Y02862*
X03879Y02863*
X03878Y02864*
X03878Y02865*
X03877Y02867*
X03876Y02869*
Y02869*
X03876Y02869*
X03876Y02869*
X03876Y02869*
X03876Y0287*
X03876Y0287*
X03876Y02872*
X03875Y02873*
X03875Y02875*
X03875Y02877*
X03875Y0288*
Y0288*
Y0288*
Y0288*
Y02881*
X03875Y02881*
Y02882*
X03875Y02883*
X03875Y02885*
X03876Y02886*
X03876Y02888*
X03876Y0289*
Y0289*
X03876Y0289*
X03877Y02891*
X03877Y02891*
X03877Y02892*
X03878Y02893*
X03878Y02894*
X03879Y02896*
X0388Y02897*
X03881Y02898*
X03881Y02898*
X03882Y02899*
X03882Y02899*
X03883Y029*
X03884Y02901*
X03886Y02902*
X03887Y02903*
X03889Y02904*
X03889*
X03889Y02904*
X03889Y02904*
X03889Y02904*
X0389Y02904*
X0389Y02904*
X03891Y02905*
X03893Y02905*
X03895Y02905*
X03897Y02905*
X03899Y02906*
X03899*
X039Y02905*
G37*
G36*
X04443Y02928D02*
X04443Y02928D01*
X04443Y02928*
X04444Y02927*
X04444Y02927*
X04445Y02926*
X04445Y02926*
X04446Y02925*
X04447Y02924*
X04448Y02923*
X04449Y02922*
X0445Y0292*
X04451Y02919*
X04452Y02918*
X04454Y02915*
X04456Y02911*
X04458Y02908*
X0446Y02904*
X04462Y029*
X04463Y02898*
X04463Y02896*
X04464Y02893*
X04464Y02891*
X04465Y02889*
X04465Y02886*
X04465Y02884*
X04465Y02882*
Y02882*
Y02881*
Y02881*
Y02881*
Y0288*
X04465Y0288*
X04465Y02878*
X04465Y02877*
X04465Y02875*
X04465Y02873*
X04464Y02871*
Y02871*
X04464Y0287*
Y0287*
X04464Y0287*
X04464Y02869*
X04464Y02868*
X04464Y02868*
X04463Y02867*
X04463Y02865*
X04462Y02863*
X04461Y02861*
X04461Y02859*
Y02859*
X0446Y02859*
X0446Y02858*
X0446Y02858*
X0446Y02857*
X0446Y02857*
X04459Y02856*
X04459Y02855*
X04458Y02853*
X04456Y02851*
X04455Y02849*
X04454Y02847*
X04453Y02847*
X04453Y02847*
X04453Y02846*
X04453Y02846*
X04452Y02845*
X04452Y02845*
X04451Y02844*
X0445Y02843*
X04449Y02841*
X04447Y02839*
X04445Y02837*
X04442Y02835*
X04438Y0284*
X04438Y0284*
X04438Y0284*
X04438Y02841*
X04439Y02841*
X0444Y02842*
X04441Y02843*
X04442Y02844*
X04443Y02846*
X04444Y02847*
X04445Y02849*
X04446Y0285*
X04448Y02852*
X0445Y02856*
X04451Y02857*
X04452Y02859*
X04452Y02859*
X04452Y0286*
X04452Y0286*
X04453Y02861*
X04453Y02862*
X04453Y02863*
X04454Y02865*
X04454Y02866*
X04455Y02867*
X04455Y02869*
X04455Y02871*
X04456Y02873*
X04456Y02875*
X04456Y02877*
X04456Y02879*
X04457Y02881*
Y02881*
Y02881*
Y02882*
Y02882*
X04456Y02883*
Y02883*
X04456Y02884*
X04456Y02885*
X04456Y02886*
X04456Y02887*
X04456Y02888*
X04456Y02889*
X04455Y02892*
X04454Y02895*
X04453Y02898*
X04452Y02902*
X0445Y02905*
X0445Y02907*
X04449Y02909*
X04447Y02911*
X04446Y02912*
X04445Y02914*
X04444Y02916*
X04442Y02918*
X04441Y0292*
X04439Y02921*
X04438Y02923*
X04443Y02928*
X04443Y02928*
G37*
%LNalu_test-2*%
%LPC*%
G36*
X04895Y03068D02*
X04894D01*
Y03068*
Y03068*
Y03067*
Y03067*
Y03067*
X04895*
Y03066*
Y03066*
X04895*
Y03066*
Y03065*
Y03065*
X04895*
Y03065*
Y03064*
Y03064*
X04896*
Y03064*
Y03063*
X04896*
Y03063*
Y03063*
Y03062*
X04896*
Y03062*
Y03062*
X04897*
Y03061*
Y03061*
Y03061*
X04897*
Y0306*
Y0306*
X04897*
Y0306*
Y03059*
Y03059*
X04898*
Y03059*
Y03058*
X04898*
Y03058*
Y03058*
Y03057*
X04898*
Y03057*
Y03056*
Y03056*
X04899*
Y03056*
Y03055*
X04899*
Y03055*
Y03055*
Y03054*
X04899*
Y03054*
Y03054*
Y03053*
X049*
Y03053*
Y03053*
X049*
Y03052*
Y03052*
X049*
Y03052*
Y03051*
Y03051*
X04901*
Y03051*
Y0305*
Y0305*
X04901*
Y0305*
Y03049*
X04901*
Y03049*
Y03049*
Y03048*
X04902*
Y03048*
Y03048*
X04902*
Y03047*
Y03047*
Y03047*
X04902*
Y03046*
Y03046*
X04903*
Y03046*
Y03045*
Y03045*
X04903*
Y03045*
Y03044*
Y03044*
X04903*
Y03044*
Y03043*
X04904*
Y03043*
Y03043*
Y03042*
X04904*
Y03042*
Y03042*
X04904*
Y03041*
Y03041*
Y03041*
X04905*
Y0304*
Y0304*
X04905*
Y0304*
Y03039*
Y03039*
X04905*
Y03039*
Y03038*
X04906*
Y03038*
Y03038*
Y03037*
X04906*
Y03037*
Y03037*
Y03036*
X04906*
Y03036*
Y03036*
X04907*
Y03035*
Y03035*
Y03035*
X04907*
Y03034*
Y03034*
Y03034*
X04908*
Y03033*
Y03033*
X04908*
Y03033*
Y03032*
Y03032*
X04908*
Y03032*
Y03031*
X04909*
Y03031*
Y03031*
Y0303*
X04909*
Y0303*
Y0303*
X04909*
Y03029*
Y03029*
Y03029*
X0491*
Y03028*
Y03028*
X0491*
Y03028*
Y03027*
X04911*
Y03028*
Y03028*
X04911*
Y03028*
Y03029*
X04911*
Y03029*
X04912*
Y03029*
Y0303*
X04912*
Y0303*
X04912*
Y0303*
Y03031*
X04913*
Y03031*
X04913*
Y03031*
X04913*
Y03032*
Y03032*
X04914*
Y03032*
X04914*
Y03033*
Y03033*
X04914*
Y03033*
X04915*
Y03034*
X04915*
Y03034*
Y03034*
X04916*
Y03035*
Y03035*
Y03035*
X04916*
Y03036*
X04916*
Y03036*
Y03036*
X04917*
Y03037*
Y03037*
Y03037*
Y03038*
X04916*
Y03038*
Y03038*
X04916*
Y03039*
X04915*
Y03039*
X04915*
Y03039*
Y0304*
X04915*
Y0304*
X04914*
Y0304*
Y03041*
X04914*
Y03041*
X04914*
Y03041*
Y03042*
X04913*
Y03042*
X04913*
Y03042*
X04913*
Y03043*
Y03043*
X04912*
Y03043*
X04912*
Y03044*
Y03044*
X04912*
Y03044*
Y03045*
X04911*
Y03045*
X04911*
Y03045*
X04911*
Y03046*
X0491*
Y03046*
Y03046*
X0491*
Y03047*
X0491*
Y03047*
Y03047*
X04909*
Y03048*
X04909*
Y03048*
X04909*
Y03048*
Y03049*
X04908*
Y03049*
X04908*
Y03049*
Y0305*
X04908*
Y0305*
X04907*
Y0305*
Y03051*
X04907*
Y03051*
Y03051*
X04906*
Y03052*
Y03052*
X04906*
Y03052*
X04905*
Y03053*
Y03053*
Y03053*
X04905*
Y03054*
X04905*
Y03054*
X04904*
Y03054*
X04904*
Y03055*
X04904*
Y03055*
Y03055*
Y03056*
X04903*
Y03056*
Y03056*
X04903*
Y03057*
X04902*
Y03057*
Y03058*
X04902*
Y03058*
X04902*
Y03058*
Y03059*
X04901*
Y03059*
X04901*
Y03059*
X04901*
Y0306*
Y0306*
X049*
Y0306*
X049*
Y03061*
X049*
Y03061*
Y03061*
X04899*
Y03062*
Y03062*
X04899*
Y03062*
X04899*
Y03063*
X04898*
Y03063*
Y03063*
X04898*
Y03064*
X04898*
Y03064*
X04897*
Y03064*
Y03065*
X04897*
Y03065*
X04897*
Y03065*
Y03066*
X04896*
Y03066*
X04896*
Y03066*
Y03067*
X04896*
Y03067*
X04895*
Y03067*
X04895*
Y03068*
Y03068*
X04895*
Y03068*
G37*
G36*
X04754Y03083D02*
X04699D01*
Y03083*
Y03082*
Y03082*
Y03082*
X04699*
Y03081*
Y03081*
Y03081*
Y0308*
X047*
Y0308*
Y0308*
X047*
Y03079*
Y03079*
Y03079*
X047*
Y03078*
Y03078*
Y03078*
X04701*
Y03077*
Y03077*
Y03077*
X04701*
Y03076*
Y03076*
Y03076*
X04701*
Y03075*
Y03075*
Y03075*
Y03074*
X04702*
Y03074*
Y03074*
Y03073*
X04702*
Y03073*
Y03073*
X04702*
Y03072*
Y03072*
Y03072*
Y03071*
X04703*
Y03071*
Y03071*
X04703*
Y0307*
Y0307*
Y0307*
X04703*
Y03069*
Y03069*
Y03069*
Y03068*
X04704*
Y03068*
Y03068*
Y03067*
X04704*
Y03067*
Y03067*
Y03066*
X04704*
Y03066*
Y03066*
Y03065*
X04705*
Y03065*
Y03065*
X04705*
Y03064*
Y03064*
Y03064*
Y03063*
X04705*
Y03063*
Y03063*
X04706*
Y03062*
Y03062*
Y03062*
X04706*
Y03061*
Y03061*
Y03061*
Y0306*
X04706*
Y0306*
Y0306*
Y03059*
X04707*
Y03059*
Y03059*
Y03058*
X04707*
Y03058*
Y03058*
Y03057*
X04707*
Y03057*
Y03056*
Y03056*
X04708*
Y03056*
Y03055*
Y03055*
X04708*
Y03055*
Y03054*
X04708*
Y03054*
Y03054*
Y03053*
X04709*
Y03053*
Y03053*
Y03052*
X04709*
Y03052*
Y03052*
Y03051*
Y03051*
X04709*
Y03051*
Y0305*
Y0305*
X0471*
Y0305*
Y03049*
Y03049*
X0471*
Y03049*
Y03048*
Y03048*
X0471*
Y03048*
Y03047*
X04711*
Y03047*
Y03047*
Y03046*
Y03046*
Y03046*
X04711*
Y03045*
X04711*
Y03045*
Y03045*
Y03044*
X04712*
Y03044*
Y03044*
Y03043*
Y03043*
X04712*
Y03043*
Y03042*
Y03042*
X04712*
Y03042*
Y03041*
Y03041*
X04713*
Y03041*
Y0304*
Y0304*
X04713*
Y0304*
Y03039*
X04713*
Y03039*
Y03039*
Y03038*
X04714*
Y03038*
Y03038*
Y03037*
X04714*
Y03037*
Y03037*
Y03036*
Y03036*
X04714*
Y03036*
Y03035*
Y03035*
X04715*
Y03035*
Y03034*
Y03034*
X04715*
Y03034*
Y03033*
Y03033*
X04715*
Y03033*
Y03032*
Y03032*
X04716*
Y03032*
Y03031*
Y03031*
X04716*
Y03031*
Y0303*
Y0303*
X04716*
Y0303*
Y03029*
X04717*
Y03029*
Y03029*
Y03028*
X04717*
Y03028*
Y03028*
Y03027*
Y03027*
X04717*
Y03027*
Y03026*
Y03026*
X04718*
Y03026*
Y03025*
Y03025*
X04718*
Y03025*
Y03024*
Y03024*
X04718*
Y03024*
Y03023*
Y03023*
X04719*
Y03023*
Y03022*
X04719*
Y03022*
Y03022*
Y03021*
X04719*
Y03021*
Y03021*
Y0302*
X0472*
Y0302*
Y0302*
Y03019*
Y03019*
X0472*
Y03019*
Y03018*
X0472*
Y03018*
Y03018*
Y03017*
Y03017*
X04721*
Y03017*
Y03016*
Y03016*
X04721*
Y03016*
Y03015*
Y03015*
X04721*
Y03015*
Y03014*
Y03014*
X04722*
Y03014*
Y03013*
X04722*
Y03013*
Y03013*
Y03012*
Y03012*
Y03012*
X04722*
Y03011*
X04723*
Y03011*
Y03011*
Y0301*
X04723*
Y0301*
Y0301*
Y03009*
Y03009*
X04723*
Y03009*
Y03008*
Y03008*
X04724*
Y03008*
Y03007*
Y03007*
X04724*
Y03007*
Y03006*
X04724*
Y03006*
Y03006*
Y03005*
X04725*
Y03005*
Y03005*
Y03004*
Y03004*
Y03004*
X04725*
Y03003*
X04725*
Y03003*
Y03003*
Y03002*
Y03002*
X04726*
Y03002*
Y03001*
Y03001*
X04726*
Y03001*
Y03*
Y03*
X04727*
Y03*
Y03001*
Y03001*
X04727*
Y03001*
Y03002*
Y03002*
X04728*
Y03002*
Y03003*
Y03003*
Y03003*
X04728*
Y03004*
Y03004*
X04728*
Y03004*
Y03005*
Y03005*
X04729*
Y03005*
Y03006*
X04729*
Y03006*
Y03006*
Y03007*
Y03007*
X04729*
Y03007*
Y03008*
Y03008*
X0473*
Y03008*
Y03009*
Y03009*
X0473*
Y03009*
Y0301*
Y0301*
X0473*
Y0301*
Y03011*
Y03011*
X04731*
Y03011*
Y03012*
Y03012*
X04731*
Y03012*
Y03013*
Y03013*
X04731*
Y03013*
Y03014*
Y03014*
X04732*
Y03014*
Y03015*
Y03015*
X04732*
Y03015*
Y03016*
Y03016*
X04732*
Y03016*
Y03017*
Y03017*
X04733*
Y03017*
Y03018*
Y03018*
X04733*
Y03018*
Y03019*
X04733*
Y03019*
Y03019*
Y0302*
X04734*
Y0302*
Y0302*
Y03021*
Y03021*
X04734*
Y03021*
Y03022*
X04734*
Y03022*
Y03022*
Y03023*
X04735*
Y03023*
Y03023*
Y03024*
X04735*
Y03024*
Y03024*
Y03025*
Y03025*
X04735*
Y03025*
Y03026*
Y03026*
X04736*
Y03026*
Y03027*
X04736*
Y03027*
Y03027*
Y03028*
X04736*
Y03028*
Y03028*
Y03029*
Y03029*
X04737*
Y03029*
Y0303*
Y0303*
X04737*
Y0303*
Y03031*
Y03031*
X04737*
Y03031*
Y03032*
Y03032*
X04738*
Y03032*
Y03033*
Y03033*
X04738*
Y03033*
Y03034*
Y03034*
X04738*
Y03034*
Y03035*
X04739*
Y03035*
Y03035*
Y03036*
X04739*
Y03036*
Y03036*
Y03037*
Y03037*
X04739*
Y03037*
Y03038*
Y03038*
X0474*
Y03038*
Y03039*
Y03039*
X0474*
Y03039*
Y0304*
X0474*
Y0304*
Y0304*
Y03041*
Y03041*
X04741*
Y03041*
Y03042*
Y03042*
X04741*
Y03042*
Y03043*
X04741*
Y03043*
Y03043*
Y03044*
X04742*
Y03044*
Y03044*
Y03045*
Y03045*
X04742*
Y03045*
Y03046*
Y03046*
X04742*
Y03046*
Y03047*
Y03047*
X04743*
Y03047*
Y03048*
Y03048*
X04743*
Y03048*
Y03049*
Y03049*
X04743*
Y03049*
Y0305*
X04744*
Y0305*
Y0305*
Y03051*
Y03051*
X04744*
Y03051*
Y03052*
Y03052*
X04744*
Y03052*
Y03053*
X04745*
Y03053*
Y03053*
Y03054*
X04745*
Y03054*
Y03054*
Y03055*
X04745*
Y03055*
Y03055*
Y03056*
Y03056*
X04746*
Y03056*
Y03057*
Y03057*
X04746*
Y03058*
Y03058*
X04746*
Y03058*
Y03059*
Y03059*
X04747*
Y03059*
Y0306*
Y0306*
X04747*
Y0306*
Y03061*
Y03061*
X04747*
Y03061*
Y03062*
Y03062*
X04748*
Y03062*
Y03063*
Y03063*
Y03063*
X04748*
Y03064*
Y03064*
Y03064*
X04748*
Y03065*
Y03065*
Y03065*
X04749*
Y03066*
Y03066*
X04749*
Y03066*
Y03067*
Y03067*
X04749*
Y03067*
Y03068*
Y03068*
X0475*
Y03068*
Y03069*
Y03069*
X0475*
Y03069*
Y0307*
Y0307*
X0475*
Y0307*
Y03071*
Y03071*
Y03071*
X04751*
Y03072*
Y03072*
Y03072*
X04751*
Y03073*
Y03073*
Y03073*
X04751*
Y03074*
Y03074*
Y03074*
X04752*
Y03075*
Y03075*
Y03075*
X04752*
Y03076*
Y03076*
Y03076*
X04752*
Y03077*
Y03077*
X04753*
Y03077*
Y03078*
Y03078*
X04753*
Y03078*
Y03079*
Y03079*
Y03079*
X04753*
Y0308*
Y0308*
Y0308*
X04754*
Y03081*
X04754*
Y03081*
Y03081*
Y03082*
Y03082*
Y03082*
X04754*
Y03083*
X04754*
Y03083*
G37*
G36*
X04774D02*
X04762D01*
Y03083*
X04761*
Y03082*
Y03082*
Y03082*
X04761*
Y03081*
Y03081*
Y03081*
X04761*
Y0308*
Y0308*
Y0308*
X0476*
Y03079*
Y03079*
X0476*
Y03079*
Y03078*
Y03078*
Y03078*
X0476*
Y03077*
Y03077*
X04759*
Y03077*
Y03076*
Y03076*
Y03076*
X04759*
Y03075*
Y03075*
X04759*
Y03075*
Y03074*
Y03074*
X04758*
Y03074*
Y03073*
Y03073*
X04758*
Y03073*
Y03072*
Y03072*
X04758*
Y03072*
Y03071*
Y03071*
X04757*
Y03071*
Y0307*
Y0307*
Y0307*
X04757*
Y03069*
Y03069*
X04757*
Y03069*
Y03068*
Y03068*
Y03068*
X04756*
Y03067*
Y03067*
X04756*
Y03067*
Y03066*
Y03066*
X04756*
Y03066*
Y03065*
Y03065*
X04755*
Y03065*
Y03064*
Y03064*
X04755*
Y03064*
Y03063*
Y03063*
X04755*
Y03063*
Y03062*
Y03062*
Y03062*
X04754*
Y03061*
Y03061*
X04754*
Y03061*
Y0306*
Y0306*
Y0306*
X04754*
Y03059*
Y03059*
X04753*
Y03059*
Y03058*
Y03058*
X04753*
Y03058*
Y03057*
Y03057*
X04753*
Y03056*
Y03056*
Y03056*
X04752*
Y03055*
Y03055*
Y03055*
X04752*
Y03054*
Y03054*
Y03054*
X04752*
Y03053*
Y03053*
Y03053*
X04751*
Y03052*
Y03052*
Y03052*
X04751*
Y03051*
Y03051*
Y03051*
X04751*
Y0305*
Y0305*
Y0305*
X0475*
Y03049*
Y03049*
Y03049*
X0475*
Y03048*
Y03048*
Y03048*
X0475*
Y03047*
Y03047*
Y03047*
X04749*
Y03046*
Y03046*
Y03046*
X04749*
Y03045*
Y03045*
Y03045*
X04749*
Y03044*
X04749*
Y03044*
X04749*
Y03044*
X04748*
Y03043*
X04749*
Y03043*
X04748*
Y03043*
X04748*
Y03042*
X04748*
Y03042*
X04748*
Y03042*
X04748*
Y03041*
Y03041*
Y03041*
X04747*
Y0304*
X04748*
Y0304*
X04747*
Y0304*
X04747*
Y03039*
X04747*
Y03039*
X04747*
Y03039*
X04747*
Y03038*
X04747*
Y03038*
X04747*
Y03038*
X04746*
Y03037*
X04747*
Y03037*
X04746*
Y03037*
X04746*
Y03036*
X04746*
Y03036*
X04746*
Y03036*
X04746*
Y03035*
X04746*
Y03035*
X04746*
Y03035*
X04745*
Y03034*
X04746*
Y03034*
X04745*
Y03034*
X04745*
Y03033*
X04745*
Y03033*
X04745*
Y03033*
X04745*
Y03032*
X04745*
Y03032*
X04745*
Y03032*
X04744*
Y03031*
X04745*
Y03031*
X04744*
Y03031*
X04744*
Y0303*
X04744*
Y0303*
X04744*
Y0303*
X04744*
Y03029*
X04744*
Y03029*
X04744*
Y03029*
X04743*
Y03028*
X04744*
Y03028*
X04743*
Y03028*
X04743*
Y03027*
X04743*
Y03027*
X04743*
Y03027*
X04743*
Y03026*
X04743*
Y03026*
X04743*
Y03026*
X04742*
Y03025*
X04743*
Y03025*
X04742*
Y03025*
X04742*
Y03024*
X04742*
Y03024*
X04742*
Y03024*
X04742*
Y03023*
X04742*
Y03023*
X04742*
Y03023*
X04741*
Y03022*
X04742*
Y03022*
X04741*
Y03022*
X04741*
Y03021*
X04741*
Y03021*
X04741*
Y03021*
X04741*
Y0302*
X04741*
Y0302*
X04741*
Y0302*
X0474*
Y03019*
X04741*
Y03019*
X0474*
Y03019*
X0474*
Y03018*
X0474*
Y03018*
X0474*
Y03018*
X0474*
Y03017*
X0474*
Y03017*
X0474*
Y03017*
X04739*
Y03016*
X0474*
Y03016*
X04739*
Y03016*
X04739*
Y03015*
X04739*
Y03015*
X04739*
Y03015*
X04739*
Y03014*
X04739*
Y03014*
X04739*
Y03014*
X04738*
Y03013*
X04739*
Y03013*
X04738*
Y03013*
X04738*
Y03012*
X04738*
Y03012*
X04738*
Y03012*
X04738*
Y03011*
X04738*
Y03011*
X04738*
Y03011*
X04737*
Y0301*
X04738*
Y0301*
X04737*
Y0301*
X04737*
Y03009*
X04737*
Y03009*
X04737*
Y03009*
X04737*
Y03008*
X04737*
Y03008*
X04737*
Y03008*
X04736*
Y03007*
X04737*
Y03007*
X04736*
Y03007*
X04736*
Y03006*
X04736*
Y03006*
X04736*
Y03006*
X04736*
Y03005*
X04736*
Y03005*
X04736*
Y03005*
X04735*
Y03004*
Y03004*
Y03004*
X04735*
Y03003*
Y03003*
Y03003*
X04735*
Y03002*
Y03002*
Y03002*
X04734*
Y03001*
X04735*
Y03001*
X04734*
Y03001*
X04734*
Y03*
X04734*
Y03*
X04734*
Y03*
X04734*
Y02999*
Y02999*
Y02999*
X04733*
Y02998*
Y02998*
Y02998*
X04733*
Y02997*
X04733*
Y02997*
X04733*
Y02997*
Y02996*
X04732*
Y02996*
X04732*
Y02996*
X04732*
Y02995*
X04732*
Y02995*
X04731*
Y02995*
X04731*
Y02994*
X0473*
Y02994*
X0473*
Y02994*
X04729*
Y02993*
X04724*
Y02994*
X04723*
Y02994*
X04723*
Y02994*
X04722*
Y02995*
X04722*
Y02995*
X04721*
Y02995*
X04721*
Y02996*
Y02996*
X04721*
Y02996*
X0472*
Y02997*
Y02997*
X0472*
Y02997*
Y02998*
X0472*
Y02998*
X04719*
Y02998*
X0472*
Y02999*
X04719*
Y02999*
Y02999*
Y03*
X04719*
Y03*
Y03*
Y03001*
X04719*
Y03001*
Y03001*
Y03002*
X04718*
Y03002*
Y03002*
Y03003*
X04718*
Y03003*
Y03003*
Y03004*
Y03004*
X04718*
Y03004*
Y03005*
X04717*
Y03005*
Y03005*
Y03006*
X04717*
Y03006*
Y03006*
Y03007*
X04717*
Y03007*
Y03007*
Y03008*
X04716*
Y03008*
X04716*
Y03008*
X04716*
Y03009*
X04716*
Y03009*
Y03009*
Y0301*
X04716*
Y0301*
Y0301*
Y03011*
X04715*
Y03011*
Y03011*
Y03012*
Y03012*
X04715*
Y03012*
Y03013*
X04715*
Y03013*
Y03013*
Y03014*
X04714*
Y03014*
Y03014*
Y03015*
X04714*
Y03015*
Y03015*
Y03016*
X04714*
Y03016*
Y03016*
Y03017*
X04713*
Y03017*
Y03017*
Y03018*
X04713*
Y03018*
Y03018*
Y03019*
X04713*
Y03019*
Y03019*
Y0302*
Y0302*
X04712*
Y0302*
Y03021*
X04712*
Y03021*
Y03021*
Y03022*
X04712*
Y03022*
Y03022*
Y03023*
X04711*
Y03023*
Y03023*
Y03024*
X04711*
Y03024*
Y03024*
Y03025*
X04711*
Y03025*
Y03025*
Y03026*
X0471*
Y03026*
Y03026*
Y03027*
X0471*
Y03027*
Y03027*
Y03028*
Y03028*
X0471*
Y03028*
Y03029*
X04709*
Y03029*
Y03029*
Y0303*
X04709*
Y0303*
Y0303*
Y03031*
X04709*
Y03031*
Y03031*
Y03032*
X04708*
Y03032*
Y03032*
Y03033*
X04708*
Y03033*
Y03033*
Y03034*
X04708*
Y03034*
Y03034*
Y03035*
X04707*
Y03035*
Y03035*
Y03036*
Y03036*
X04707*
Y03036*
Y03037*
X04707*
Y03037*
Y03037*
Y03038*
Y03038*
X04706*
Y03038*
Y03039*
X04706*
Y03039*
Y03039*
Y0304*
X04706*
Y0304*
Y0304*
Y03041*
X04705*
Y03041*
Y03041*
Y03042*
X04705*
Y03042*
Y03042*
Y03043*
X04705*
Y03043*
Y03043*
Y03044*
Y03044*
X04704*
Y03044*
Y03045*
X04704*
Y03045*
Y03045*
Y03046*
X04704*
Y03046*
Y03046*
Y03047*
X04703*
Y03047*
Y03047*
Y03048*
X04703*
Y03048*
Y03048*
Y03049*
Y03049*
X04703*
Y03049*
Y0305*
X04702*
Y0305*
Y0305*
Y03051*
X04702*
Y03051*
Y03051*
Y03052*
Y03052*
X04702*
Y03052*
Y03053*
X04701*
Y03053*
Y03053*
Y03054*
Y03054*
X04701*
Y03054*
Y03055*
Y03055*
X04701*
Y03055*
Y03056*
Y03056*
X047*
Y03056*
Y03057*
X047*
Y03057*
Y03058*
Y03058*
Y03058*
X047*
Y03059*
Y03059*
Y03059*
X04699*
Y0306*
Y0306*
Y0306*
X04699*
Y03061*
Y03061*
X04699*
Y03061*
Y03062*
Y03062*
Y03062*
X04698*
Y03063*
Y03063*
Y03063*
X04698*
Y03064*
Y03064*
Y03064*
X04698*
Y03065*
Y03065*
X04697*
Y03065*
Y03066*
Y03066*
X04697*
Y03066*
Y03067*
Y03067*
X04697*
Y03067*
Y03068*
Y03068*
Y03068*
X04696*
Y03069*
Y03069*
X04696*
Y03069*
Y0307*
Y0307*
Y0307*
X04696*
Y03071*
Y03071*
X04695*
Y03071*
Y03072*
Y03072*
Y03072*
X04695*
Y03073*
Y03073*
Y03073*
X04695*
Y03074*
Y03074*
Y03074*
X04694*
Y03075*
Y03075*
Y03075*
X04694*
Y03076*
Y03076*
Y03076*
X04694*
Y03077*
Y03077*
Y03077*
X04693*
Y03078*
Y03078*
Y03078*
X04693*
Y03079*
Y03079*
X04693*
Y03079*
Y0308*
Y0308*
Y0308*
X04692*
Y03081*
Y03081*
Y03081*
X04692*
Y03082*
Y03082*
Y03082*
X04691*
Y03083*
X04691*
Y03083*
X04679*
Y03083*
Y03082*
Y03082*
X04678*
Y03082*
Y03081*
Y03081*
Y03081*
Y0308*
Y0308*
X04678*
Y0308*
Y03079*
Y03079*
Y03079*
Y03078*
Y03078*
X04678*
Y03078*
Y03077*
Y03077*
Y03077*
Y03076*
X04677*
Y03076*
Y03076*
Y03075*
Y03075*
Y03075*
Y03074*
X04677*
Y03074*
Y03074*
Y03073*
Y03073*
Y03073*
Y03072*
X04677*
Y03072*
Y03072*
Y03071*
Y03071*
Y03071*
X04676*
Y0307*
Y0307*
Y0307*
Y03069*
Y03069*
Y03069*
X04676*
Y03068*
Y03068*
Y03068*
Y03067*
Y03067*
X04676*
Y03067*
Y03066*
Y03066*
Y03066*
Y03065*
Y03065*
X04675*
Y03065*
Y03064*
Y03064*
Y03064*
Y03063*
Y03063*
X04675*
Y03063*
Y03062*
Y03062*
Y03062*
Y03061*
X04675*
Y03061*
Y03061*
Y0306*
Y0306*
Y0306*
Y03059*
X04674*
Y03059*
Y03059*
Y03058*
Y03058*
Y03058*
X04674*
Y03057*
Y03057*
Y03056*
Y03056*
Y03056*
Y03055*
X04674*
Y03055*
Y03055*
Y03054*
Y03054*
Y03054*
Y03053*
X04673*
Y03053*
Y03053*
Y03052*
Y03052*
Y03052*
X04673*
Y03051*
Y03051*
Y03051*
Y0305*
Y0305*
Y0305*
X04673*
Y03049*
Y03049*
Y03049*
Y03048*
Y03048*
Y03048*
X04672*
Y03047*
Y03047*
Y03047*
Y03046*
Y03046*
X04672*
Y03046*
Y03045*
Y03045*
Y03045*
Y03044*
Y03044*
X04672*
Y03044*
Y03043*
Y03043*
Y03043*
Y03042*
X04671*
Y03042*
Y03042*
Y03041*
Y03041*
Y03041*
Y0304*
X04671*
Y0304*
Y0304*
Y03039*
Y03039*
Y03039*
X04671*
Y03038*
Y03038*
Y03038*
Y03037*
Y03037*
Y03037*
X0467*
Y03036*
Y03036*
Y03036*
Y03035*
Y03035*
Y03035*
X0467*
Y03034*
Y03034*
Y03034*
Y03033*
Y03033*
X0467*
Y03033*
Y03032*
Y03032*
Y03032*
Y03031*
Y03031*
X04669*
Y03031*
Y0303*
Y0303*
Y0303*
Y03029*
Y03029*
X04669*
Y03029*
Y03028*
Y03028*
Y03028*
Y03027*
X04669*
Y03027*
Y03027*
Y03026*
Y03026*
Y03026*
Y03025*
X04668*
Y03025*
Y03025*
Y03024*
Y03024*
Y03024*
X04668*
Y03023*
Y03023*
Y03023*
Y03022*
Y03022*
Y03022*
X04668*
Y03021*
Y03021*
Y03021*
Y0302*
Y0302*
X04667*
Y0302*
Y03019*
Y03019*
Y03019*
Y03018*
Y03018*
X04667*
Y03018*
Y03017*
Y03017*
Y03017*
Y03016*
Y03016*
X04667*
Y03016*
Y03015*
Y03015*
Y03015*
Y03014*
X04666*
Y03014*
Y03014*
Y03013*
Y03013*
Y03013*
Y03012*
X04666*
Y03012*
Y03012*
Y03011*
Y03011*
Y03011*
X04666*
Y0301*
Y0301*
Y0301*
Y03009*
Y03009*
Y03009*
X04665*
Y03008*
Y03008*
Y03008*
Y03007*
Y03007*
Y03007*
X04665*
Y03006*
Y03006*
Y03006*
Y03005*
Y03005*
Y03005*
X04665*
Y03004*
Y03004*
Y03004*
Y03003*
Y03003*
X04664*
Y03003*
Y03002*
Y03002*
Y03002*
Y03001*
X04664*
Y03001*
Y03001*
Y03*
Y03*
Y03*
Y02999*
X04664*
Y02999*
Y02999*
Y02998*
Y02998*
Y02998*
Y02997*
X04663*
Y02997*
Y02997*
Y02996*
Y02996*
Y02996*
Y02995*
X04663*
Y02995*
Y02995*
Y02994*
Y02994*
Y02994*
X04663*
Y02993*
Y02993*
Y02993*
Y02992*
Y02992*
Y02992*
X04662*
Y02991*
Y02991*
Y02991*
Y0299*
Y0299*
X04662*
Y0299*
Y02989*
Y02989*
Y02989*
Y02988*
Y02988*
X04662*
Y02988*
Y02987*
Y02987*
Y02987*
Y02986*
X04661*
Y02986*
Y02986*
Y02985*
Y02985*
Y02985*
Y02984*
X04661*
Y02984*
Y02984*
Y02983*
Y02983*
Y02983*
X04661*
Y02982*
Y02982*
Y02982*
Y02981*
Y02981*
Y02981*
X0466*
Y0298*
Y0298*
Y0298*
Y02979*
Y02979*
Y02979*
X0466*
Y02978*
Y02978*
Y02978*
Y02977*
Y02977*
Y02977*
X0466*
Y02976*
Y02976*
Y02976*
Y02975*
Y02975*
X04659*
Y02975*
Y02974*
Y02974*
Y02974*
Y02973*
X04659*
Y02973*
Y02973*
Y02972*
Y02972*
Y02972*
Y02971*
X04659*
Y02971*
Y02971*
Y0297*
Y0297*
Y0297*
Y02969*
X04658*
Y02969*
Y02969*
Y02968*
Y02968*
Y02968*
Y02967*
X04668*
Y02968*
Y02968*
Y02968*
Y02969*
X04668*
Y02969*
Y02969*
Y0297*
Y0297*
Y0297*
Y02971*
X04669*
Y02971*
Y02971*
Y02972*
Y02972*
Y02972*
X04669*
Y02973*
Y02973*
Y02973*
Y02974*
Y02974*
Y02974*
X04669*
Y02975*
Y02975*
Y02975*
Y02976*
Y02976*
X0467*
Y02976*
Y02977*
Y02977*
Y02977*
Y02978*
Y02978*
X0467*
Y02978*
Y02979*
Y02979*
Y02979*
Y0298*
Y0298*
X0467*
Y0298*
Y02981*
Y02981*
Y02981*
Y02982*
Y02982*
X04671*
Y02982*
Y02983*
Y02983*
Y02983*
Y02984*
X04671*
Y02984*
Y02984*
Y02985*
Y02985*
Y02985*
Y02986*
X04671*
Y02986*
Y02986*
Y02987*
Y02987*
Y02987*
Y02988*
X04672*
Y02988*
Y02988*
Y02989*
Y02989*
Y02989*
X04672*
Y0299*
Y0299*
Y0299*
Y02991*
Y02991*
Y02991*
X04672*
Y02992*
Y02992*
Y02992*
Y02993*
Y02993*
X04673*
Y02993*
Y02994*
Y02994*
Y02994*
Y02995*
Y02995*
X04673*
Y02995*
Y02996*
Y02996*
Y02996*
Y02997*
Y02997*
X04673*
Y02997*
Y02998*
Y02998*
Y02998*
X04674*
Y02999*
Y02999*
Y02999*
Y03*
Y03*
Y03*
Y03001*
X04674*
Y03001*
Y03001*
Y03002*
Y03002*
Y03002*
X04674*
Y03003*
Y03003*
Y03003*
Y03004*
Y03004*
Y03004*
X04675*
Y03005*
Y03005*
Y03005*
Y03006*
Y03006*
Y03006*
X04675*
Y03007*
Y03007*
Y03007*
Y03008*
Y03008*
X04675*
Y03008*
Y03009*
Y03009*
Y03009*
Y0301*
Y0301*
X04676*
Y0301*
Y03011*
Y03011*
Y03011*
Y03012*
Y03012*
X04676*
Y03012*
Y03013*
Y03013*
Y03013*
Y03014*
X04676*
Y03014*
Y03014*
Y03015*
Y03015*
Y03015*
Y03016*
X04677*
Y03016*
Y03016*
Y03017*
Y03017*
Y03017*
X04677*
Y03018*
Y03018*
Y03018*
Y03019*
Y03019*
Y03019*
X04677*
Y0302*
Y0302*
Y0302*
Y03021*
Y03021*
X04678*
Y03021*
Y03022*
Y03022*
Y03022*
Y03023*
Y03023*
X04678*
Y03023*
Y03024*
Y03024*
Y03024*
Y03025*
Y03025*
X04678*
Y03025*
Y03026*
Y03026*
Y03026*
Y03027*
X04679*
Y03027*
Y03027*
Y03028*
Y03028*
Y03028*
Y03029*
X04679*
Y03029*
Y03029*
Y0303*
Y0303*
Y0303*
X04679*
Y03031*
Y03031*
Y03031*
Y03032*
Y03032*
Y03032*
X0468*
Y03033*
Y03033*
Y03033*
Y03034*
Y03034*
Y03034*
X0468*
Y03035*
Y03035*
Y03035*
Y03036*
Y03036*
X0468*
Y03036*
Y03037*
Y03037*
Y03037*
Y03038*
Y03038*
X04681*
Y03038*
Y03039*
Y03039*
Y03039*
Y0304*
Y0304*
X04681*
Y0304*
Y03041*
Y03041*
Y03041*
Y03042*
X04681*
Y03042*
Y03042*
Y03043*
Y03043*
Y03043*
X04682*
Y03044*
Y03044*
Y03044*
X04682*
Y03045*
Y03045*
X04682*
Y03045*
X04683*
Y03046*
Y03046*
X04683*
Y03046*
X04683*
Y03047*
X04684*
Y03047*
X04684*
Y03047*
X04685*
Y03048*
X04685*
Y03048*
X04686*
Y03048*
X0469*
Y03048*
X04691*
Y03048*
X04692*
Y03047*
X04692*
Y03047*
X04693*
Y03047*
Y03046*
X04694*
Y03046*
X04694*
Y03046*
X04694*
Y03045*
Y03045*
X04695*
Y03045*
X04695*
Y03044*
Y03044*
Y03044*
X04695*
Y03043*
Y03043*
Y03043*
X04696*
Y03042*
Y03042*
Y03042*
X04696*
Y03041*
Y03041*
Y03041*
X04696*
Y0304*
Y0304*
Y0304*
X04697*
Y03039*
Y03039*
Y03039*
X04697*
Y03038*
Y03038*
Y03038*
X04697*
Y03037*
Y03037*
Y03037*
X04698*
Y03036*
Y03036*
Y03036*
X04698*
Y03035*
Y03035*
Y03035*
X04698*
Y03034*
Y03034*
Y03034*
X04699*
Y03033*
Y03033*
Y03033*
X04699*
Y03032*
Y03032*
Y03032*
X04699*
Y03031*
Y03031*
Y03031*
X047*
Y0303*
Y0303*
Y0303*
X047*
Y03029*
Y03029*
Y03029*
X047*
Y03028*
Y03028*
Y03028*
X04701*
Y03027*
Y03027*
Y03027*
X04701*
Y03026*
Y03026*
Y03026*
X04701*
Y03025*
Y03025*
Y03025*
X04702*
Y03024*
Y03024*
Y03024*
X04702*
Y03023*
Y03023*
Y03023*
X04702*
Y03022*
Y03022*
Y03022*
X04703*
Y03021*
Y03021*
Y03021*
X04703*
Y0302*
Y0302*
Y0302*
X04703*
Y03019*
Y03019*
Y03019*
X04704*
Y03018*
Y03018*
Y03018*
X04704*
Y03017*
Y03017*
Y03017*
X04704*
Y03016*
Y03016*
Y03016*
X04705*
Y03015*
Y03015*
Y03015*
X04705*
Y03014*
Y03014*
Y03014*
X04705*
Y03013*
Y03013*
Y03013*
X04706*
Y03012*
Y03012*
Y03012*
X04706*
Y03011*
Y03011*
Y03011*
X04706*
Y0301*
Y0301*
Y0301*
X04707*
Y03009*
Y03009*
Y03009*
X04707*
Y03008*
Y03008*
Y03008*
X04707*
Y03007*
Y03007*
Y03007*
X04708*
Y03006*
Y03006*
Y03006*
X04708*
Y03005*
Y03005*
Y03005*
X04708*
Y03004*
Y03004*
Y03004*
X04709*
Y03003*
Y03003*
Y03003*
X04709*
Y03002*
Y03002*
Y03002*
X04709*
Y03001*
Y03001*
Y03001*
X0471*
Y03*
Y03*
Y03*
X0471*
Y02999*
Y02999*
Y02999*
X0471*
Y02998*
Y02998*
Y02998*
X04711*
Y02997*
Y02997*
Y02997*
X04711*
Y02996*
Y02996*
Y02996*
X04711*
Y02995*
Y02995*
Y02995*
X04712*
Y02994*
Y02994*
Y02994*
X04712*
Y02993*
Y02993*
Y02993*
X04712*
Y02992*
Y02992*
Y02992*
X04713*
Y02991*
Y02991*
Y02991*
X04713*
Y0299*
Y0299*
Y0299*
X04713*
Y02989*
Y02989*
Y02989*
X04714*
Y02988*
Y02988*
Y02988*
X04714*
Y02987*
Y02987*
Y02987*
X04714*
Y02986*
Y02986*
Y02986*
X04715*
Y02985*
Y02985*
Y02985*
X04715*
Y02984*
Y02984*
Y02984*
X04715*
Y02983*
Y02983*
Y02983*
X04716*
Y02982*
Y02982*
Y02982*
X04716*
Y02981*
Y02981*
Y02981*
X04716*
Y0298*
Y0298*
Y0298*
X04717*
Y02979*
Y02979*
Y02979*
X04717*
Y02978*
Y02978*
Y02978*
X04717*
Y02977*
Y02977*
Y02977*
X04718*
Y02976*
Y02976*
Y02976*
X04718*
Y02975*
Y02975*
Y02975*
X04718*
Y02974*
Y02974*
Y02974*
X04719*
Y02973*
Y02973*
Y02973*
X04719*
Y02972*
Y02972*
Y02972*
X04719*
Y02971*
Y02971*
Y02971*
X0472*
Y0297*
Y0297*
Y0297*
X0472*
Y02969*
Y02969*
Y02969*
X0472*
Y02968*
Y02968*
Y02968*
X04721*
Y02967*
X04732*
Y02968*
Y02968*
X04733*
Y02968*
Y02969*
Y02969*
X04733*
Y02969*
Y0297*
Y0297*
X04733*
Y0297*
Y02971*
Y02971*
X04734*
Y02971*
Y02972*
Y02972*
X04734*
Y02972*
Y02973*
Y02973*
X04734*
Y02973*
Y02974*
Y02974*
X04735*
Y02974*
Y02975*
Y02975*
X04735*
Y02975*
Y02976*
Y02976*
X04735*
Y02976*
Y02977*
Y02977*
X04736*
Y02977*
Y02978*
Y02978*
X04736*
Y02978*
Y02979*
X04736*
Y02979*
Y02979*
Y0298*
Y0298*
X04737*
Y0298*
Y02981*
Y02981*
X04737*
Y02981*
Y02982*
Y02982*
X04737*
Y02982*
Y02983*
Y02983*
X04738*
Y02983*
Y02984*
Y02984*
X04738*
Y02984*
Y02985*
Y02985*
X04738*
Y02985*
Y02986*
Y02986*
X04739*
Y02986*
Y02987*
X04739*
Y02987*
Y02987*
Y02988*
Y02988*
X04739*
Y02988*
Y02989*
Y02989*
X0474*
Y02989*
Y0299*
Y0299*
X0474*
Y0299*
Y02991*
Y02991*
X0474*
Y02991*
Y02992*
Y02992*
X04741*
Y02992*
Y02993*
Y02993*
X04741*
Y02993*
Y02994*
Y02994*
X04741*
Y02994*
Y02995*
X04742*
Y02995*
Y02995*
Y02996*
Y02996*
X04742*
Y02996*
Y02997*
Y02997*
X04742*
Y02997*
Y02998*
Y02998*
X04743*
Y02998*
Y02999*
Y02999*
X04743*
Y02999*
Y03*
Y03*
X04743*
Y03*
Y03001*
Y03001*
X04744*
Y03001*
Y03002*
Y03002*
X04744*
Y03002*
Y03003*
X04744*
Y03003*
Y03003*
Y03004*
Y03004*
X04745*
Y03004*
Y03005*
Y03005*
X04745*
Y03005*
Y03006*
Y03006*
X04745*
Y03006*
Y03007*
Y03007*
X04746*
Y03007*
Y03008*
Y03008*
X04746*
Y03008*
Y03009*
Y03009*
X04746*
Y03009*
Y0301*
Y0301*
X04747*
Y0301*
Y03011*
X04747*
Y03011*
Y03011*
Y03012*
Y03012*
X04747*
Y03012*
Y03013*
X04748*
Y03013*
Y03013*
Y03014*
Y03014*
X04748*
Y03014*
Y03015*
Y03015*
X04748*
Y03015*
Y03016*
Y03016*
X04749*
Y03016*
Y03017*
X04749*
Y03017*
Y03017*
Y03018*
X04749*
Y03018*
Y03018*
Y03019*
Y03019*
X0475*
Y03019*
Y0302*
Y0302*
X0475*
Y0302*
Y03021*
X0475*
Y03021*
Y03021*
Y03022*
X04751*
Y03022*
Y03022*
Y03023*
X04751*
Y03023*
Y03023*
Y03024*
Y03024*
X04751*
Y03024*
Y03025*
X04752*
Y03025*
Y03025*
Y03026*
X04752*
Y03026*
Y03026*
Y03027*
X04752*
Y03027*
Y03027*
Y03028*
X04753*
Y03028*
Y03028*
Y03029*
X04753*
Y03029*
Y03029*
Y0303*
X04753*
Y0303*
Y0303*
Y03031*
X04754*
Y03031*
Y03031*
Y03032*
X04754*
Y03032*
Y03032*
Y03033*
X04754*
Y03033*
Y03033*
Y03034*
X04755*
Y03034*
Y03034*
Y03035*
X04755*
Y03035*
Y03035*
Y03036*
X04755*
Y03036*
Y03036*
Y03037*
X04756*
Y03037*
Y03037*
Y03038*
X04756*
Y03038*
Y03038*
Y03039*
X04756*
Y03039*
Y03039*
Y0304*
X04757*
Y0304*
Y0304*
Y03041*
X04757*
Y03041*
Y03041*
Y03042*
X04757*
Y03042*
Y03042*
Y03043*
X04758*
Y03043*
Y03043*
Y03044*
X04758*
Y03044*
Y03044*
X04758*
Y03045*
Y03045*
X04759*
Y03045*
X04759*
Y03046*
Y03046*
X04759*
Y03046*
X0476*
Y03047*
X0476*
Y03047*
X04761*
Y03047*
X04761*
Y03048*
X04762*
Y03048*
X04763*
Y03048*
X04766*
Y03048*
X04767*
Y03048*
X04768*
Y03047*
X04768*
Y03047*
X04769*
Y03047*
X04769*
Y03046*
X0477*
Y03046*
X0477*
Y03046*
Y03045*
X0477*
Y03045*
X04771*
Y03045*
Y03044*
X04771*
Y03044*
Y03044*
Y03043*
X04771*
Y03043*
Y03043*
Y03042*
Y03042*
Y03042*
X04772*
Y03041*
Y03041*
Y03041*
Y0304*
Y0304*
Y0304*
X04772*
Y03039*
Y03039*
Y03039*
Y03038*
Y03038*
Y03038*
X04772*
Y03037*
Y03037*
Y03037*
Y03036*
Y03036*
Y03036*
X04773*
Y03035*
Y03035*
Y03035*
Y03034*
Y03034*
Y03034*
X04773*
Y03033*
Y03033*
Y03033*
Y03032*
Y03032*
Y03032*
X04773*
Y03031*
Y03031*
Y03031*
Y0303*
Y0303*
X04774*
Y0303*
Y03029*
Y03029*
Y03029*
Y03028*
Y03028*
X04774*
Y03028*
Y03027*
Y03027*
Y03027*
Y03026*
Y03026*
Y03026*
X04774*
Y03025*
Y03025*
Y03025*
Y03024*
Y03024*
X04775*
Y03024*
Y03023*
Y03023*
Y03023*
Y03022*
Y03022*
X04775*
Y03022*
Y03021*
Y03021*
Y03021*
Y0302*
Y0302*
X04775*
Y0302*
Y03019*
Y03019*
Y03019*
Y03018*
Y03018*
X04776*
Y03018*
Y03017*
Y03017*
Y03017*
Y03016*
Y03016*
X04776*
Y03016*
Y03015*
Y03015*
Y03015*
Y03014*
X04776*
Y03014*
Y03014*
Y03013*
Y03013*
Y03013*
Y03012*
X04777*
Y03012*
Y03012*
Y03011*
Y03011*
Y03011*
Y0301*
Y0301*
X04777*
Y0301*
Y03009*
Y03009*
Y03009*
Y03008*
X04777*
Y03008*
Y03008*
Y03007*
Y03007*
Y03007*
Y03006*
X04778*
Y03006*
Y03006*
Y03005*
Y03005*
Y03005*
Y03004*
X04778*
Y03004*
Y03004*
Y03003*
Y03003*
Y03003*
Y03002*
X04778*
Y03002*
Y03002*
Y03001*
Y03001*
Y03001*
X04779*
Y03*
Y03*
Y03*
Y02999*
Y02999*
Y02999*
X04779*
Y02998*
Y02998*
Y02998*
Y02997*
Y02997*
Y02997*
Y02996*
X04779*
Y02996*
Y02996*
Y02995*
Y02995*
Y02995*
X0478*
Y02994*
Y02994*
Y02994*
Y02993*
Y02993*
Y02993*
X0478*
Y02992*
Y02992*
Y02992*
Y02991*
Y02991*
Y02991*
Y0299*
X0478*
Y0299*
Y0299*
Y02989*
Y02989*
Y02989*
X04781*
Y02988*
Y02988*
Y02988*
Y02987*
Y02987*
Y02987*
X04781*
Y02986*
Y02986*
Y02986*
Y02985*
Y02985*
Y02985*
X04781*
Y02984*
Y02984*
Y02984*
Y02983*
Y02983*
Y02983*
X04782*
Y02982*
Y02982*
Y02982*
Y02981*
Y02981*
X04782*
Y02981*
Y0298*
Y0298*
Y0298*
Y02979*
Y02979*
X04782*
Y02979*
Y02978*
Y02978*
Y02978*
Y02977*
Y02977*
X04783*
Y02977*
Y02976*
Y02976*
Y02976*
Y02975*
Y02975*
X04783*
Y02975*
Y02974*
Y02974*
Y02974*
Y02973*
Y02973*
X04783*
Y02973*
Y02972*
Y02972*
Y02972*
Y02971*
X04784*
Y02971*
Y02971*
Y0297*
Y0297*
Y0297*
Y02969*
X04784*
Y02969*
Y02969*
Y02968*
Y02968*
Y02968*
Y02967*
X04794*
Y02968*
Y02968*
Y02968*
Y02969*
Y02969*
Y02969*
Y0297*
X04793*
Y0297*
Y0297*
Y02971*
Y02971*
Y02971*
Y02972*
Y02972*
X04793*
Y02972*
Y02973*
Y02973*
Y02973*
Y02974*
X04793*
Y02974*
Y02974*
Y02975*
Y02975*
Y02975*
Y02976*
X04792*
Y02976*
Y02976*
Y02977*
Y02977*
Y02977*
Y02978*
X04792*
Y02978*
Y02978*
Y02979*
Y02979*
Y02979*
Y0298*
X04792*
Y0298*
Y0298*
Y02981*
Y02981*
Y02981*
Y02982*
X04791*
Y02982*
Y02982*
Y02983*
Y02983*
Y02983*
X04791*
Y02984*
Y02984*
Y02984*
Y02985*
Y02985*
Y02985*
Y02986*
X04791*
Y02986*
Y02986*
Y02987*
Y02987*
Y02987*
X0479*
Y02988*
Y02988*
Y02988*
Y02989*
Y02989*
Y02989*
X0479*
Y0299*
Y0299*
Y0299*
Y02991*
Y02991*
Y02991*
X0479*
Y02992*
Y02992*
Y02992*
Y02993*
Y02993*
Y02993*
X04789*
Y02994*
Y02994*
Y02994*
Y02995*
Y02995*
Y02995*
X04789*
Y02996*
Y02996*
Y02996*
Y02997*
Y02997*
Y02997*
X04789*
Y02998*
Y02998*
Y02998*
Y02999*
Y02999*
X04788*
Y02999*
Y03*
Y03*
Y03*
Y03001*
Y03001*
Y03001*
X04788*
Y03002*
Y03002*
Y03002*
Y03003*
Y03003*
X04788*
Y03003*
Y03004*
Y03004*
Y03004*
Y03005*
Y03005*
X04787*
Y03005*
Y03006*
Y03006*
Y03006*
Y03007*
Y03007*
X04787*
Y03007*
Y03008*
Y03008*
Y03008*
Y03009*
Y03009*
X04787*
Y03009*
Y0301*
Y0301*
Y0301*
Y03011*
Y03011*
X04786*
Y03011*
Y03012*
Y03012*
Y03012*
Y03013*
Y03013*
X04786*
Y03013*
Y03014*
Y03014*
Y03014*
Y03015*
X04786*
Y03015*
Y03015*
Y03016*
Y03016*
Y03016*
Y03017*
X04785*
Y03017*
Y03017*
Y03018*
Y03018*
Y03018*
Y03019*
X04785*
Y03019*
Y03019*
Y0302*
Y0302*
Y0302*
Y03021*
X04785*
Y03021*
Y03021*
Y03022*
Y03022*
Y03022*
Y03023*
X04784*
Y03023*
Y03023*
Y03024*
Y03024*
Y03024*
Y03025*
X04784*
Y03025*
Y03025*
Y03026*
Y03026*
Y03026*
Y03027*
X04784*
Y03027*
Y03027*
Y03028*
Y03028*
Y03028*
X04783*
Y03029*
Y03029*
Y03029*
Y0303*
Y0303*
Y0303*
X04783*
Y03031*
Y03031*
Y03031*
Y03032*
Y03032*
Y03032*
X04783*
Y03033*
Y03033*
Y03033*
Y03034*
Y03034*
Y03034*
X04782*
Y03035*
Y03035*
Y03035*
Y03036*
Y03036*
Y03036*
X04782*
Y03037*
Y03037*
Y03037*
Y03038*
Y03038*
Y03038*
Y03039*
X04782*
Y03039*
Y03039*
Y0304*
Y0304*
Y0304*
X04781*
Y03041*
Y03041*
Y03041*
Y03042*
Y03042*
Y03042*
X04781*
Y03043*
Y03043*
Y03043*
Y03044*
Y03044*
X04781*
Y03044*
Y03045*
Y03045*
Y03045*
Y03046*
Y03046*
X0478*
Y03046*
Y03047*
Y03047*
Y03047*
Y03048*
Y03048*
X0478*
Y03048*
Y03049*
Y03049*
Y03049*
Y0305*
Y0305*
X0478*
Y0305*
Y03051*
Y03051*
Y03051*
Y03052*
Y03052*
X04779*
Y03052*
Y03053*
Y03053*
Y03053*
Y03054*
Y03054*
X04779*
Y03054*
Y03055*
Y03055*
Y03055*
Y03056*
X04779*
Y03056*
Y03056*
Y03057*
Y03057*
Y03058*
Y03058*
X04778*
Y03058*
Y03059*
Y03059*
Y03059*
Y0306*
Y0306*
Y0306*
X04778*
Y03061*
Y03061*
Y03061*
Y03062*
Y03062*
X04778*
Y03062*
Y03063*
Y03063*
Y03063*
Y03064*
Y03064*
X04777*
Y03064*
Y03065*
Y03065*
Y03065*
Y03066*
Y03066*
X04777*
Y03066*
Y03067*
Y03067*
Y03067*
Y03068*
Y03068*
X04777*
Y03068*
Y03069*
Y03069*
Y03069*
Y0307*
Y0307*
X04776*
Y0307*
Y03071*
Y03071*
Y03071*
Y03072*
Y03072*
X04776*
Y03072*
Y03073*
Y03073*
Y03073*
Y03074*
X04776*
Y03074*
Y03074*
Y03075*
Y03075*
Y03075*
Y03076*
X04775*
Y03076*
Y03076*
Y03077*
Y03077*
Y03077*
Y03078*
Y03078*
X04775*
Y03078*
Y03079*
Y03079*
Y03079*
Y0308*
X04775*
Y0308*
Y0308*
Y03081*
Y03081*
Y03081*
Y03082*
X04774*
Y03082*
Y03082*
Y03083*
Y03083*
G37*
G36*
X04904Y03104D02*
X04555D01*
Y03104*
Y03104*
Y03103*
Y03103*
Y03103*
Y03102*
Y03102*
Y03102*
Y03101*
Y03101*
Y03101*
Y031*
Y031*
Y031*
Y03099*
Y03099*
Y03099*
Y03098*
Y03098*
Y03098*
Y03097*
Y03097*
Y03097*
Y03096*
Y03096*
Y03096*
Y03095*
Y03095*
Y03095*
Y03094*
Y03094*
Y03094*
Y03093*
Y03093*
Y03093*
Y03092*
Y03092*
Y03092*
Y03091*
Y03091*
X04596*
Y03091*
X04597*
Y0309*
X04598*
Y0309*
X04598*
Y0309*
X04599*
Y03089*
X04599*
Y03089*
X046*
Y03089*
X046*
Y03088*
X046*
Y03088*
X04601*
Y03088*
Y03087*
X04601*
Y03087*
X04601*
Y03087*
Y03086*
X04602*
Y03086*
Y03086*
X04602*
Y03085*
Y03085*
Y03085*
Y03084*
X04602*
Y03084*
Y03084*
Y03083*
Y03083*
Y03083*
Y03082*
Y03082*
Y03082*
Y03081*
Y03081*
Y03081*
Y0308*
Y0308*
Y0308*
Y03079*
Y03079*
Y03079*
Y03078*
Y03078*
Y03078*
Y03077*
Y03077*
Y03077*
Y03076*
Y03076*
Y03076*
Y03075*
Y03075*
Y03075*
Y03074*
Y03074*
Y03074*
Y03073*
Y03073*
Y03073*
Y03072*
Y03072*
Y03072*
Y03071*
Y03071*
Y03071*
Y0307*
Y0307*
Y0307*
Y03069*
Y03069*
Y03069*
Y03068*
Y03068*
Y03068*
Y03067*
Y03067*
Y03067*
Y03066*
Y03066*
Y03066*
Y03065*
Y03065*
Y03065*
Y03064*
Y03064*
Y03064*
Y03063*
Y03063*
Y03063*
Y03062*
Y03062*
Y03062*
Y03061*
Y03061*
Y03061*
Y0306*
Y0306*
Y0306*
Y03059*
Y03059*
Y03059*
Y03058*
Y03058*
Y03058*
Y03057*
Y03057*
Y03056*
Y03056*
Y03056*
Y03055*
Y03055*
Y03055*
Y03054*
Y03054*
Y03054*
Y03053*
Y03053*
Y03053*
Y03052*
Y03052*
Y03052*
Y03051*
Y03051*
Y03051*
Y0305*
Y0305*
Y0305*
Y03049*
Y03049*
Y03049*
Y03048*
Y03048*
Y03048*
Y03047*
Y03047*
Y03047*
Y03046*
Y03046*
Y03046*
Y03045*
Y03045*
Y03045*
Y03044*
Y03044*
Y03044*
Y03043*
Y03043*
Y03043*
Y03042*
Y03042*
Y03042*
Y03041*
Y03041*
Y03041*
Y0304*
Y0304*
Y0304*
Y03039*
Y03039*
Y03039*
Y03038*
Y03038*
Y03038*
Y03037*
Y03037*
Y03037*
Y03036*
Y03036*
Y03036*
Y03035*
Y03035*
Y03035*
Y03034*
Y03034*
Y03034*
Y03033*
Y03033*
Y03033*
Y03032*
Y03032*
Y03032*
Y03031*
Y03031*
Y03031*
Y0303*
Y0303*
Y0303*
Y03029*
Y03029*
Y03029*
Y03028*
Y03028*
Y03028*
Y03027*
Y03027*
Y03027*
Y03026*
Y03026*
Y03026*
Y03025*
Y03025*
Y03025*
Y03024*
Y03024*
Y03024*
Y03023*
Y03023*
Y03023*
Y03022*
Y03022*
Y03022*
Y03021*
Y03021*
Y03021*
Y0302*
Y0302*
Y0302*
Y03019*
Y03019*
Y03019*
Y03018*
Y03018*
Y03018*
Y03017*
Y03017*
Y03017*
Y03016*
Y03016*
Y03016*
Y03015*
Y03015*
Y03015*
Y03014*
Y03014*
Y03014*
Y03013*
Y03013*
Y03013*
Y03012*
Y03012*
Y03012*
Y03011*
Y03011*
Y03011*
Y0301*
Y0301*
Y0301*
Y03009*
Y03009*
Y03009*
Y03008*
Y03008*
Y03008*
Y03007*
Y03007*
Y03007*
Y03006*
Y03006*
Y03006*
Y03005*
Y03005*
Y03005*
Y03004*
Y03004*
Y03004*
Y03003*
Y03003*
Y03003*
Y03002*
Y03002*
Y03002*
Y03001*
Y03001*
Y03001*
Y03*
Y03*
Y03*
Y02999*
Y02999*
Y02999*
Y02998*
Y02998*
Y02998*
Y02997*
Y02997*
Y02997*
Y02996*
Y02996*
Y02996*
Y02995*
Y02995*
Y02995*
Y02994*
Y02994*
Y02994*
Y02993*
Y02993*
Y02993*
Y02992*
Y02992*
Y02992*
Y02991*
Y02991*
Y02991*
Y0299*
Y0299*
Y0299*
Y02989*
Y02989*
Y02989*
Y02988*
Y02988*
Y02988*
Y02987*
Y02987*
Y02987*
Y02986*
Y02986*
Y02986*
Y02985*
Y02985*
Y02985*
Y02984*
Y02984*
Y02984*
Y02983*
Y02983*
Y02983*
Y02982*
Y02982*
Y02982*
Y02981*
Y02981*
Y02981*
Y0298*
Y0298*
Y0298*
Y02979*
Y02979*
Y02979*
Y02978*
Y02978*
Y02978*
Y02977*
Y02977*
Y02977*
Y02976*
Y02976*
Y02976*
Y02975*
Y02975*
Y02975*
Y02974*
Y02974*
Y02974*
Y02973*
Y02973*
Y02973*
Y02972*
Y02972*
Y02972*
Y02971*
Y02971*
Y02971*
Y0297*
Y0297*
Y0297*
Y02969*
Y02969*
Y02969*
X04625*
Y02969*
Y02969*
Y0297*
Y0297*
Y0297*
Y02971*
Y02971*
Y02971*
Y02972*
Y02972*
Y02972*
Y02973*
Y02973*
Y02973*
Y02974*
Y02974*
Y02974*
Y02975*
Y02975*
Y02975*
Y02976*
Y02976*
Y02976*
Y02977*
Y02977*
Y02977*
Y02978*
Y02978*
Y02978*
Y02979*
Y02979*
Y02979*
Y0298*
Y0298*
Y0298*
Y02981*
Y02981*
Y02981*
Y02982*
Y02982*
Y02982*
Y02983*
Y02983*
Y02983*
Y02984*
Y02984*
Y02984*
Y02985*
Y02985*
Y02985*
Y02986*
Y02986*
Y02986*
Y02987*
Y02987*
Y02987*
Y02988*
Y02988*
Y02988*
Y02989*
Y02989*
Y02989*
Y0299*
Y0299*
Y0299*
Y02991*
Y02991*
Y02991*
Y02992*
Y02992*
Y02992*
Y02993*
Y02993*
Y02993*
Y02994*
Y02994*
Y02994*
Y02995*
Y02995*
Y02995*
Y02996*
Y02996*
Y02996*
Y02997*
Y02997*
Y02997*
Y02998*
Y02998*
Y02998*
Y02999*
Y02999*
Y02999*
Y03*
Y03*
Y03*
Y03001*
Y03001*
Y03001*
Y03002*
Y03002*
Y03002*
Y03003*
Y03003*
Y03003*
Y03004*
Y03004*
Y03004*
Y03005*
Y03005*
Y03005*
Y03006*
Y03006*
Y03006*
Y03007*
Y03007*
Y03007*
Y03008*
Y03008*
Y03008*
Y03009*
Y03009*
Y03009*
Y0301*
Y0301*
Y0301*
Y03011*
Y03011*
Y03011*
Y03012*
Y03012*
Y03012*
Y03013*
Y03013*
Y03013*
Y03014*
Y03014*
Y03014*
Y03015*
Y03015*
Y03015*
Y03016*
Y03016*
Y03016*
Y03017*
Y03017*
Y03017*
Y03018*
Y03018*
Y03018*
Y03019*
Y03019*
Y03019*
Y0302*
Y0302*
Y0302*
Y03021*
Y03021*
Y03021*
Y03022*
Y03022*
Y03022*
Y03023*
Y03023*
Y03023*
Y03024*
Y03024*
Y03024*
Y03025*
Y03025*
Y03025*
Y03026*
Y03026*
Y03026*
Y03027*
Y03027*
Y03027*
Y03028*
Y03028*
Y03028*
Y03029*
Y03029*
Y03029*
Y0303*
Y0303*
Y0303*
Y03031*
Y03031*
Y03031*
Y03032*
Y03032*
Y03032*
Y03033*
Y03033*
Y03033*
Y03034*
Y03034*
Y03034*
Y03035*
Y03035*
Y03035*
Y03036*
Y03036*
Y03036*
Y03037*
Y03037*
Y03037*
Y03038*
Y03038*
Y03038*
Y03039*
Y03039*
Y03039*
Y0304*
Y0304*
Y0304*
Y03041*
Y03041*
Y03041*
Y03042*
Y03042*
Y03042*
Y03043*
Y03043*
Y03043*
Y03044*
Y03044*
Y03044*
Y03045*
Y03045*
Y03045*
Y03046*
Y03046*
Y03046*
Y03047*
Y03047*
Y03047*
Y03048*
Y03048*
Y03048*
Y03049*
Y03049*
Y03049*
Y0305*
Y0305*
Y0305*
Y03051*
Y03051*
Y03051*
Y03052*
Y03052*
Y03052*
Y03053*
Y03053*
Y03053*
Y03054*
Y03054*
Y03054*
Y03055*
Y03055*
Y03055*
Y03056*
Y03056*
Y03056*
Y03057*
Y03057*
Y03058*
Y03058*
Y03058*
Y03059*
Y03059*
Y03059*
Y0306*
Y0306*
Y0306*
Y03061*
Y03061*
Y03061*
Y03062*
Y03062*
Y03062*
Y03063*
Y03063*
Y03063*
Y03064*
Y03064*
Y03064*
Y03065*
Y03065*
Y03065*
Y03066*
Y03066*
Y03066*
Y03067*
Y03067*
Y03067*
Y03068*
Y03068*
Y03068*
Y03069*
Y03069*
Y03069*
Y0307*
Y0307*
Y0307*
Y03071*
Y03071*
Y03071*
Y03072*
Y03072*
Y03072*
Y03073*
Y03073*
Y03073*
Y03074*
Y03074*
Y03074*
Y03075*
Y03075*
Y03075*
Y03076*
Y03076*
Y03076*
Y03077*
Y03077*
Y03077*
Y03078*
Y03078*
Y03078*
Y03079*
Y03079*
Y03079*
Y0308*
Y0308*
Y0308*
Y03081*
Y03081*
Y03081*
Y03082*
Y03082*
Y03082*
Y03083*
Y03083*
Y03083*
Y03084*
Y03084*
Y03084*
X04626*
Y03085*
Y03085*
Y03085*
Y03086*
X04626*
Y03086*
Y03086*
X04626*
Y03087*
Y03087*
X04627*
Y03087*
X04627*
Y03088*
Y03088*
X04627*
Y03088*
X04628*
Y03089*
X04628*
Y03089*
X04628*
Y03089*
X04629*
Y0309*
X04629*
Y0309*
X0463*
Y0309*
X04631*
Y03091*
X04632*
Y03091*
X04889*
Y03091*
X04889*
Y0309*
X04889*
Y0309*
X0489*
Y0309*
X0489*
Y03089*
X0489*
Y03089*
X04891*
Y03089*
Y03088*
X04891*
Y03088*
X04891*
Y03088*
Y03087*
X04892*
Y03087*
X04892*
Y03087*
Y03086*
X04892*
Y03086*
X04893*
Y03086*
X04893*
Y03085*
Y03085*
X04893*
Y03085*
X04894*
Y03084*
Y03084*
X04894*
Y03084*
X04894*
Y03083*
X04895*
Y03083*
Y03083*
X04895*
Y03082*
X04895*
Y03082*
Y03082*
X04896*
Y03081*
X04896*
Y03081*
X04896*
Y03081*
Y0308*
X04897*
Y0308*
X04897*
Y0308*
Y03079*
X04897*
Y03079*
X04898*
Y03079*
Y03078*
X04898*
Y03078*
X04898*
Y03078*
X04899*
Y03077*
Y03077*
X04899*
Y03077*
X04899*
Y03076*
Y03076*
X049*
Y03076*
X049*
Y03075*
Y03075*
X049*
Y03075*
X04901*
Y03074*
X04901*
Y03074*
Y03074*
X04901*
Y03073*
X04902*
Y03073*
Y03073*
X04902*
Y03072*
X04902*
Y03072*
Y03072*
X04903*
Y03071*
X04903*
Y03071*
X04903*
Y03071*
Y0307*
X04904*
Y0307*
X04904*
Y0307*
Y03069*
X04904*
Y03069*
X04905*
Y03069*
Y03068*
X04905*
Y03068*
X04905*
Y03068*
X04906*
Y03067*
Y03067*
X04906*
Y03067*
X04906*
Y03066*
Y03066*
X04907*
Y03066*
X04907*
Y03065*
X04908*
Y03065*
Y03065*
X04908*
Y03064*
X04908*
Y03064*
Y03064*
X04909*
Y03063*
X04909*
Y03063*
Y03063*
X04909*
Y03062*
X0491*
Y03062*
X0491*
Y03062*
Y03061*
X0491*
Y03061*
X04911*
Y03061*
Y0306*
X04911*
Y0306*
X04911*
Y0306*
Y03059*
X04912*
Y03059*
X04912*
Y03059*
X04912*
Y03058*
Y03058*
X04913*
Y03058*
X04913*
Y03057*
Y03057*
X04913*
Y03056*
X04914*
Y03056*
Y03056*
X04914*
Y03055*
X04914*
Y03055*
X04915*
Y03055*
Y03054*
X04915*
Y03054*
X04915*
Y03054*
Y03053*
X04916*
Y03053*
X04916*
Y03053*
Y03052*
X04916*
Y03052*
X04917*
Y03052*
X04917*
Y03051*
Y03051*
X04917*
Y03051*
X04918*
Y0305*
Y0305*
X04918*
Y0305*
X04918*
Y03049*
Y03049*
X04919*
Y03049*
X04919*
Y03048*
Y03048*
X04919*
Y03048*
X0492*
Y03047*
X0492*
Y03047*
Y03047*
X0492*
Y03046*
X04921*
Y03046*
X04921*
Y03046*
Y03045*
Y03045*
X04921*
Y03045*
X04922*
Y03044*
X04922*
Y03044*
X04922*
Y03044*
Y03043*
X04923*
Y03043*
X04923*
Y03043*
X04923*
Y03042*
Y03042*
X04924*
Y03042*
X04924*
Y03041*
Y03041*
Y03041*
X04924*
Y0304*
X04925*
Y0304*
Y0304*
Y03039*
Y03039*
X04925*
Y03039*
Y03038*
Y03038*
Y03038*
Y03037*
Y03037*
Y03037*
Y03036*
Y03036*
Y03036*
Y03035*
Y03035*
Y03035*
X04925*
Y03034*
Y03034*
Y03034*
Y03033*
X04924*
Y03033*
Y03033*
X04924*
Y03032*
Y03032*
X04924*
Y03032*
Y03031*
X04923*
Y03031*
X04923*
Y03031*
Y0303*
X04923*
Y0303*
X04922*
Y0303*
Y03029*
X04922*
Y03029*
X04922*
Y03029*
X04921*
Y03028*
Y03028*
X04921*
Y03028*
X04921*
Y03027*
Y03027*
X0492*
Y03027*
X0492*
Y03026*
X0492*
Y03026*
Y03026*
X04919*
Y03025*
X04919*
Y03025*
Y03025*
X04919*
Y03024*
X04918*
Y03024*
X04918*
Y03024*
Y03023*
X04918*
Y03023*
X04917*
Y03023*
Y03022*
X04917*
Y03022*
X04917*
Y03022*
Y03021*
X04916*
Y03021*
X04916*
Y03021*
X04916*
Y0302*
Y0302*
X04915*
Y0302*
X04915*
Y03019*
Y03019*
X04915*
Y03019*
X04914*
Y03018*
X04914*
Y03018*
X04914*
Y03018*
X04914*
Y03017*
Y03017*
Y03017*
X04914*
Y03016*
Y03016*
Y03016*
X04915*
Y03015*
Y03015*
X04915*
Y03015*
Y03014*
Y03014*
Y03014*
X04915*
Y03013*
X04916*
Y03013*
Y03013*
Y03012*
X04916*
Y03012*
Y03012*
Y03011*
Y03011*
X04916*
Y03011*
X04917*
Y0301*
Y0301*
Y0301*
X04917*
Y03009*
Y03009*
Y03009*
X04917*
Y03008*
Y03008*
X04918*
Y03008*
Y03007*
Y03007*
X04918*
Y03007*
Y03006*
Y03006*
X04918*
Y03006*
Y03005*
X04919*
Y03005*
Y03005*
Y03004*
X04919*
Y03004*
Y03004*
X04919*
Y03003*
Y03003*
Y03003*
X0492*
Y03002*
Y03002*
X0492*
Y03002*
Y03001*
Y03001*
X0492*
Y03001*
Y03*
Y03*
X04921*
Y03*
Y02999*
X04921*
Y02999*
Y02999*
X04921*
Y02999*
Y02999*
X04922*
Y03*
X04922*
Y03*
Y03*
X04922*
Y03001*
X04923*
Y03001*
Y03001*
X04923*
Y03002*
X04923*
Y03002*
Y03002*
X04924*
Y03003*
X04924*
Y03003*
Y03003*
X04924*
Y03004*
X04925*
Y03004*
Y03004*
X04925*
Y03005*
X04925*
Y03005*
Y03005*
X04926*
Y03006*
X04926*
Y03006*
Y03006*
X04926*
Y03007*
X04927*
Y03007*
Y03007*
X04927*
Y03008*
X04927*
Y03008*
Y03008*
X04928*
Y03009*
X04928*
Y03009*
Y03009*
X04928*
Y0301*
X04929*
Y0301*
Y0301*
X04929*
Y03011*
X04929*
Y03011*
X0493*
Y03011*
Y03012*
X0493*
Y03012*
Y03012*
X0493*
Y03013*
X04931*
Y03013*
Y03013*
X04931*
Y03014*
X04931*
Y03014*
Y03014*
X04932*
Y03015*
X04932*
Y03015*
X04932*
Y03015*
Y03016*
X04933*
Y03016*
X04933*
Y03016*
X04933*
Y03017*
X04934*
Y03017*
X04934*
Y03017*
X04935*
Y03018*
X04935*
Y03018*
X04936*
Y03018*
X04937*
Y03019*
X04941*
Y03018*
X04943*
Y03018*
X04943*
Y03018*
X04944*
Y03017*
X04944*
Y03017*
X04945*
Y03017*
X04945*
Y03016*
X04946*
Y03016*
X04946*
Y03016*
X04946*
Y03015*
Y03015*
X04947*
Y03015*
X04947*
Y03014*
Y03014*
X04947*
Y03014*
X04948*
Y03013*
Y03013*
X04948*
Y03013*
X04948*
Y03012*
Y03012*
X04949*
Y03012*
X04949*
Y03011*
Y03011*
X04949*
Y03011*
X0495*
Y0301*
Y0301*
X0495*
Y0301*
X0495*
Y03009*
Y03009*
X04951*
Y03009*
X04951*
Y03008*
Y03008*
X04951*
Y03008*
Y03007*
X04952*
Y03007*
X04952*
Y03007*
Y03006*
X04952*
Y03006*
X04953*
Y03006*
Y03005*
X04953*
Y03005*
Y03005*
X04953*
Y03004*
X04954*
Y03004*
X04954*
Y03004*
Y03003*
X04954*
Y03003*
X04955*
Y03003*
Y03002*
X04955*
Y03002*
X04955*
Y03002*
Y03001*
X04956*
Y03001*
X04956*
Y03001*
Y03*
X04956*
Y03*
X04957*
Y03*
Y02999*
X04957*
Y02999*
X04957*
Y02999*
Y02998*
X04958*
Y02998*
X04958*
Y02998*
Y02997*
Y02997*
X04959*
Y02997*
Y02996*
X04959*
Y02996*
Y02996*
X04959*
Y02995*
X0496*
Y02995*
X0496*
Y02995*
Y02994*
X0496*
Y02994*
Y02994*
X04961*
Y02993*
X04961*
Y02993*
Y02993*
X04961*
Y02992*
X04962*
Y02992*
Y02992*
X04962*
Y02991*
X04962*
Y02991*
Y02991*
X04963*
Y0299*
X04963*
Y0299*
Y0299*
X04963*
Y02989*
X04964*
Y02989*
Y02989*
X04964*
Y02988*
X04964*
Y02988*
Y02988*
X04965*
Y02987*
Y02987*
X04965*
Y02987*
X04965*
Y02986*
X04966*
Y02986*
Y02986*
X04966*
Y02985*
X04966*
Y02985*
Y02985*
X04967*
Y02984*
Y02984*
X04967*
Y02984*
X04967*
Y02983*
X04968*
Y02983*
Y02983*
Y02982*
X04968*
Y02982*
X04968*
Y02982*
X04969*
Y02981*
Y02981*
X04969*
Y02981*
X04969*
Y0298*
Y0298*
X0497*
Y0298*
X0497*
Y02979*
Y02979*
X0497*
Y02979*
X04971*
Y02978*
Y02978*
X04971*
Y02978*
X04971*
Y02977*
Y02977*
X04972*
Y02977*
X04972*
Y02976*
Y02976*
X04972*
Y02976*
X04973*
Y02975*
Y02975*
X04973*
Y02975*
X04973*
Y02974*
Y02974*
X04974*
Y02974*
X04974*
Y02973*
Y02973*
Y02973*
X04974*
Y02972*
X04975*
Y02972*
X04975*
Y02972*
Y02971*
X04975*
Y02971*
X04976*
Y02971*
Y0297*
X04976*
Y0297*
X04976*
Y0297*
Y02969*
X04977*
Y02969*
X05001*
Y02969*
Y0297*
X05001*
Y0297*
X05*
Y0297*
Y02971*
X05*
Y02971*
X05*
Y02971*
X04999*
Y02972*
Y02972*
X04999*
Y02972*
X04999*
Y02973*
Y02973*
X04998*
Y02973*
X04998*
Y02974*
Y02974*
X04998*
Y02974*
X04997*
Y02975*
Y02975*
X04997*
Y02975*
X04997*
Y02976*
Y02976*
X04996*
Y02976*
X04996*
Y02977*
X04996*
Y02977*
Y02977*
X04995*
Y02978*
X04995*
Y02978*
Y02978*
X04995*
Y02979*
X04994*
Y02979*
Y02979*
X04994*
Y0298*
X04994*
Y0298*
X04993*
Y0298*
Y02981*
X04993*
Y02981*
X04993*
Y02981*
Y02982*
X04992*
Y02982*
X04992*
Y02982*
Y02983*
X04992*
Y02983*
X04991*
Y02983*
Y02984*
X04991*
Y02984*
X04991*
Y02984*
X0499*
Y02985*
Y02985*
X0499*
Y02985*
X0499*
Y02986*
Y02986*
Y02986*
X04989*
Y02987*
Y02987*
X04989*
Y02987*
X04988*
Y02988*
X04988*
Y02988*
Y02988*
X04988*
Y02989*
X04987*
Y02989*
Y02989*
X04987*
Y0299*
X04987*
Y0299*
Y0299*
X04986*
Y02991*
X04986*
Y02991*
Y02991*
X04986*
Y02992*
X04985*
Y02992*
Y02992*
X04985*
Y02993*
X04985*
Y02993*
Y02993*
X04984*
Y02994*
X04984*
Y02994*
X04984*
Y02994*
Y02995*
X04983*
Y02995*
X04983*
Y02995*
Y02996*
X04983*
Y02996*
X04982*
Y02996*
X04982*
Y02997*
Y02997*
X04982*
Y02997*
X04981*
Y02998*
Y02998*
X04981*
Y02998*
X04981*
Y02999*
Y02999*
X0498*
Y02999*
X0498*
Y03*
Y03*
X0498*
Y03*
X04979*
Y03001*
Y03001*
X04979*
Y03001*
X04979*
Y03002*
X04978*
Y03002*
Y03002*
X04978*
Y03003*
X04978*
Y03003*
Y03003*
X04977*
Y03004*
X04977*
Y03004*
Y03004*
X04977*
Y03005*
Y03005*
Y03005*
X04976*
Y03006*
X04976*
Y03006*
X04975*
Y03006*
Y03007*
X04975*
Y03007*
X04975*
Y03007*
Y03008*
X04974*
Y03008*
X04974*
Y03008*
Y03009*
X04974*
Y03009*
Y03009*
X04973*
Y0301*
Y0301*
X04973*
Y0301*
X04972*
Y03011*
Y03011*
X04972*
Y03011*
X04972*
Y03012*
Y03012*
X04971*
Y03012*
X04971*
Y03013*
Y03013*
X04971*
Y03013*
X0497*
Y03014*
X0497*
Y03014*
Y03014*
X0497*
Y03015*
X04969*
Y03015*
Y03015*
X04969*
Y03016*
X04969*
Y03016*
Y03016*
X04968*
Y03017*
X04968*
Y03017*
Y03017*
X04968*
Y03018*
X04967*
Y03018*
X04967*
Y03018*
Y03019*
X04967*
Y03019*
X04966*
Y03019*
Y0302*
X04966*
Y0302*
X04966*
Y0302*
Y03021*
X04965*
Y03021*
X04965*
Y03021*
Y03022*
X04965*
Y03022*
X04964*
Y03022*
X04964*
Y03023*
Y03023*
X04964*
Y03023*
X04963*
Y03024*
Y03024*
X04963*
Y03024*
X04963*
Y03025*
Y03025*
X04962*
Y03025*
X04962*
Y03026*
Y03026*
X04962*
Y03026*
X04961*
Y03027*
X04961*
Y03027*
Y03027*
X04961*
Y03028*
X0496*
Y03028*
Y03028*
X0496*
Y03029*
X0496*
Y03029*
Y03029*
X04959*
Y0303*
X04959*
Y0303*
Y0303*
X04959*
Y03031*
X04958*
Y03031*
X04958*
Y03031*
Y03032*
X04958*
Y03032*
X04957*
Y03032*
Y03033*
X04957*
Y03033*
X04957*
Y03033*
Y03034*
X04956*
Y03034*
Y03034*
X04956*
Y03035*
Y03035*
X04956*
Y03035*
Y03036*
Y03036*
Y03036*
X04955*
Y03037*
Y03037*
Y03037*
Y03038*
Y03038*
Y03038*
Y03039*
Y03039*
Y03039*
Y0304*
Y0304*
Y0304*
Y03041*
X04956*
Y03041*
Y03041*
Y03042*
Y03042*
X04956*
Y03042*
Y03043*
X04956*
Y03043*
Y03043*
X04957*
Y03044*
X04957*
Y03044*
Y03044*
X04957*
Y03045*
X04958*
Y03045*
X04958*
Y03045*
Y03046*
X04958*
Y03046*
X04959*
Y03046*
Y03047*
X04959*
Y03047*
X04959*
Y03047*
X0496*
Y03048*
Y03048*
X0496*
Y03048*
X0496*
Y03049*
Y03049*
X04961*
Y03049*
X04961*
Y0305*
X04961*
Y0305*
Y0305*
X04962*
Y03051*
X04962*
Y03051*
X04962*
Y03051*
Y03052*
X04963*
Y03052*
X04963*
Y03052*
Y03053*
X04963*
Y03053*
X04964*
Y03053*
X04964*
Y03054*
Y03054*
X04964*
Y03054*
X04965*
Y03055*
X04965*
Y03055*
Y03055*
X04965*
Y03056*
X04966*
Y03056*
Y03056*
X04966*
Y03057*
X04966*
Y03057*
X04967*
Y03058*
Y03058*
X04967*
Y03058*
X04967*
Y03059*
Y03059*
X04968*
Y03059*
X04968*
Y0306*
X04968*
Y0306*
Y0306*
X04969*
Y03061*
X04969*
Y03061*
X04969*
Y03061*
Y03062*
X0497*
Y03062*
X0497*
Y03062*
Y03063*
X0497*
Y03063*
X04971*
Y03063*
X04971*
Y03064*
Y03064*
X04971*
Y03064*
X04972*
Y03065*
Y03065*
X04972*
Y03065*
X04972*
Y03066*
X04973*
Y03066*
Y03066*
X04973*
Y03067*
X04973*
Y03067*
Y03067*
X04974*
Y03068*
X04974*
Y03068*
X04974*
Y03068*
Y03069*
X04975*
Y03069*
X04975*
Y03069*
X04975*
Y0307*
Y0307*
X04976*
Y0307*
X04976*
Y03071*
X04976*
Y03071*
Y03071*
X04977*
Y03072*
X04977*
Y03072*
Y03072*
X04977*
Y03073*
X04978*
Y03073*
X04978*
Y03073*
X04978*
Y03074*
Y03074*
X04979*
Y03074*
Y03075*
X04979*
Y03075*
X04979*
Y03075*
X0498*
Y03076*
Y03076*
X0498*
Y03076*
X0498*
Y03077*
X04981*
Y03077*
Y03077*
X04981*
Y03078*
X04981*
Y03078*
Y03078*
X04982*
Y03079*
X04982*
Y03079*
X04982*
Y03079*
X04983*
Y0308*
Y0308*
X04983*
Y0308*
X04983*
Y03081*
Y03081*
X04984*
Y03081*
X04984*
Y03082*
Y03082*
X04984*
Y03082*
X04985*
Y03083*
X04985*
Y03083*
Y03083*
X04985*
Y03084*
X04986*
Y03084*
Y03084*
X04986*
Y03085*
X04986*
Y03085*
X04987*
Y03085*
X04987*
Y03086*
Y03086*
X04987*
Y03086*
Y03087*
X04988*
Y03087*
X04988*
Y03087*
X04988*
Y03088*
Y03088*
X04989*
Y03088*
X04989*
Y03089*
Y03089*
Y03089*
X0499*
Y0309*
X0499*
Y0309*
Y0309*
X0499*
Y03091*
X04991*
Y03091*
X04991*
Y03091*
Y03092*
X04991*
Y03092*
X04992*
Y03092*
X04992*
Y03093*
X04992*
Y03093*
Y03093*
X04993*
Y03094*
Y03094*
X04993*
Y03094*
X04993*
Y03095*
X04994*
Y03095*
Y03095*
X04994*
Y03096*
X04994*
Y03096*
Y03096*
X04995*
Y03097*
X04995*
Y03097*
X04995*
Y03097*
Y03098*
X04996*
Y03098*
X04996*
Y03098*
X04996*
Y03099*
Y03099*
X04997*
Y03099*
Y031*
Y031*
X04997*
Y031*
X04998*
Y03101*
X04998*
Y03101*
Y03101*
X04998*
Y03102*
X04999*
Y03102*
Y03102*
X04999*
Y03103*
X04999*
Y03103*
X05*
Y03103*
Y03104*
X05*
Y03104*
X04978*
Y03104*
X04978*
Y03103*
X04978*
Y03103*
X04977*
Y03103*
Y03102*
X04977*
Y03102*
X04977*
Y03102*
Y03101*
X04976*
Y03101*
X04976*
Y03101*
Y031*
X04976*
Y031*
X04975*
Y031*
Y03099*
X04975*
Y03099*
X04975*
Y03099*
X04974*
Y03098*
Y03098*
X04974*
Y03098*
X04974*
Y03097*
Y03097*
X04973*
Y03097*
X04973*
Y03096*
Y03096*
X04973*
Y03096*
X04972*
Y03095*
Y03095*
X04972*
Y03095*
X04972*
Y03094*
Y03094*
X04971*
Y03094*
X04971*
Y03093*
X04971*
Y03093*
Y03093*
X0497*
Y03092*
X0497*
Y03092*
Y03092*
X0497*
Y03091*
X04969*
Y03091*
Y03091*
X04969*
Y0309*
X04969*
Y0309*
Y0309*
X04968*
Y03089*
X04968*
Y03089*
X04968*
Y03089*
Y03088*
X04967*
Y03088*
X04967*
Y03088*
Y03087*
X04967*
Y03087*
X04966*
Y03087*
Y03086*
X04966*
Y03086*
X04966*
Y03086*
X04965*
Y03085*
Y03085*
X04965*
Y03085*
X04965*
Y03084*
Y03084*
X04964*
Y03084*
X04964*
Y03083*
Y03083*
X04964*
Y03083*
X04963*
Y03082*
Y03082*
X04963*
Y03082*
X04963*
Y03081*
X04962*
Y03081*
Y03081*
X04962*
Y0308*
X04962*
Y0308*
Y0308*
X04961*
Y03079*
X04961*
Y03079*
Y03079*
X04961*
Y03078*
X0496*
Y03078*
Y03078*
X0496*
Y03077*
X0496*
Y03077*
Y03077*
X04959*
Y03076*
X04959*
Y03076*
X04959*
Y03076*
Y03075*
X04958*
Y03075*
X04958*
Y03075*
Y03074*
X04958*
Y03074*
X04957*
Y03074*
Y03073*
X04957*
Y03073*
X04957*
Y03073*
X04956*
Y03072*
Y03072*
X04956*
Y03072*
X04956*
Y03071*
Y03071*
X04955*
Y03071*
X04955*
Y0307*
Y0307*
X04955*
Y0307*
X04954*
Y03069*
Y03069*
X04954*
Y03069*
X04954*
Y03068*
X04953*
Y03068*
Y03068*
X04953*
Y03067*
X04953*
Y03067*
Y03067*
X04952*
Y03066*
X04952*
Y03066*
Y03066*
X04951*
Y03065*
Y03065*
Y03065*
X04951*
Y03064*
X04951*
Y03064*
X0495*
Y03064*
Y03063*
X0495*
Y03063*
X0495*
Y03063*
Y03062*
X04949*
Y03062*
X04949*
Y03062*
Y03061*
X04949*
Y03061*
X04948*
Y03061*
Y0306*
X04948*
Y0306*
X04948*
Y0306*
X04947*
Y03059*
X04947*
Y03059*
X04947*
Y03059*
X04946*
Y03058*
X04946*
Y03058*
X04945*
Y03058*
X04945*
Y03057*
X04944*
Y03057*
X04943*
Y03056*
X04939*
Y03057*
X04938*
Y03057*
X04937*
Y03058*
X04936*
Y03058*
X04936*
Y03058*
X04935*
Y03059*
X04935*
Y03059*
X04935*
Y03059*
X04934*
Y0306*
X04934*
Y0306*
X04934*
Y0306*
Y03061*
X04933*
Y03061*
X04933*
Y03061*
Y03062*
X04933*
Y03062*
X04932*
Y03062*
Y03063*
X04932*
Y03063*
X04932*
Y03063*
Y03064*
X04931*
Y03064*
X04931*
Y03064*
Y03065*
X04931*
Y03065*
X0493*
Y03065*
Y03066*
X0493*
Y03066*
X0493*
Y03066*
Y03067*
X04929*
Y03067*
X04929*
Y03067*
Y03068*
X04929*
Y03068*
X04928*
Y03068*
Y03069*
X04928*
Y03069*
X04928*
Y03069*
Y0307*
X04927*
Y0307*
X04927*
Y0307*
Y03071*
X04927*
Y03071*
X04926*
Y03071*
Y03072*
X04926*
Y03072*
X04926*
Y03072*
Y03073*
X04925*
Y03073*
X04925*
Y03073*
Y03074*
X04925*
Y03074*
X04924*
Y03074*
Y03075*
X04924*
Y03075*
X04924*
Y03075*
Y03076*
X04923*
Y03076*
X04923*
Y03076*
Y03077*
X04923*
Y03077*
X04922*
Y03077*
Y03078*
X04922*
Y03078*
X04922*
Y03078*
Y03079*
X04921*
Y03079*
X04921*
Y03079*
Y0308*
X04921*
Y0308*
X0492*
Y0308*
Y03081*
X0492*
Y03081*
X0492*
Y03081*
Y03082*
X04919*
Y03082*
X04919*
Y03082*
Y03083*
X04919*
Y03083*
X04918*
Y03083*
Y03084*
X04918*
Y03084*
X04918*
Y03084*
Y03085*
X04917*
Y03085*
X04917*
Y03085*
Y03086*
X04917*
Y03086*
X04916*
Y03086*
X04916*
Y03087*
Y03087*
X04916*
Y03087*
X04915*
Y03088*
Y03088*
X04915*
Y03088*
Y03089*
X04915*
Y03089*
X04914*
Y03089*
X04914*
Y0309*
Y0309*
X04914*
Y0309*
X04913*
Y03091*
Y03091*
X04913*
Y03091*
X04913*
Y03092*
Y03092*
X04912*
Y03092*
Y03093*
X04912*
Y03093*
X04912*
Y03093*
X04911*
Y03094*
Y03094*
X04911*
Y03094*
X04911*
Y03095*
Y03095*
X0491*
Y03095*
X0491*
Y03096*
Y03096*
X0491*
Y03096*
X04909*
Y03097*
Y03097*
X04909*
Y03097*
X04909*
Y03098*
Y03098*
X04908*
Y03098*
X04908*
Y03099*
Y03099*
X04908*
Y03099*
X04907*
Y031*
Y031*
X04907*
Y031*
X04906*
Y03101*
Y03101*
X04906*
Y03101*
X04906*
Y03102*
Y03102*
X04905*
Y03102*
X04905*
Y03103*
Y03103*
X04905*
Y03103*
X04904*
Y03104*
X04905*
Y03104*
X04904*
Y03104*
G37*
G36*
X049Y02987D02*
X04892D01*
Y02987*
X04891*
Y02987*
Y02986*
X04891*
Y02986*
Y02986*
X04891*
Y02985*
X0489*
Y02985*
Y02985*
X0489*
Y02984*
X0489*
Y02984*
Y02984*
X04889*
Y02983*
X04889*
Y02983*
X04889*
Y02983*
Y02982*
X04888*
Y02982*
X04888*
Y02982*
Y02981*
X04888*
Y02981*
X04887*
Y02981*
X04887*
Y0298*
Y0298*
X04887*
Y0298*
X04886*
Y02979*
Y02979*
X04886*
Y02979*
X04886*
Y02978*
X04885*
Y02978*
Y02978*
X04885*
Y02977*
X04885*
Y02977*
Y02977*
X04884*
Y02976*
X04884*
Y02976*
X04884*
Y02976*
Y02975*
X04883*
Y02975*
X04883*
Y02975*
Y02974*
X04883*
Y02974*
X04882*
Y02974*
X04882*
Y02973*
Y02973*
X04882*
Y02973*
X04881*
Y02972*
Y02972*
X04881*
Y02972*
X04881*
Y02971*
Y02971*
X0488*
Y02971*
X0488*
Y0297*
X0488*
Y0297*
Y0297*
X04879*
Y02969*
X04879*
Y02969*
X04901*
Y02969*
X04901*
Y0297*
Y0297*
X04902*
Y0297*
X04902*
Y02971*
Y02971*
X04902*
Y02971*
X04903*
Y02972*
Y02972*
X04903*
Y02972*
Y02973*
Y02973*
X04904*
Y02973*
X04904*
Y02974*
Y02974*
X04904*
Y02974*
X04905*
Y02975*
Y02975*
Y02975*
X04905*
Y02976*
Y02976*
Y02976*
X04904*
Y02977*
Y02977*
X04904*
Y02977*
Y02978*
Y02978*
X04904*
Y02978*
Y02979*
X04903*
Y02979*
Y02979*
Y0298*
X04903*
Y0298*
Y0298*
Y02981*
X04903*
Y02981*
Y02981*
X04902*
Y02982*
Y02982*
Y02982*
X04902*
Y02983*
Y02983*
X04902*
Y02983*
Y02984*
Y02984*
X04901*
Y02984*
Y02985*
Y02985*
X04901*
Y02985*
Y02986*
X04901*
Y02986*
Y02986*
Y02987*
X049*
Y02987*
Y02987*
G37*
G36*
X04881Y03083D02*
X04866D01*
Y03083*
Y03082*
X04865*
Y03082*
Y03082*
Y03081*
X04865*
Y03081*
Y03081*
Y0308*
X04865*
Y0308*
Y0308*
X04864*
Y03079*
Y03079*
X04864*
Y03079*
Y03078*
Y03078*
X04864*
Y03078*
Y03077*
Y03077*
X04863*
Y03077*
Y03076*
X04863*
Y03076*
Y03076*
Y03075*
X04863*
Y03075*
Y03075*
Y03074*
X04862*
Y03074*
Y03074*
X04862*
Y03073*
Y03073*
Y03073*
X04862*
Y03072*
Y03072*
X04861*
Y03072*
Y03071*
Y03071*
X04861*
Y03071*
Y0307*
X04861*
Y0307*
Y0307*
Y03069*
X0486*
Y03069*
Y03069*
Y03068*
X0486*
Y03068*
Y03068*
X0486*
Y03067*
Y03067*
Y03067*
X04859*
Y03066*
Y03066*
X04859*
Y03066*
Y03065*
Y03065*
X04859*
Y03065*
Y03064*
Y03064*
X04858*
Y03064*
Y03063*
X04858*
Y03063*
Y03063*
Y03062*
X04858*
Y03062*
Y03062*
X04857*
Y03061*
Y03061*
Y03061*
X04857*
Y0306*
Y0306*
X04857*
Y0306*
Y03059*
Y03059*
X04856*
Y03059*
Y03058*
Y03058*
X04856*
Y03058*
Y03057*
X04856*
Y03057*
Y03056*
Y03056*
X04855*
Y03056*
Y03055*
Y03055*
X04855*
Y03055*
Y03054*
X04855*
Y03054*
Y03054*
X04854*
Y03053*
Y03053*
Y03053*
X04854*
Y03052*
Y03052*
Y03052*
X04854*
Y03051*
Y03051*
X04853*
Y03051*
Y0305*
Y0305*
X04853*
Y0305*
Y03049*
X04853*
Y03049*
Y03049*
Y03048*
X04852*
Y03048*
Y03048*
Y03047*
X04852*
Y03047*
Y03047*
X04852*
Y03046*
Y03046*
Y03046*
X04851*
Y03045*
Y03045*
Y03045*
X04851*
Y03044*
Y03044*
X04851*
Y03044*
Y03043*
Y03043*
X0485*
Y03043*
Y03042*
X0485*
Y03042*
Y03042*
Y03041*
X0485*
Y03041*
Y03041*
X04849*
Y0304*
Y0304*
Y0304*
X04849*
Y03039*
Y03039*
Y03039*
X04849*
Y03038*
Y03038*
X04848*
Y03038*
Y03037*
Y03037*
X04848*
Y03037*
Y03036*
X04848*
Y03036*
Y03036*
Y03035*
X04847*
Y03035*
Y03035*
X04847*
Y03034*
Y03034*
Y03034*
X04847*
Y03033*
Y03033*
Y03033*
X04846*
Y03032*
Y03032*
X04846*
Y03032*
Y03031*
Y03031*
X04846*
Y03031*
Y0303*
Y0303*
X04845*
Y0303*
Y03029*
X04845*
Y03029*
Y03029*
X04845*
Y03028*
Y03028*
Y03028*
X04844*
Y03027*
Y03027*
Y03027*
X04844*
Y03026*
Y03026*
X04844*
Y03026*
Y03025*
Y03025*
X04843*
Y03025*
Y03024*
X04843*
Y03024*
Y03024*
Y03023*
X04843*
Y03023*
Y03023*
Y03022*
X04842*
Y03022*
Y03022*
X04842*
Y03021*
Y03021*
Y03021*
X04842*
Y0302*
Y0302*
X04841*
Y0302*
Y03019*
Y03019*
X04841*
Y03019*
Y03018*
X04841*
Y03018*
Y03018*
Y03017*
X0484*
Y03017*
Y03017*
Y03016*
X0484*
Y03016*
Y03016*
X0484*
Y03015*
Y03015*
Y03015*
X04839*
Y03014*
Y03014*
Y03014*
X04839*
Y03013*
Y03013*
X04839*
Y03013*
Y03012*
Y03012*
X04838*
Y03012*
Y03011*
X04838*
Y03011*
Y03011*
Y0301*
X04838*
Y0301*
Y0301*
X04837*
Y03009*
Y03009*
Y03009*
X04837*
Y03008*
Y03008*
Y03008*
X04837*
Y03007*
Y03007*
X04836*
Y03007*
Y03006*
Y03006*
X04836*
Y03006*
Y03005*
X04836*
Y03005*
Y03005*
Y03004*
X04835*
Y03004*
Y03004*
Y03003*
X04835*
Y03003*
Y03003*
X04835*
Y03002*
Y03002*
Y03002*
X04834*
Y03001*
Y03001*
X04834*
Y03001*
Y03*
Y03*
X04834*
Y03*
Y02999*
X04833*
Y02999*
Y02999*
Y02998*
X04833*
Y02998*
Y02998*
Y02997*
X04833*
Y02997*
Y02997*
X04832*
Y02996*
Y02996*
X04832*
Y02996*
Y02995*
Y02995*
X04832*
Y02995*
Y02994*
Y02994*
X04831*
Y02994*
Y02993*
Y02993*
X04831*
Y02993*
Y02992*
X04831*
Y02992*
Y02992*
Y02991*
X0483*
Y02991*
Y02991*
X0483*
Y0299*
Y0299*
Y0299*
X0483*
Y02989*
Y02989*
X04829*
Y02989*
Y02988*
Y02988*
X04829*
Y02988*
Y02987*
Y02987*
X04829*
Y02987*
Y02986*
X04828*
Y02986*
Y02986*
Y02985*
X04828*
Y02985*
Y02985*
Y02984*
X04828*
Y02984*
Y02984*
X04827*
Y02983*
Y02983*
X04827*
Y02983*
Y02982*
Y02982*
X04827*
Y02982*
Y02981*
Y02981*
X04826*
Y02981*
Y0298*
X04826*
Y0298*
Y0298*
Y02979*
X04826*
Y02979*
Y02979*
X04825*
Y02978*
Y02978*
Y02978*
X04825*
Y02977*
Y02977*
Y02977*
X04825*
Y02976*
Y02976*
X04824*
Y02976*
Y02975*
Y02975*
X04824*
Y02975*
Y02974*
X04824*
Y02974*
Y02974*
Y02973*
X04823*
Y02973*
Y02973*
X04823*
Y02972*
Y02972*
X04823*
Y02972*
Y02971*
Y02971*
X04822*
Y02971*
Y0297*
Y0297*
X04822*
Y0297*
Y02969*
Y02969*
X04822*
Y02969*
Y02968*
X04821*
Y02968*
Y02968*
Y02967*
X04832*
Y02968*
Y02968*
Y02968*
X04832*
Y02969*
Y02969*
X04833*
Y02969*
Y0297*
Y0297*
X04833*
Y0297*
Y02971*
X04833*
Y02971*
Y02971*
Y02972*
X04834*
Y02972*
Y02972*
X04834*
Y02973*
Y02973*
Y02973*
X04834*
Y02974*
Y02974*
X04835*
Y02974*
Y02975*
Y02975*
X04835*
Y02975*
Y02976*
X04835*
Y02976*
Y02976*
Y02977*
X04836*
Y02977*
Y02977*
X04836*
Y02978*
Y02978*
Y02978*
X04836*
Y02979*
Y02979*
Y02979*
X04837*
Y0298*
Y0298*
X04837*
Y0298*
Y02981*
X04837*
Y02981*
Y02981*
Y02982*
X04838*
Y02982*
Y02982*
Y02983*
X04838*
Y02983*
Y02983*
X04838*
Y02984*
Y02984*
Y02984*
X04839*
Y02985*
Y02985*
X04839*
Y02985*
Y02986*
Y02986*
X04839*
Y02986*
Y02987*
X0484*
Y02987*
Y02987*
Y02988*
X0484*
Y02988*
Y02988*
X0484*
Y02989*
Y02989*
Y02989*
X04841*
Y0299*
Y0299*
X04841*
Y0299*
Y02991*
X04841*
Y02991*
X04842*
Y02991*
Y02992*
X04842*
Y02992*
X04842*
Y02992*
Y02993*
X04843*
Y02993*
X04844*
Y02993*
X04844*
Y02994*
X04845*
Y02994*
X04902*
Y02994*
X04903*
Y02993*
X04904*
Y02993*
X04904*
Y02993*
X04905*
Y02992*
X04905*
Y02992*
X04905*
Y02992*
X04906*
Y02991*
Y02991*
X04906*
Y02991*
Y0299*
X04906*
Y0299*
X04907*
Y0299*
Y02989*
Y02989*
X04907*
Y02989*
Y02988*
X04908*
Y02988*
Y02988*
Y02987*
X04908*
Y02987*
Y02987*
Y02986*
X04908*
Y02986*
Y02986*
X04909*
Y02985*
Y02985*
Y02985*
X04909*
Y02984*
Y02984*
Y02984*
X04909*
Y02983*
Y02983*
X0491*
Y02983*
Y02982*
Y02982*
X0491*
Y02982*
Y02981*
X0491*
Y02981*
Y02981*
Y0298*
X04911*
Y0298*
Y0298*
X04911*
Y02979*
Y02979*
Y02979*
X04911*
Y02978*
Y02978*
Y02978*
X04912*
Y02977*
Y02977*
X04912*
Y02977*
Y02976*
Y02976*
X04912*
Y02976*
Y02975*
Y02975*
X04913*
Y02975*
Y02974*
X04913*
Y02974*
Y02974*
Y02973*
X04913*
Y02973*
Y02973*
X04914*
Y02972*
Y02972*
Y02972*
X04914*
Y02971*
Y02971*
Y02971*
X04914*
Y0297*
Y0297*
X04915*
Y0297*
Y02969*
Y02969*
X04915*
Y02969*
Y02968*
Y02968*
X04915*
Y02968*
Y02967*
X04926*
Y02968*
Y02968*
Y02968*
Y02969*
Y02969*
X04925*
Y02969*
Y0297*
X04925*
Y0297*
Y0297*
Y02971*
X04925*
Y02971*
Y02971*
Y02972*
X04924*
Y02972*
Y02972*
X04924*
Y02973*
Y02973*
Y02973*
X04924*
Y02974*
Y02974*
X04923*
Y02974*
Y02975*
Y02975*
X04923*
Y02975*
Y02976*
Y02976*
X04923*
Y02976*
Y02977*
X04922*
Y02977*
Y02977*
Y02978*
X04922*
Y02978*
Y02978*
X04922*
Y02979*
Y02979*
Y02979*
X04921*
Y0298*
Y0298*
X04921*
Y0298*
Y02981*
Y02981*
X04921*
Y02981*
Y02982*
X0492*
Y02982*
Y02982*
Y02983*
X0492*
Y02983*
Y02983*
Y02984*
X0492*
Y02984*
Y02984*
X04919*
Y02985*
Y02985*
Y02985*
X04919*
Y02986*
Y02986*
X04919*
Y02986*
Y02987*
Y02987*
X04918*
Y02987*
Y02988*
Y02988*
X04918*
Y02988*
Y02989*
X04918*
Y02989*
Y02989*
X04917*
Y0299*
Y0299*
Y0299*
X04917*
Y02991*
Y02991*
Y02991*
X04917*
Y02992*
Y02992*
X04916*
Y02992*
Y02993*
Y02993*
X04916*
Y02993*
Y02994*
X04916*
Y02994*
Y02994*
Y02995*
X04915*
Y02995*
Y02995*
X04915*
Y02996*
Y02996*
Y02996*
X04915*
Y02997*
Y02997*
Y02997*
Y02998*
X04914*
Y02998*
X04914*
Y02998*
Y02999*
Y02999*
X04914*
Y02999*
Y03*
X04913*
Y03*
Y03*
Y03001*
X04913*
Y03001*
Y03001*
Y03002*
X04913*
Y03002*
Y03002*
X04912*
Y03003*
Y03003*
Y03003*
X04912*
Y03004*
Y03004*
X04912*
Y03004*
Y03005*
Y03005*
X04911*
Y03005*
Y03006*
X04911*
Y03006*
Y03006*
Y03007*
X04911*
Y03007*
Y03007*
X0491*
Y03008*
Y03008*
Y03008*
X0491*
Y03009*
Y03009*
X0491*
Y03009*
Y0301*
Y0301*
Y0301*
X04909*
Y03011*
Y03011*
X04909*
Y03011*
Y03012*
Y03012*
X04909*
Y03012*
Y03013*
X04908*
Y03013*
Y03013*
X04908*
Y03014*
Y03014*
Y03014*
X04908*
Y03015*
Y03015*
Y03015*
X04907*
Y03016*
Y03016*
X04907*
Y03016*
Y03017*
Y03017*
X04906*
Y03017*
Y03018*
X04906*
Y03018*
Y03018*
Y03019*
X04906*
Y03019*
Y03019*
Y0302*
X04905*
Y0302*
Y0302*
X04905*
Y03021*
Y03021*
X04905*
Y03021*
Y03022*
Y03022*
X04904*
Y03022*
Y03023*
Y03023*
X04904*
Y03023*
Y03024*
X04904*
Y03024*
Y03024*
Y03025*
X04903*
Y03025*
Y03025*
X04903*
Y03026*
Y03026*
Y03026*
X04903*
Y03027*
Y03027*
X04902*
Y03027*
Y03028*
Y03028*
X04902*
Y03028*
Y03029*
Y03029*
X04902*
Y03029*
Y0303*
X04901*
Y0303*
Y0303*
Y03031*
X04901*
Y03031*
Y03031*
X04901*
Y03032*
Y03032*
Y03032*
X049*
Y03033*
Y03033*
X049*
Y03033*
Y03034*
Y03034*
X049*
Y03034*
Y03035*
Y03035*
X04899*
Y03035*
Y03036*
Y03036*
X04899*
Y03036*
Y03037*
X04899*
Y03037*
Y03037*
X04898*
Y03038*
Y03038*
Y03038*
X04898*
Y03039*
Y03039*
X04898*
Y03039*
Y0304*
Y0304*
X04897*
Y0304*
Y03041*
Y03041*
X04897*
Y03041*
Y03042*
X04897*
Y03042*
Y03042*
Y03043*
X04896*
Y03043*
Y03043*
X04896*
Y03044*
Y03044*
Y03044*
X04896*
Y03045*
Y03045*
X04895*
Y03045*
Y03046*
Y03046*
X04895*
Y03046*
Y03047*
Y03047*
X04895*
Y03047*
Y03048*
X04894*
Y03048*
Y03048*
Y03049*
X04894*
Y03049*
Y03049*
X04894*
Y0305*
Y0305*
Y0305*
X04893*
Y03051*
Y03051*
X04893*
Y03051*
Y03052*
Y03052*
X04893*
Y03052*
Y03053*
X04892*
Y03053*
Y03053*
Y03054*
X04892*
Y03054*
Y03054*
Y03055*
X04892*
Y03055*
Y03055*
Y03056*
X04891*
Y03056*
Y03056*
X04891*
Y03057*
Y03057*
X04891*
Y03058*
Y03058*
Y03058*
X0489*
Y03059*
Y03059*
X0489*
Y03059*
Y0306*
Y0306*
X0489*
Y0306*
Y03061*
Y03061*
X04889*
Y03061*
Y03062*
X04889*
Y03062*
Y03062*
Y03063*
X04889*
Y03063*
Y03063*
X04888*
Y03064*
Y03064*
Y03064*
X04888*
Y03065*
Y03065*
X04888*
Y03065*
Y03066*
Y03066*
X04887*
Y03066*
Y03067*
Y03067*
X04887*
Y03067*
Y03068*
X04887*
Y03068*
Y03068*
Y03069*
X04886*
Y03069*
Y03069*
X04886*
Y0307*
Y0307*
Y0307*
X04886*
Y03071*
Y03071*
Y03071*
X04885*
Y03072*
Y03072*
X04885*
Y03072*
Y03073*
Y03073*
X04885*
Y03073*
Y03074*
X04884*
Y03074*
Y03074*
Y03075*
X04884*
Y03075*
Y03075*
X04884*
Y03076*
Y03076*
Y03076*
X04883*
Y03077*
Y03077*
X04883*
Y03077*
Y03078*
Y03078*
X04883*
Y03078*
Y03079*
Y03079*
X04882*
Y03079*
Y0308*
X04882*
Y0308*
Y0308*
Y03081*
X04882*
Y03081*
Y03081*
Y03082*
X04881*
Y03082*
Y03082*
X04881*
Y03083*
Y03083*
G37*
%LNalu_test-3*%
%LPD*%
G36*
X04876Y03062D02*
X04877D01*
Y03061*
X04877*
Y03061*
X04878*
Y03061*
X04878*
Y0306*
X04879*
Y0306*
X04879*
Y0306*
Y03059*
X04879*
Y03059*
X0488*
Y03059*
Y03058*
X0488*
Y03058*
Y03058*
Y03057*
X0488*
Y03057*
Y03056*
X04881*
Y03056*
Y03056*
X04881*
Y03055*
Y03055*
Y03055*
X04881*
Y03054*
Y03054*
X04882*
Y03054*
Y03053*
Y03053*
X04882*
Y03053*
Y03052*
Y03052*
X04882*
Y03052*
Y03051*
X04883*
Y03051*
Y03051*
Y0305*
X04883*
Y0305*
Y0305*
X04883*
Y03049*
Y03049*
Y03049*
X04884*
Y03048*
Y03048*
X04884*
Y03048*
Y03047*
Y03047*
X04884*
Y03047*
Y03046*
X04885*
Y03046*
Y03046*
Y03045*
X04885*
Y03045*
Y03045*
X04885*
Y03044*
Y03044*
Y03044*
X04886*
Y03043*
Y03043*
X04886*
Y03043*
Y03042*
Y03042*
X04886*
Y03042*
Y03041*
X04887*
Y03041*
Y03041*
Y0304*
X04887*
Y0304*
Y0304*
X04887*
Y03039*
Y03039*
Y03039*
X04888*
Y03038*
Y03038*
X04888*
Y03038*
Y03037*
Y03037*
X04888*
Y03037*
Y03036*
X04889*
Y03036*
Y03036*
Y03035*
X04889*
Y03035*
Y03035*
Y03034*
X04889*
Y03034*
Y03034*
X0489*
Y03033*
Y03033*
Y03033*
X0489*
Y03032*
Y03032*
X0489*
Y03032*
Y03031*
Y03031*
X04891*
Y03031*
Y0303*
X04891*
Y0303*
Y0303*
Y03029*
X04891*
Y03029*
Y03029*
X04892*
Y03028*
Y03028*
Y03028*
X04892*
Y03027*
Y03027*
X04892*
Y03027*
Y03026*
Y03026*
X04893*
Y03026*
Y03025*
X04893*
Y03025*
Y03025*
Y03024*
X04893*
Y03024*
Y03024*
X04894*
Y03023*
Y03023*
Y03023*
X04894*
Y03022*
Y03022*
X04894*
Y03022*
Y03021*
Y03021*
X04895*
Y03021*
Y0302*
Y0302*
X04895*
Y0302*
Y03019*
X04895*
Y03019*
Y03019*
Y03018*
X04896*
Y03018*
Y03018*
X04896*
Y03017*
Y03017*
X04896*
Y03017*
Y03016*
Y03016*
X04897*
Y03016*
Y03015*
Y03015*
X04897*
Y03015*
Y03014*
X04897*
Y03014*
Y03014*
Y03013*
X04898*
Y03013*
Y03013*
Y03012*
Y03012*
Y03012*
Y03011*
Y03011*
Y03011*
Y0301*
Y0301*
Y0301*
Y03009*
Y03009*
X04897*
Y03009*
Y03008*
Y03008*
X04897*
Y03008*
Y03007*
X04896*
Y03007*
Y03007*
Y03006*
X04896*
Y03006*
X04896*
Y03006*
X04895*
Y03005*
X04895*
Y03005*
X04894*
Y03005*
X04893*
Y03004*
X04854*
Y03005*
X04853*
Y03005*
X04853*
Y03005*
X04852*
Y03006*
X04852*
Y03006*
X04851*
Y03006*
Y03007*
X04851*
Y03007*
X04851*
Y03007*
X0485*
Y03008*
Y03008*
X0485*
Y03008*
Y03009*
Y03009*
X0485*
Y03009*
Y0301*
Y0301*
Y0301*
Y03011*
Y03011*
Y03011*
Y03012*
Y03012*
Y03012*
Y03013*
Y03013*
Y03013*
Y03014*
X0485*
Y03014*
Y03014*
Y03015*
X0485*
Y03015*
Y03015*
Y03016*
X04851*
Y03016*
Y03016*
Y03017*
X04851*
Y03017*
Y03017*
X04851*
Y03018*
Y03018*
Y03018*
X04852*
Y03019*
Y03019*
X04852*
Y03019*
Y0302*
Y0302*
X04852*
Y0302*
Y03021*
X04853*
Y03021*
Y03021*
Y03022*
X04853*
Y03022*
Y03022*
X04853*
Y03023*
Y03023*
Y03023*
X04854*
Y03024*
Y03024*
X04854*
Y03024*
Y03025*
Y03025*
X04854*
Y03025*
Y03026*
X04855*
Y03026*
Y03026*
Y03027*
X04855*
Y03027*
Y03027*
Y03028*
X04855*
Y03028*
Y03028*
X04856*
Y03029*
Y03029*
Y03029*
X04856*
Y0303*
Y0303*
X04856*
Y0303*
Y03031*
Y03031*
X04857*
Y03031*
Y03032*
X04857*
Y03032*
Y03032*
Y03033*
X04857*
Y03033*
Y03033*
X04858*
Y03034*
Y03034*
Y03034*
X04858*
Y03035*
Y03035*
X04858*
Y03035*
Y03036*
Y03036*
X04859*
Y03036*
Y03037*
X04859*
Y03037*
Y03037*
Y03038*
X04859*
Y03038*
Y03038*
Y03039*
X0486*
Y03039*
Y03039*
X0486*
Y0304*
Y0304*
Y0304*
X0486*
Y03041*
Y03041*
X04861*
Y03041*
Y03042*
Y03042*
X04861*
Y03042*
Y03043*
X04861*
Y03043*
Y03043*
Y03044*
X04862*
Y03044*
Y03044*
X04862*
Y03045*
Y03045*
Y03045*
X04862*
Y03046*
Y03046*
Y03046*
X04863*
Y03047*
Y03047*
X04863*
Y03047*
Y03048*
Y03048*
X04863*
Y03048*
Y03049*
X04864*
Y03049*
Y03049*
X04864*
Y0305*
Y0305*
Y0305*
X04864*
Y03051*
Y03051*
Y03051*
X04865*
Y03052*
Y03052*
X04865*
Y03052*
Y03053*
Y03053*
X04865*
Y03053*
Y03054*
X04866*
Y03054*
Y03054*
Y03055*
X04866*
Y03055*
Y03055*
X04866*
Y03056*
Y03056*
Y03056*
X04867*
Y03057*
Y03057*
Y03058*
X04867*
Y03058*
Y03058*
X04867*
Y03059*
Y03059*
X04868*
Y03059*
X04868*
Y0306*
Y0306*
X04868*
Y0306*
X04869*
Y03061*
X04869*
Y03061*
X0487*
Y03061*
X0487*
Y03062*
X04871*
Y03062*
X04876*
Y03062*
G37*
%LNalu_test-4*%
%LPC*%
G36*
X04874Y03055D02*
X04873D01*
Y03054*
Y03054*
Y03054*
X04873*
Y03053*
X04873*
Y03053*
X04872*
Y03053*
Y03052*
Y03052*
X04872*
Y03052*
X04872*
Y03051*
X04872*
Y03051*
Y03051*
Y0305*
X04871*
Y0305*
X04872*
Y0305*
X04871*
Y03049*
Y03049*
Y03049*
X04871*
Y03048*
X04871*
Y03048*
X0487*
Y03048*
Y03047*
Y03047*
X0487*
Y03047*
X0487*
Y03046*
X0487*
Y03046*
Y03046*
X0487*
Y03045*
X0487*
Y03046*
X04869*
Y03045*
Y03045*
Y03045*
Y03044*
X04869*
Y03044*
X04869*
Y03044*
X04869*
Y03043*
Y03043*
Y03043*
Y03042*
Y03042*
X04868*
Y03042*
Y03041*
Y03041*
X04868*
Y03041*
X04868*
Y0304*
X04867*
Y0304*
Y0304*
Y03039*
X04867*
Y03039*
Y03039*
X04867*
Y03038*
Y03038*
Y03038*
X04866*
Y03037*
Y03037*
X04866*
Y03037*
Y03036*
X04866*
Y03036*
X04866*
Y03036*
X04866*
Y03035*
X04866*
Y03035*
X04865*
Y03035*
X04866*
Y03034*
X04865*
Y03034*
Y03034*
X04865*
Y03033*
Y03033*
X04865*
Y03033*
X04864*
Y03032*
Y03032*
Y03032*
X04864*
Y03031*
X04864*
Y03031*
X04864*
Y03031*
Y0303*
Y0303*
X04863*
Y0303*
X04864*
Y03029*
X04863*
Y03029*
Y03029*
Y03028*
X04863*
Y03028*
Y03028*
X04862*
Y03027*
Y03027*
X04863*
Y03027*
X04862*
Y03026*
Y03026*
X04862*
Y03026*
Y03025*
X04862*
Y03025*
X04861*
Y03025*
Y03024*
Y03024*
X04861*
Y03024*
X04861*
Y03023*
X04861*
Y03023*
Y03023*
Y03022*
X0486*
Y03022*
X04861*
Y03022*
X0486*
Y03021*
Y03021*
Y03021*
X0486*
Y0302*
X0486*
Y0302*
X04859*
Y0302*
Y03019*
Y03019*
X04859*
Y03019*
X04859*
Y03018*
X04859*
Y03018*
Y03018*
X04859*
Y03017*
X04858*
Y03017*
Y03017*
Y03016*
X04858*
Y03016*
X04858*
Y03016*
Y03015*
Y03015*
X04857*
Y03015*
Y03014*
X04858*
Y03014*
X04857*
Y03014*
Y03013*
Y03013*
X04857*
Y03013*
X04857*
Y03012*
X04856*
Y03012*
Y03012*
Y03011*
Y03011*
X04891*
Y03011*
Y03012*
Y03012*
Y03012*
Y03013*
X0489*
Y03013*
X0489*
Y03013*
Y03014*
X0489*
Y03014*
Y03014*
Y03015*
X0489*
Y03015*
Y03015*
X04889*
Y03016*
Y03016*
X04889*
Y03016*
X04889*
Y03017*
X04889*
Y03017*
Y03017*
Y03018*
X04888*
Y03018*
X04888*
Y03018*
Y03019*
X04888*
Y03019*
Y03019*
X04888*
Y0302*
Y0302*
Y0302*
X04887*
Y03021*
Y03021*
X04887*
Y03021*
Y03022*
Y03022*
X04886*
Y03022*
X04887*
Y03023*
X04886*
Y03023*
X04886*
Y03023*
Y03024*
X04886*
Y03024*
X04886*
Y03024*
X04886*
Y03025*
Y03025*
Y03025*
X04885*
Y03026*
X04885*
Y03026*
X04885*
Y03026*
Y03027*
Y03027*
X04884*
Y03027*
X04885*
Y03028*
X04884*
Y03028*
Y03028*
Y03029*
X04884*
Y03029*
X04884*
Y03029*
X04884*
Y0303*
Y0303*
Y0303*
X04883*
Y03031*
X04883*
Y03031*
X04883*
Y03031*
Y03032*
Y03032*
X04882*
Y03032*
X04883*
Y03033*
X04882*
Y03033*
Y03033*
Y03034*
X04882*
Y03034*
X04882*
Y03034*
X04882*
Y03035*
Y03035*
Y03035*
X04881*
Y03036*
Y03036*
Y03036*
X04881*
Y03037*
Y03037*
X0488*
Y03037*
X04881*
Y03038*
Y03038*
X0488*
Y03038*
Y03039*
X0488*
Y03039*
X0488*
Y03039*
Y0304*
X0488*
Y0304*
Y0304*
X04879*
Y03041*
Y03041*
Y03041*
X04879*
Y03042*
X04879*
Y03042*
X04879*
Y03042*
Y03043*
Y03043*
X04878*
Y03043*
X04878*
Y03044*
X04878*
Y03044*
Y03044*
Y03045*
X04877*
Y03045*
X04878*
Y03045*
X04877*
Y03046*
Y03046*
Y03046*
X04877*
Y03047*
X04877*
Y03047*
X04877*
Y03047*
Y03048*
Y03048*
X04876*
Y03048*
X04876*
Y03049*
X04876*
Y03049*
Y03049*
Y0305*
X04875*
Y0305*
X04876*
Y0305*
X04875*
Y03051*
Y03051*
Y03051*
X04875*
Y03052*
X04875*
Y03052*
Y03052*
X04875*
Y03053*
Y03053*
X04874*
Y03053*
X04874*
Y03054*
X04874*
Y03054*
Y03054*
Y03055*
G37*
G36*
X0522Y02931D02*
X05219D01*
X05219Y02931*
X05219Y02931*
X05218Y02931*
X05217Y02931*
X05216Y02931*
X05214Y0293*
X05213Y0293*
X05213*
X05213Y0293*
X05213Y02929*
X05213Y02929*
X05212Y02929*
X05211Y02928*
X0521Y02928*
X0521Y02927*
X05209Y02926*
X05208Y02924*
Y02924*
X05208Y02924*
X05208Y02924*
X05208Y02924*
X05208Y02924*
X05207Y02923*
X05207Y02922*
X05207Y02921*
X05206Y0292*
X05206Y02919*
X05206Y02917*
Y02917*
Y02917*
Y02917*
X05206Y02917*
Y02916*
X05206Y02916*
X05206Y02915*
X05207Y02914*
X05207Y02913*
X05207Y02912*
X05208Y0291*
Y0291*
X05208Y0291*
X05208Y0291*
X05208Y0291*
X05209Y02909*
X05209Y02908*
X0521Y02908*
X05211Y02907*
X05212Y02906*
X05213Y02905*
X05213*
X05213Y02905*
X05213Y02905*
X05214Y02905*
X05214Y02905*
X05214Y02904*
X05215Y02904*
X05216Y02904*
X05217Y02903*
X05219Y02903*
X0522Y02903*
X0522*
X05221Y02903*
X05221*
X05221Y02903*
X05222Y02903*
X05223Y02904*
X05225Y02904*
X05226Y02904*
X05227Y02905*
X05227*
X05227Y02905*
X05227Y02905*
X05228Y02905*
X05228Y02906*
X05229Y02906*
X0523Y02907*
X05231Y02908*
X05231Y02909*
X05232Y0291*
Y0291*
X05232Y0291*
X05232Y0291*
X05232Y02911*
X05233Y02911*
X05233Y02911*
X05233Y02912*
X05233Y02913*
X05234Y02914*
X05234Y02916*
X05234Y02917*
Y02917*
Y02918*
Y02918*
X05234Y02918*
X05234Y02919*
X05234Y02919*
X05234Y0292*
X05233Y02921*
X05233Y02922*
X05233Y02922*
X05233Y02923*
X05232Y02924*
X05232Y02925*
X05231Y02926*
X05231Y02927*
X0523Y02927*
X0523Y02927*
X0523Y02928*
X0523Y02928*
X05229Y02928*
X05229Y02928*
X05228Y02929*
X05228Y02929*
X05227Y02929*
X05227Y0293*
X05226Y0293*
X05225Y02931*
X05224Y02931*
X05223Y02931*
X05222Y02931*
X05221Y02931*
X0522Y02931*
G37*
G36*
X05265Y02932D02*
X05264D01*
X05264Y02931*
X05263Y02931*
X05263Y02931*
X05262Y02931*
X05262Y02931*
X0526Y02931*
X0526Y0293*
X05259Y0293*
X05258Y0293*
X05257Y02929*
X05257Y02929*
X05256Y02928*
X05256*
X05256Y02928*
X05256Y02928*
X05255Y02928*
X05255Y02928*
X05255Y02927*
X05255Y02927*
X05254Y02926*
X05254Y02926*
X05254Y02925*
X05253Y02925*
X05253Y02924*
X05253Y02923*
X05252Y02923*
X05252Y02922*
X05252Y02921*
X05278*
Y02921*
X05278Y02921*
X05278Y02921*
X05278Y02922*
X05278Y02922*
X05277Y02923*
X05277Y02924*
X05276Y02925*
X05276Y02926*
X05275Y02927*
X05275Y02927*
X05275Y02927*
X05275Y02927*
X05274Y02928*
X05273Y02928*
X05273Y02929*
X05272Y0293*
X05271Y0293*
X05271*
X05271Y0293*
X0527Y0293*
X0527Y0293*
X0527Y02931*
X05269Y02931*
X05268Y02931*
X05267Y02931*
X05266Y02931*
X05265Y02932*
G37*
G36*
X05037Y02931D02*
X05036D01*
X05036Y02931*
X05035Y02931*
X05035Y02931*
X05034Y02931*
X05033Y02931*
X05032Y02931*
X05032Y0293*
X05031Y0293*
X0503Y0293*
X05029Y02929*
X05028Y02929*
X05028Y02928*
X05027Y02927*
X05027Y02927*
X05027Y02927*
X05026Y02927*
X05026Y02927*
X05026Y02926*
X05026Y02926*
X05025Y02925*
X05025Y02925*
X05024Y02924*
X05024Y02923*
X05024Y02922*
X05023Y02921*
X05023Y0292*
X05023Y02919*
X05023Y02918*
X05023Y02917*
Y02917*
Y02917*
Y02917*
X05023Y02917*
Y02916*
X05023Y02916*
X05023Y02915*
X05023Y02914*
X05024Y02913*
X05024Y02911*
X05025Y0291*
Y0291*
X05025Y0291*
X05025Y0291*
X05025Y0291*
X05025Y02909*
X05026Y02908*
X05027Y02908*
X05028Y02907*
X05029Y02906*
X0503Y02905*
X0503*
X0503Y02905*
X0503Y02905*
X0503Y02905*
X0503Y02905*
X05031Y02905*
X05032Y02904*
X05033Y02904*
X05034Y02904*
X05035Y02903*
X05037Y02903*
X05037*
X05037Y02903*
X05037*
X05038Y02903*
X05039Y02904*
X0504Y02904*
X05041Y02904*
X05042Y02905*
X05043Y02905*
X05043*
X05043Y02905*
X05044Y02905*
X05044Y02905*
X05044Y02906*
X05045Y02906*
X05046Y02907*
X05047Y02908*
X05048Y02909*
X05048Y0291*
Y0291*
X05048Y0291*
X05048Y02911*
X05049Y02911*
X05049Y02911*
X05049Y02911*
X05049Y02912*
X0505Y02913*
X0505Y02915*
X0505Y02916*
X0505Y02917*
Y02917*
Y02918*
Y02918*
X0505Y02918*
X0505Y02919*
X0505Y02919*
X0505Y0292*
X0505Y02921*
X05049Y02922*
X05049Y02922*
X05049Y02923*
X05048Y02924*
X05048Y02925*
X05047Y02926*
X05047Y02926*
X05046Y02927*
X05046Y02927*
X05046Y02927*
X05046Y02928*
X05045Y02928*
X05045Y02928*
X05045Y02929*
X05044Y02929*
X05043Y02929*
X05043Y0293*
X05042Y0293*
X05041Y0293*
X0504Y02931*
X05039Y02931*
X05039Y02931*
X05038Y02931*
X05037Y02931*
G37*
G36*
X04931Y02932D02*
X0493D01*
X0493Y02931*
X04929Y02931*
X04929Y02931*
X04928Y02931*
X04928Y02931*
X04926Y02931*
X04926Y0293*
X04925Y0293*
X04924Y0293*
X04923Y02929*
X04923Y02929*
X04922Y02928*
X04922*
X04922Y02928*
X04922Y02928*
X04921Y02928*
X04921Y02928*
X04921Y02927*
X04921Y02927*
X0492Y02926*
X0492Y02926*
X0492Y02925*
X04919Y02925*
X04919Y02924*
X04919Y02923*
X04918Y02923*
X04918Y02922*
X04918Y02921*
X04944*
Y02921*
X04944Y02921*
X04944Y02921*
X04944Y02922*
X04944Y02922*
X04943Y02923*
X04943Y02924*
X04942Y02925*
X04942Y02926*
X04941Y02927*
X04941Y02927*
X04941Y02927*
X04941Y02927*
X0494Y02928*
X04939Y02928*
X04939Y02929*
X04938Y0293*
X04937Y0293*
X04937*
X04937Y0293*
X04936Y0293*
X04936Y0293*
X04936Y02931*
X04935Y02931*
X04934Y02931*
X04933Y02931*
X04932Y02931*
X04931Y02932*
G37*
G36*
X04476Y0317D02*
X04476D01*
X04475Y0317*
X04475Y0317*
X04474Y0317*
X04473Y0317*
X04473Y0317*
X04472Y0317*
X04471Y03169*
X04469Y03169*
X04468Y03169*
X04467Y03168*
X04466Y03168*
X04465Y03167*
X04465Y03167*
X04465Y03167*
X04465Y03167*
X04465Y03167*
X04464Y03166*
X04464Y03166*
X04463Y03166*
X04462Y03165*
X04462Y03165*
X04461Y03164*
X0446Y03163*
X0446Y03163*
X04459Y03162*
X04459Y03161*
X04457Y03159*
X04457Y03159*
X04457Y03159*
X04457Y03159*
X04457Y03158*
X04457Y03158*
X04456Y03157*
X04456Y03157*
X04456Y03156*
X04456Y03155*
X04455Y03154*
X04455Y03153*
X04455Y03152*
X04455Y0315*
X04455Y03149*
X04454Y03148*
Y03148*
Y03148*
Y03148*
X04455Y03147*
X04455Y03147*
X04455Y03146*
X04455Y03146*
X04455Y03145*
X04455Y03144*
X04455Y03143*
X04456Y03141*
X04456Y0314*
X04456Y03139*
X04457Y03138*
X04457Y03137*
X04457Y03137*
X04457Y03137*
X04458Y03137*
X04458Y03137*
X04458Y03136*
X04459Y03136*
X04459Y03135*
X04459Y03134*
X0446Y03134*
X04461Y03133*
X04461Y03133*
X04462Y03132*
X04463Y03131*
X04464Y03131*
X04465Y03129*
X04465Y03129*
X04466Y03129*
X04466Y03129*
X04466Y03129*
X04467Y03129*
X04467Y03129*
X04468Y03128*
X04469Y03128*
X04469Y03128*
X0447Y03127*
X04471Y03127*
X04472Y03127*
X04474Y03127*
X04475Y03127*
X04476Y03127*
X04477*
X04477Y03127*
X04478Y03127*
X04478Y03127*
X04479Y03127*
X0448Y03127*
X04481Y03127*
X04482Y03127*
X04483Y03128*
X04484Y03128*
X04485Y03129*
X04486Y03129*
X04487Y03129*
X04487Y0313*
X04487Y0313*
X04488Y0313*
X04488Y0313*
X04488Y0313*
X04489Y03131*
X04489Y03131*
X0449Y03132*
X04491Y03132*
X04491Y03133*
X04492Y03133*
X04493Y03134*
X04494Y03136*
X04495Y03137*
X04495Y03137*
X04495Y03138*
X04495Y03138*
X04496Y03138*
X04496Y03139*
X04496Y03139*
X04496Y0314*
X04497Y03141*
X04497Y03141*
X04497Y03142*
X04497Y03143*
X04498Y03144*
X04498Y03146*
X04498Y03147*
X04498Y03148*
Y03148*
Y03149*
Y03149*
X04498Y03149*
X04498Y0315*
X04498Y0315*
X04498Y03151*
X04498Y03152*
X04498Y03153*
X04497Y03154*
X04497Y03155*
X04497Y03156*
X04496Y03157*
X04496Y03158*
X04495Y03159*
X04495Y03159*
X04495Y03159*
X04495Y0316*
X04495Y0316*
X04494Y0316*
X04494Y03161*
X04494Y03162*
X04493Y03162*
X04493Y03163*
X04492Y03163*
X04491Y03164*
X04491Y03165*
X0449Y03165*
X04489Y03166*
X04487Y03167*
X04487Y03167*
X04487Y03167*
X04487Y03167*
X04486Y03168*
X04486Y03168*
X04485Y03168*
X04485Y03168*
X04484Y03169*
X04483Y03169*
X04482Y03169*
X04481Y03169*
X0448Y0317*
X04478Y0317*
X04477Y0317*
X04476Y0317*
G37*
%LNalu_test-5*%
%LPD*%
G36*
X04477Y03164D02*
X04478D01*
X04478Y03163*
X04479Y03163*
X0448Y03163*
X04481Y03163*
X04482Y03162*
X04483Y03162*
X04484Y03162*
X04485Y03161*
X04485Y03161*
X04485Y03161*
X04485Y03161*
X04485Y03161*
X04486Y0316*
X04486Y0316*
X04486Y0316*
X04486Y03159*
X04487Y03159*
X04487Y03158*
X04488Y03157*
X04488Y03155*
X04489Y03155*
X04489Y03154*
X04484*
Y03154*
X04484Y03154*
X04484Y03154*
X04484Y03155*
X04484Y03155*
X04483Y03156*
X04483Y03157*
X04482Y03157*
X04482Y03158*
X04482Y03158*
X04481Y03158*
X04481Y03158*
X0448Y03159*
X0448Y03159*
X04479Y03159*
X04478Y03159*
X04477Y03159*
X04476*
X04476Y03159*
X04476Y03159*
X04475Y03159*
X04474Y03159*
X04473Y03159*
X04472Y03158*
X04472Y03158*
X04471Y03158*
X04471Y03157*
X0447Y03157*
Y03156*
X0447Y03156*
X0447Y03156*
X0447Y03156*
X0447Y03156*
X04469Y03155*
X04469Y03155*
X04469Y03154*
X04469Y03154*
X04468Y03153*
X04468Y03153*
X04468Y03152*
X04468Y03151*
X04468Y0315*
X04468Y03149*
X04468Y03148*
Y03148*
Y03148*
Y03148*
X04468Y03147*
Y03147*
X04468Y03146*
X04468Y03146*
X04468Y03145*
X04468Y03144*
X04469Y03142*
X04469Y03141*
X0447Y0314*
X0447Y0314*
X0447Y0314*
X0447Y0314*
X0447Y03139*
X04471Y03139*
X04472Y03139*
X04473Y03138*
X04474Y03138*
X04475Y03137*
X04476Y03137*
X04476Y03137*
X04477*
X04477Y03137*
X04477Y03137*
X04478Y03137*
X04479Y03138*
X0448Y03138*
X04481Y03138*
X04482Y03139*
X04482Y03139*
X04482Y03139*
X04482Y0314*
X04483Y03141*
X04483Y03141*
X04484Y03142*
X04484Y03144*
X04484Y03145*
X04489*
Y03145*
X04489Y03145*
Y03145*
X04489Y03144*
X04488Y03144*
X04488Y03143*
X04488Y03143*
X04488Y03142*
X04488Y03141*
X04487Y03139*
X04486Y03139*
X04486Y03138*
X04485Y03137*
X04485Y03137*
X04485Y03137*
X04485Y03136*
X04484Y03136*
X04484Y03136*
X04484Y03136*
X04483Y03136*
X04483Y03135*
X04482Y03135*
X04482Y03135*
X04481Y03134*
X0448Y03134*
X04479Y03134*
X04478Y03134*
X04477Y03134*
X04476Y03133*
X04476*
X04475Y03134*
X04475Y03134*
X04474Y03134*
X04474Y03134*
X04473Y03134*
X04472Y03134*
X04471Y03134*
X04471Y03135*
X0447Y03135*
X04469Y03136*
X04468Y03136*
X04467Y03137*
X04467Y03137*
X04467Y03137*
X04466Y03138*
X04466Y03138*
X04466Y03138*
X04466Y03139*
X04466Y03139*
X04465Y0314*
X04465Y0314*
X04465Y03141*
X04464Y03142*
X04464Y03143*
X04464Y03144*
X04463Y03145*
X04463Y03146*
X04463Y03147*
X04463Y03148*
Y03148*
Y03149*
Y03149*
X04463Y03149*
X04463Y0315*
X04463Y03151*
X04463Y03152*
X04464Y03152*
X04464Y03153*
X04464Y03154*
X04464Y03155*
X04465Y03156*
X04465Y03157*
X04466Y03158*
X04466Y03159*
X04467Y0316*
X04467Y0316*
X04467Y0316*
X04467Y0316*
X04468Y0316*
X04468Y0316*
X04468Y03161*
X04469Y03161*
X04469Y03162*
X0447Y03162*
X04471Y03162*
X04472Y03163*
X04472Y03163*
X04473Y03163*
X04474Y03163*
X04475Y03164*
X04476Y03164*
X04477*
X04477Y03164*
G37*
%LNalu_test-6*%
%LPC*%
G36*
X04659Y03168D02*
X04659D01*
X04659Y03168*
X04658Y03168*
X04657Y03168*
X04656Y03168*
X04655Y03167*
X04654Y03167*
X04653Y03166*
X04653*
X04653Y03166*
X04653Y03166*
X04652Y03165*
X04652Y03164*
X04651Y03163*
X0465Y03162*
X0465Y03161*
X04649Y0316*
Y0316*
X04649Y0316*
X04649Y03159*
X04649Y03159*
X04649Y03158*
X04649Y03158*
X04648Y03157*
X04648Y03157*
X04648Y03156*
X04648Y03155*
X04648Y03154*
X04648Y03153*
X04648Y03152*
X04648Y0315*
X04648Y03149*
Y03148*
Y03147*
Y03147*
Y03147*
Y03146*
X04648Y03146*
Y03145*
X04648Y03144*
X04648Y03143*
X04648Y03141*
X04648Y03139*
X04648Y03138*
X04648Y03137*
X04649Y03136*
X04649Y03135*
Y03135*
X04649Y03135*
X04649Y03135*
X04649Y03135*
X04649Y03134*
X0465Y03134*
X0465Y03133*
X04651Y03132*
X04651Y03131*
X04652Y0313*
X04653Y03129*
X04653*
X04653Y03129*
X04653Y03129*
X04654Y03129*
X04654Y03128*
X04655Y03128*
X04656Y03128*
X04657Y03127*
X04658Y03127*
X04659Y03127*
X04659*
X0466Y03127*
X0466Y03127*
X04661Y03127*
X04662Y03128*
X04663Y03128*
X04664Y03128*
X04665Y03129*
X04665*
X04665Y03129*
X04665Y0313*
X04666Y0313*
X04667Y03131*
X04667Y03132*
X04668Y03133*
X04669Y03134*
X04669Y03135*
Y03135*
X04669Y03136*
X04669Y03136*
X04669Y03136*
X0467Y03137*
X0467Y03137*
X0467Y03138*
X0467Y03139*
X0467Y0314*
X0467Y03141*
X04671Y03142*
X04671Y03143*
X04671Y03144*
X04671Y03145*
X04671Y03146*
Y03148*
Y03148*
Y03148*
Y03148*
Y03149*
X04671Y03149*
Y0315*
X04671Y03151*
X04671Y03152*
X04671Y03154*
X0467Y03155*
X0467Y03157*
X0467Y03158*
X04669Y03159*
Y03159*
X04669Y03159*
X04669Y0316*
X04669Y0316*
X04669Y0316*
X04669Y03161*
X04668Y03162*
X04668Y03163*
X04667Y03164*
X04666Y03165*
X04666Y03165*
X04665Y03166*
X04665*
X04665Y03166*
X04665Y03166*
X04665Y03166*
X04664Y03167*
X04663Y03167*
X04662Y03167*
X04661Y03168*
X0466Y03168*
X04659Y03168*
G37*
G36*
X03621Y02912D02*
X0361Y02877D01*
X03632*
X03621Y02912*
G37*
G36*
X04175Y02899D02*
X04175D01*
X04174Y02899*
X04174Y02899*
X04173Y02898*
X04172Y02898*
X04171Y02898*
X0417Y02898*
X0417Y02897*
X0417Y02897*
X04169Y02897*
X04169Y02897*
X04168Y02896*
X04168Y02896*
X04167Y02895*
X04166Y02895*
X04166Y02894*
X04166Y02894*
X04166Y02894*
X04165Y02893*
X04165Y02892*
X04164Y02892*
X04164Y02891*
X04163Y0289*
Y0289*
X04163Y02889*
X04163Y02889*
X04163Y02888*
X04163Y02887*
X04163Y02886*
X04162Y02885*
X04162Y02884*
X04188*
Y02884*
Y02884*
Y02885*
X04188Y02886*
X04188Y02887*
X04188Y02888*
X04188Y02889*
X04187Y0289*
Y0289*
X04187Y0289*
X04187Y02891*
X04187Y02891*
X04187Y02892*
X04186Y02893*
X04186Y02894*
X04185Y02894*
X04185Y02895*
X04185Y02895*
X04184Y02895*
X04184Y02896*
X04183Y02896*
X04183Y02897*
X04182Y02897*
X04181Y02898*
X04181Y02898*
X04181Y02898*
X0418Y02898*
X04179Y02898*
X04178Y02898*
X04178Y02899*
X04176Y02899*
X04175Y02899*
G37*
G36*
X04009D02*
X04008D01*
X04008Y02899*
X04007Y02899*
X04006Y02898*
X04006Y02898*
X04005Y02898*
X04004Y02898*
X04004Y02897*
X04003Y02897*
X04003Y02897*
X04002Y02897*
X04002Y02896*
X04001Y02896*
X04Y02895*
X04Y02895*
X04Y02894*
X04Y02894*
X03999Y02894*
X03999Y02893*
X03998Y02892*
X03998Y02892*
X03998Y02891*
X03997Y0289*
Y0289*
X03997Y02889*
X03997Y02889*
X03997Y02888*
X03996Y02887*
X03996Y02886*
X03996Y02885*
X03996Y02884*
X04022*
Y02884*
Y02884*
Y02885*
X04022Y02886*
X04022Y02887*
X04022Y02888*
X04021Y02889*
X04021Y0289*
Y0289*
X04021Y0289*
X04021Y02891*
X04021Y02891*
X0402Y02892*
X0402Y02893*
X04019Y02894*
X04019Y02894*
X04019Y02895*
X04018Y02895*
X04018Y02895*
X04018Y02896*
X04017Y02896*
X04016Y02897*
X04016Y02897*
X04015Y02898*
X04015Y02898*
X04014Y02898*
X04014Y02898*
X04013Y02898*
X04012Y02898*
X04011Y02899*
X0401Y02899*
X04009Y02899*
G37*
G36*
X03898Y02898D02*
X03897D01*
X03897Y02898*
X03896Y02898*
X03895Y02898*
X03894Y02898*
X03892Y02897*
X03891Y02897*
X03891Y02897*
X03891Y02896*
X0389Y02896*
X0389Y02896*
X03889Y02895*
X03888Y02894*
X03888Y02894*
X03887Y02893*
X03887Y02893*
X03887Y02892*
X03886Y02892*
X03886Y02891*
X03886Y0289*
X03885Y02889*
X03885Y02888*
X03884Y02887*
Y02887*
X03884Y02886*
X03884Y02886*
X03884Y02885*
X03884Y02884*
X03884Y02882*
X03884Y02881*
Y0288*
Y0288*
Y0288*
Y02879*
Y02879*
X03884Y02878*
X03884Y02877*
X03884Y02876*
X03884Y02875*
X03884Y02873*
X03885Y02872*
X03885Y02872*
X03885Y02871*
X03885Y02871*
X03885Y0287*
X03886Y02869*
X03886Y02868*
X03887Y02867*
X03887Y02866*
X03888Y02866*
X03888Y02866*
X03888Y02865*
X03889Y02865*
X03889Y02864*
X0389Y02864*
X03891Y02863*
X03892Y02863*
X03892Y02863*
X03892Y02862*
X03893Y02862*
X03894Y02862*
X03895Y02862*
X03896Y02862*
X03897Y02862*
X03898Y02861*
X03899*
X03899Y02862*
X039Y02862*
X03901Y02862*
X03902Y02862*
X03903Y02862*
X03905Y02863*
X03905Y02863*
X03905Y02863*
X03906Y02864*
X03906Y02864*
X03907Y02865*
X03908Y02865*
X03908Y02866*
X03909Y02867*
X03909Y02867*
X03909Y02867*
X0391Y02868*
X0391Y02869*
X03911Y0287*
X03911Y02871*
X03911Y02872*
X03912Y02873*
Y02873*
X03912Y02873*
X03912Y02874*
X03912Y02875*
X03912Y02876*
X03912Y02877*
X03912Y02878*
Y0288*
Y0288*
Y0288*
Y0288*
Y02881*
X03912Y02881*
X03912Y02883*
X03912Y02884*
X03912Y02885*
X03912Y02886*
X03911Y02888*
X03911Y02888*
X03911Y02888*
X03911Y02889*
X03911Y0289*
X0391Y02891*
X0391Y02892*
X03909Y02893*
X03909Y02894*
X03908Y02894*
X03908Y02894*
X03908Y02894*
X03907Y02895*
X03907Y02895*
X03906Y02896*
X03905Y02896*
X03904Y02897*
X03904Y02897*
X03903Y02897*
X03903Y02897*
X03902Y02898*
X03901Y02898*
X039Y02898*
X03899Y02898*
X03898Y02898*
G37*
%LNalu_test-7*%
%LPD*%
G54D10*
X04752Y02278D02*
D01*
D01*
G75*
G03X04742I-00004J0D01*
G74*G01*
D01*
G75*
G03X04752I00004J0D01*
G74*G01*
X0377Y02358D02*
D01*
D01*
G75*
G03X0376I-00004J0D01*
G74*G01*
D01*
G75*
G03X0377I00004J0D01*
G74*G01*
X04757Y03342D02*
D01*
D01*
G75*
G03X04747I-00004J0D01*
G74*G01*
D01*
G75*
G03X04757I00004J0D01*
G74*G01*
X03775D02*
D01*
D01*
G75*
G03X03765I-00004J0D01*
G74*G01*
D01*
G75*
G03X03775I00004J0D01*
G74*G01*
G54D11*
X0509Y02374D02*
Y0239D01*
X04684Y02374D02*
X0509D01*
X04684D02*
Y0239D01*
X04032Y02432D02*
Y02464D01*
X03768Y02432D02*
X04032D01*
X03768D02*
Y02464D01*
X05019Y03416D02*
Y03449D01*
X04755Y03416D02*
X05019D01*
X04755D02*
Y03449D01*
X04037Y03416D02*
Y03449D01*
X03773Y03416D02*
X04037D01*
X03773D02*
Y03449D01*
M02*