G04*
G04 #@! TF.GenerationSoftware,Altium Limited,Altium Designer,22.8.2 (66)*
G04*
G04 Layer_Physical_Order=5*
G04 Layer_Color=16440176*
%FSLAX44Y44*%
%MOMM*%
G71*
G04*
G04 #@! TF.SameCoordinates,40631429-7DBC-4EA8-B2E3-056BE841FA50*
G04*
G04*
G04 #@! TF.FilePolarity,Positive*
G04*
G01*
G75*
%ADD12C,0.5000*%
%ADD31C,2.0000*%
%ADD32C,3.5000*%
%ADD33C,3.0000*%
%ADD34C,2.5000*%
%ADD36C,1.5000*%
%ADD37C,1.6000*%
%ADD38O,7.2000X2.7500*%
%ADD40O,4.5000X7.0000*%
%ADD41O,10.0000X2.0000*%
%ADD42C,2.7000*%
%ADD43O,3.0000X2.2000*%
%ADD47C,1.7500*%
G36*
X1724324Y1700869D02*
X1697750D01*
X1694557Y1700554D01*
X1691486Y1699623D01*
X1688656Y1698110D01*
X1686176Y1696075D01*
X1684140Y1693594D01*
X1682627Y1690764D01*
X1681696Y1687693D01*
X1681381Y1684500D01*
X1681696Y1681307D01*
X1682627Y1678236D01*
X1684140Y1675406D01*
X1686176Y1672926D01*
X1688656Y1670890D01*
X1691486Y1669377D01*
X1694557Y1668446D01*
X1697750Y1668131D01*
X1724324D01*
Y1658839D01*
X1697750D01*
X1693239Y1658484D01*
X1688838Y1657427D01*
X1684657Y1655696D01*
X1680799Y1653331D01*
X1677358Y1650392D01*
X1674419Y1646951D01*
X1672054Y1643093D01*
X1670323Y1638912D01*
X1669266Y1634511D01*
X1668911Y1630000D01*
X1669266Y1625489D01*
X1670323Y1621088D01*
X1672054Y1616907D01*
X1674419Y1613049D01*
X1677358Y1609608D01*
X1680799Y1606669D01*
X1684657Y1604304D01*
X1688838Y1602573D01*
X1693239Y1601516D01*
X1697750Y1601161D01*
X1724324D01*
Y1525869D01*
X1697750D01*
X1694557Y1525554D01*
X1691486Y1524623D01*
X1688656Y1523110D01*
X1686176Y1521075D01*
X1684140Y1518594D01*
X1682627Y1515764D01*
X1681696Y1512693D01*
X1681381Y1509500D01*
X1681696Y1506307D01*
X1682627Y1503236D01*
X1684140Y1500406D01*
X1686176Y1497926D01*
X1688656Y1495890D01*
X1691486Y1494377D01*
X1694557Y1493446D01*
X1697750Y1493131D01*
X1724324D01*
Y1483839D01*
X1697750D01*
X1693239Y1483484D01*
X1688838Y1482427D01*
X1684657Y1480696D01*
X1680799Y1478331D01*
X1677358Y1475392D01*
X1674419Y1471951D01*
X1672054Y1468093D01*
X1670323Y1463912D01*
X1669266Y1459511D01*
X1668911Y1455000D01*
X1669266Y1450489D01*
X1670323Y1446088D01*
X1672054Y1441907D01*
X1674419Y1438049D01*
X1677358Y1434608D01*
X1680799Y1431669D01*
X1684657Y1429304D01*
X1688838Y1427573D01*
X1693239Y1426516D01*
X1697750Y1426161D01*
X1724324D01*
X1724324Y1330869D01*
X1697750D01*
X1694557Y1330554D01*
X1691486Y1329623D01*
X1688656Y1328110D01*
X1686176Y1326075D01*
X1684140Y1323594D01*
X1682627Y1320764D01*
X1681696Y1317693D01*
X1681381Y1314500D01*
X1681696Y1311307D01*
X1682627Y1308236D01*
X1684140Y1305406D01*
X1686176Y1302926D01*
X1688656Y1300890D01*
X1691486Y1299377D01*
X1694557Y1298446D01*
X1697750Y1298131D01*
X1724324D01*
Y1288839D01*
X1697750D01*
X1693239Y1288484D01*
X1688838Y1287427D01*
X1684657Y1285696D01*
X1680799Y1283331D01*
X1677358Y1280392D01*
X1674419Y1276951D01*
X1672054Y1273093D01*
X1670323Y1268912D01*
X1669266Y1264511D01*
X1668911Y1260000D01*
X1669266Y1255489D01*
X1670323Y1251088D01*
X1672054Y1246907D01*
X1674419Y1243049D01*
X1677358Y1239608D01*
X1680799Y1236669D01*
X1684657Y1234304D01*
X1688838Y1232573D01*
X1693239Y1231516D01*
X1697750Y1231161D01*
X1724324D01*
Y1155869D01*
X1697750D01*
X1694557Y1155554D01*
X1691486Y1154623D01*
X1688656Y1153110D01*
X1686176Y1151075D01*
X1684140Y1148594D01*
X1682627Y1145764D01*
X1681696Y1142693D01*
X1681381Y1139500D01*
X1681696Y1136307D01*
X1682627Y1133236D01*
X1684140Y1130406D01*
X1686176Y1127925D01*
X1688656Y1125890D01*
X1691486Y1124377D01*
X1694557Y1123446D01*
X1697750Y1123131D01*
X1724324D01*
Y1113839D01*
X1697750D01*
X1693239Y1113484D01*
X1688838Y1112427D01*
X1684657Y1110696D01*
X1680799Y1108331D01*
X1677358Y1105392D01*
X1674419Y1101951D01*
X1672054Y1098093D01*
X1670323Y1093912D01*
X1669266Y1089511D01*
X1668911Y1085000D01*
X1669266Y1080489D01*
X1670323Y1076088D01*
X1672054Y1071907D01*
X1674419Y1068049D01*
X1677358Y1064608D01*
X1680799Y1061669D01*
X1684657Y1059304D01*
X1688838Y1057573D01*
X1693239Y1056516D01*
X1697750Y1056161D01*
X1724324D01*
Y993140D01*
X1724324Y993140D01*
X1634580D01*
Y971758D01*
X1633497Y971095D01*
X1632436Y971635D01*
X1628320Y972973D01*
X1624044Y973650D01*
X1619716D01*
X1615440Y972973D01*
X1611324Y971635D01*
X1607467Y969670D01*
X1603965Y967126D01*
X1600904Y964065D01*
X1598360Y960563D01*
X1596395Y956706D01*
X1595057Y952590D01*
X1594380Y948314D01*
Y943986D01*
X1595057Y939710D01*
X1596395Y935594D01*
X1598360Y931737D01*
X1600904Y928235D01*
X1603965Y925174D01*
X1607467Y922630D01*
X1611324Y920665D01*
X1615440Y919327D01*
X1619716Y918650D01*
X1624044D01*
X1628320Y919327D01*
X1632436Y920665D01*
X1633497Y921205D01*
X1634580Y920542D01*
Y895558D01*
X1633497Y894895D01*
X1632436Y895435D01*
X1628320Y896773D01*
X1624044Y897450D01*
X1619716D01*
X1615440Y896773D01*
X1611324Y895435D01*
X1607467Y893470D01*
X1603965Y890926D01*
X1600904Y887865D01*
X1598360Y884363D01*
X1596395Y880506D01*
X1595057Y876390D01*
X1594380Y872114D01*
Y867786D01*
X1595057Y863510D01*
X1596395Y859394D01*
X1598360Y855537D01*
X1600904Y852035D01*
X1603965Y848974D01*
X1607467Y846430D01*
X1609658Y845313D01*
X1609353Y844043D01*
X1532807D01*
X1532502Y845313D01*
X1534693Y846430D01*
X1538195Y848974D01*
X1541256Y852035D01*
X1543800Y855537D01*
X1545765Y859394D01*
X1547103Y863510D01*
X1547780Y867786D01*
Y872114D01*
X1547103Y876390D01*
X1545765Y880506D01*
X1543800Y884363D01*
X1541256Y887865D01*
X1538195Y890926D01*
X1534693Y893470D01*
X1530836Y895435D01*
X1526720Y896773D01*
X1522444Y897450D01*
X1518116D01*
X1513840Y896773D01*
X1509724Y895435D01*
X1505867Y893470D01*
X1502365Y890926D01*
X1499304Y887865D01*
X1496760Y884363D01*
X1494795Y880506D01*
X1493457Y876390D01*
X1492780Y872114D01*
Y867786D01*
X1493457Y863510D01*
X1494795Y859394D01*
X1496760Y855537D01*
X1499304Y852035D01*
X1502365Y848974D01*
X1505867Y846430D01*
X1508058Y845313D01*
X1507753Y844043D01*
X1409700D01*
Y993140D01*
X1226322D01*
X1226121Y994410D01*
X1230556Y995851D01*
X1235114Y998174D01*
X1239252Y1001180D01*
X1242870Y1004798D01*
X1245876Y1008936D01*
X1248199Y1013494D01*
X1249780Y1018360D01*
X1250580Y1023412D01*
Y1028528D01*
X1249780Y1033580D01*
X1248199Y1038446D01*
X1245876Y1043004D01*
X1242870Y1047142D01*
X1241867Y1048145D01*
X1242870Y1049148D01*
X1245876Y1053286D01*
X1248199Y1057844D01*
X1249780Y1062710D01*
X1250580Y1067762D01*
Y1072878D01*
X1249780Y1077930D01*
X1248199Y1082796D01*
X1245876Y1087354D01*
X1242870Y1091492D01*
X1241867Y1092495D01*
X1242870Y1093498D01*
X1245876Y1097636D01*
X1248199Y1102194D01*
X1249780Y1107060D01*
X1250580Y1112112D01*
Y1117228D01*
X1249780Y1122280D01*
X1248199Y1127146D01*
X1245876Y1131704D01*
X1242870Y1135842D01*
X1239252Y1139460D01*
X1235114Y1142467D01*
X1230556Y1144789D01*
X1225690Y1146370D01*
X1220638Y1147170D01*
X1215522D01*
X1210470Y1146370D01*
X1205604Y1144789D01*
X1201046Y1142467D01*
X1196908Y1139460D01*
X1195905Y1138457D01*
X1194902Y1139460D01*
X1190764Y1142467D01*
X1186206Y1144789D01*
X1181340Y1146370D01*
X1176288Y1147170D01*
X1171172D01*
X1166515Y1146432D01*
X1166015Y1147639D01*
X1169509Y1150177D01*
X1172848Y1153516D01*
X1175623Y1157337D01*
X1177767Y1161544D01*
X1179226Y1166035D01*
X1179965Y1170699D01*
Y1175421D01*
X1179226Y1180085D01*
X1177767Y1184576D01*
X1175623Y1188783D01*
X1172848Y1192604D01*
X1169509Y1195943D01*
X1165688Y1198718D01*
X1161481Y1200862D01*
X1156990Y1202321D01*
X1152326Y1203060D01*
X1147604D01*
X1142940Y1202321D01*
X1138449Y1200862D01*
X1134241Y1198718D01*
X1130421Y1195943D01*
X1127082Y1192604D01*
X1124307Y1188783D01*
X1122163Y1184576D01*
X1120704Y1180085D01*
X1119965Y1175421D01*
Y1170699D01*
X1120704Y1166035D01*
X1122163Y1161544D01*
X1124307Y1157337D01*
X1127082Y1153516D01*
X1130421Y1150177D01*
X1133028Y1148283D01*
X1132529Y1147076D01*
X1131938Y1147170D01*
X1126822D01*
X1121770Y1146370D01*
X1116904Y1144789D01*
X1112346Y1142467D01*
X1108208Y1139460D01*
X1104590Y1135842D01*
X1101583Y1131704D01*
X1099261Y1127146D01*
X1097680Y1122280D01*
X1096880Y1117228D01*
Y1112112D01*
X1097680Y1107060D01*
X1099261Y1102194D01*
X1101583Y1097636D01*
X1104590Y1093498D01*
X1105593Y1092495D01*
X1104590Y1091492D01*
X1101583Y1087354D01*
X1099261Y1082796D01*
X1097680Y1077930D01*
X1096880Y1072878D01*
Y1067762D01*
X1097680Y1062710D01*
X1099261Y1057844D01*
X1101583Y1053286D01*
X1104590Y1049148D01*
X1105593Y1048145D01*
X1104590Y1047142D01*
X1101583Y1043004D01*
X1099261Y1038446D01*
X1097680Y1033580D01*
X1096880Y1028528D01*
Y1023412D01*
X1097680Y1018360D01*
X1099261Y1013494D01*
X1101583Y1008936D01*
X1104590Y1004798D01*
X1108208Y1001180D01*
X1112346Y998174D01*
X1116904Y995851D01*
X1121339Y994410D01*
X1121138Y993140D01*
X1007521D01*
X1007147Y994410D01*
X1012555Y998560D01*
X1017653Y1003658D01*
X1022042Y1009378D01*
X1025647Y1015622D01*
X1028406Y1022283D01*
X1030272Y1029247D01*
X1031214Y1036395D01*
Y1043605D01*
X1030272Y1050753D01*
X1028406Y1057717D01*
X1025647Y1064378D01*
X1022042Y1070622D01*
X1017653Y1076342D01*
X1012555Y1081440D01*
X1006835Y1085829D01*
X1000592Y1089434D01*
X993931Y1092193D01*
X986966Y1094059D01*
X979818Y1095000D01*
X972609D01*
X965461Y1094059D01*
X958496Y1092193D01*
X951835Y1089434D01*
X945592Y1085829D01*
X939872Y1081440D01*
X934774Y1076342D01*
X930385Y1070622D01*
X926780Y1064378D01*
X924021Y1057717D01*
X922154Y1050753D01*
X921214Y1043605D01*
Y1036395D01*
X922154Y1029247D01*
X924021Y1022283D01*
X926780Y1015622D01*
X930385Y1009378D01*
X934774Y1003658D01*
X939872Y998560D01*
X945280Y994410D01*
X944906Y993140D01*
X778996D01*
X778996Y993140D01*
Y1001661D01*
X802250D01*
X806761Y1002016D01*
X811161Y1003073D01*
X815342Y1004804D01*
X819201Y1007169D01*
X822642Y1010108D01*
X824587Y1012386D01*
X825856Y1012436D01*
X826240Y1012052D01*
X830130Y1009453D01*
X834452Y1007663D01*
X839040Y1006750D01*
X843719D01*
X848307Y1007663D01*
X852629Y1009453D01*
X854080Y1010422D01*
X855530Y1009453D01*
X859852Y1007663D01*
X864440Y1006750D01*
X869119D01*
X873707Y1007663D01*
X878029Y1009453D01*
X881919Y1012052D01*
X885227Y1015360D01*
X887826Y1019250D01*
X889617Y1023572D01*
X890529Y1028161D01*
Y1032839D01*
X889617Y1037428D01*
X887826Y1041750D01*
X885227Y1045640D01*
X881919Y1048948D01*
X878029Y1051547D01*
X873707Y1053337D01*
X869119Y1054250D01*
X864440D01*
X859852Y1053337D01*
X855530Y1051547D01*
X854080Y1050578D01*
X852629Y1051547D01*
X848307Y1053337D01*
X843719Y1054250D01*
X839040D01*
X834452Y1053337D01*
X830130Y1051547D01*
X826240Y1048948D01*
X825856Y1048564D01*
X824587Y1048614D01*
X822642Y1050892D01*
X819201Y1053831D01*
X815342Y1056196D01*
X813123Y1057115D01*
Y1058385D01*
X815342Y1059304D01*
X819201Y1061669D01*
X822642Y1064608D01*
X825581Y1068049D01*
X827945Y1071907D01*
X829677Y1076088D01*
X830733Y1080489D01*
X831088Y1085000D01*
X830733Y1089511D01*
X829677Y1093912D01*
X827945Y1098093D01*
X825581Y1101951D01*
X822642Y1105392D01*
X819201Y1108331D01*
X815342Y1110696D01*
X813123Y1111615D01*
Y1112885D01*
X815342Y1113804D01*
X819201Y1116169D01*
X822642Y1119108D01*
X825581Y1122549D01*
X827945Y1126407D01*
X829677Y1130588D01*
X830733Y1134989D01*
X831088Y1139500D01*
X830733Y1144011D01*
X829677Y1148412D01*
X827945Y1152593D01*
X825581Y1156451D01*
X822642Y1159892D01*
X819201Y1162831D01*
X815342Y1165196D01*
X811161Y1166927D01*
X806761Y1167984D01*
X802250Y1168339D01*
X778996D01*
Y1176661D01*
X802250D01*
X806761Y1177016D01*
X811161Y1178073D01*
X815342Y1179804D01*
X819201Y1182169D01*
X822642Y1185108D01*
X824587Y1187386D01*
X825856Y1187436D01*
X826240Y1187052D01*
X830130Y1184453D01*
X834452Y1182663D01*
X839040Y1181750D01*
X843719D01*
X848307Y1182663D01*
X852629Y1184453D01*
X854080Y1185422D01*
X855530Y1184453D01*
X859852Y1182663D01*
X864440Y1181750D01*
X869119D01*
X873707Y1182663D01*
X878029Y1184453D01*
X881919Y1187052D01*
X885227Y1190360D01*
X887826Y1194250D01*
X889617Y1198572D01*
X890529Y1203161D01*
Y1207839D01*
X889617Y1212428D01*
X887826Y1216750D01*
X885227Y1220640D01*
X881919Y1223948D01*
X878029Y1226547D01*
X873707Y1228337D01*
X869119Y1229250D01*
X864440D01*
X859852Y1228337D01*
X855530Y1226547D01*
X854080Y1225578D01*
X852629Y1226547D01*
X848307Y1228337D01*
X843719Y1229250D01*
X839040D01*
X834452Y1228337D01*
X830130Y1226547D01*
X826240Y1223948D01*
X825856Y1223564D01*
X824587Y1223614D01*
X822642Y1225892D01*
X819201Y1228831D01*
X815342Y1231196D01*
X813123Y1232115D01*
Y1233385D01*
X815342Y1234304D01*
X819201Y1236669D01*
X822642Y1239608D01*
X825581Y1243049D01*
X827945Y1246907D01*
X829677Y1251088D01*
X830733Y1255489D01*
X831088Y1260000D01*
X830733Y1264511D01*
X829677Y1268912D01*
X827945Y1273093D01*
X825581Y1276951D01*
X822642Y1280392D01*
X819201Y1283331D01*
X815342Y1285696D01*
X813123Y1286615D01*
Y1287885D01*
X815342Y1288804D01*
X819201Y1291169D01*
X822642Y1294108D01*
X825581Y1297549D01*
X827945Y1301407D01*
X829677Y1305588D01*
X830733Y1309989D01*
X831088Y1314500D01*
X830733Y1319011D01*
X829677Y1323412D01*
X827945Y1327593D01*
X825581Y1331451D01*
X822642Y1334892D01*
X819201Y1337831D01*
X815342Y1340196D01*
X811161Y1341927D01*
X806761Y1342984D01*
X802250Y1343339D01*
X778996D01*
Y1371661D01*
X802250D01*
X806761Y1372016D01*
X811161Y1373073D01*
X815342Y1374804D01*
X819201Y1377169D01*
X822642Y1380108D01*
X824587Y1382386D01*
X825856Y1382436D01*
X826240Y1382052D01*
X830130Y1379453D01*
X834452Y1377663D01*
X839040Y1376750D01*
X843719D01*
X848307Y1377663D01*
X852629Y1379453D01*
X854080Y1380422D01*
X855530Y1379453D01*
X859852Y1377663D01*
X864440Y1376750D01*
X869119D01*
X873707Y1377663D01*
X878029Y1379453D01*
X881919Y1382052D01*
X885227Y1385360D01*
X887827Y1389250D01*
X889617Y1393572D01*
X890529Y1398161D01*
Y1402839D01*
X889617Y1407428D01*
X887827Y1411750D01*
X885227Y1415640D01*
X881919Y1418948D01*
X878029Y1421547D01*
X873707Y1423337D01*
X869119Y1424250D01*
X864440D01*
X859852Y1423337D01*
X855530Y1421547D01*
X854080Y1420578D01*
X852629Y1421547D01*
X848307Y1423337D01*
X843719Y1424250D01*
X839040D01*
X834452Y1423337D01*
X830130Y1421547D01*
X826240Y1418948D01*
X825856Y1418564D01*
X824587Y1418614D01*
X822642Y1420892D01*
X819201Y1423831D01*
X815342Y1426196D01*
X813123Y1427115D01*
Y1428385D01*
X815342Y1429304D01*
X819201Y1431669D01*
X822642Y1434608D01*
X825581Y1438049D01*
X827945Y1441907D01*
X829677Y1446088D01*
X830733Y1450489D01*
X831088Y1455000D01*
X830733Y1459511D01*
X829677Y1463912D01*
X827945Y1468093D01*
X825581Y1471951D01*
X822642Y1475392D01*
X819201Y1478331D01*
X815342Y1480696D01*
X813123Y1481615D01*
Y1482885D01*
X815342Y1483804D01*
X819201Y1486169D01*
X822642Y1489108D01*
X825581Y1492549D01*
X827945Y1496407D01*
X829677Y1500588D01*
X830733Y1504989D01*
X831088Y1509500D01*
X830733Y1514011D01*
X829677Y1518412D01*
X827945Y1522593D01*
X825581Y1526451D01*
X822642Y1529892D01*
X819201Y1532831D01*
X815342Y1535196D01*
X811161Y1536927D01*
X806761Y1537984D01*
X802250Y1538339D01*
X778996D01*
Y1546661D01*
X802250D01*
X806761Y1547016D01*
X811161Y1548073D01*
X815342Y1549804D01*
X819201Y1552169D01*
X822642Y1555108D01*
X824587Y1557386D01*
X825856Y1557436D01*
X826240Y1557052D01*
X830130Y1554453D01*
X834452Y1552663D01*
X839040Y1551750D01*
X843719D01*
X848307Y1552663D01*
X852629Y1554453D01*
X854080Y1555422D01*
X855530Y1554453D01*
X859852Y1552663D01*
X864440Y1551750D01*
X869119D01*
X873707Y1552663D01*
X878029Y1554453D01*
X881919Y1557052D01*
X885227Y1560360D01*
X887827Y1564250D01*
X889617Y1568572D01*
X890529Y1573161D01*
Y1577839D01*
X889617Y1582428D01*
X887827Y1586750D01*
X885227Y1590640D01*
X881919Y1593948D01*
X878029Y1596547D01*
X873707Y1598337D01*
X869119Y1599250D01*
X864440D01*
X859852Y1598337D01*
X855530Y1596547D01*
X854080Y1595578D01*
X852629Y1596547D01*
X848307Y1598337D01*
X843719Y1599250D01*
X839040D01*
X834452Y1598337D01*
X830130Y1596547D01*
X826240Y1593948D01*
X825856Y1593564D01*
X824587Y1593614D01*
X822642Y1595892D01*
X819201Y1598831D01*
X815342Y1601196D01*
X813123Y1602115D01*
Y1603385D01*
X815342Y1604304D01*
X819201Y1606669D01*
X822642Y1609608D01*
X825581Y1613049D01*
X827945Y1616907D01*
X829677Y1621088D01*
X830733Y1625489D01*
X831088Y1630000D01*
X830733Y1634511D01*
X829677Y1638912D01*
X827945Y1643093D01*
X825581Y1646951D01*
X822642Y1650392D01*
X819201Y1653331D01*
X815342Y1655696D01*
X813123Y1656615D01*
Y1657885D01*
X815342Y1658804D01*
X819201Y1661169D01*
X822642Y1664108D01*
X825581Y1667549D01*
X827945Y1671407D01*
X829677Y1675588D01*
X830733Y1679989D01*
X831088Y1684500D01*
X830733Y1689011D01*
X829677Y1693412D01*
X827945Y1697593D01*
X825581Y1701451D01*
X822642Y1704892D01*
X819201Y1707831D01*
X815342Y1710196D01*
X811161Y1711927D01*
X806761Y1712984D01*
X802250Y1713339D01*
X778996D01*
Y1714914D01*
X936686D01*
X937172Y1713741D01*
X934774Y1711342D01*
X930385Y1705622D01*
X926780Y1699378D01*
X924021Y1692717D01*
X922154Y1685753D01*
X921214Y1678605D01*
Y1671395D01*
X922154Y1664247D01*
X924021Y1657283D01*
X926780Y1650622D01*
X930385Y1644378D01*
X934774Y1638658D01*
X939872Y1633560D01*
X945592Y1629171D01*
X951835Y1625566D01*
X958496Y1622807D01*
X965461Y1620941D01*
X972609Y1620000D01*
X979818D01*
X986966Y1620941D01*
X993931Y1622807D01*
X1000592Y1625566D01*
X1006835Y1629171D01*
X1012555Y1633560D01*
X1017653Y1638658D01*
X1022042Y1644378D01*
X1025647Y1650622D01*
X1028406Y1657283D01*
X1030272Y1664247D01*
X1031214Y1671395D01*
Y1678605D01*
X1030272Y1685753D01*
X1028406Y1692717D01*
X1025647Y1699378D01*
X1022042Y1705622D01*
X1017653Y1711342D01*
X1015255Y1713741D01*
X1015741Y1714914D01*
X1478281D01*
X1478767Y1713741D01*
X1476368Y1711342D01*
X1471979Y1705622D01*
X1468374Y1699378D01*
X1465615Y1692717D01*
X1463749Y1685753D01*
X1462808Y1678605D01*
Y1671395D01*
X1463749Y1664247D01*
X1465615Y1657283D01*
X1468374Y1650622D01*
X1471979Y1644378D01*
X1476368Y1638658D01*
X1481467Y1633560D01*
X1487186Y1629171D01*
X1493430Y1625566D01*
X1500091Y1622807D01*
X1507055Y1620941D01*
X1514203Y1620000D01*
X1521413D01*
X1528561Y1620941D01*
X1535525Y1622807D01*
X1542186Y1625566D01*
X1548430Y1629171D01*
X1554150Y1633560D01*
X1559248Y1638658D01*
X1563637Y1644378D01*
X1567242Y1650622D01*
X1570001Y1657283D01*
X1571867Y1664247D01*
X1572808Y1671395D01*
Y1678605D01*
X1571867Y1685753D01*
X1570001Y1692717D01*
X1567242Y1699378D01*
X1563637Y1705622D01*
X1559248Y1711342D01*
X1556850Y1713741D01*
X1557336Y1714914D01*
X1724324D01*
Y1700869D01*
D02*
G37*
G36*
X1227013Y803993D02*
Y803250D01*
X1225980Y801221D01*
X1224642Y797105D01*
X1223965Y792830D01*
Y788501D01*
X1224642Y784226D01*
X1225980Y780109D01*
X1227013Y778081D01*
X1227013Y727050D01*
X1225980Y725022D01*
X1224642Y720905D01*
X1223965Y716629D01*
Y712301D01*
X1224642Y708026D01*
X1225980Y703909D01*
X1227013Y701881D01*
X1227013Y593283D01*
X1158166Y524436D01*
X510086D01*
X510086Y726840D01*
X671440D01*
Y726800D01*
X716440D01*
Y726800D01*
X717710Y726800D01*
X721556D01*
X721757Y726840D01*
X866540D01*
X1052830Y913130D01*
X1227013Y913130D01*
X1227013Y803993D01*
D02*
G37*
G36*
X1941476Y724170D02*
X1868513D01*
X1868235Y725026D01*
X1866270Y728883D01*
X1863726Y732385D01*
X1860665Y735446D01*
X1857163Y737990D01*
X1853306Y739955D01*
X1849190Y741293D01*
X1844914Y741970D01*
X1840586D01*
X1836310Y741293D01*
X1832194Y739955D01*
X1828337Y737990D01*
X1824835Y735446D01*
X1821774Y732385D01*
X1819230Y728883D01*
X1817265Y725026D01*
X1816987Y724170D01*
X1764030D01*
Y843280D01*
X1882695D01*
X1883213Y841572D01*
X1885627Y837055D01*
X1888876Y833096D01*
X1892835Y829847D01*
X1897352Y827433D01*
X1902253Y825946D01*
X1907350Y825444D01*
X1915350D01*
X1920447Y825946D01*
X1925348Y827433D01*
X1929865Y829847D01*
X1933824Y833096D01*
X1937073Y837055D01*
X1939487Y841572D01*
X1940005Y843280D01*
X1941476D01*
Y724170D01*
D02*
G37*
G36*
Y859860D02*
X1940005D01*
X1939487Y861568D01*
X1937073Y866085D01*
X1933824Y870044D01*
X1929865Y873293D01*
X1925348Y875707D01*
X1920447Y877194D01*
X1915350Y877696D01*
X1907350D01*
X1902253Y877194D01*
X1897352Y875707D01*
X1892835Y873293D01*
X1888876Y870044D01*
X1885627Y866085D01*
X1883213Y861568D01*
X1882695Y859860D01*
X1764030D01*
Y978970D01*
X1817849D01*
X1818627Y977700D01*
X1817265Y975026D01*
X1815927Y970910D01*
X1815250Y966634D01*
Y962306D01*
X1815927Y958030D01*
X1817265Y953914D01*
X1819230Y950057D01*
X1821774Y946555D01*
X1824835Y943494D01*
X1828337Y940950D01*
X1832194Y938985D01*
X1836310Y937647D01*
X1840586Y936970D01*
X1844914D01*
X1849190Y937647D01*
X1853306Y938985D01*
X1857163Y940950D01*
X1860665Y943494D01*
X1863726Y946555D01*
X1866270Y950057D01*
X1868235Y953914D01*
X1869573Y958030D01*
X1870250Y962306D01*
Y966634D01*
X1869573Y970910D01*
X1868235Y975026D01*
X1866873Y977700D01*
X1867651Y978970D01*
X1941476D01*
Y859860D01*
D02*
G37*
%LPC*%
G36*
X1660106Y1695790D02*
X1657134D01*
X1654262Y1695020D01*
X1651688Y1693534D01*
X1649586Y1691432D01*
X1648099Y1688858D01*
X1647330Y1685986D01*
Y1683014D01*
X1648099Y1680142D01*
X1649586Y1677568D01*
X1651688Y1675466D01*
X1654262Y1673979D01*
X1657134Y1673210D01*
X1660106D01*
X1662978Y1673979D01*
X1665552Y1675466D01*
X1667654Y1677568D01*
X1669141Y1680142D01*
X1669910Y1683014D01*
Y1685986D01*
X1669141Y1688858D01*
X1667654Y1691432D01*
X1665552Y1693534D01*
X1662978Y1695020D01*
X1660106Y1695790D01*
D02*
G37*
G36*
X1052976Y1620160D02*
X1048544D01*
X1044197Y1619295D01*
X1040102Y1617599D01*
X1036417Y1615137D01*
X1033283Y1612003D01*
X1030821Y1608318D01*
X1029125Y1604223D01*
X1028260Y1599876D01*
Y1595444D01*
X1029125Y1591097D01*
X1030821Y1587002D01*
X1033283Y1583317D01*
X1036417Y1580183D01*
X1040102Y1577721D01*
X1044197Y1576025D01*
X1048544Y1575160D01*
X1052976D01*
X1057323Y1576025D01*
X1061418Y1577721D01*
X1065103Y1580183D01*
X1068237Y1583317D01*
X1070699Y1587002D01*
X1072395Y1591097D01*
X1073260Y1595444D01*
Y1599876D01*
X1072395Y1604223D01*
X1070699Y1608318D01*
X1068237Y1612003D01*
X1065103Y1615137D01*
X1061418Y1617599D01*
X1057323Y1619295D01*
X1052976Y1620160D01*
D02*
G37*
G36*
X1002976D02*
X998544D01*
X994197Y1619295D01*
X990102Y1617599D01*
X986417Y1615137D01*
X983283Y1612003D01*
X980821Y1608318D01*
X979125Y1604223D01*
X978260Y1599876D01*
Y1595444D01*
X979125Y1591097D01*
X980821Y1587002D01*
X983283Y1583317D01*
X986417Y1580183D01*
X990102Y1577721D01*
X994197Y1576025D01*
X998544Y1575160D01*
X1002976D01*
X1007323Y1576025D01*
X1011418Y1577721D01*
X1015103Y1580183D01*
X1018237Y1583317D01*
X1020699Y1587002D01*
X1022395Y1591097D01*
X1023260Y1595444D01*
Y1599876D01*
X1022395Y1604223D01*
X1020699Y1608318D01*
X1018237Y1612003D01*
X1015103Y1615137D01*
X1011418Y1617599D01*
X1007323Y1619295D01*
X1002976Y1620160D01*
D02*
G37*
G36*
X1564598Y1540500D02*
X1559718D01*
X1554899Y1539737D01*
X1550258Y1538229D01*
X1545911Y1536014D01*
X1541963Y1533145D01*
X1539983Y1531166D01*
X1538003Y1533145D01*
X1534056Y1536014D01*
X1529708Y1538229D01*
X1525067Y1539737D01*
X1520248Y1540500D01*
X1515368D01*
X1510549Y1539737D01*
X1505908Y1538229D01*
X1501561Y1536014D01*
X1497613Y1533145D01*
X1495633Y1531166D01*
X1493653Y1533145D01*
X1489706Y1536014D01*
X1485358Y1538229D01*
X1480717Y1539737D01*
X1475898Y1540500D01*
X1471019D01*
X1466199Y1539737D01*
X1461558Y1538229D01*
X1457211Y1536014D01*
X1453263Y1533145D01*
X1449813Y1529695D01*
X1446945Y1525748D01*
X1444729Y1521400D01*
X1443222Y1516759D01*
X1442458Y1511940D01*
Y1507060D01*
X1443222Y1502241D01*
X1444729Y1497600D01*
X1446945Y1493253D01*
X1449813Y1489305D01*
X1451793Y1487325D01*
X1449813Y1485345D01*
X1446945Y1481398D01*
X1444729Y1477050D01*
X1443222Y1472409D01*
X1442458Y1467590D01*
Y1462710D01*
X1443222Y1457891D01*
X1444729Y1453250D01*
X1446945Y1448902D01*
X1449813Y1444955D01*
X1451793Y1442975D01*
X1449813Y1440995D01*
X1446945Y1437047D01*
X1444729Y1432700D01*
X1443222Y1428059D01*
X1442458Y1423240D01*
Y1418360D01*
X1443222Y1413541D01*
X1444729Y1408900D01*
X1446945Y1404552D01*
X1449813Y1400605D01*
X1453263Y1397155D01*
X1457211Y1394286D01*
X1461558Y1392071D01*
X1466199Y1390563D01*
X1471019Y1389800D01*
X1475898D01*
X1480717Y1390563D01*
X1485358Y1392071D01*
X1489706Y1394286D01*
X1493653Y1397155D01*
X1495633Y1399134D01*
X1497613Y1397155D01*
X1501561Y1394286D01*
X1505908Y1392071D01*
X1510549Y1390563D01*
X1515368Y1389800D01*
X1520248D01*
X1525067Y1390563D01*
X1529708Y1392071D01*
X1534056Y1394286D01*
X1538003Y1397155D01*
X1539983Y1399134D01*
X1541963Y1397155D01*
X1545911Y1394286D01*
X1550258Y1392071D01*
X1554899Y1390563D01*
X1559718Y1389800D01*
X1564598D01*
X1569418Y1390563D01*
X1574058Y1392071D01*
X1578406Y1394286D01*
X1582353Y1397155D01*
X1585804Y1400605D01*
X1588672Y1404552D01*
X1590887Y1408900D01*
X1592395Y1413541D01*
X1593158Y1418360D01*
Y1423240D01*
X1592395Y1428059D01*
X1590887Y1432700D01*
X1588672Y1437047D01*
X1585804Y1440995D01*
X1583824Y1442975D01*
X1585804Y1444955D01*
X1588672Y1448902D01*
X1590887Y1453250D01*
X1592395Y1457891D01*
X1593158Y1462710D01*
Y1467590D01*
X1592395Y1472409D01*
X1590887Y1477050D01*
X1588672Y1481398D01*
X1585804Y1485345D01*
X1583824Y1487325D01*
X1585804Y1489305D01*
X1588672Y1493253D01*
X1590887Y1497600D01*
X1592395Y1502241D01*
X1593158Y1507060D01*
Y1511940D01*
X1592395Y1516759D01*
X1590887Y1521400D01*
X1588672Y1525748D01*
X1585804Y1529695D01*
X1582353Y1533145D01*
X1578406Y1536014D01*
X1574058Y1538229D01*
X1569418Y1539737D01*
X1564598Y1540500D01*
D02*
G37*
G36*
X1052976Y1549040D02*
X1048544D01*
X1044197Y1548175D01*
X1040102Y1546479D01*
X1036417Y1544017D01*
X1033283Y1540883D01*
X1030821Y1537198D01*
X1029125Y1533103D01*
X1028260Y1528756D01*
Y1524324D01*
X1029125Y1519977D01*
X1030821Y1515882D01*
X1033283Y1512197D01*
X1036417Y1509063D01*
X1040102Y1506601D01*
X1044197Y1504905D01*
X1048544Y1504040D01*
X1052976D01*
X1057323Y1504905D01*
X1061418Y1506601D01*
X1065103Y1509063D01*
X1068237Y1512197D01*
X1070699Y1515882D01*
X1072395Y1519977D01*
X1073260Y1524324D01*
Y1528756D01*
X1072395Y1533103D01*
X1070699Y1537198D01*
X1068237Y1540883D01*
X1065103Y1544017D01*
X1061418Y1546479D01*
X1057323Y1548175D01*
X1052976Y1549040D01*
D02*
G37*
G36*
X1002976D02*
X998544D01*
X994197Y1548175D01*
X990102Y1546479D01*
X986417Y1544017D01*
X983283Y1540883D01*
X980821Y1537198D01*
X979125Y1533103D01*
X978260Y1528756D01*
Y1524324D01*
X979125Y1519977D01*
X980821Y1515882D01*
X983283Y1512197D01*
X986417Y1509063D01*
X990102Y1506601D01*
X994197Y1504905D01*
X998544Y1504040D01*
X1002976D01*
X1007323Y1504905D01*
X1011418Y1506601D01*
X1015103Y1509063D01*
X1018237Y1512197D01*
X1020699Y1515882D01*
X1022395Y1519977D01*
X1023260Y1524324D01*
Y1528756D01*
X1022395Y1533103D01*
X1020699Y1537198D01*
X1018237Y1540883D01*
X1015103Y1544017D01*
X1011418Y1546479D01*
X1007323Y1548175D01*
X1002976Y1549040D01*
D02*
G37*
G36*
X1660106Y1520790D02*
X1657134D01*
X1654262Y1520021D01*
X1651688Y1518534D01*
X1649586Y1516432D01*
X1648099Y1513858D01*
X1647330Y1510986D01*
Y1508014D01*
X1648099Y1505142D01*
X1649586Y1502568D01*
X1651688Y1500466D01*
X1654262Y1498979D01*
X1657134Y1498210D01*
X1660106D01*
X1662978Y1498979D01*
X1665552Y1500466D01*
X1667654Y1502568D01*
X1669141Y1505142D01*
X1669910Y1508014D01*
Y1510986D01*
X1669141Y1513858D01*
X1667654Y1516432D01*
X1665552Y1518534D01*
X1662978Y1520021D01*
X1660106Y1520790D01*
D02*
G37*
G36*
X1564598Y1325200D02*
X1559718D01*
X1554899Y1324437D01*
X1550258Y1322929D01*
X1545911Y1320714D01*
X1541963Y1317845D01*
X1539983Y1315866D01*
X1538003Y1317845D01*
X1534056Y1320714D01*
X1529708Y1322929D01*
X1525067Y1324437D01*
X1520248Y1325200D01*
X1515368D01*
X1510549Y1324437D01*
X1505908Y1322929D01*
X1501561Y1320714D01*
X1497613Y1317845D01*
X1495633Y1315866D01*
X1493653Y1317845D01*
X1489706Y1320714D01*
X1485358Y1322929D01*
X1480717Y1324437D01*
X1475898Y1325200D01*
X1471019D01*
X1466199Y1324437D01*
X1461558Y1322929D01*
X1457211Y1320714D01*
X1453263Y1317845D01*
X1449813Y1314395D01*
X1446945Y1310448D01*
X1444729Y1306100D01*
X1443222Y1301459D01*
X1442458Y1296640D01*
Y1291760D01*
X1443222Y1286941D01*
X1444729Y1282300D01*
X1446945Y1277952D01*
X1449813Y1274005D01*
X1451793Y1272025D01*
X1449813Y1270045D01*
X1446945Y1266097D01*
X1444729Y1261750D01*
X1443222Y1257109D01*
X1442458Y1252290D01*
Y1247410D01*
X1443222Y1242591D01*
X1444729Y1237950D01*
X1446945Y1233603D01*
X1449813Y1229655D01*
X1451793Y1227675D01*
X1449813Y1225695D01*
X1446945Y1221748D01*
X1444729Y1217400D01*
X1443222Y1212759D01*
X1442458Y1207940D01*
Y1203060D01*
X1443222Y1198241D01*
X1444729Y1193600D01*
X1446945Y1189252D01*
X1449813Y1185305D01*
X1453263Y1181854D01*
X1457211Y1178986D01*
X1461558Y1176771D01*
X1466199Y1175263D01*
X1471019Y1174500D01*
X1475898D01*
X1480717Y1175263D01*
X1485358Y1176771D01*
X1489706Y1178986D01*
X1493653Y1181854D01*
X1495633Y1183834D01*
X1497613Y1181854D01*
X1501561Y1178986D01*
X1505908Y1176771D01*
X1510549Y1175263D01*
X1515368Y1174500D01*
X1520248D01*
X1525067Y1175263D01*
X1529708Y1176771D01*
X1534056Y1178986D01*
X1538003Y1181854D01*
X1539983Y1183834D01*
X1541963Y1181854D01*
X1545911Y1178986D01*
X1550258Y1176771D01*
X1554899Y1175263D01*
X1559718Y1174500D01*
X1564598D01*
X1569418Y1175263D01*
X1574058Y1176771D01*
X1578406Y1178986D01*
X1582353Y1181854D01*
X1585804Y1185305D01*
X1588672Y1189252D01*
X1590887Y1193600D01*
X1592395Y1198241D01*
X1593158Y1203060D01*
Y1207940D01*
X1592395Y1212759D01*
X1590887Y1217400D01*
X1588672Y1221748D01*
X1585804Y1225695D01*
X1583824Y1227675D01*
X1585804Y1229655D01*
X1588672Y1233603D01*
X1590887Y1237950D01*
X1592395Y1242591D01*
X1593158Y1247410D01*
Y1252290D01*
X1592395Y1257109D01*
X1590887Y1261750D01*
X1588672Y1266097D01*
X1585804Y1270045D01*
X1583824Y1272025D01*
X1585804Y1274005D01*
X1588672Y1277952D01*
X1590887Y1282300D01*
X1592395Y1286941D01*
X1593158Y1291760D01*
Y1296640D01*
X1592395Y1301459D01*
X1590887Y1306100D01*
X1588672Y1310448D01*
X1585804Y1314395D01*
X1582353Y1317845D01*
X1578406Y1320714D01*
X1574058Y1322929D01*
X1569418Y1324437D01*
X1564598Y1325200D01*
D02*
G37*
G36*
X990395Y1414070D02*
X983185D01*
X976037Y1413129D01*
X969073Y1411263D01*
X962412Y1408504D01*
X956168Y1404899D01*
X950448Y1400510D01*
X945350Y1395412D01*
X940961Y1389692D01*
X937356Y1383448D01*
X934597Y1376787D01*
X932731Y1369823D01*
X931790Y1362675D01*
Y1355465D01*
X932731Y1348317D01*
X934597Y1341353D01*
X937356Y1334692D01*
X940961Y1328448D01*
X945350Y1322728D01*
X950448Y1317630D01*
X956168Y1313241D01*
X962412Y1309636D01*
X969073Y1306877D01*
X976037Y1305011D01*
X983185Y1304070D01*
X990395D01*
X997543Y1305011D01*
X1004507Y1306877D01*
X1011168Y1309636D01*
X1017412Y1313241D01*
X1023132Y1317630D01*
X1028230Y1322728D01*
X1032619Y1328448D01*
X1036224Y1334692D01*
X1038983Y1341353D01*
X1040849Y1348317D01*
X1041790Y1355465D01*
Y1362675D01*
X1040849Y1369823D01*
X1038983Y1376787D01*
X1036224Y1383448D01*
X1032619Y1389692D01*
X1028230Y1395412D01*
X1023132Y1400510D01*
X1017412Y1404899D01*
X1011168Y1408504D01*
X1004507Y1411263D01*
X997543Y1413129D01*
X990395Y1414070D01*
D02*
G37*
G36*
X1660106Y1325790D02*
X1657134D01*
X1654262Y1325021D01*
X1651688Y1323534D01*
X1649586Y1321432D01*
X1648099Y1318858D01*
X1647330Y1315986D01*
Y1313014D01*
X1648099Y1310142D01*
X1649586Y1307568D01*
X1651688Y1305466D01*
X1654262Y1303979D01*
X1657134Y1303210D01*
X1660106D01*
X1662978Y1303979D01*
X1665552Y1305466D01*
X1667654Y1307568D01*
X1669141Y1310142D01*
X1669910Y1313014D01*
Y1315986D01*
X1669141Y1318858D01*
X1667654Y1321432D01*
X1665552Y1323534D01*
X1662978Y1325021D01*
X1660106Y1325790D01*
D02*
G37*
G36*
X1052976Y1273450D02*
X1048544D01*
X1044197Y1272585D01*
X1040102Y1270889D01*
X1036417Y1268427D01*
X1033283Y1265293D01*
X1030821Y1261608D01*
X1029125Y1257513D01*
X1028260Y1253166D01*
Y1248734D01*
X1029125Y1244387D01*
X1030821Y1240292D01*
X1033283Y1236607D01*
X1036417Y1233473D01*
X1040102Y1231011D01*
X1044197Y1229315D01*
X1048544Y1228450D01*
X1052976D01*
X1057323Y1229315D01*
X1061418Y1231011D01*
X1065103Y1233473D01*
X1068237Y1236607D01*
X1070699Y1240292D01*
X1072395Y1244387D01*
X1073260Y1248734D01*
Y1253166D01*
X1072395Y1257513D01*
X1070699Y1261608D01*
X1068237Y1265293D01*
X1065103Y1268427D01*
X1061418Y1270889D01*
X1057323Y1272585D01*
X1052976Y1273450D01*
D02*
G37*
G36*
X1002976D02*
X998544D01*
X994197Y1272585D01*
X990102Y1270889D01*
X986417Y1268427D01*
X983283Y1265293D01*
X980821Y1261608D01*
X979125Y1257513D01*
X978260Y1253166D01*
Y1248734D01*
X979125Y1244387D01*
X980821Y1240292D01*
X983283Y1236607D01*
X986417Y1233473D01*
X990102Y1231011D01*
X994197Y1229315D01*
X998544Y1228450D01*
X1002976D01*
X1007323Y1229315D01*
X1011418Y1231011D01*
X1015103Y1233473D01*
X1018237Y1236607D01*
X1020699Y1240292D01*
X1022395Y1244387D01*
X1023260Y1248734D01*
Y1253166D01*
X1022395Y1257513D01*
X1020699Y1261608D01*
X1018237Y1265293D01*
X1015103Y1268427D01*
X1011418Y1270889D01*
X1007323Y1272585D01*
X1002976Y1273450D01*
D02*
G37*
G36*
X1249372Y1278060D02*
X1244650D01*
X1239986Y1277321D01*
X1235495Y1275862D01*
X1231288Y1273718D01*
X1227467Y1270943D01*
X1224128Y1267604D01*
X1221353Y1263783D01*
X1219209Y1259576D01*
X1217750Y1255085D01*
X1217011Y1250421D01*
Y1245699D01*
X1217750Y1241035D01*
X1219209Y1236544D01*
X1221353Y1232337D01*
X1224128Y1228516D01*
X1227467Y1225177D01*
X1231288Y1222402D01*
X1235495Y1220258D01*
X1239986Y1218799D01*
X1244650Y1218060D01*
X1249372D01*
X1254036Y1218799D01*
X1258527Y1220258D01*
X1262734Y1222402D01*
X1266555Y1225177D01*
X1269894Y1228516D01*
X1272669Y1232337D01*
X1274813Y1236544D01*
X1276272Y1241035D01*
X1277011Y1245699D01*
Y1250421D01*
X1276272Y1255085D01*
X1274813Y1259576D01*
X1272669Y1263783D01*
X1269894Y1267604D01*
X1266555Y1270943D01*
X1262734Y1273718D01*
X1258527Y1275862D01*
X1254036Y1277321D01*
X1249372Y1278060D01*
D02*
G37*
G36*
X1052976Y1202330D02*
X1048544D01*
X1044197Y1201465D01*
X1040102Y1199769D01*
X1036417Y1197307D01*
X1033283Y1194173D01*
X1030821Y1190488D01*
X1029125Y1186393D01*
X1028260Y1182046D01*
Y1177614D01*
X1029125Y1173267D01*
X1030821Y1169172D01*
X1033283Y1165487D01*
X1036417Y1162353D01*
X1040102Y1159891D01*
X1044197Y1158195D01*
X1048544Y1157330D01*
X1052976D01*
X1057323Y1158195D01*
X1061418Y1159891D01*
X1065103Y1162353D01*
X1068237Y1165487D01*
X1070699Y1169172D01*
X1072395Y1173267D01*
X1073260Y1177614D01*
Y1182046D01*
X1072395Y1186393D01*
X1070699Y1190488D01*
X1068237Y1194173D01*
X1065103Y1197307D01*
X1061418Y1199769D01*
X1057323Y1201465D01*
X1052976Y1202330D01*
D02*
G37*
G36*
X1002976D02*
X998544D01*
X994197Y1201465D01*
X990102Y1199769D01*
X986417Y1197307D01*
X983283Y1194173D01*
X980821Y1190488D01*
X979125Y1186393D01*
X978260Y1182046D01*
Y1177614D01*
X979125Y1173267D01*
X980821Y1169172D01*
X983283Y1165487D01*
X986417Y1162353D01*
X990102Y1159891D01*
X994197Y1158195D01*
X998544Y1157330D01*
X1002976D01*
X1007323Y1158195D01*
X1011418Y1159891D01*
X1015103Y1162353D01*
X1018237Y1165487D01*
X1020699Y1169172D01*
X1022395Y1173267D01*
X1023260Y1177614D01*
Y1182046D01*
X1022395Y1186393D01*
X1020699Y1190488D01*
X1018237Y1194173D01*
X1015103Y1197307D01*
X1011418Y1199769D01*
X1007323Y1201465D01*
X1002976Y1202330D01*
D02*
G37*
G36*
X1355326Y1203060D02*
X1350604D01*
X1345940Y1202321D01*
X1341449Y1200862D01*
X1337242Y1198718D01*
X1333421Y1195943D01*
X1330082Y1192604D01*
X1327307Y1188783D01*
X1325163Y1184576D01*
X1323704Y1180085D01*
X1322965Y1175421D01*
Y1170699D01*
X1323704Y1166035D01*
X1325163Y1161544D01*
X1327307Y1157337D01*
X1330082Y1153516D01*
X1333421Y1150177D01*
X1337242Y1147402D01*
X1341449Y1145258D01*
X1345940Y1143799D01*
X1350604Y1143060D01*
X1355326D01*
X1359990Y1143799D01*
X1364481Y1145258D01*
X1368688Y1147402D01*
X1372509Y1150177D01*
X1375848Y1153516D01*
X1378623Y1157337D01*
X1380767Y1161544D01*
X1382226Y1166035D01*
X1382965Y1170699D01*
Y1175421D01*
X1382226Y1180085D01*
X1380767Y1184576D01*
X1378623Y1188783D01*
X1375848Y1192604D01*
X1372509Y1195943D01*
X1368688Y1198718D01*
X1364481Y1200862D01*
X1359990Y1202321D01*
X1355326Y1203060D01*
D02*
G37*
G36*
X1660106Y1150790D02*
X1657134D01*
X1654262Y1150021D01*
X1651688Y1148534D01*
X1649586Y1146432D01*
X1648099Y1143858D01*
X1647330Y1140986D01*
Y1138014D01*
X1648099Y1135142D01*
X1649586Y1132568D01*
X1651688Y1130466D01*
X1654262Y1128979D01*
X1657134Y1128210D01*
X1660106D01*
X1662978Y1128979D01*
X1665552Y1130466D01*
X1667654Y1132568D01*
X1669141Y1135142D01*
X1669910Y1138014D01*
Y1140986D01*
X1669141Y1143858D01*
X1667654Y1146432D01*
X1665552Y1148534D01*
X1662978Y1150021D01*
X1660106Y1150790D01*
D02*
G37*
G36*
X1521413Y1095000D02*
X1514203D01*
X1507055Y1094059D01*
X1500091Y1092193D01*
X1493430Y1089434D01*
X1487186Y1085829D01*
X1481467Y1081440D01*
X1476368Y1076342D01*
X1471979Y1070622D01*
X1468374Y1064378D01*
X1465615Y1057717D01*
X1463749Y1050753D01*
X1462808Y1043605D01*
Y1036395D01*
X1463749Y1029247D01*
X1465615Y1022283D01*
X1468374Y1015622D01*
X1471979Y1009378D01*
X1476368Y1003658D01*
X1481467Y998560D01*
X1487186Y994171D01*
X1493430Y990566D01*
X1500091Y987807D01*
X1507055Y985941D01*
X1514203Y985000D01*
X1521413D01*
X1528561Y985941D01*
X1535525Y987807D01*
X1542186Y990566D01*
X1548430Y994171D01*
X1554150Y998560D01*
X1559248Y1003658D01*
X1563637Y1009378D01*
X1567242Y1015622D01*
X1570001Y1022283D01*
X1571867Y1029247D01*
X1572808Y1036395D01*
Y1043605D01*
X1571867Y1050753D01*
X1570001Y1057717D01*
X1567242Y1064378D01*
X1563637Y1070622D01*
X1559248Y1076342D01*
X1554150Y1081440D01*
X1548430Y1085829D01*
X1542186Y1089434D01*
X1535525Y1092193D01*
X1528561Y1094059D01*
X1521413Y1095000D01*
D02*
G37*
G36*
X1522444Y973650D02*
X1518116D01*
X1513840Y972973D01*
X1509724Y971635D01*
X1505867Y969670D01*
X1502365Y967126D01*
X1499304Y964065D01*
X1496760Y960563D01*
X1494795Y956706D01*
X1493457Y952590D01*
X1492780Y948314D01*
Y943986D01*
X1493457Y939710D01*
X1494795Y935594D01*
X1496760Y931737D01*
X1499304Y928235D01*
X1502365Y925174D01*
X1505867Y922630D01*
X1509724Y920665D01*
X1513840Y919327D01*
X1518116Y918650D01*
X1522444D01*
X1526720Y919327D01*
X1530836Y920665D01*
X1534693Y922630D01*
X1538195Y925174D01*
X1541256Y928235D01*
X1543800Y931737D01*
X1545765Y935594D01*
X1547103Y939710D01*
X1547780Y943986D01*
Y948314D01*
X1547103Y952590D01*
X1545765Y956706D01*
X1543800Y960563D01*
X1541256Y964065D01*
X1538195Y967126D01*
X1534693Y969670D01*
X1530836Y971635D01*
X1526720Y972973D01*
X1522444Y973650D01*
D02*
G37*
G36*
X1049946Y805705D02*
X1046984D01*
X1044078Y805127D01*
X1041341Y803993D01*
X1038877Y802347D01*
X1036783Y800253D01*
X1035137Y797789D01*
X1034003Y795052D01*
X1033425Y792147D01*
Y789184D01*
X1034003Y786278D01*
X1035137Y783541D01*
X1036783Y781078D01*
X1038877Y778983D01*
X1041341Y777337D01*
X1044078Y776203D01*
X1046984Y775625D01*
X1049946D01*
X1052852Y776203D01*
X1055589Y777337D01*
X1058052Y778983D01*
X1060147Y781078D01*
X1061793Y783541D01*
X1062927Y786278D01*
X1063505Y789184D01*
Y792147D01*
X1062927Y795052D01*
X1061793Y797789D01*
X1060147Y800253D01*
X1058052Y802347D01*
X1055589Y803993D01*
X1052852Y805127D01*
X1049946Y805705D01*
D02*
G37*
G36*
X1101429Y818165D02*
X1097101D01*
X1092825Y817488D01*
X1088709Y816150D01*
X1084852Y814185D01*
X1081350Y811641D01*
X1078289Y808580D01*
X1075745Y805078D01*
X1073780Y801221D01*
X1072442Y797105D01*
X1071765Y792830D01*
Y788501D01*
X1072442Y784226D01*
X1073780Y780109D01*
X1075745Y776252D01*
X1078289Y772750D01*
X1081350Y769689D01*
X1084852Y767145D01*
X1088709Y765180D01*
X1092825Y763842D01*
X1097101Y763165D01*
X1101429D01*
X1105704Y763842D01*
X1109821Y765180D01*
X1113678Y767145D01*
X1117180Y769689D01*
X1120241Y772750D01*
X1122785Y776252D01*
X1124750Y780109D01*
X1126088Y784226D01*
X1126765Y788501D01*
Y792830D01*
X1126088Y797105D01*
X1124750Y801221D01*
X1122785Y805078D01*
X1120241Y808580D01*
X1117180Y811641D01*
X1113678Y814185D01*
X1109821Y816150D01*
X1105704Y817488D01*
X1101429Y818165D01*
D02*
G37*
G36*
X999829D02*
X995501D01*
X991225Y817488D01*
X987109Y816150D01*
X983252Y814185D01*
X979750Y811641D01*
X976689Y808580D01*
X974145Y805078D01*
X972180Y801221D01*
X970842Y797105D01*
X970165Y792830D01*
Y788501D01*
X970842Y784226D01*
X972180Y780109D01*
X974145Y776252D01*
X976689Y772750D01*
X979750Y769689D01*
X983252Y767145D01*
X987109Y765180D01*
X991225Y763842D01*
X995501Y763165D01*
X999829D01*
X1004105Y763842D01*
X1008221Y765180D01*
X1012078Y767145D01*
X1015580Y769689D01*
X1018641Y772750D01*
X1021185Y776252D01*
X1023150Y780109D01*
X1024488Y784226D01*
X1025165Y788501D01*
Y792830D01*
X1024488Y797105D01*
X1023150Y801221D01*
X1021185Y805078D01*
X1018641Y808580D01*
X1015580Y811641D01*
X1012078Y814185D01*
X1008221Y816150D01*
X1004105Y817488D01*
X999829Y818165D01*
D02*
G37*
G36*
X1049946Y729505D02*
X1046984D01*
X1044078Y728927D01*
X1041341Y727793D01*
X1038877Y726148D01*
X1036783Y724053D01*
X1035137Y721589D01*
X1034003Y718852D01*
X1033425Y715947D01*
Y712984D01*
X1034003Y710078D01*
X1035137Y707341D01*
X1036783Y704878D01*
X1038877Y702783D01*
X1041341Y701137D01*
X1044078Y700003D01*
X1046984Y699425D01*
X1049946D01*
X1052852Y700003D01*
X1055589Y701137D01*
X1058052Y702783D01*
X1060147Y704878D01*
X1061793Y707341D01*
X1062927Y710078D01*
X1063505Y712984D01*
Y715947D01*
X1062927Y718852D01*
X1061793Y721589D01*
X1060147Y724053D01*
X1058052Y726148D01*
X1055589Y727793D01*
X1052852Y728927D01*
X1049946Y729505D01*
D02*
G37*
G36*
X1101429Y741965D02*
X1097101D01*
X1092825Y741288D01*
X1088709Y739950D01*
X1084852Y737985D01*
X1081350Y735441D01*
X1078289Y732380D01*
X1075745Y728878D01*
X1073780Y725022D01*
X1072442Y720905D01*
X1071765Y716629D01*
Y712301D01*
X1072442Y708026D01*
X1073780Y703909D01*
X1075745Y700052D01*
X1078289Y696550D01*
X1081350Y693489D01*
X1084852Y690945D01*
X1088709Y688980D01*
X1092825Y687642D01*
X1097101Y686965D01*
X1101429D01*
X1105704Y687642D01*
X1109821Y688980D01*
X1113678Y690945D01*
X1117180Y693489D01*
X1120241Y696550D01*
X1122785Y700052D01*
X1124750Y703909D01*
X1126088Y708026D01*
X1126765Y712301D01*
Y716629D01*
X1126088Y720905D01*
X1124750Y725022D01*
X1122785Y728878D01*
X1120241Y732380D01*
X1117180Y735441D01*
X1113678Y737985D01*
X1109821Y739950D01*
X1105704Y741288D01*
X1101429Y741965D01*
D02*
G37*
G36*
X999829D02*
X995501D01*
X991225Y741288D01*
X987109Y739950D01*
X983252Y737985D01*
X979750Y735441D01*
X976689Y732380D01*
X974145Y728878D01*
X972180Y725022D01*
X970842Y720905D01*
X970165Y716629D01*
Y712301D01*
X970842Y708026D01*
X972180Y703909D01*
X974145Y700052D01*
X976689Y696550D01*
X979750Y693489D01*
X983252Y690945D01*
X987109Y688980D01*
X991225Y687642D01*
X995501Y686965D01*
X999829D01*
X1004105Y687642D01*
X1008221Y688980D01*
X1012078Y690945D01*
X1015580Y693489D01*
X1018641Y696550D01*
X1021185Y700052D01*
X1023150Y703909D01*
X1024488Y708026D01*
X1025165Y712301D01*
Y716629D01*
X1024488Y720905D01*
X1023150Y725022D01*
X1021185Y728878D01*
X1018641Y732380D01*
X1015580Y735441D01*
X1012078Y737985D01*
X1008221Y739950D01*
X1004105Y741288D01*
X999829Y741965D01*
D02*
G37*
G36*
X776280Y613358D02*
X696280D01*
X693006Y612927D01*
X689956Y611664D01*
X687336Y609654D01*
X685326Y607034D01*
X684063Y603984D01*
X683632Y600710D01*
X684063Y597436D01*
X685326Y594386D01*
X687336Y591766D01*
X689956Y589756D01*
X693006Y588493D01*
X696280Y588062D01*
X776280D01*
X779554Y588493D01*
X782604Y589756D01*
X785224Y591766D01*
X787234Y594386D01*
X788497Y597436D01*
X788928Y600710D01*
X788497Y603984D01*
X787234Y607034D01*
X785224Y609654D01*
X782604Y611664D01*
X779554Y612927D01*
X776280Y613358D01*
D02*
G37*
G36*
X570540Y615480D02*
X567380D01*
X564281Y614864D01*
X561362Y613655D01*
X558735Y611899D01*
X556501Y609665D01*
X554745Y607038D01*
X553536Y604119D01*
X552920Y601020D01*
Y597860D01*
X553536Y594761D01*
X554745Y591842D01*
X556501Y589215D01*
X558735Y586981D01*
X561362Y585225D01*
X564281Y584016D01*
X567380Y583400D01*
X570540D01*
X573639Y584016D01*
X576558Y585225D01*
X579185Y586981D01*
X581419Y589215D01*
X583175Y591842D01*
X584384Y594761D01*
X585000Y597860D01*
Y601020D01*
X584384Y604119D01*
X583175Y607038D01*
X581419Y609665D01*
X579185Y611899D01*
X576558Y613655D01*
X573639Y614864D01*
X570540Y615480D01*
D02*
G37*
G36*
X1173160Y625831D02*
X1093160D01*
X1088259Y625348D01*
X1083547Y623919D01*
X1079203Y621597D01*
X1075397Y618473D01*
X1072273Y614666D01*
X1069951Y610323D01*
X1068522Y605611D01*
X1068039Y600710D01*
X1068522Y595809D01*
X1069951Y591097D01*
X1072273Y586754D01*
X1075397Y582947D01*
X1079203Y579823D01*
X1083547Y577501D01*
X1088259Y576072D01*
X1093160Y575589D01*
X1173160D01*
X1178061Y576072D01*
X1182773Y577501D01*
X1187116Y579823D01*
X1190923Y582947D01*
X1194047Y586754D01*
X1196369Y591097D01*
X1197798Y595809D01*
X1198281Y600710D01*
X1197798Y605611D01*
X1196369Y610323D01*
X1194047Y614666D01*
X1190923Y618473D01*
X1187116Y621597D01*
X1182773Y623919D01*
X1178061Y625348D01*
X1173160Y625831D01*
D02*
G37*
G36*
X570540Y564680D02*
X567380D01*
X564281Y564064D01*
X561362Y562854D01*
X558735Y561099D01*
X556501Y558865D01*
X554745Y556238D01*
X553536Y553319D01*
X552920Y550220D01*
Y547060D01*
X553536Y543961D01*
X554745Y541042D01*
X556501Y538415D01*
X558735Y536181D01*
X561362Y534426D01*
X564281Y533216D01*
X567380Y532600D01*
X570540D01*
X573639Y533216D01*
X576558Y534426D01*
X579185Y536181D01*
X581419Y538415D01*
X583175Y541042D01*
X584384Y543961D01*
X585000Y547060D01*
Y550220D01*
X584384Y553319D01*
X583175Y556238D01*
X581419Y558865D01*
X579185Y561099D01*
X576558Y562854D01*
X573639Y564064D01*
X570540Y564680D01*
D02*
G37*
%LPD*%
D12*
X801044Y925830D02*
X855654Y980440D01*
X937260D02*
X944880Y972820D01*
X855654Y980440D02*
X937260D01*
X1070610Y985520D02*
Y1042670D01*
X1057910Y972820D02*
X1070610Y985520D01*
X944880Y972820D02*
X1057910D01*
X708660Y925830D02*
X801044D01*
X673922Y960568D02*
X708660Y925830D01*
X636317Y960568D02*
X673922D01*
D31*
X1498600Y600710D02*
X1758320D01*
X1460500Y638810D02*
X1498600Y600710D01*
X1460500Y638810D02*
Y891540D01*
D32*
X1323730Y1070320D02*
D03*
X1279380Y1114670D02*
D03*
X1323730D02*
D03*
X1368080D02*
D03*
X1279380Y1070320D02*
D03*
X1368080D02*
D03*
X1279380Y1025970D02*
D03*
X1323730D02*
D03*
X1368080D02*
D03*
D33*
X1247011Y1623060D02*
D03*
X1149965Y1698060D02*
D03*
X1352965D02*
D03*
D34*
X1842750Y889470D02*
D03*
Y814470D02*
D03*
X1571080Y869950D02*
D03*
Y946150D02*
D03*
D36*
X1780540Y788670D02*
D03*
Y889470D02*
D03*
D37*
X636317Y960568D02*
D03*
D38*
X1720000Y1030500D02*
D03*
Y1205500D02*
D03*
Y1400500D02*
D03*
Y1575500D02*
D03*
D40*
X1173730Y862660D02*
D03*
D41*
X1758320Y600710D02*
D03*
D42*
X568960Y701040D02*
D03*
Y650240D02*
D03*
D43*
X1911350Y953170D02*
D03*
Y902370D02*
D03*
Y800770D02*
D03*
Y749970D02*
D03*
D47*
X1633220Y1314500D02*
D03*
Y1139500D02*
D03*
Y1509500D02*
D03*
Y1684500D02*
D03*
M02*
