G04*
G04 #@! TF.GenerationSoftware,Altium Limited,Altium Designer,22.8.2 (66)*
G04*
G04 Layer_Physical_Order=2*
G04 Layer_Color=36540*
%FSLAX44Y44*%
%MOMM*%
G71*
G04*
G04 #@! TF.SameCoordinates,40631429-7DBC-4EA8-B2E3-056BE841FA50*
G04*
G04*
G04 #@! TF.FilePolarity,Positive*
G04*
G01*
G75*
%ADD31C,2.0000*%
%ADD34C,2.5000*%
%ADD35C,3.2000*%
%ADD36C,1.5000*%
%ADD38O,7.2000X2.7500*%
%ADD40O,4.5000X7.0000*%
%ADD41O,10.0000X2.0000*%
%ADD42C,2.7000*%
%ADD43O,3.0000X2.2000*%
%ADD44C,8.0000*%
%ADD47C,1.7500*%
G36*
X1724324Y1713339D02*
X1697750D01*
X1693239Y1712984D01*
X1688838Y1711927D01*
X1684657Y1710196D01*
X1680799Y1707831D01*
X1677358Y1704892D01*
X1675412Y1702614D01*
X1674143Y1702564D01*
X1673760Y1702948D01*
X1669870Y1705547D01*
X1665548Y1707337D01*
X1660959Y1708250D01*
X1656281D01*
X1651692Y1707337D01*
X1647370Y1705547D01*
X1645920Y1704578D01*
X1644470Y1705547D01*
X1640148Y1707337D01*
X1635559Y1708250D01*
X1630881D01*
X1626292Y1707337D01*
X1621970Y1705547D01*
X1618080Y1702948D01*
X1614772Y1699640D01*
X1612173Y1695750D01*
X1610383Y1691428D01*
X1609470Y1686839D01*
Y1682161D01*
X1610383Y1677572D01*
X1612173Y1673250D01*
X1614772Y1669360D01*
X1618080Y1666052D01*
X1621970Y1663453D01*
X1626292Y1661663D01*
X1630881Y1660750D01*
X1635559D01*
X1640148Y1661663D01*
X1644470Y1663453D01*
X1645920Y1664422D01*
X1647370Y1663453D01*
X1651692Y1661663D01*
X1656281Y1660750D01*
X1660959D01*
X1665548Y1661663D01*
X1669870Y1663453D01*
X1673760Y1666052D01*
X1674143Y1666436D01*
X1675412Y1666386D01*
X1677358Y1664108D01*
X1680799Y1661169D01*
X1684657Y1658804D01*
X1688838Y1657073D01*
X1693239Y1656016D01*
X1697750Y1655661D01*
X1724324D01*
Y1604339D01*
X1697750D01*
X1693239Y1603984D01*
X1688838Y1602927D01*
X1684657Y1601196D01*
X1680799Y1598831D01*
X1677358Y1595892D01*
X1674419Y1592451D01*
X1672054Y1588593D01*
X1670323Y1584412D01*
X1669266Y1580011D01*
X1668911Y1575500D01*
X1669266Y1570989D01*
X1670323Y1566588D01*
X1672054Y1562407D01*
X1674419Y1558549D01*
X1677358Y1555108D01*
X1680799Y1552169D01*
X1684657Y1549804D01*
X1688838Y1548073D01*
X1693239Y1547016D01*
X1697750Y1546661D01*
X1724324D01*
Y1538339D01*
X1697750D01*
X1693239Y1537984D01*
X1688838Y1536927D01*
X1684657Y1535196D01*
X1680799Y1532831D01*
X1677358Y1529892D01*
X1675412Y1527614D01*
X1674143Y1527564D01*
X1673760Y1527948D01*
X1669870Y1530547D01*
X1665548Y1532337D01*
X1660959Y1533250D01*
X1656281D01*
X1651692Y1532337D01*
X1647370Y1530547D01*
X1645920Y1529578D01*
X1644470Y1530547D01*
X1640148Y1532337D01*
X1635559Y1533250D01*
X1630881D01*
X1626292Y1532337D01*
X1621970Y1530547D01*
X1618080Y1527948D01*
X1614772Y1524640D01*
X1612173Y1520750D01*
X1610383Y1516428D01*
X1609470Y1511839D01*
Y1507161D01*
X1610383Y1502572D01*
X1612173Y1498250D01*
X1614772Y1494360D01*
X1618080Y1491052D01*
X1621970Y1488453D01*
X1626292Y1486663D01*
X1630881Y1485750D01*
X1635559D01*
X1640148Y1486663D01*
X1644470Y1488453D01*
X1645920Y1489422D01*
X1647370Y1488453D01*
X1651692Y1486663D01*
X1656281Y1485750D01*
X1660959D01*
X1665548Y1486663D01*
X1669870Y1488453D01*
X1673760Y1491052D01*
X1674143Y1491436D01*
X1675412Y1491386D01*
X1677358Y1489108D01*
X1680799Y1486169D01*
X1684657Y1483804D01*
X1688838Y1482073D01*
X1693239Y1481016D01*
X1697750Y1480661D01*
X1724324D01*
Y1429339D01*
X1697750D01*
X1693239Y1428984D01*
X1688838Y1427927D01*
X1684657Y1426196D01*
X1680799Y1423831D01*
X1677358Y1420892D01*
X1674419Y1417451D01*
X1672054Y1413593D01*
X1670323Y1409412D01*
X1669266Y1405011D01*
X1668911Y1400500D01*
X1669266Y1395989D01*
X1670323Y1391588D01*
X1672054Y1387407D01*
X1674419Y1383549D01*
X1677358Y1380108D01*
X1680799Y1377169D01*
X1684657Y1374804D01*
X1688838Y1373073D01*
X1693239Y1372016D01*
X1697750Y1371661D01*
X1724324D01*
X1724324Y1343339D01*
X1697750D01*
X1693239Y1342984D01*
X1688838Y1341927D01*
X1684657Y1340196D01*
X1680799Y1337831D01*
X1677358Y1334892D01*
X1675412Y1332614D01*
X1674143Y1332564D01*
X1673760Y1332948D01*
X1669870Y1335547D01*
X1665548Y1337337D01*
X1660959Y1338250D01*
X1656281D01*
X1651692Y1337337D01*
X1647370Y1335547D01*
X1645920Y1334578D01*
X1644470Y1335547D01*
X1640148Y1337337D01*
X1635559Y1338250D01*
X1630881D01*
X1626292Y1337337D01*
X1621970Y1335547D01*
X1618080Y1332948D01*
X1614772Y1329640D01*
X1612173Y1325750D01*
X1610383Y1321428D01*
X1609470Y1316839D01*
Y1312161D01*
X1610383Y1307572D01*
X1612173Y1303250D01*
X1614772Y1299360D01*
X1618080Y1296052D01*
X1621970Y1293453D01*
X1626292Y1291663D01*
X1630881Y1290750D01*
X1635559D01*
X1640148Y1291663D01*
X1644470Y1293453D01*
X1645920Y1294422D01*
X1647370Y1293453D01*
X1651692Y1291663D01*
X1656281Y1290750D01*
X1660959D01*
X1665548Y1291663D01*
X1669870Y1293453D01*
X1673760Y1296052D01*
X1674143Y1296436D01*
X1675412Y1296386D01*
X1677358Y1294108D01*
X1680799Y1291169D01*
X1684657Y1288804D01*
X1686877Y1287885D01*
Y1286615D01*
X1684657Y1285696D01*
X1680799Y1283331D01*
X1677358Y1280392D01*
X1674419Y1276951D01*
X1672054Y1273093D01*
X1670323Y1268912D01*
X1669266Y1264511D01*
X1668911Y1260000D01*
X1669266Y1255489D01*
X1670323Y1251088D01*
X1672054Y1246907D01*
X1674419Y1243049D01*
X1677358Y1239608D01*
X1680799Y1236669D01*
X1684657Y1234304D01*
X1686877Y1233385D01*
Y1232115D01*
X1684657Y1231196D01*
X1680799Y1228831D01*
X1677358Y1225892D01*
X1674419Y1222451D01*
X1672054Y1218593D01*
X1670323Y1214412D01*
X1669266Y1210011D01*
X1668911Y1205500D01*
X1669266Y1200989D01*
X1670323Y1196588D01*
X1672054Y1192407D01*
X1674419Y1188549D01*
X1677358Y1185108D01*
X1680799Y1182169D01*
X1684657Y1179804D01*
X1688838Y1178073D01*
X1693239Y1177016D01*
X1697750Y1176661D01*
X1724324D01*
Y1168339D01*
X1697750D01*
X1693239Y1167984D01*
X1688838Y1166927D01*
X1684657Y1165196D01*
X1680799Y1162831D01*
X1677358Y1159892D01*
X1675412Y1157614D01*
X1674143Y1157564D01*
X1673760Y1157948D01*
X1669870Y1160547D01*
X1665548Y1162337D01*
X1660959Y1163250D01*
X1656281D01*
X1651692Y1162337D01*
X1647370Y1160547D01*
X1645920Y1159578D01*
X1644470Y1160547D01*
X1640148Y1162337D01*
X1635559Y1163250D01*
X1630881D01*
X1626292Y1162337D01*
X1621970Y1160547D01*
X1618080Y1157948D01*
X1614772Y1154640D01*
X1612173Y1150750D01*
X1610383Y1146428D01*
X1609470Y1141839D01*
Y1137161D01*
X1610383Y1132572D01*
X1612173Y1128250D01*
X1614772Y1124360D01*
X1618080Y1121052D01*
X1621970Y1118453D01*
X1626292Y1116663D01*
X1630881Y1115750D01*
X1635559D01*
X1640148Y1116663D01*
X1644470Y1118453D01*
X1645920Y1119422D01*
X1647370Y1118453D01*
X1651692Y1116663D01*
X1656281Y1115750D01*
X1660959D01*
X1665548Y1116663D01*
X1669870Y1118453D01*
X1673760Y1121052D01*
X1674143Y1121436D01*
X1675412Y1121386D01*
X1677358Y1119108D01*
X1680799Y1116169D01*
X1684657Y1113804D01*
X1686877Y1112885D01*
Y1111615D01*
X1684657Y1110696D01*
X1680799Y1108331D01*
X1677358Y1105392D01*
X1674419Y1101951D01*
X1672054Y1098093D01*
X1670323Y1093912D01*
X1669266Y1089511D01*
X1668911Y1085000D01*
X1669266Y1080489D01*
X1670323Y1076088D01*
X1672054Y1071907D01*
X1674419Y1068049D01*
X1677358Y1064608D01*
X1680799Y1061669D01*
X1684657Y1059304D01*
X1686877Y1058385D01*
Y1057115D01*
X1684657Y1056196D01*
X1680799Y1053831D01*
X1677358Y1050892D01*
X1674419Y1047451D01*
X1672054Y1043593D01*
X1670323Y1039412D01*
X1669266Y1035011D01*
X1668911Y1030500D01*
X1669266Y1025989D01*
X1670323Y1021588D01*
X1672054Y1017407D01*
X1674419Y1013549D01*
X1677358Y1010108D01*
X1680799Y1007169D01*
X1684657Y1004804D01*
X1688838Y1003073D01*
X1693239Y1002016D01*
X1697750Y1001661D01*
X1724324D01*
Y993140D01*
X1724324Y993140D01*
X1549116D01*
X1548742Y994410D01*
X1554150Y998560D01*
X1559248Y1003658D01*
X1563637Y1009378D01*
X1567242Y1015622D01*
X1570001Y1022283D01*
X1571867Y1029247D01*
X1572808Y1036395D01*
Y1043605D01*
X1571867Y1050753D01*
X1570001Y1057717D01*
X1567242Y1064378D01*
X1563637Y1070622D01*
X1559248Y1076342D01*
X1554150Y1081440D01*
X1548430Y1085829D01*
X1542186Y1089434D01*
X1535525Y1092193D01*
X1528561Y1094059D01*
X1521413Y1095000D01*
X1514203D01*
X1507055Y1094059D01*
X1500091Y1092193D01*
X1493430Y1089434D01*
X1487186Y1085829D01*
X1481467Y1081440D01*
X1476368Y1076342D01*
X1471979Y1070622D01*
X1468374Y1064378D01*
X1465615Y1057717D01*
X1463749Y1050753D01*
X1462808Y1043605D01*
Y1036395D01*
X1463749Y1029247D01*
X1465615Y1022283D01*
X1468374Y1015622D01*
X1471979Y1009378D01*
X1476368Y1003658D01*
X1481467Y998560D01*
X1486875Y994410D01*
X1486501Y993140D01*
X1376322D01*
X1376120Y994410D01*
X1380556Y995851D01*
X1385114Y998174D01*
X1389252Y1001180D01*
X1392870Y1004798D01*
X1395876Y1008936D01*
X1398199Y1013494D01*
X1399780Y1018360D01*
X1400580Y1023412D01*
Y1028528D01*
X1399780Y1033580D01*
X1398199Y1038446D01*
X1395876Y1043004D01*
X1392870Y1047142D01*
X1391867Y1048145D01*
X1392870Y1049148D01*
X1395876Y1053286D01*
X1398199Y1057844D01*
X1399780Y1062710D01*
X1400580Y1067762D01*
Y1072878D01*
X1399780Y1077930D01*
X1398199Y1082796D01*
X1395876Y1087354D01*
X1392870Y1091492D01*
X1391867Y1092495D01*
X1392870Y1093498D01*
X1395876Y1097636D01*
X1398199Y1102194D01*
X1399780Y1107060D01*
X1400580Y1112112D01*
Y1117228D01*
X1399780Y1122280D01*
X1398199Y1127146D01*
X1395876Y1131704D01*
X1392870Y1135842D01*
X1389252Y1139460D01*
X1385114Y1142467D01*
X1380556Y1144789D01*
X1375690Y1146370D01*
X1370638Y1147170D01*
X1370530D01*
X1370117Y1148440D01*
X1372509Y1150177D01*
X1375848Y1153516D01*
X1378623Y1157337D01*
X1380767Y1161544D01*
X1382226Y1166035D01*
X1382965Y1170699D01*
Y1175421D01*
X1382226Y1180085D01*
X1380767Y1184576D01*
X1378623Y1188783D01*
X1375848Y1192604D01*
X1372509Y1195943D01*
X1368688Y1198718D01*
X1364481Y1200862D01*
X1359990Y1202321D01*
X1355326Y1203060D01*
X1350604D01*
X1345940Y1202321D01*
X1341449Y1200862D01*
X1337242Y1198718D01*
X1333421Y1195943D01*
X1330082Y1192604D01*
X1327307Y1188783D01*
X1325163Y1184576D01*
X1323704Y1180085D01*
X1322965Y1175421D01*
Y1170699D01*
X1323704Y1166035D01*
X1325163Y1161544D01*
X1327307Y1157337D01*
X1330082Y1153516D01*
X1333421Y1150177D01*
X1337242Y1147402D01*
X1341449Y1145258D01*
X1345940Y1143799D01*
X1349864Y1143177D01*
X1350185Y1141841D01*
X1346908Y1139460D01*
X1345905Y1138457D01*
X1344902Y1139460D01*
X1340764Y1142467D01*
X1336206Y1144789D01*
X1331340Y1146370D01*
X1326288Y1147170D01*
X1321172D01*
X1316120Y1146370D01*
X1311254Y1144789D01*
X1306696Y1142467D01*
X1302558Y1139460D01*
X1301555Y1138457D01*
X1300552Y1139460D01*
X1296414Y1142467D01*
X1291856Y1144789D01*
X1286990Y1146370D01*
X1281938Y1147170D01*
X1276822D01*
X1271770Y1146370D01*
X1266904Y1144789D01*
X1262346Y1142467D01*
X1258208Y1139460D01*
X1254590Y1135842D01*
X1251583Y1131704D01*
X1249428Y1127473D01*
X1248932Y1127341D01*
X1248528D01*
X1248032Y1127473D01*
X1245876Y1131704D01*
X1242870Y1135842D01*
X1239252Y1139460D01*
X1235114Y1142467D01*
X1230556Y1144789D01*
X1225690Y1146370D01*
X1220638Y1147170D01*
X1215522D01*
X1210470Y1146370D01*
X1205604Y1144789D01*
X1201046Y1142467D01*
X1196908Y1139460D01*
X1195905Y1138457D01*
X1194902Y1139460D01*
X1190764Y1142467D01*
X1186206Y1144789D01*
X1181340Y1146370D01*
X1176288Y1147170D01*
X1171172D01*
X1166515Y1146432D01*
X1166015Y1147639D01*
X1169509Y1150177D01*
X1172848Y1153516D01*
X1175623Y1157337D01*
X1177767Y1161544D01*
X1179226Y1166035D01*
X1179965Y1170699D01*
Y1175421D01*
X1179226Y1180085D01*
X1177767Y1184576D01*
X1175623Y1188783D01*
X1172848Y1192604D01*
X1169509Y1195943D01*
X1165688Y1198718D01*
X1161481Y1200862D01*
X1156990Y1202321D01*
X1152326Y1203060D01*
X1147604D01*
X1142940Y1202321D01*
X1138449Y1200862D01*
X1134241Y1198718D01*
X1130421Y1195943D01*
X1127082Y1192604D01*
X1124307Y1188783D01*
X1122163Y1184576D01*
X1120704Y1180085D01*
X1119965Y1175421D01*
Y1170699D01*
X1120704Y1166035D01*
X1122163Y1161544D01*
X1124307Y1157337D01*
X1127082Y1153516D01*
X1130421Y1150177D01*
X1133028Y1148283D01*
X1132529Y1147076D01*
X1131938Y1147170D01*
X1126822D01*
X1121770Y1146370D01*
X1116904Y1144789D01*
X1112346Y1142467D01*
X1108208Y1139460D01*
X1104590Y1135842D01*
X1101583Y1131704D01*
X1099261Y1127146D01*
X1097680Y1122280D01*
X1096880Y1117228D01*
Y1112112D01*
X1097680Y1107060D01*
X1099261Y1102194D01*
X1101583Y1097636D01*
X1104590Y1093498D01*
X1105593Y1092495D01*
X1104590Y1091492D01*
X1101583Y1087354D01*
X1099261Y1082796D01*
X1097680Y1077930D01*
X1096880Y1072878D01*
Y1067762D01*
X1097680Y1062710D01*
X1099261Y1057844D01*
X1101583Y1053286D01*
X1104590Y1049148D01*
X1105593Y1048145D01*
X1104590Y1047142D01*
X1101583Y1043004D01*
X1099261Y1038446D01*
X1097680Y1033580D01*
X1096880Y1028528D01*
Y1023412D01*
X1097680Y1018360D01*
X1099261Y1013494D01*
X1101583Y1008936D01*
X1104590Y1004798D01*
X1108208Y1001180D01*
X1112346Y998174D01*
X1116904Y995851D01*
X1121339Y994410D01*
X1121138Y993140D01*
X1007521D01*
X1007147Y994410D01*
X1012555Y998560D01*
X1017653Y1003658D01*
X1022042Y1009378D01*
X1025647Y1015622D01*
X1028406Y1022283D01*
X1030272Y1029247D01*
X1031214Y1036395D01*
Y1043605D01*
X1030272Y1050753D01*
X1028406Y1057717D01*
X1025647Y1064378D01*
X1022042Y1070622D01*
X1017653Y1076342D01*
X1012555Y1081440D01*
X1006835Y1085829D01*
X1000592Y1089434D01*
X993931Y1092193D01*
X986966Y1094059D01*
X979818Y1095000D01*
X972609D01*
X965461Y1094059D01*
X958496Y1092193D01*
X951835Y1089434D01*
X945592Y1085829D01*
X939872Y1081440D01*
X934774Y1076342D01*
X930385Y1070622D01*
X926780Y1064378D01*
X924021Y1057717D01*
X922154Y1050753D01*
X921214Y1043605D01*
Y1036395D01*
X922154Y1029247D01*
X924021Y1022283D01*
X926780Y1015622D01*
X930385Y1009378D01*
X934774Y1003658D01*
X939872Y998560D01*
X945280Y994410D01*
X944906Y993140D01*
X778996D01*
X778996Y993140D01*
Y1001661D01*
X802250D01*
X806761Y1002016D01*
X811161Y1003073D01*
X815342Y1004804D01*
X819201Y1007169D01*
X822642Y1010108D01*
X824587Y1012386D01*
X825856Y1012436D01*
X826240Y1012052D01*
X830130Y1009453D01*
X834452Y1007663D01*
X839040Y1006750D01*
X843719D01*
X848307Y1007663D01*
X852629Y1009453D01*
X854080Y1010422D01*
X855530Y1009453D01*
X859852Y1007663D01*
X864440Y1006750D01*
X869119D01*
X873707Y1007663D01*
X878029Y1009453D01*
X881919Y1012052D01*
X885227Y1015360D01*
X887826Y1019250D01*
X889617Y1023572D01*
X890529Y1028161D01*
Y1032839D01*
X889617Y1037428D01*
X887826Y1041750D01*
X885227Y1045640D01*
X881919Y1048948D01*
X878029Y1051547D01*
X873707Y1053337D01*
X869119Y1054250D01*
X864440D01*
X859852Y1053337D01*
X855530Y1051547D01*
X854080Y1050578D01*
X852629Y1051547D01*
X848307Y1053337D01*
X843719Y1054250D01*
X839040D01*
X834452Y1053337D01*
X830130Y1051547D01*
X826240Y1048948D01*
X825856Y1048564D01*
X824587Y1048614D01*
X822642Y1050892D01*
X819201Y1053831D01*
X815342Y1056196D01*
X813123Y1057115D01*
Y1058385D01*
X815342Y1059304D01*
X819201Y1061669D01*
X822642Y1064608D01*
X825581Y1068049D01*
X827945Y1071907D01*
X829677Y1076088D01*
X830733Y1080489D01*
X831088Y1085000D01*
X830733Y1089511D01*
X829677Y1093912D01*
X827945Y1098093D01*
X825581Y1101951D01*
X822642Y1105392D01*
X819201Y1108331D01*
X815342Y1110696D01*
X813123Y1111615D01*
Y1112885D01*
X815342Y1113804D01*
X819201Y1116169D01*
X822642Y1119108D01*
X825581Y1122549D01*
X827945Y1126407D01*
X829677Y1130588D01*
X830733Y1134989D01*
X831088Y1139500D01*
X830733Y1144011D01*
X829677Y1148412D01*
X827945Y1152593D01*
X825581Y1156451D01*
X822642Y1159892D01*
X819201Y1162831D01*
X815342Y1165196D01*
X811161Y1166927D01*
X806761Y1167984D01*
X802250Y1168339D01*
X778996D01*
Y1176661D01*
X802250D01*
X806761Y1177016D01*
X811161Y1178073D01*
X815342Y1179804D01*
X819201Y1182169D01*
X822642Y1185108D01*
X824587Y1187386D01*
X825856Y1187436D01*
X826240Y1187052D01*
X830130Y1184453D01*
X834452Y1182663D01*
X839040Y1181750D01*
X843719D01*
X848307Y1182663D01*
X852629Y1184453D01*
X854080Y1185422D01*
X855530Y1184453D01*
X859852Y1182663D01*
X864440Y1181750D01*
X869119D01*
X873707Y1182663D01*
X878029Y1184453D01*
X881919Y1187052D01*
X885227Y1190360D01*
X887826Y1194250D01*
X889617Y1198572D01*
X890529Y1203161D01*
Y1207839D01*
X889617Y1212428D01*
X887826Y1216750D01*
X885227Y1220640D01*
X881919Y1223948D01*
X878029Y1226547D01*
X873707Y1228337D01*
X869119Y1229250D01*
X864440D01*
X859852Y1228337D01*
X855530Y1226547D01*
X854080Y1225578D01*
X852629Y1226547D01*
X848307Y1228337D01*
X843719Y1229250D01*
X839040D01*
X834452Y1228337D01*
X830130Y1226547D01*
X826240Y1223948D01*
X825856Y1223564D01*
X824587Y1223614D01*
X822642Y1225892D01*
X819201Y1228831D01*
X815342Y1231196D01*
X813123Y1232115D01*
Y1233385D01*
X815342Y1234304D01*
X819201Y1236669D01*
X822642Y1239608D01*
X825581Y1243049D01*
X827945Y1246907D01*
X829677Y1251088D01*
X830733Y1255489D01*
X831088Y1260000D01*
X830733Y1264511D01*
X829677Y1268912D01*
X827945Y1273093D01*
X825581Y1276951D01*
X822642Y1280392D01*
X819201Y1283331D01*
X815342Y1285696D01*
X813123Y1286615D01*
Y1287885D01*
X815342Y1288804D01*
X819201Y1291169D01*
X822642Y1294108D01*
X825581Y1297549D01*
X827945Y1301407D01*
X829677Y1305588D01*
X830733Y1309989D01*
X831088Y1314500D01*
X830733Y1319011D01*
X829677Y1323412D01*
X827945Y1327593D01*
X825581Y1331451D01*
X822642Y1334892D01*
X819201Y1337831D01*
X815342Y1340196D01*
X811161Y1341927D01*
X806761Y1342984D01*
X802250Y1343339D01*
X778996D01*
Y1384131D01*
X802250D01*
X805443Y1384446D01*
X808514Y1385377D01*
X811344Y1386890D01*
X813824Y1388925D01*
X815860Y1391406D01*
X817372Y1394236D01*
X818304Y1397307D01*
X818618Y1400500D01*
X818304Y1403693D01*
X817372Y1406764D01*
X815860Y1409594D01*
X813824Y1412074D01*
X811344Y1414110D01*
X808514Y1415623D01*
X805443Y1416554D01*
X802250Y1416869D01*
X778996D01*
Y1426161D01*
X802250D01*
X806761Y1426516D01*
X811161Y1427573D01*
X815342Y1429304D01*
X819201Y1431669D01*
X822642Y1434608D01*
X825581Y1438049D01*
X827945Y1441907D01*
X829677Y1446088D01*
X830733Y1450489D01*
X831088Y1455000D01*
X830733Y1459511D01*
X829677Y1463912D01*
X827945Y1468093D01*
X825581Y1471951D01*
X822642Y1475392D01*
X819201Y1478331D01*
X815342Y1480696D01*
X811161Y1482427D01*
X806761Y1483484D01*
X802250Y1483839D01*
X778996D01*
Y1559131D01*
X802250D01*
X805443Y1559446D01*
X808514Y1560377D01*
X811344Y1561890D01*
X813824Y1563925D01*
X815860Y1566406D01*
X817372Y1569236D01*
X818304Y1572307D01*
X818618Y1575500D01*
X818304Y1578693D01*
X817372Y1581764D01*
X815860Y1584594D01*
X813824Y1587074D01*
X811344Y1589110D01*
X808514Y1590623D01*
X805443Y1591554D01*
X802250Y1591869D01*
X778996D01*
Y1601161D01*
X802250D01*
X806761Y1601516D01*
X811161Y1602573D01*
X815342Y1604304D01*
X819201Y1606669D01*
X822642Y1609608D01*
X825581Y1613049D01*
X827945Y1616907D01*
X829677Y1621088D01*
X830733Y1625489D01*
X831088Y1630000D01*
X830733Y1634511D01*
X829677Y1638912D01*
X827945Y1643093D01*
X825581Y1646951D01*
X822642Y1650392D01*
X819201Y1653331D01*
X815342Y1655696D01*
X811161Y1657427D01*
X806761Y1658484D01*
X802250Y1658839D01*
X778996D01*
Y1714914D01*
X936686D01*
X937172Y1713741D01*
X934774Y1711342D01*
X930385Y1705622D01*
X926780Y1699378D01*
X924021Y1692717D01*
X922154Y1685753D01*
X921214Y1678605D01*
Y1671395D01*
X922154Y1664247D01*
X924021Y1657283D01*
X926780Y1650622D01*
X930385Y1644378D01*
X934774Y1638658D01*
X939872Y1633560D01*
X945592Y1629171D01*
X951835Y1625566D01*
X958496Y1622807D01*
X965461Y1620941D01*
X972609Y1620000D01*
X979818D01*
X986966Y1620941D01*
X993931Y1622807D01*
X1000592Y1625566D01*
X1006835Y1629171D01*
X1012555Y1633560D01*
X1017653Y1638658D01*
X1022042Y1644378D01*
X1025647Y1650622D01*
X1028406Y1657283D01*
X1030272Y1664247D01*
X1031214Y1671395D01*
Y1678605D01*
X1030272Y1685753D01*
X1028406Y1692717D01*
X1025647Y1699378D01*
X1022042Y1705622D01*
X1017653Y1711342D01*
X1015255Y1713741D01*
X1015741Y1714914D01*
X1123731D01*
X1123986Y1714412D01*
X1124236Y1713644D01*
X1122163Y1709576D01*
X1120704Y1705085D01*
X1119965Y1700421D01*
Y1695699D01*
X1120704Y1691035D01*
X1122163Y1686544D01*
X1124307Y1682337D01*
X1127082Y1678516D01*
X1130421Y1675177D01*
X1134241Y1672402D01*
X1138449Y1670258D01*
X1142940Y1668799D01*
X1147604Y1668060D01*
X1152326D01*
X1156990Y1668799D01*
X1161481Y1670258D01*
X1165688Y1672402D01*
X1169509Y1675177D01*
X1172848Y1678516D01*
X1175623Y1682337D01*
X1177767Y1686544D01*
X1179226Y1691035D01*
X1179965Y1695699D01*
Y1700421D01*
X1179226Y1705085D01*
X1177767Y1709576D01*
X1175694Y1713644D01*
X1175944Y1714412D01*
X1176199Y1714914D01*
X1326731D01*
X1326986Y1714412D01*
X1327236Y1713644D01*
X1325163Y1709576D01*
X1323704Y1705085D01*
X1322965Y1700421D01*
Y1695699D01*
X1323704Y1691035D01*
X1325163Y1686544D01*
X1327307Y1682337D01*
X1330082Y1678516D01*
X1333421Y1675177D01*
X1337242Y1672402D01*
X1341449Y1670258D01*
X1345940Y1668799D01*
X1350604Y1668060D01*
X1355326D01*
X1359990Y1668799D01*
X1364481Y1670258D01*
X1368688Y1672402D01*
X1372509Y1675177D01*
X1375848Y1678516D01*
X1378623Y1682337D01*
X1380767Y1686544D01*
X1382226Y1691035D01*
X1382965Y1695699D01*
Y1700421D01*
X1382226Y1705085D01*
X1380767Y1709576D01*
X1378694Y1713644D01*
X1378944Y1714412D01*
X1379199Y1714914D01*
X1478281D01*
X1478767Y1713741D01*
X1476368Y1711342D01*
X1471979Y1705622D01*
X1468374Y1699378D01*
X1465615Y1692717D01*
X1463749Y1685753D01*
X1462808Y1678605D01*
Y1671395D01*
X1463749Y1664247D01*
X1465615Y1657283D01*
X1468374Y1650622D01*
X1471979Y1644378D01*
X1476368Y1638658D01*
X1481467Y1633560D01*
X1487186Y1629171D01*
X1493430Y1625566D01*
X1500091Y1622807D01*
X1507055Y1620941D01*
X1514203Y1620000D01*
X1521413D01*
X1528561Y1620941D01*
X1535525Y1622807D01*
X1542186Y1625566D01*
X1548430Y1629171D01*
X1554150Y1633560D01*
X1559248Y1638658D01*
X1563637Y1644378D01*
X1567242Y1650622D01*
X1570001Y1657283D01*
X1571867Y1664247D01*
X1572808Y1671395D01*
Y1678605D01*
X1571867Y1685753D01*
X1570001Y1692717D01*
X1567242Y1699378D01*
X1563637Y1705622D01*
X1559248Y1711342D01*
X1556850Y1713741D01*
X1557336Y1714914D01*
X1724324D01*
Y1713339D01*
D02*
G37*
G36*
X1249428Y1013167D02*
X1251583Y1008936D01*
X1254590Y1004798D01*
X1258208Y1001180D01*
X1262346Y998174D01*
X1266904Y995851D01*
X1271339Y994410D01*
X1271138Y993140D01*
X1226322D01*
X1226121Y994410D01*
X1230556Y995851D01*
X1235114Y998174D01*
X1239252Y1001180D01*
X1242870Y1004798D01*
X1245876Y1008936D01*
X1248032Y1013167D01*
X1248528Y1013299D01*
X1248932D01*
X1249428Y1013167D01*
D02*
G37*
G36*
X1856874Y942417D02*
X1826317Y911860D01*
X1783309D01*
X1782756Y911970D01*
X1778324D01*
X1777771Y911860D01*
X1733309D01*
X1732756Y911970D01*
X1728324D01*
X1727771Y911860D01*
X1703070D01*
X1690218Y899008D01*
X1686120Y899470D01*
X1679380D01*
X1672684Y898715D01*
X1666114Y897216D01*
X1659753Y894990D01*
X1653681Y892066D01*
X1647975Y888481D01*
X1642706Y884279D01*
X1637941Y879514D01*
X1633739Y874245D01*
X1630154Y868539D01*
X1627230Y862467D01*
X1625004Y856106D01*
X1623505Y849536D01*
X1622886Y844043D01*
X1612137D01*
X1598930Y857250D01*
X1598930Y956974D01*
X1620023Y978067D01*
X1724324D01*
X1725154Y978149D01*
X1725988Y978160D01*
X1726621Y978294D01*
X1727264Y978357D01*
X1728063Y978599D01*
X1728879Y978772D01*
X1729473Y979027D01*
X1730092Y979215D01*
X1730828Y979608D01*
X1731594Y979937D01*
X1732127Y980303D01*
X1732698Y980608D01*
X1733342Y981137D01*
X1734030Y981609D01*
X1734482Y982072D01*
X1734982Y982482D01*
X1735451Y983054D01*
X1856874D01*
Y942417D01*
D02*
G37*
G36*
X1227013Y803993D02*
Y803250D01*
X1225980Y801221D01*
X1224642Y797105D01*
X1223965Y792830D01*
Y788501D01*
X1224642Y784226D01*
X1225980Y780109D01*
X1227013Y778081D01*
X1227013Y727050D01*
X1225980Y725022D01*
X1224642Y720905D01*
X1223965Y716629D01*
Y712301D01*
X1224642Y708026D01*
X1225980Y703909D01*
X1227013Y701881D01*
X1227013Y593283D01*
X1158166Y524436D01*
X510086D01*
X510086Y726840D01*
X671440D01*
Y726800D01*
X716440D01*
Y726800D01*
X717710Y726800D01*
X721556D01*
X721757Y726840D01*
X866540D01*
X1052830Y913130D01*
X1227013Y913130D01*
X1227013Y803993D01*
D02*
G37*
G36*
X1630154Y810401D02*
X1633739Y804695D01*
X1637941Y799426D01*
X1642706Y794661D01*
X1647975Y790459D01*
X1653681Y786874D01*
X1659753Y783950D01*
X1666114Y781724D01*
X1672684Y780225D01*
X1679380Y779470D01*
X1686120D01*
X1692816Y780225D01*
X1699386Y781724D01*
X1705747Y783950D01*
X1707360Y784727D01*
X1708496Y784159D01*
X1708905Y782107D01*
X1710601Y778012D01*
X1713063Y774327D01*
X1716197Y771193D01*
X1719882Y768731D01*
X1723977Y767035D01*
X1728324Y766170D01*
X1732756D01*
X1737103Y767035D01*
X1741198Y768731D01*
X1744883Y771193D01*
X1748017Y774327D01*
X1750479Y778012D01*
X1752175Y782107D01*
X1753040Y786454D01*
Y789940D01*
X1754176Y791210D01*
X1756810D01*
X1758040Y790886D01*
Y786454D01*
X1758905Y782107D01*
X1760601Y778012D01*
X1763063Y774327D01*
X1766197Y771193D01*
X1769882Y768731D01*
X1773977Y767035D01*
X1778324Y766170D01*
X1782756D01*
X1787103Y767035D01*
X1791198Y768731D01*
X1794883Y771193D01*
X1798017Y774327D01*
X1800479Y778012D01*
X1802175Y782107D01*
X1803040Y786454D01*
Y789940D01*
X1804176Y791210D01*
X1826260D01*
X1826260Y791210D01*
X1856874Y760596D01*
Y695886D01*
X1850858Y689870D01*
X1612640Y689870D01*
X1598929Y703580D01*
X1598930Y805180D01*
X1609090Y815340D01*
X1627775D01*
X1630154Y810401D01*
D02*
G37*
G36*
X1989914Y524436D02*
X1879600D01*
Y983054D01*
X1989913D01*
X1989914Y524436D01*
D02*
G37*
%LPC*%
G36*
X1249372Y1653060D02*
X1244650D01*
X1239986Y1652321D01*
X1235495Y1650862D01*
X1231288Y1648718D01*
X1227467Y1645943D01*
X1224128Y1642604D01*
X1221353Y1638783D01*
X1219209Y1634576D01*
X1217750Y1630085D01*
X1217011Y1625421D01*
Y1620699D01*
X1217750Y1616035D01*
X1219209Y1611544D01*
X1221353Y1607337D01*
X1224128Y1603516D01*
X1227467Y1600177D01*
X1231288Y1597402D01*
X1235495Y1595258D01*
X1239986Y1593799D01*
X1244650Y1593060D01*
X1249372D01*
X1254036Y1593799D01*
X1258527Y1595258D01*
X1262734Y1597402D01*
X1266555Y1600177D01*
X1269894Y1603516D01*
X1272669Y1607337D01*
X1274813Y1611544D01*
X1276272Y1616035D01*
X1277011Y1620699D01*
Y1625421D01*
X1276272Y1630085D01*
X1274813Y1634576D01*
X1272669Y1638783D01*
X1269894Y1642604D01*
X1266555Y1645943D01*
X1262734Y1648718D01*
X1258527Y1650862D01*
X1254036Y1652321D01*
X1249372Y1653060D01*
D02*
G37*
G36*
X1002976Y1620160D02*
X998544D01*
X994197Y1619295D01*
X990102Y1617599D01*
X986417Y1615137D01*
X983283Y1612003D01*
X980821Y1608318D01*
X979125Y1604223D01*
X978260Y1599876D01*
Y1595444D01*
X979125Y1591097D01*
X980821Y1587002D01*
X983283Y1583317D01*
X986417Y1580183D01*
X990102Y1577721D01*
X994197Y1576025D01*
X998544Y1575160D01*
X1002976D01*
X1007323Y1576025D01*
X1011418Y1577721D01*
X1015103Y1580183D01*
X1018237Y1583317D01*
X1020699Y1587002D01*
X1022395Y1591097D01*
X1023260Y1595444D01*
Y1599876D01*
X1022395Y1604223D01*
X1020699Y1608318D01*
X1018237Y1612003D01*
X1015103Y1615137D01*
X1011418Y1617599D01*
X1007323Y1619295D01*
X1002976Y1620160D01*
D02*
G37*
G36*
X842866Y1586790D02*
X839893D01*
X837022Y1586021D01*
X834447Y1584534D01*
X832345Y1582432D01*
X830859Y1579858D01*
X830089Y1576986D01*
Y1574014D01*
X830859Y1571142D01*
X832345Y1568568D01*
X834447Y1566466D01*
X837022Y1564979D01*
X839893Y1564210D01*
X842866D01*
X845737Y1564979D01*
X848312Y1566466D01*
X850414Y1568568D01*
X851900Y1571142D01*
X852670Y1574014D01*
Y1576986D01*
X851900Y1579858D01*
X850414Y1582432D01*
X848312Y1584534D01*
X845737Y1586021D01*
X842866Y1586790D01*
D02*
G37*
G36*
X1002976Y1549040D02*
X998544D01*
X994197Y1548175D01*
X990102Y1546479D01*
X986417Y1544017D01*
X983283Y1540883D01*
X980821Y1537198D01*
X979125Y1533103D01*
X978260Y1528756D01*
Y1524324D01*
X979125Y1519977D01*
X980821Y1515882D01*
X983283Y1512197D01*
X986417Y1509063D01*
X990102Y1506601D01*
X994197Y1504905D01*
X998544Y1504040D01*
X1002976D01*
X1007323Y1504905D01*
X1011418Y1506601D01*
X1015103Y1509063D01*
X1018237Y1512197D01*
X1020699Y1515882D01*
X1022395Y1519977D01*
X1023260Y1524324D01*
Y1528756D01*
X1022395Y1533103D01*
X1020699Y1537198D01*
X1018237Y1540883D01*
X1015103Y1544017D01*
X1011418Y1546479D01*
X1007323Y1548175D01*
X1002976Y1549040D01*
D02*
G37*
G36*
X1520594Y1507650D02*
X1515023D01*
X1509499Y1506923D01*
X1504118Y1505481D01*
X1498971Y1503349D01*
X1494146Y1500563D01*
X1489726Y1497172D01*
X1485786Y1493232D01*
X1482395Y1488812D01*
X1479609Y1483988D01*
X1477477Y1478840D01*
X1476035Y1473459D01*
X1475308Y1467936D01*
Y1462364D01*
X1476035Y1456841D01*
X1477477Y1451460D01*
X1479609Y1446312D01*
X1482395Y1441488D01*
X1485786Y1437068D01*
X1489726Y1433128D01*
X1494146Y1429737D01*
X1498971Y1426951D01*
X1504118Y1424819D01*
X1509499Y1423377D01*
X1515023Y1422650D01*
X1520594D01*
X1526117Y1423377D01*
X1531499Y1424819D01*
X1536646Y1426951D01*
X1541471Y1429737D01*
X1545891Y1433128D01*
X1549830Y1437068D01*
X1553222Y1441488D01*
X1556007Y1446312D01*
X1558139Y1451460D01*
X1559581Y1456841D01*
X1560308Y1462364D01*
Y1467936D01*
X1559581Y1473459D01*
X1558139Y1478840D01*
X1556007Y1483988D01*
X1553222Y1488812D01*
X1549830Y1493232D01*
X1545891Y1497172D01*
X1541471Y1500563D01*
X1536646Y1503349D01*
X1531499Y1505481D01*
X1526117Y1506923D01*
X1520594Y1507650D01*
D02*
G37*
G36*
X842866Y1411790D02*
X839893D01*
X837022Y1411021D01*
X834447Y1409534D01*
X832345Y1407432D01*
X830859Y1404858D01*
X830089Y1401986D01*
Y1399014D01*
X830859Y1396142D01*
X832345Y1393568D01*
X834447Y1391466D01*
X837022Y1389979D01*
X839893Y1389210D01*
X842866D01*
X845737Y1389979D01*
X848312Y1391466D01*
X850414Y1393568D01*
X851900Y1396142D01*
X852670Y1399014D01*
Y1401986D01*
X851900Y1404858D01*
X850414Y1407432D01*
X848312Y1409534D01*
X845737Y1411021D01*
X842866Y1411790D01*
D02*
G37*
G36*
X1564598Y1325200D02*
X1559718D01*
X1554899Y1324437D01*
X1550258Y1322929D01*
X1545911Y1320714D01*
X1541963Y1317845D01*
X1539983Y1315866D01*
X1538003Y1317845D01*
X1534056Y1320714D01*
X1529708Y1322929D01*
X1525067Y1324437D01*
X1520248Y1325200D01*
X1515368D01*
X1510549Y1324437D01*
X1505908Y1322929D01*
X1501561Y1320714D01*
X1497613Y1317845D01*
X1495633Y1315866D01*
X1493653Y1317845D01*
X1489706Y1320714D01*
X1485358Y1322929D01*
X1480717Y1324437D01*
X1475898Y1325200D01*
X1471019D01*
X1466199Y1324437D01*
X1461558Y1322929D01*
X1457211Y1320714D01*
X1453263Y1317845D01*
X1449813Y1314395D01*
X1446945Y1310448D01*
X1444729Y1306100D01*
X1443222Y1301459D01*
X1442458Y1296640D01*
Y1291760D01*
X1443222Y1286941D01*
X1444729Y1282300D01*
X1446945Y1277952D01*
X1449813Y1274005D01*
X1451793Y1272025D01*
X1449813Y1270045D01*
X1446945Y1266097D01*
X1444729Y1261750D01*
X1443222Y1257109D01*
X1442458Y1252290D01*
Y1247410D01*
X1443222Y1242591D01*
X1444729Y1237950D01*
X1446945Y1233603D01*
X1449813Y1229655D01*
X1451793Y1227675D01*
X1449813Y1225695D01*
X1446945Y1221748D01*
X1444729Y1217400D01*
X1443222Y1212759D01*
X1442458Y1207940D01*
Y1203060D01*
X1443222Y1198241D01*
X1444729Y1193600D01*
X1446945Y1189252D01*
X1449813Y1185305D01*
X1453263Y1181854D01*
X1457211Y1178986D01*
X1461558Y1176771D01*
X1466199Y1175263D01*
X1471019Y1174500D01*
X1475898D01*
X1480717Y1175263D01*
X1485358Y1176771D01*
X1489706Y1178986D01*
X1493653Y1181854D01*
X1495633Y1183834D01*
X1497613Y1181854D01*
X1501561Y1178986D01*
X1505908Y1176771D01*
X1510549Y1175263D01*
X1515368Y1174500D01*
X1520248D01*
X1525067Y1175263D01*
X1529708Y1176771D01*
X1534056Y1178986D01*
X1538003Y1181854D01*
X1539983Y1183834D01*
X1541963Y1181854D01*
X1545911Y1178986D01*
X1550258Y1176771D01*
X1554899Y1175263D01*
X1559718Y1174500D01*
X1564598D01*
X1569418Y1175263D01*
X1574058Y1176771D01*
X1578406Y1178986D01*
X1582353Y1181854D01*
X1585804Y1185305D01*
X1588672Y1189252D01*
X1590887Y1193600D01*
X1592395Y1198241D01*
X1593158Y1203060D01*
Y1207940D01*
X1592395Y1212759D01*
X1590887Y1217400D01*
X1588672Y1221748D01*
X1585804Y1225695D01*
X1583824Y1227675D01*
X1585804Y1229655D01*
X1588672Y1233603D01*
X1590887Y1237950D01*
X1592395Y1242591D01*
X1593158Y1247410D01*
Y1252290D01*
X1592395Y1257109D01*
X1590887Y1261750D01*
X1588672Y1266097D01*
X1585804Y1270045D01*
X1583824Y1272025D01*
X1585804Y1274005D01*
X1588672Y1277952D01*
X1590887Y1282300D01*
X1592395Y1286941D01*
X1593158Y1291760D01*
Y1296640D01*
X1592395Y1301459D01*
X1590887Y1306100D01*
X1588672Y1310448D01*
X1585804Y1314395D01*
X1582353Y1317845D01*
X1578406Y1320714D01*
X1574058Y1322929D01*
X1569418Y1324437D01*
X1564598Y1325200D01*
D02*
G37*
G36*
X990395Y1414070D02*
X983185D01*
X976037Y1413129D01*
X969073Y1411263D01*
X962412Y1408504D01*
X956168Y1404899D01*
X950448Y1400510D01*
X945350Y1395412D01*
X940961Y1389692D01*
X937356Y1383448D01*
X934597Y1376787D01*
X932731Y1369823D01*
X931790Y1362675D01*
Y1355465D01*
X932731Y1348317D01*
X934597Y1341353D01*
X937356Y1334692D01*
X940961Y1328448D01*
X945350Y1322728D01*
X950448Y1317630D01*
X956168Y1313241D01*
X962412Y1309636D01*
X969073Y1306877D01*
X976037Y1305011D01*
X983185Y1304070D01*
X990395D01*
X997543Y1305011D01*
X1004507Y1306877D01*
X1011168Y1309636D01*
X1017412Y1313241D01*
X1023132Y1317630D01*
X1028230Y1322728D01*
X1032619Y1328448D01*
X1036224Y1334692D01*
X1038983Y1341353D01*
X1040849Y1348317D01*
X1041790Y1355465D01*
Y1362675D01*
X1040849Y1369823D01*
X1038983Y1376787D01*
X1036224Y1383448D01*
X1032619Y1389692D01*
X1028230Y1395412D01*
X1023132Y1400510D01*
X1017412Y1404899D01*
X1011168Y1408504D01*
X1004507Y1411263D01*
X997543Y1413129D01*
X990395Y1414070D01*
D02*
G37*
G36*
X1052976Y1273450D02*
X1048544D01*
X1044197Y1272585D01*
X1040102Y1270889D01*
X1036417Y1268427D01*
X1033283Y1265293D01*
X1030821Y1261608D01*
X1029125Y1257513D01*
X1028260Y1253166D01*
Y1248734D01*
X1029125Y1244387D01*
X1030821Y1240292D01*
X1033283Y1236607D01*
X1036417Y1233473D01*
X1040102Y1231011D01*
X1044197Y1229315D01*
X1048544Y1228450D01*
X1052976D01*
X1057323Y1229315D01*
X1061418Y1231011D01*
X1065103Y1233473D01*
X1068237Y1236607D01*
X1070699Y1240292D01*
X1072395Y1244387D01*
X1073260Y1248734D01*
Y1253166D01*
X1072395Y1257513D01*
X1070699Y1261608D01*
X1068237Y1265293D01*
X1065103Y1268427D01*
X1061418Y1270889D01*
X1057323Y1272585D01*
X1052976Y1273450D01*
D02*
G37*
G36*
X1002976D02*
X998544D01*
X994197Y1272585D01*
X990102Y1270889D01*
X986417Y1268427D01*
X983283Y1265293D01*
X980821Y1261608D01*
X979125Y1257513D01*
X978260Y1253166D01*
Y1248734D01*
X979125Y1244387D01*
X980821Y1240292D01*
X983283Y1236607D01*
X986417Y1233473D01*
X990102Y1231011D01*
X994197Y1229315D01*
X998544Y1228450D01*
X1002976D01*
X1007323Y1229315D01*
X1011418Y1231011D01*
X1015103Y1233473D01*
X1018237Y1236607D01*
X1020699Y1240292D01*
X1022395Y1244387D01*
X1023260Y1248734D01*
Y1253166D01*
X1022395Y1257513D01*
X1020699Y1261608D01*
X1018237Y1265293D01*
X1015103Y1268427D01*
X1011418Y1270889D01*
X1007323Y1272585D01*
X1002976Y1273450D01*
D02*
G37*
G36*
X1249372Y1278060D02*
X1244650D01*
X1239986Y1277321D01*
X1235495Y1275862D01*
X1231288Y1273718D01*
X1227467Y1270943D01*
X1224128Y1267604D01*
X1221353Y1263783D01*
X1219209Y1259576D01*
X1217750Y1255085D01*
X1217011Y1250421D01*
Y1245699D01*
X1217750Y1241035D01*
X1219209Y1236544D01*
X1221353Y1232337D01*
X1224128Y1228516D01*
X1227467Y1225177D01*
X1231288Y1222402D01*
X1235495Y1220258D01*
X1239986Y1218799D01*
X1244650Y1218060D01*
X1249372D01*
X1254036Y1218799D01*
X1258527Y1220258D01*
X1262734Y1222402D01*
X1266555Y1225177D01*
X1269894Y1228516D01*
X1272669Y1232337D01*
X1274813Y1236544D01*
X1276272Y1241035D01*
X1277011Y1245699D01*
Y1250421D01*
X1276272Y1255085D01*
X1274813Y1259576D01*
X1272669Y1263783D01*
X1269894Y1267604D01*
X1266555Y1270943D01*
X1262734Y1273718D01*
X1258527Y1275862D01*
X1254036Y1277321D01*
X1249372Y1278060D01*
D02*
G37*
G36*
X1052976Y1202330D02*
X1048544D01*
X1044197Y1201465D01*
X1040102Y1199769D01*
X1036417Y1197307D01*
X1033283Y1194173D01*
X1030821Y1190488D01*
X1029125Y1186393D01*
X1028260Y1182046D01*
Y1177614D01*
X1029125Y1173267D01*
X1030821Y1169172D01*
X1033283Y1165487D01*
X1036417Y1162353D01*
X1040102Y1159891D01*
X1044197Y1158195D01*
X1048544Y1157330D01*
X1052976D01*
X1057323Y1158195D01*
X1061418Y1159891D01*
X1065103Y1162353D01*
X1068237Y1165487D01*
X1070699Y1169172D01*
X1072395Y1173267D01*
X1073260Y1177614D01*
Y1182046D01*
X1072395Y1186393D01*
X1070699Y1190488D01*
X1068237Y1194173D01*
X1065103Y1197307D01*
X1061418Y1199769D01*
X1057323Y1201465D01*
X1052976Y1202330D01*
D02*
G37*
G36*
X1002976D02*
X998544D01*
X994197Y1201465D01*
X990102Y1199769D01*
X986417Y1197307D01*
X983283Y1194173D01*
X980821Y1190488D01*
X979125Y1186393D01*
X978260Y1182046D01*
Y1177614D01*
X979125Y1173267D01*
X980821Y1169172D01*
X983283Y1165487D01*
X986417Y1162353D01*
X990102Y1159891D01*
X994197Y1158195D01*
X998544Y1157330D01*
X1002976D01*
X1007323Y1158195D01*
X1011418Y1159891D01*
X1015103Y1162353D01*
X1018237Y1165487D01*
X1020699Y1169172D01*
X1022395Y1173267D01*
X1023260Y1177614D01*
Y1182046D01*
X1022395Y1186393D01*
X1020699Y1190488D01*
X1018237Y1194173D01*
X1015103Y1197307D01*
X1011418Y1199769D01*
X1007323Y1201465D01*
X1002976Y1202330D01*
D02*
G37*
G36*
X1049946Y805705D02*
X1046984D01*
X1044078Y805127D01*
X1041341Y803993D01*
X1038877Y802347D01*
X1036783Y800253D01*
X1035137Y797789D01*
X1034003Y795052D01*
X1033425Y792147D01*
Y789184D01*
X1034003Y786278D01*
X1035137Y783541D01*
X1036783Y781078D01*
X1038877Y778983D01*
X1041341Y777337D01*
X1044078Y776203D01*
X1046984Y775625D01*
X1049946D01*
X1052852Y776203D01*
X1055589Y777337D01*
X1058052Y778983D01*
X1060147Y781078D01*
X1061793Y783541D01*
X1062927Y786278D01*
X1063505Y789184D01*
Y792147D01*
X1062927Y795052D01*
X1061793Y797789D01*
X1060147Y800253D01*
X1058052Y802347D01*
X1055589Y803993D01*
X1052852Y805127D01*
X1049946Y805705D01*
D02*
G37*
G36*
X1101429Y818165D02*
X1097101D01*
X1092825Y817488D01*
X1088709Y816150D01*
X1084852Y814185D01*
X1081350Y811641D01*
X1078289Y808580D01*
X1075745Y805078D01*
X1073780Y801221D01*
X1072442Y797105D01*
X1071765Y792830D01*
Y788501D01*
X1072442Y784226D01*
X1073780Y780109D01*
X1075745Y776252D01*
X1078289Y772750D01*
X1081350Y769689D01*
X1084852Y767145D01*
X1088709Y765180D01*
X1092825Y763842D01*
X1097101Y763165D01*
X1101429D01*
X1105704Y763842D01*
X1109821Y765180D01*
X1113678Y767145D01*
X1117180Y769689D01*
X1120241Y772750D01*
X1122785Y776252D01*
X1124750Y780109D01*
X1126088Y784226D01*
X1126765Y788501D01*
Y792830D01*
X1126088Y797105D01*
X1124750Y801221D01*
X1122785Y805078D01*
X1120241Y808580D01*
X1117180Y811641D01*
X1113678Y814185D01*
X1109821Y816150D01*
X1105704Y817488D01*
X1101429Y818165D01*
D02*
G37*
G36*
X999829D02*
X995501D01*
X991225Y817488D01*
X987109Y816150D01*
X983252Y814185D01*
X979750Y811641D01*
X976689Y808580D01*
X974145Y805078D01*
X972180Y801221D01*
X970842Y797105D01*
X970165Y792830D01*
Y788501D01*
X970842Y784226D01*
X972180Y780109D01*
X974145Y776252D01*
X976689Y772750D01*
X979750Y769689D01*
X983252Y767145D01*
X987109Y765180D01*
X991225Y763842D01*
X995501Y763165D01*
X999829D01*
X1004105Y763842D01*
X1008221Y765180D01*
X1012078Y767145D01*
X1015580Y769689D01*
X1018641Y772750D01*
X1021185Y776252D01*
X1023150Y780109D01*
X1024488Y784226D01*
X1025165Y788501D01*
Y792830D01*
X1024488Y797105D01*
X1023150Y801221D01*
X1021185Y805078D01*
X1018641Y808580D01*
X1015580Y811641D01*
X1012078Y814185D01*
X1008221Y816150D01*
X1004105Y817488D01*
X999829Y818165D01*
D02*
G37*
G36*
X1049946Y729505D02*
X1046984D01*
X1044078Y728927D01*
X1041341Y727793D01*
X1038877Y726148D01*
X1036783Y724053D01*
X1035137Y721589D01*
X1034003Y718852D01*
X1033425Y715947D01*
Y712984D01*
X1034003Y710078D01*
X1035137Y707341D01*
X1036783Y704878D01*
X1038877Y702783D01*
X1041341Y701137D01*
X1044078Y700003D01*
X1046984Y699425D01*
X1049946D01*
X1052852Y700003D01*
X1055589Y701137D01*
X1058052Y702783D01*
X1060147Y704878D01*
X1061793Y707341D01*
X1062927Y710078D01*
X1063505Y712984D01*
Y715947D01*
X1062927Y718852D01*
X1061793Y721589D01*
X1060147Y724053D01*
X1058052Y726148D01*
X1055589Y727793D01*
X1052852Y728927D01*
X1049946Y729505D01*
D02*
G37*
G36*
X1101429Y741965D02*
X1097101D01*
X1092825Y741288D01*
X1088709Y739950D01*
X1084852Y737985D01*
X1081350Y735441D01*
X1078289Y732380D01*
X1075745Y728878D01*
X1073780Y725022D01*
X1072442Y720905D01*
X1071765Y716629D01*
Y712301D01*
X1072442Y708026D01*
X1073780Y703909D01*
X1075745Y700052D01*
X1078289Y696550D01*
X1081350Y693489D01*
X1084852Y690945D01*
X1088709Y688980D01*
X1092825Y687642D01*
X1097101Y686965D01*
X1101429D01*
X1105704Y687642D01*
X1109821Y688980D01*
X1113678Y690945D01*
X1117180Y693489D01*
X1120241Y696550D01*
X1122785Y700052D01*
X1124750Y703909D01*
X1126088Y708026D01*
X1126765Y712301D01*
Y716629D01*
X1126088Y720905D01*
X1124750Y725022D01*
X1122785Y728878D01*
X1120241Y732380D01*
X1117180Y735441D01*
X1113678Y737985D01*
X1109821Y739950D01*
X1105704Y741288D01*
X1101429Y741965D01*
D02*
G37*
G36*
X999829D02*
X995501D01*
X991225Y741288D01*
X987109Y739950D01*
X983252Y737985D01*
X979750Y735441D01*
X976689Y732380D01*
X974145Y728878D01*
X972180Y725022D01*
X970842Y720905D01*
X970165Y716629D01*
Y712301D01*
X970842Y708026D01*
X972180Y703909D01*
X974145Y700052D01*
X976689Y696550D01*
X979750Y693489D01*
X983252Y690945D01*
X987109Y688980D01*
X991225Y687642D01*
X995501Y686965D01*
X999829D01*
X1004105Y687642D01*
X1008221Y688980D01*
X1012078Y690945D01*
X1015580Y693489D01*
X1018641Y696550D01*
X1021185Y700052D01*
X1023150Y703909D01*
X1024488Y708026D01*
X1025165Y712301D01*
Y716629D01*
X1024488Y720905D01*
X1023150Y725022D01*
X1021185Y728878D01*
X1018641Y732380D01*
X1015580Y735441D01*
X1012078Y737985D01*
X1008221Y739950D01*
X1004105Y741288D01*
X999829Y741965D01*
D02*
G37*
G36*
X776280Y613358D02*
X696280D01*
X693006Y612927D01*
X689956Y611664D01*
X687336Y609654D01*
X685326Y607034D01*
X684063Y603984D01*
X683632Y600710D01*
X684063Y597436D01*
X685326Y594386D01*
X687336Y591766D01*
X689956Y589756D01*
X693006Y588493D01*
X696280Y588062D01*
X776280D01*
X779554Y588493D01*
X782604Y589756D01*
X785224Y591766D01*
X787234Y594386D01*
X788497Y597436D01*
X788928Y600710D01*
X788497Y603984D01*
X787234Y607034D01*
X785224Y609654D01*
X782604Y611664D01*
X779554Y612927D01*
X776280Y613358D01*
D02*
G37*
G36*
X570540Y615480D02*
X567380D01*
X564281Y614864D01*
X561362Y613655D01*
X558735Y611899D01*
X556501Y609665D01*
X554745Y607038D01*
X553536Y604119D01*
X552920Y601020D01*
Y597860D01*
X553536Y594761D01*
X554745Y591842D01*
X556501Y589215D01*
X558735Y586981D01*
X561362Y585225D01*
X564281Y584016D01*
X567380Y583400D01*
X570540D01*
X573639Y584016D01*
X576558Y585225D01*
X579185Y586981D01*
X581419Y589215D01*
X583175Y591842D01*
X584384Y594761D01*
X585000Y597860D01*
Y601020D01*
X584384Y604119D01*
X583175Y607038D01*
X581419Y609665D01*
X579185Y611899D01*
X576558Y613655D01*
X573639Y614864D01*
X570540Y615480D01*
D02*
G37*
G36*
X1173160Y625831D02*
X1093160D01*
X1088259Y625348D01*
X1083547Y623919D01*
X1079203Y621597D01*
X1075397Y618473D01*
X1072273Y614666D01*
X1069951Y610323D01*
X1068522Y605611D01*
X1068039Y600710D01*
X1068522Y595809D01*
X1069951Y591097D01*
X1072273Y586754D01*
X1075397Y582947D01*
X1079203Y579823D01*
X1083547Y577501D01*
X1088259Y576072D01*
X1093160Y575589D01*
X1173160D01*
X1178061Y576072D01*
X1182773Y577501D01*
X1187116Y579823D01*
X1190923Y582947D01*
X1194047Y586754D01*
X1196369Y591097D01*
X1197798Y595809D01*
X1198281Y600710D01*
X1197798Y605611D01*
X1196369Y610323D01*
X1194047Y614666D01*
X1190923Y618473D01*
X1187116Y621597D01*
X1182773Y623919D01*
X1178061Y625348D01*
X1173160Y625831D01*
D02*
G37*
G36*
X570540Y564680D02*
X567380D01*
X564281Y564064D01*
X561362Y562854D01*
X558735Y561099D01*
X556501Y558865D01*
X554745Y556238D01*
X553536Y553319D01*
X552920Y550220D01*
Y547060D01*
X553536Y543961D01*
X554745Y541042D01*
X556501Y538415D01*
X558735Y536181D01*
X561362Y534426D01*
X564281Y533216D01*
X567380Y532600D01*
X570540D01*
X573639Y533216D01*
X576558Y534426D01*
X579185Y536181D01*
X581419Y538415D01*
X583175Y541042D01*
X584384Y543961D01*
X585000Y547060D01*
Y550220D01*
X584384Y553319D01*
X583175Y556238D01*
X581419Y558865D01*
X579185Y561099D01*
X576558Y562854D01*
X573639Y564064D01*
X570540Y564680D01*
D02*
G37*
G36*
X1915350Y979296D02*
X1907350D01*
X1902253Y978794D01*
X1897352Y977307D01*
X1892835Y974893D01*
X1888876Y971644D01*
X1885627Y967685D01*
X1883213Y963168D01*
X1881726Y958267D01*
X1881224Y953170D01*
X1881726Y948073D01*
X1883213Y943172D01*
X1885627Y938655D01*
X1888876Y934696D01*
X1892835Y931447D01*
X1897352Y929033D01*
X1899422Y928405D01*
Y927135D01*
X1897352Y926507D01*
X1892835Y924093D01*
X1888876Y920844D01*
X1885627Y916885D01*
X1883213Y912368D01*
X1881726Y907467D01*
X1881224Y902370D01*
X1881726Y897273D01*
X1883213Y892372D01*
X1885627Y887855D01*
X1888876Y883896D01*
X1892835Y880647D01*
X1897352Y878233D01*
X1902253Y876746D01*
X1907350Y876244D01*
X1915350D01*
X1920447Y876746D01*
X1925348Y878233D01*
X1929865Y880647D01*
X1933824Y883896D01*
X1937073Y887855D01*
X1939487Y892372D01*
X1940974Y897273D01*
X1941476Y902370D01*
X1940974Y907467D01*
X1939487Y912368D01*
X1937073Y916885D01*
X1933824Y920844D01*
X1929865Y924093D01*
X1925348Y926507D01*
X1923278Y927135D01*
Y928405D01*
X1925348Y929033D01*
X1929865Y931447D01*
X1933824Y934696D01*
X1937073Y938655D01*
X1939487Y943172D01*
X1940974Y948073D01*
X1941476Y953170D01*
X1940974Y958267D01*
X1939487Y963168D01*
X1937073Y967685D01*
X1933824Y971644D01*
X1929865Y974893D01*
X1925348Y977307D01*
X1920447Y978794D01*
X1915350Y979296D01*
D02*
G37*
G36*
Y826896D02*
X1907350D01*
X1902253Y826394D01*
X1897352Y824907D01*
X1892835Y822493D01*
X1888876Y819244D01*
X1885627Y815285D01*
X1883213Y810768D01*
X1881726Y805867D01*
X1881224Y800770D01*
X1881726Y795673D01*
X1883213Y790772D01*
X1885627Y786255D01*
X1888876Y782296D01*
X1892835Y779047D01*
X1897352Y776633D01*
X1899422Y776005D01*
Y774735D01*
X1897352Y774107D01*
X1892835Y771693D01*
X1888876Y768444D01*
X1885627Y764485D01*
X1883213Y759968D01*
X1881726Y755067D01*
X1881224Y749970D01*
X1881726Y744873D01*
X1883213Y739972D01*
X1885627Y735455D01*
X1888876Y731496D01*
X1892835Y728247D01*
X1897352Y725833D01*
X1902253Y724346D01*
X1907350Y723844D01*
X1915350D01*
X1920447Y724346D01*
X1925348Y725833D01*
X1929865Y728247D01*
X1933824Y731496D01*
X1937073Y735455D01*
X1939487Y739972D01*
X1940974Y744873D01*
X1941476Y749970D01*
X1940974Y755067D01*
X1939487Y759968D01*
X1937073Y764485D01*
X1933824Y768444D01*
X1929865Y771693D01*
X1925348Y774107D01*
X1923278Y774735D01*
Y776005D01*
X1925348Y776633D01*
X1929865Y779047D01*
X1933824Y782296D01*
X1937073Y786255D01*
X1939487Y790772D01*
X1940974Y795673D01*
X1941476Y800770D01*
X1940974Y805867D01*
X1939487Y810768D01*
X1937073Y815285D01*
X1933824Y819244D01*
X1929865Y822493D01*
X1925348Y824907D01*
X1920447Y826394D01*
X1915350Y826896D01*
D02*
G37*
%LPD*%
D31*
X1520280Y713740D02*
Y789940D01*
Y638900D02*
Y713740D01*
X1361440Y600710D02*
X1482090D01*
X1520280Y638900D01*
D34*
X1842750Y964470D02*
D03*
Y714470D02*
D03*
X1621880Y869950D02*
D03*
Y946150D02*
D03*
X1520280Y713740D02*
D03*
X1621880D02*
D03*
X1520280Y789940D02*
D03*
X1621880D02*
D03*
D35*
X1473458Y1509500D02*
D03*
X1517808D02*
D03*
X1562158D02*
D03*
X1473458Y1465150D02*
D03*
X1562158D02*
D03*
X1473458Y1420800D02*
D03*
X1517808D02*
D03*
X1562158D02*
D03*
D36*
X1050760Y1526540D02*
D03*
Y1597660D02*
D03*
D38*
X1720000Y1455000D02*
D03*
Y1630000D02*
D03*
X779999Y1684500D02*
D03*
Y1509500D02*
D03*
D40*
X1173730Y862660D02*
D03*
D41*
X1361440Y600710D02*
D03*
D42*
X568960Y701040D02*
D03*
Y650240D02*
D03*
D43*
X1911350Y851570D02*
D03*
D44*
X1925000Y620000D02*
D03*
D47*
X866779Y1400500D02*
D03*
Y1575500D02*
D03*
M02*
