M48
;Layer_Color=9474304
;FILE_FORMAT=4:4
METRIC,LZ
;TYPE=PLATED
T1F00S00C0.7000
T8F00S00C1.7000
T10F00S00C2.5000
%
G90
G05
T01
G00X0179482Y0060071
M15
G01X0172182
M16
G00X0139794Y0060071
M15
G01X0132494
M16
G00X0116966Y0060071
M15
G01X0109666
M16
G00X0077278Y0060071
M15
G01X0069978
M16
T08
G00X00796499Y010305
M15
G01X007635
M16
G00X00796499Y01085
M15
G01X007635
M16
G00X00796499Y011395
M15
G01X007635
M16
G00X017035Y011395
M15
G01X017365
M16
G00X017035Y01085
M15
G01X017365
M16
G00X017035Y010305
M15
G01X017365
M16
G00X017035Y012055
M15
G01X017365
M16
G00X017035Y0126
M15
G01X017365
M16
G00X017035Y013145
M15
G01X017365
M16
G00X017035Y014005
M15
G01X017365
M16
G00X017035Y01455
M15
G01X017365
M16
G00X017035Y015095
M15
G01X017365
M16
G00X017035Y015755
M15
G01X017365
M16
G00X00796499Y015755
M15
G01X007635
M16
G00X00796499Y015095
M15
G01X007635
M16
G00X00796499Y01455
M15
G01X007635
M16
G00X00796499Y014005
M15
G01X007635
M16
G00X00796499Y013145
M15
G01X007635
M16
G00X00796499Y0126
M15
G01X007635
M16
G00X00796499Y012055
M15
G01X007635
M16
G00X00796499Y0163
M15
G01X007635
M16
G00X00796499Y016845
M15
G01X007635
M16
G00X017035Y016845
M15
G01X017365
M16
G00X017035Y0163
M15
G01X017365
M16
T10
G00X0117373Y0087516
M15
G01Y0085016
M16
G00X0117373Y0097516
M15
G01Y0095016
M16
M17
M30
