G04*
G04 #@! TF.GenerationSoftware,Altium Limited,Altium Designer,22.8.2 (66)*
G04*
G04 Layer_Physical_Order=4*
G04 Layer_Color=16737945*
%FSLAX44Y44*%
%MOMM*%
G71*
G04*
G04 #@! TF.SameCoordinates,40631429-7DBC-4EA8-B2E3-056BE841FA50*
G04*
G04*
G04 #@! TF.FilePolarity,Positive*
G04*
G01*
G75*
%ADD12C,0.5000*%
%ADD32C,3.5000*%
%ADD33C,3.0000*%
%ADD34C,2.5000*%
%ADD36C,1.5000*%
%ADD37C,1.6000*%
%ADD38O,7.2000X2.7500*%
%ADD40O,4.5000X7.0000*%
%ADD41O,10.0000X2.0000*%
%ADD43O,3.0000X2.2000*%
%ADD48C,1.0000*%
G36*
X1156735Y816610D02*
X1162106Y814385D01*
X1167846Y813007D01*
X1173730Y812544D01*
X1179614Y813007D01*
X1185354Y814385D01*
X1190725Y816610D01*
X1239013D01*
X1239318Y815340D01*
X1237052Y814185D01*
X1233550Y811641D01*
X1230489Y808580D01*
X1227945Y805078D01*
X1225980Y801221D01*
X1224642Y797105D01*
X1223965Y792830D01*
Y788501D01*
X1224642Y784226D01*
X1225980Y780109D01*
X1227945Y776252D01*
X1230489Y772750D01*
X1233550Y769689D01*
X1237052Y767145D01*
X1240909Y765180D01*
X1245025Y763842D01*
X1249301Y763165D01*
X1253629D01*
X1257905Y763842D01*
X1262021Y765180D01*
X1265878Y767145D01*
X1269380Y769689D01*
X1272441Y772750D01*
X1274985Y776252D01*
X1276950Y780109D01*
X1278288Y784226D01*
X1278965Y788501D01*
Y792830D01*
X1278288Y797105D01*
X1276950Y801221D01*
X1274985Y805078D01*
X1272441Y808580D01*
X1269380Y811641D01*
X1265878Y814185D01*
X1263612Y815340D01*
X1263917Y816610D01*
X1356570Y816610D01*
X1356686Y816424D01*
X1356226Y814764D01*
X1353667Y813460D01*
X1350165Y810916D01*
X1347104Y807855D01*
X1344560Y804353D01*
X1342595Y800496D01*
X1341257Y796380D01*
X1340580Y792104D01*
Y787776D01*
X1341257Y783500D01*
X1342595Y779384D01*
X1344560Y775527D01*
X1347104Y772025D01*
X1350165Y768964D01*
X1353667Y766420D01*
X1357524Y764455D01*
X1361640Y763117D01*
X1365916Y762440D01*
X1370244D01*
X1374520Y763117D01*
X1378636Y764455D01*
X1382493Y766420D01*
X1385995Y768964D01*
X1389056Y772025D01*
X1391600Y775527D01*
X1393565Y779384D01*
X1394903Y783500D01*
X1395580Y787776D01*
Y792104D01*
X1394903Y796380D01*
X1393565Y800496D01*
X1391600Y804353D01*
X1389056Y807855D01*
X1385995Y810916D01*
X1382493Y813460D01*
X1379934Y814764D01*
X1379474Y816424D01*
X1379590Y816610D01*
X1508770Y816610D01*
X1508886Y816424D01*
X1508426Y814764D01*
X1505867Y813460D01*
X1502365Y810916D01*
X1499304Y807855D01*
X1496760Y804353D01*
X1494795Y800496D01*
X1493457Y796380D01*
X1492780Y792104D01*
Y787776D01*
X1493457Y783500D01*
X1494795Y779384D01*
X1496760Y775527D01*
X1499304Y772025D01*
X1502365Y768964D01*
X1505867Y766420D01*
X1509724Y764455D01*
X1513840Y763117D01*
X1518116Y762440D01*
X1522444D01*
X1526720Y763117D01*
X1530836Y764455D01*
X1534693Y766420D01*
X1538195Y768964D01*
X1541256Y772025D01*
X1543800Y775527D01*
X1545765Y779384D01*
X1547103Y783500D01*
X1547780Y787776D01*
Y792104D01*
X1547103Y796380D01*
X1545765Y800496D01*
X1543800Y804353D01*
X1541256Y807855D01*
X1538195Y810916D01*
X1534693Y813460D01*
X1532134Y814764D01*
X1531674Y816424D01*
X1531790Y816610D01*
X1576070D01*
X1593850Y798830D01*
Y539750D01*
X1583690Y529590D01*
X1071880D01*
X1024890Y576580D01*
Y697967D01*
X1026160Y698379D01*
X1027489Y696550D01*
X1030550Y693489D01*
X1034052Y690945D01*
X1037909Y688980D01*
X1042025Y687642D01*
X1046301Y686965D01*
X1050629D01*
X1054904Y687642D01*
X1059021Y688980D01*
X1062878Y690945D01*
X1066380Y693489D01*
X1069441Y696550D01*
X1071985Y700052D01*
X1073950Y703909D01*
X1075288Y708026D01*
X1075965Y712301D01*
Y716629D01*
X1075288Y720905D01*
X1073950Y725022D01*
X1071985Y728878D01*
X1069441Y732380D01*
X1066380Y735441D01*
X1062878Y737985D01*
X1059021Y739950D01*
X1054904Y741288D01*
X1050629Y741965D01*
X1046301D01*
X1042025Y741288D01*
X1037909Y739950D01*
X1034052Y737985D01*
X1030550Y735441D01*
X1027489Y732380D01*
X1026160Y730551D01*
X1024890Y730964D01*
Y774167D01*
X1026160Y774579D01*
X1027489Y772750D01*
X1030550Y769689D01*
X1034052Y767145D01*
X1037909Y765180D01*
X1042025Y763842D01*
X1046301Y763165D01*
X1050629D01*
X1054904Y763842D01*
X1059021Y765180D01*
X1062878Y767145D01*
X1066380Y769689D01*
X1069441Y772750D01*
X1071985Y776252D01*
X1073950Y780109D01*
X1075288Y784226D01*
X1075965Y788501D01*
Y792830D01*
X1075288Y797105D01*
X1073950Y801221D01*
X1071985Y805078D01*
X1069441Y808580D01*
X1066380Y811641D01*
X1062878Y814185D01*
X1060612Y815340D01*
X1060917Y816610D01*
X1156735Y816610D01*
D02*
G37*
G36*
X1941476Y724170D02*
X1868513D01*
X1868235Y725026D01*
X1866270Y728883D01*
X1863726Y732385D01*
X1860665Y735446D01*
X1857163Y737990D01*
X1853306Y739955D01*
X1849190Y741293D01*
X1844914Y741970D01*
X1840586D01*
X1836310Y741293D01*
X1832194Y739955D01*
X1828337Y737990D01*
X1824835Y735446D01*
X1821774Y732385D01*
X1819230Y728883D01*
X1817265Y725026D01*
X1816987Y724170D01*
X1764030D01*
Y843280D01*
X1882695D01*
X1883213Y841572D01*
X1885627Y837055D01*
X1888876Y833096D01*
X1892835Y829847D01*
X1897352Y827433D01*
X1902253Y825946D01*
X1907350Y825444D01*
X1915350D01*
X1920447Y825946D01*
X1925348Y827433D01*
X1929865Y829847D01*
X1933824Y833096D01*
X1937073Y837055D01*
X1939487Y841572D01*
X1940005Y843280D01*
X1941476D01*
Y724170D01*
D02*
G37*
G36*
X1724324Y1713339D02*
X1697750D01*
X1693239Y1712984D01*
X1688838Y1711927D01*
X1684657Y1710196D01*
X1680799Y1707831D01*
X1677358Y1704892D01*
X1675412Y1702614D01*
X1674143Y1702564D01*
X1673760Y1702948D01*
X1669870Y1705547D01*
X1665548Y1707337D01*
X1660959Y1708250D01*
X1656281D01*
X1651692Y1707337D01*
X1647370Y1705547D01*
X1645920Y1704578D01*
X1644470Y1705547D01*
X1640148Y1707337D01*
X1635559Y1708250D01*
X1630881D01*
X1626292Y1707337D01*
X1621970Y1705547D01*
X1618080Y1702948D01*
X1614772Y1699640D01*
X1612173Y1695750D01*
X1610383Y1691428D01*
X1609470Y1686839D01*
Y1682161D01*
X1610383Y1677572D01*
X1612173Y1673250D01*
X1614772Y1669360D01*
X1618080Y1666052D01*
X1621970Y1663453D01*
X1626292Y1661663D01*
X1630881Y1660750D01*
X1635559D01*
X1640148Y1661663D01*
X1644470Y1663453D01*
X1645920Y1664422D01*
X1647370Y1663453D01*
X1651692Y1661663D01*
X1656281Y1660750D01*
X1660959D01*
X1665548Y1661663D01*
X1669870Y1663453D01*
X1673760Y1666052D01*
X1674143Y1666436D01*
X1675412Y1666386D01*
X1677358Y1664108D01*
X1680799Y1661169D01*
X1684657Y1658804D01*
X1686877Y1657885D01*
Y1656615D01*
X1684657Y1655696D01*
X1680799Y1653331D01*
X1677358Y1650392D01*
X1674419Y1646951D01*
X1672054Y1643093D01*
X1670323Y1638912D01*
X1669266Y1634511D01*
X1668911Y1630000D01*
X1669266Y1625489D01*
X1670323Y1621088D01*
X1672054Y1616907D01*
X1674419Y1613049D01*
X1677358Y1609608D01*
X1680799Y1606669D01*
X1684657Y1604304D01*
X1686877Y1603385D01*
Y1602115D01*
X1684657Y1601196D01*
X1680799Y1598831D01*
X1677358Y1595892D01*
X1674419Y1592451D01*
X1672054Y1588593D01*
X1670323Y1584412D01*
X1669266Y1580011D01*
X1668911Y1575500D01*
X1669266Y1570989D01*
X1670323Y1566588D01*
X1672054Y1562407D01*
X1674419Y1558549D01*
X1677358Y1555108D01*
X1680799Y1552169D01*
X1684657Y1549804D01*
X1688838Y1548073D01*
X1693239Y1547016D01*
X1697750Y1546661D01*
X1724324D01*
Y1538339D01*
X1697750D01*
X1693239Y1537984D01*
X1688838Y1536927D01*
X1684657Y1535196D01*
X1680799Y1532831D01*
X1677358Y1529892D01*
X1675412Y1527614D01*
X1674143Y1527564D01*
X1673760Y1527948D01*
X1669870Y1530547D01*
X1665548Y1532337D01*
X1660959Y1533250D01*
X1656281D01*
X1651692Y1532337D01*
X1647370Y1530547D01*
X1645920Y1529578D01*
X1644470Y1530547D01*
X1640148Y1532337D01*
X1635559Y1533250D01*
X1630881D01*
X1626292Y1532337D01*
X1621970Y1530547D01*
X1618080Y1527948D01*
X1614772Y1524640D01*
X1612173Y1520750D01*
X1610383Y1516428D01*
X1609470Y1511839D01*
Y1507161D01*
X1610383Y1502572D01*
X1612173Y1498250D01*
X1614772Y1494360D01*
X1618080Y1491052D01*
X1621970Y1488453D01*
X1626292Y1486663D01*
X1630881Y1485750D01*
X1635559D01*
X1640148Y1486663D01*
X1644470Y1488453D01*
X1645920Y1489422D01*
X1647370Y1488453D01*
X1651692Y1486663D01*
X1656281Y1485750D01*
X1660959D01*
X1665548Y1486663D01*
X1669870Y1488453D01*
X1673760Y1491052D01*
X1674143Y1491436D01*
X1675412Y1491386D01*
X1677358Y1489108D01*
X1680799Y1486169D01*
X1684657Y1483804D01*
X1686877Y1482885D01*
Y1481615D01*
X1684657Y1480696D01*
X1680799Y1478331D01*
X1677358Y1475392D01*
X1674419Y1471951D01*
X1672054Y1468093D01*
X1670323Y1463912D01*
X1669266Y1459511D01*
X1668911Y1455000D01*
X1669266Y1450489D01*
X1670323Y1446088D01*
X1672054Y1441907D01*
X1674419Y1438049D01*
X1677358Y1434608D01*
X1680799Y1431669D01*
X1684657Y1429304D01*
X1686877Y1428385D01*
Y1427115D01*
X1684657Y1426196D01*
X1680799Y1423831D01*
X1677358Y1420892D01*
X1674419Y1417451D01*
X1672054Y1413593D01*
X1670323Y1409412D01*
X1669266Y1405011D01*
X1668911Y1400500D01*
X1669266Y1395989D01*
X1670323Y1391588D01*
X1672054Y1387407D01*
X1674419Y1383549D01*
X1677358Y1380108D01*
X1680799Y1377169D01*
X1684657Y1374804D01*
X1688838Y1373073D01*
X1693239Y1372016D01*
X1697750Y1371661D01*
X1724324D01*
X1724324Y1343339D01*
X1697750D01*
X1693239Y1342984D01*
X1688838Y1341927D01*
X1684657Y1340196D01*
X1680799Y1337831D01*
X1677358Y1334892D01*
X1675412Y1332614D01*
X1674143Y1332564D01*
X1673760Y1332948D01*
X1669870Y1335547D01*
X1665548Y1337337D01*
X1660959Y1338250D01*
X1656281D01*
X1651692Y1337337D01*
X1647370Y1335547D01*
X1645920Y1334578D01*
X1644470Y1335547D01*
X1640148Y1337337D01*
X1635559Y1338250D01*
X1630881D01*
X1626292Y1337337D01*
X1621970Y1335547D01*
X1618080Y1332948D01*
X1614772Y1329640D01*
X1612173Y1325750D01*
X1610383Y1321428D01*
X1609470Y1316839D01*
Y1312161D01*
X1610383Y1307572D01*
X1612173Y1303250D01*
X1614772Y1299360D01*
X1618080Y1296052D01*
X1621970Y1293453D01*
X1626292Y1291663D01*
X1630881Y1290750D01*
X1635559D01*
X1640148Y1291663D01*
X1644470Y1293453D01*
X1645920Y1294422D01*
X1647370Y1293453D01*
X1651692Y1291663D01*
X1656281Y1290750D01*
X1660959D01*
X1665548Y1291663D01*
X1669870Y1293453D01*
X1673760Y1296052D01*
X1674143Y1296436D01*
X1675412Y1296386D01*
X1677358Y1294108D01*
X1680799Y1291169D01*
X1684657Y1288804D01*
X1686877Y1287885D01*
Y1286615D01*
X1684657Y1285696D01*
X1680799Y1283331D01*
X1677358Y1280392D01*
X1674419Y1276951D01*
X1672054Y1273093D01*
X1670323Y1268912D01*
X1669266Y1264511D01*
X1668911Y1260000D01*
X1669266Y1255489D01*
X1670323Y1251088D01*
X1672054Y1246907D01*
X1674419Y1243049D01*
X1677358Y1239608D01*
X1680799Y1236669D01*
X1684657Y1234304D01*
X1686877Y1233385D01*
Y1232115D01*
X1684657Y1231196D01*
X1680799Y1228831D01*
X1677358Y1225892D01*
X1674419Y1222451D01*
X1672054Y1218593D01*
X1670323Y1214412D01*
X1669266Y1210011D01*
X1668911Y1205500D01*
X1669266Y1200989D01*
X1670323Y1196588D01*
X1672054Y1192407D01*
X1674419Y1188549D01*
X1677358Y1185108D01*
X1680799Y1182169D01*
X1684657Y1179804D01*
X1688838Y1178073D01*
X1693239Y1177016D01*
X1697750Y1176661D01*
X1724324D01*
Y1168339D01*
X1697750D01*
X1693239Y1167984D01*
X1688838Y1166927D01*
X1684657Y1165196D01*
X1680799Y1162831D01*
X1677358Y1159892D01*
X1675412Y1157614D01*
X1674143Y1157564D01*
X1673760Y1157948D01*
X1669870Y1160547D01*
X1665548Y1162337D01*
X1660959Y1163250D01*
X1656281D01*
X1651692Y1162337D01*
X1647370Y1160547D01*
X1645920Y1159578D01*
X1644470Y1160547D01*
X1640148Y1162337D01*
X1635559Y1163250D01*
X1630881D01*
X1626292Y1162337D01*
X1621970Y1160547D01*
X1618080Y1157948D01*
X1614772Y1154640D01*
X1612173Y1150750D01*
X1610383Y1146428D01*
X1609470Y1141839D01*
Y1137161D01*
X1610383Y1132572D01*
X1612173Y1128250D01*
X1614772Y1124360D01*
X1618080Y1121052D01*
X1621970Y1118453D01*
X1626292Y1116663D01*
X1630881Y1115750D01*
X1635559D01*
X1640148Y1116663D01*
X1644470Y1118453D01*
X1645920Y1119422D01*
X1647370Y1118453D01*
X1651692Y1116663D01*
X1656281Y1115750D01*
X1660959D01*
X1665548Y1116663D01*
X1669870Y1118453D01*
X1673760Y1121052D01*
X1674143Y1121436D01*
X1675412Y1121386D01*
X1677358Y1119108D01*
X1680799Y1116169D01*
X1684657Y1113804D01*
X1686877Y1112885D01*
Y1111615D01*
X1684657Y1110696D01*
X1680799Y1108331D01*
X1677358Y1105392D01*
X1674419Y1101951D01*
X1672054Y1098093D01*
X1670323Y1093912D01*
X1669266Y1089511D01*
X1668911Y1085000D01*
X1669266Y1080489D01*
X1670323Y1076088D01*
X1672054Y1071907D01*
X1674419Y1068049D01*
X1677358Y1064608D01*
X1680799Y1061669D01*
X1684657Y1059304D01*
X1686877Y1058385D01*
Y1057115D01*
X1684657Y1056196D01*
X1680799Y1053831D01*
X1677358Y1050892D01*
X1674419Y1047451D01*
X1672054Y1043593D01*
X1670323Y1039412D01*
X1669266Y1035011D01*
X1668911Y1030500D01*
X1669266Y1025989D01*
X1670323Y1021588D01*
X1672054Y1017407D01*
X1674419Y1013549D01*
X1677358Y1010108D01*
X1680799Y1007169D01*
X1684657Y1004804D01*
X1688838Y1003073D01*
X1693239Y1002016D01*
X1697750Y1001661D01*
X1724324D01*
Y993140D01*
X1724324Y993140D01*
X1549115Y993140D01*
X1548741Y994410D01*
X1554150Y998560D01*
X1559248Y1003658D01*
X1563637Y1009378D01*
X1567242Y1015622D01*
X1570001Y1022283D01*
X1571867Y1029247D01*
X1572808Y1036395D01*
Y1043605D01*
X1571867Y1050753D01*
X1570001Y1057717D01*
X1567242Y1064378D01*
X1563637Y1070622D01*
X1559248Y1076342D01*
X1554150Y1081440D01*
X1548430Y1085829D01*
X1542186Y1089434D01*
X1535525Y1092193D01*
X1528561Y1094059D01*
X1521413Y1095000D01*
X1514203D01*
X1507055Y1094059D01*
X1500091Y1092193D01*
X1493430Y1089434D01*
X1487186Y1085829D01*
X1481467Y1081440D01*
X1476368Y1076342D01*
X1471979Y1070622D01*
X1468374Y1064378D01*
X1465615Y1057717D01*
X1463749Y1050753D01*
X1462808Y1043605D01*
Y1036395D01*
X1463749Y1029247D01*
X1465615Y1022283D01*
X1468374Y1015622D01*
X1471979Y1009378D01*
X1476368Y1003658D01*
X1481467Y998560D01*
X1486875Y994410D01*
X1486501Y993140D01*
X1376321Y993140D01*
X1376120Y994410D01*
X1380556Y995851D01*
X1385114Y998174D01*
X1389252Y1001180D01*
X1392870Y1004798D01*
X1395876Y1008936D01*
X1398199Y1013494D01*
X1399780Y1018360D01*
X1400580Y1023412D01*
Y1028528D01*
X1399780Y1033580D01*
X1398199Y1038446D01*
X1395876Y1043004D01*
X1392870Y1047142D01*
X1391867Y1048145D01*
X1392870Y1049148D01*
X1395876Y1053286D01*
X1398199Y1057844D01*
X1399780Y1062710D01*
X1400580Y1067762D01*
Y1072878D01*
X1399780Y1077930D01*
X1398199Y1082796D01*
X1395876Y1087354D01*
X1392870Y1091492D01*
X1391867Y1092495D01*
X1392870Y1093498D01*
X1395876Y1097636D01*
X1398199Y1102194D01*
X1399780Y1107060D01*
X1400580Y1112112D01*
Y1117228D01*
X1399780Y1122280D01*
X1398199Y1127146D01*
X1395876Y1131704D01*
X1392870Y1135842D01*
X1389252Y1139460D01*
X1385114Y1142467D01*
X1380556Y1144789D01*
X1375690Y1146370D01*
X1370638Y1147170D01*
X1365522D01*
X1360470Y1146370D01*
X1355604Y1144789D01*
X1351046Y1142467D01*
X1346908Y1139460D01*
X1345905Y1138457D01*
X1344902Y1139460D01*
X1340764Y1142467D01*
X1336206Y1144789D01*
X1331340Y1146370D01*
X1326288Y1147170D01*
X1321172D01*
X1316120Y1146370D01*
X1311254Y1144789D01*
X1306696Y1142467D01*
X1302558Y1139460D01*
X1301555Y1138457D01*
X1300552Y1139460D01*
X1296414Y1142467D01*
X1291856Y1144789D01*
X1286990Y1146370D01*
X1281938Y1147170D01*
X1276822D01*
X1271770Y1146370D01*
X1266904Y1144789D01*
X1262346Y1142467D01*
X1258208Y1139460D01*
X1254590Y1135842D01*
X1251583Y1131704D01*
X1249261Y1127146D01*
X1247680Y1122280D01*
X1246880Y1117228D01*
Y1112112D01*
X1247680Y1107060D01*
X1249261Y1102194D01*
X1251583Y1097636D01*
X1254590Y1093498D01*
X1255593Y1092495D01*
X1254590Y1091492D01*
X1251583Y1087354D01*
X1249261Y1082796D01*
X1247680Y1077930D01*
X1246880Y1072878D01*
Y1067762D01*
X1247680Y1062710D01*
X1249261Y1057844D01*
X1251583Y1053286D01*
X1254590Y1049148D01*
X1255593Y1048145D01*
X1254590Y1047142D01*
X1251583Y1043004D01*
X1249261Y1038446D01*
X1247680Y1033580D01*
X1246880Y1028528D01*
Y1023412D01*
X1247680Y1018360D01*
X1249261Y1013494D01*
X1251583Y1008936D01*
X1254590Y1004798D01*
X1258208Y1001180D01*
X1262346Y998174D01*
X1266904Y995851D01*
X1271340Y994410D01*
X1271139Y993140D01*
X1227013D01*
Y913130D01*
X1121138D01*
Y993140D01*
X1007520Y993140D01*
X1007147Y994410D01*
X1012555Y998560D01*
X1017653Y1003658D01*
X1022042Y1009378D01*
X1025647Y1015622D01*
X1028406Y1022283D01*
X1030272Y1029247D01*
X1031214Y1036395D01*
Y1043605D01*
X1030272Y1050753D01*
X1028406Y1057717D01*
X1025647Y1064378D01*
X1022042Y1070622D01*
X1017653Y1076342D01*
X1012555Y1081440D01*
X1006835Y1085829D01*
X1000592Y1089434D01*
X993931Y1092193D01*
X986966Y1094059D01*
X979818Y1095000D01*
X972609D01*
X965461Y1094059D01*
X958496Y1092193D01*
X951835Y1089434D01*
X945592Y1085829D01*
X939872Y1081440D01*
X934774Y1076342D01*
X930385Y1070622D01*
X926780Y1064378D01*
X924021Y1057717D01*
X922154Y1050753D01*
X921214Y1043605D01*
Y1036395D01*
X922154Y1029247D01*
X924021Y1022283D01*
X926780Y1015622D01*
X930385Y1009378D01*
X934774Y1003658D01*
X939872Y998560D01*
X945280Y994410D01*
X944906Y993140D01*
X861606Y993140D01*
X778996D01*
X778996Y993140D01*
Y1001661D01*
X802250D01*
X806761Y1002016D01*
X811161Y1003073D01*
X815342Y1004804D01*
X819201Y1007169D01*
X822642Y1010108D01*
X824587Y1012386D01*
X825856Y1012436D01*
X826240Y1012052D01*
X830130Y1009453D01*
X834452Y1007663D01*
X839040Y1006750D01*
X843719D01*
X848307Y1007663D01*
X852629Y1009453D01*
X854080Y1010422D01*
X855530Y1009453D01*
X859852Y1007663D01*
X864440Y1006750D01*
X869119D01*
X873707Y1007663D01*
X878029Y1009453D01*
X881919Y1012052D01*
X885227Y1015360D01*
X887826Y1019250D01*
X889617Y1023572D01*
X890529Y1028161D01*
Y1032839D01*
X889617Y1037428D01*
X887826Y1041750D01*
X885227Y1045640D01*
X881919Y1048948D01*
X878029Y1051547D01*
X873707Y1053337D01*
X869119Y1054250D01*
X864440D01*
X859852Y1053337D01*
X855530Y1051547D01*
X854080Y1050578D01*
X852629Y1051547D01*
X848307Y1053337D01*
X843719Y1054250D01*
X839040D01*
X834452Y1053337D01*
X830130Y1051547D01*
X826240Y1048948D01*
X825856Y1048564D01*
X824587Y1048614D01*
X822642Y1050892D01*
X819201Y1053831D01*
X815342Y1056196D01*
X811161Y1057927D01*
X806761Y1058984D01*
X802250Y1059339D01*
X778996D01*
Y1110661D01*
X802250D01*
X806761Y1111016D01*
X811161Y1112073D01*
X815342Y1113804D01*
X819201Y1116169D01*
X822642Y1119108D01*
X825581Y1122549D01*
X827945Y1126407D01*
X829677Y1130588D01*
X830733Y1134989D01*
X831088Y1139500D01*
X830733Y1144011D01*
X829677Y1148412D01*
X827945Y1152593D01*
X825581Y1156451D01*
X822642Y1159892D01*
X819201Y1162831D01*
X815342Y1165196D01*
X811161Y1166927D01*
X806761Y1167984D01*
X802250Y1168339D01*
X778996D01*
Y1176661D01*
X802250D01*
X806761Y1177016D01*
X811161Y1178073D01*
X815342Y1179804D01*
X819201Y1182169D01*
X822642Y1185108D01*
X824587Y1187386D01*
X825856Y1187436D01*
X826240Y1187052D01*
X830130Y1184453D01*
X834452Y1182663D01*
X839040Y1181750D01*
X843719D01*
X848307Y1182663D01*
X852629Y1184453D01*
X854080Y1185422D01*
X855530Y1184453D01*
X859852Y1182663D01*
X864440Y1181750D01*
X869119D01*
X873707Y1182663D01*
X878029Y1184453D01*
X881919Y1187052D01*
X885227Y1190360D01*
X887826Y1194250D01*
X889617Y1198572D01*
X890529Y1203161D01*
Y1207839D01*
X889617Y1212428D01*
X887826Y1216750D01*
X885227Y1220640D01*
X881919Y1223948D01*
X878029Y1226547D01*
X873707Y1228337D01*
X869119Y1229250D01*
X864440D01*
X859852Y1228337D01*
X855530Y1226547D01*
X854080Y1225578D01*
X852629Y1226547D01*
X848307Y1228337D01*
X843719Y1229250D01*
X839040D01*
X834452Y1228337D01*
X830130Y1226547D01*
X826240Y1223948D01*
X825856Y1223564D01*
X824587Y1223614D01*
X822642Y1225892D01*
X819201Y1228831D01*
X815342Y1231196D01*
X811161Y1232927D01*
X806761Y1233984D01*
X802250Y1234339D01*
X778996D01*
Y1285661D01*
X802250D01*
X806761Y1286016D01*
X811161Y1287073D01*
X815342Y1288804D01*
X819201Y1291169D01*
X822642Y1294108D01*
X825581Y1297549D01*
X827945Y1301407D01*
X829677Y1305588D01*
X830733Y1309989D01*
X831088Y1314500D01*
X830733Y1319011D01*
X829677Y1323412D01*
X827945Y1327593D01*
X825581Y1331451D01*
X822642Y1334892D01*
X819201Y1337831D01*
X815342Y1340196D01*
X811161Y1341927D01*
X806761Y1342984D01*
X802250Y1343339D01*
X778996D01*
Y1371661D01*
X802250D01*
X806761Y1372016D01*
X811161Y1373073D01*
X815342Y1374804D01*
X819201Y1377169D01*
X822642Y1380108D01*
X824587Y1382386D01*
X825856Y1382436D01*
X826240Y1382052D01*
X830130Y1379453D01*
X834452Y1377663D01*
X839040Y1376750D01*
X843719D01*
X848307Y1377663D01*
X852629Y1379453D01*
X854080Y1380422D01*
X855530Y1379453D01*
X859852Y1377663D01*
X864440Y1376750D01*
X869119D01*
X873707Y1377663D01*
X878029Y1379453D01*
X881919Y1382052D01*
X885227Y1385360D01*
X887827Y1389250D01*
X889617Y1393572D01*
X890529Y1398161D01*
Y1402839D01*
X889617Y1407428D01*
X887827Y1411750D01*
X885227Y1415640D01*
X881919Y1418948D01*
X878029Y1421547D01*
X873707Y1423337D01*
X869119Y1424250D01*
X864440D01*
X859852Y1423337D01*
X855530Y1421547D01*
X854080Y1420578D01*
X852629Y1421547D01*
X848307Y1423337D01*
X843719Y1424250D01*
X839040D01*
X834452Y1423337D01*
X830130Y1421547D01*
X826240Y1418948D01*
X825856Y1418564D01*
X824587Y1418614D01*
X822642Y1420892D01*
X819201Y1423831D01*
X815342Y1426196D01*
X811161Y1427927D01*
X806761Y1428984D01*
X802250Y1429339D01*
X778996D01*
Y1480661D01*
X802250D01*
X806761Y1481016D01*
X811161Y1482073D01*
X815342Y1483804D01*
X819201Y1486169D01*
X822642Y1489108D01*
X825581Y1492549D01*
X827945Y1496407D01*
X829677Y1500588D01*
X830733Y1504989D01*
X831088Y1509500D01*
X830733Y1514011D01*
X829677Y1518412D01*
X827945Y1522593D01*
X825581Y1526451D01*
X822642Y1529892D01*
X819201Y1532831D01*
X815342Y1535196D01*
X811161Y1536927D01*
X806761Y1537984D01*
X802250Y1538339D01*
X778996D01*
Y1546661D01*
X802250D01*
X806761Y1547016D01*
X811161Y1548073D01*
X815342Y1549804D01*
X819201Y1552169D01*
X822642Y1555108D01*
X824587Y1557386D01*
X825856Y1557436D01*
X826240Y1557052D01*
X830130Y1554453D01*
X834452Y1552663D01*
X839040Y1551750D01*
X843719D01*
X848307Y1552663D01*
X852629Y1554453D01*
X854080Y1555422D01*
X855530Y1554453D01*
X859852Y1552663D01*
X864440Y1551750D01*
X869119D01*
X873707Y1552663D01*
X878029Y1554453D01*
X881919Y1557052D01*
X885227Y1560360D01*
X887827Y1564250D01*
X889617Y1568572D01*
X890529Y1573161D01*
Y1577839D01*
X889617Y1582428D01*
X887827Y1586750D01*
X885227Y1590640D01*
X881919Y1593948D01*
X878029Y1596547D01*
X873707Y1598337D01*
X869119Y1599250D01*
X864440D01*
X859852Y1598337D01*
X855530Y1596547D01*
X854080Y1595578D01*
X852629Y1596547D01*
X848307Y1598337D01*
X843719Y1599250D01*
X839040D01*
X834452Y1598337D01*
X830130Y1596547D01*
X826240Y1593948D01*
X825856Y1593564D01*
X824587Y1593614D01*
X822642Y1595892D01*
X819201Y1598831D01*
X815342Y1601196D01*
X811161Y1602927D01*
X806761Y1603984D01*
X802250Y1604339D01*
X778996D01*
Y1655661D01*
X802250D01*
X806761Y1656016D01*
X811161Y1657073D01*
X815342Y1658804D01*
X819201Y1661169D01*
X822642Y1664108D01*
X825581Y1667549D01*
X827945Y1671407D01*
X829677Y1675588D01*
X830733Y1679989D01*
X831088Y1684500D01*
X830733Y1689011D01*
X829677Y1693412D01*
X827945Y1697593D01*
X825581Y1701451D01*
X822642Y1704892D01*
X819201Y1707831D01*
X815342Y1710196D01*
X811161Y1711927D01*
X806761Y1712984D01*
X802250Y1713339D01*
X778996D01*
Y1714914D01*
X936686D01*
X937172Y1713741D01*
X934774Y1711342D01*
X930385Y1705622D01*
X926780Y1699378D01*
X924021Y1692717D01*
X922154Y1685753D01*
X921214Y1678605D01*
Y1671395D01*
X922154Y1664247D01*
X924021Y1657283D01*
X926780Y1650622D01*
X930385Y1644378D01*
X934774Y1638658D01*
X939872Y1633560D01*
X945592Y1629171D01*
X951835Y1625566D01*
X958496Y1622807D01*
X965461Y1620941D01*
X972609Y1620000D01*
X979818D01*
X986966Y1620941D01*
X993931Y1622807D01*
X1000592Y1625566D01*
X1006835Y1629171D01*
X1012555Y1633560D01*
X1017653Y1638658D01*
X1022042Y1644378D01*
X1025647Y1650622D01*
X1028406Y1657283D01*
X1030272Y1664247D01*
X1031214Y1671395D01*
Y1678605D01*
X1030272Y1685753D01*
X1028406Y1692717D01*
X1025647Y1699378D01*
X1022042Y1705622D01*
X1017653Y1711342D01*
X1015255Y1713741D01*
X1015741Y1714914D01*
X1123731D01*
X1123986Y1714412D01*
X1124236Y1713644D01*
X1122163Y1709576D01*
X1120704Y1705085D01*
X1119965Y1700421D01*
Y1695699D01*
X1120704Y1691035D01*
X1122163Y1686544D01*
X1124307Y1682337D01*
X1127082Y1678516D01*
X1130421Y1675177D01*
X1134241Y1672402D01*
X1138449Y1670258D01*
X1142940Y1668799D01*
X1147604Y1668060D01*
X1152326D01*
X1156990Y1668799D01*
X1161481Y1670258D01*
X1165688Y1672402D01*
X1169509Y1675177D01*
X1172848Y1678516D01*
X1175623Y1682337D01*
X1177767Y1686544D01*
X1179226Y1691035D01*
X1179965Y1695699D01*
Y1700421D01*
X1179226Y1705085D01*
X1177767Y1709576D01*
X1175694Y1713644D01*
X1175944Y1714412D01*
X1176199Y1714914D01*
X1326731D01*
X1326986Y1714412D01*
X1327236Y1713644D01*
X1325163Y1709576D01*
X1323704Y1705085D01*
X1322965Y1700421D01*
Y1695699D01*
X1323704Y1691035D01*
X1325163Y1686544D01*
X1327307Y1682337D01*
X1330082Y1678516D01*
X1333421Y1675177D01*
X1337242Y1672402D01*
X1341449Y1670258D01*
X1345940Y1668799D01*
X1350604Y1668060D01*
X1355326D01*
X1359990Y1668799D01*
X1364481Y1670258D01*
X1368688Y1672402D01*
X1372509Y1675177D01*
X1375848Y1678516D01*
X1378623Y1682337D01*
X1380767Y1686544D01*
X1382226Y1691035D01*
X1382965Y1695699D01*
Y1700421D01*
X1382226Y1705085D01*
X1380767Y1709576D01*
X1378694Y1713644D01*
X1378944Y1714412D01*
X1379199Y1714914D01*
X1478281D01*
X1478767Y1713741D01*
X1476368Y1711342D01*
X1471979Y1705622D01*
X1468374Y1699378D01*
X1465615Y1692717D01*
X1463749Y1685753D01*
X1462808Y1678605D01*
Y1671395D01*
X1463749Y1664247D01*
X1465615Y1657283D01*
X1468374Y1650622D01*
X1471979Y1644378D01*
X1476368Y1638658D01*
X1481467Y1633560D01*
X1487186Y1629171D01*
X1493430Y1625566D01*
X1500091Y1622807D01*
X1507055Y1620941D01*
X1514203Y1620000D01*
X1521413D01*
X1528561Y1620941D01*
X1535525Y1622807D01*
X1542186Y1625566D01*
X1548430Y1629171D01*
X1554150Y1633560D01*
X1559248Y1638658D01*
X1563637Y1644378D01*
X1567242Y1650622D01*
X1570001Y1657283D01*
X1571867Y1664247D01*
X1572808Y1671395D01*
Y1678605D01*
X1571867Y1685753D01*
X1570001Y1692717D01*
X1567242Y1699378D01*
X1563637Y1705622D01*
X1559248Y1711342D01*
X1556850Y1713741D01*
X1557336Y1714914D01*
X1724324D01*
Y1713339D01*
D02*
G37*
G36*
X1941476Y859860D02*
X1940005D01*
X1939487Y861568D01*
X1937073Y866085D01*
X1933824Y870044D01*
X1929865Y873293D01*
X1925348Y875707D01*
X1920447Y877194D01*
X1915350Y877696D01*
X1907350D01*
X1902253Y877194D01*
X1897352Y875707D01*
X1892835Y873293D01*
X1888876Y870044D01*
X1885627Y866085D01*
X1883213Y861568D01*
X1882695Y859860D01*
X1764030D01*
Y978970D01*
X1817849D01*
X1818627Y977700D01*
X1817265Y975026D01*
X1815927Y970910D01*
X1815250Y966634D01*
Y962306D01*
X1815927Y958030D01*
X1817265Y953914D01*
X1819230Y950057D01*
X1821774Y946555D01*
X1824835Y943494D01*
X1828337Y940950D01*
X1832194Y938985D01*
X1836310Y937647D01*
X1840586Y936970D01*
X1844914D01*
X1849190Y937647D01*
X1853306Y938985D01*
X1857163Y940950D01*
X1860665Y943494D01*
X1863726Y946555D01*
X1866270Y950057D01*
X1868235Y953914D01*
X1869573Y958030D01*
X1870250Y962306D01*
Y966634D01*
X1869573Y970910D01*
X1868235Y975026D01*
X1866873Y977700D01*
X1867651Y978970D01*
X1941476D01*
Y859860D01*
D02*
G37*
%LPC*%
G36*
X1332272Y789580D02*
X1287272D01*
Y744580D01*
X1287272D01*
X1287382Y744447D01*
X1287272Y743896D01*
Y739464D01*
X1288137Y735117D01*
X1289833Y731022D01*
X1292296Y727337D01*
X1295430Y724203D01*
X1299115Y721741D01*
X1303209Y720045D01*
X1307556Y719180D01*
X1311989D01*
X1316335Y720045D01*
X1320430Y721741D01*
X1324115Y724203D01*
X1327249Y727337D01*
X1329712Y731022D01*
X1331408Y735117D01*
X1332272Y739464D01*
Y743896D01*
X1332163Y744447D01*
X1332272Y744580D01*
X1332272D01*
Y789580D01*
D02*
G37*
G36*
X1253629Y741965D02*
X1249301D01*
X1245025Y741288D01*
X1240909Y739950D01*
X1237052Y737985D01*
X1233550Y735441D01*
X1230489Y732380D01*
X1227945Y728878D01*
X1225980Y725022D01*
X1224642Y720905D01*
X1223965Y716629D01*
Y712301D01*
X1224642Y708026D01*
X1225980Y703909D01*
X1227945Y700052D01*
X1230489Y696550D01*
X1233550Y693489D01*
X1237052Y690945D01*
X1240909Y688980D01*
X1245025Y687642D01*
X1249301Y686965D01*
X1253629D01*
X1257905Y687642D01*
X1262021Y688980D01*
X1265878Y690945D01*
X1269380Y693489D01*
X1272441Y696550D01*
X1274985Y700052D01*
X1276950Y703909D01*
X1278288Y708026D01*
X1278965Y712301D01*
Y716629D01*
X1278288Y720905D01*
X1276950Y725022D01*
X1274985Y728878D01*
X1272441Y732380D01*
X1269380Y735441D01*
X1265878Y737985D01*
X1262021Y739950D01*
X1257905Y741288D01*
X1253629Y741965D01*
D02*
G37*
G36*
X1522444Y741240D02*
X1518116D01*
X1513840Y740563D01*
X1509724Y739225D01*
X1505867Y737260D01*
X1502365Y734716D01*
X1499304Y731655D01*
X1496760Y728153D01*
X1494795Y724296D01*
X1493457Y720180D01*
X1492780Y715904D01*
Y711576D01*
X1493457Y707300D01*
X1494795Y703184D01*
X1496760Y699327D01*
X1499304Y695825D01*
X1502365Y692764D01*
X1505867Y690220D01*
X1509724Y688255D01*
X1513840Y686917D01*
X1518116Y686240D01*
X1522444D01*
X1526720Y686917D01*
X1530836Y688255D01*
X1534693Y690220D01*
X1538195Y692764D01*
X1541256Y695825D01*
X1543800Y699327D01*
X1545765Y703184D01*
X1547103Y707300D01*
X1547780Y711576D01*
Y715904D01*
X1547103Y720180D01*
X1545765Y724296D01*
X1543800Y728153D01*
X1541256Y731655D01*
X1538195Y734716D01*
X1534693Y737260D01*
X1530836Y739225D01*
X1526720Y740563D01*
X1522444Y741240D01*
D02*
G37*
G36*
X1370244D02*
X1365916D01*
X1361640Y740563D01*
X1357524Y739225D01*
X1353667Y737260D01*
X1350165Y734716D01*
X1347104Y731655D01*
X1344560Y728153D01*
X1342595Y724296D01*
X1341257Y720180D01*
X1340580Y715904D01*
Y711576D01*
X1341257Y707300D01*
X1342595Y703184D01*
X1344560Y699327D01*
X1347104Y695825D01*
X1350165Y692764D01*
X1353667Y690220D01*
X1357524Y688255D01*
X1361640Y686917D01*
X1365916Y686240D01*
X1370244D01*
X1374520Y686917D01*
X1378636Y688255D01*
X1382493Y690220D01*
X1385995Y692764D01*
X1389056Y695825D01*
X1391600Y699327D01*
X1393565Y703184D01*
X1394903Y707300D01*
X1395580Y711576D01*
Y715904D01*
X1394903Y720180D01*
X1393565Y724296D01*
X1391600Y728153D01*
X1389056Y731655D01*
X1385995Y734716D01*
X1382493Y737260D01*
X1378636Y739225D01*
X1374520Y740563D01*
X1370244Y741240D01*
D02*
G37*
G36*
X1184053Y607113D02*
X1177650Y600710D01*
X1184053Y594307D01*
X1184114Y594386D01*
X1185377Y597436D01*
X1185808Y600710D01*
X1185377Y603984D01*
X1184114Y607034D01*
X1184053Y607113D01*
D02*
G37*
G36*
X1082267Y607113D02*
X1082206Y607034D01*
X1080943Y603984D01*
X1080512Y600710D01*
X1080943Y597436D01*
X1082206Y594386D01*
X1082267Y594307D01*
X1088670Y600710D01*
X1082267Y607113D01*
D02*
G37*
G36*
X1173160Y613358D02*
X1093160D01*
X1089886Y612927D01*
X1086836Y611664D01*
X1086757Y611603D01*
X1095405Y602955D01*
X1093160Y600710D01*
X1095405Y598465D01*
X1086757Y589817D01*
X1086836Y589756D01*
X1089886Y588493D01*
X1093160Y588062D01*
X1173160D01*
X1176434Y588493D01*
X1179484Y589756D01*
X1179563Y589817D01*
X1170915Y598465D01*
X1173160Y600710D01*
X1170915Y602955D01*
X1179563Y611603D01*
X1179484Y611664D01*
X1176434Y612927D01*
X1173160Y613358D01*
D02*
G37*
G36*
X1401440Y625831D02*
X1321440D01*
X1316539Y625348D01*
X1311827Y623919D01*
X1307484Y621597D01*
X1303677Y618473D01*
X1300553Y614666D01*
X1298231Y610323D01*
X1296802Y605611D01*
X1296319Y600710D01*
X1296802Y595809D01*
X1298231Y591097D01*
X1300553Y586754D01*
X1303677Y582947D01*
X1307484Y579823D01*
X1311827Y577501D01*
X1316539Y576072D01*
X1321440Y575589D01*
X1401440D01*
X1406341Y576072D01*
X1411053Y577501D01*
X1415397Y579823D01*
X1419203Y582947D01*
X1422327Y586754D01*
X1424649Y591097D01*
X1426078Y595809D01*
X1426561Y600710D01*
X1426078Y605611D01*
X1424649Y610323D01*
X1422327Y614666D01*
X1419203Y618473D01*
X1415397Y621597D01*
X1411053Y623919D01*
X1406341Y625348D01*
X1401440Y625831D01*
D02*
G37*
G36*
X1249372Y1653060D02*
X1244650D01*
X1239986Y1652321D01*
X1235495Y1650862D01*
X1231288Y1648718D01*
X1227467Y1645943D01*
X1224128Y1642604D01*
X1221353Y1638783D01*
X1219209Y1634576D01*
X1217750Y1630085D01*
X1217011Y1625421D01*
Y1620699D01*
X1217750Y1616035D01*
X1219209Y1611544D01*
X1221353Y1607337D01*
X1224128Y1603516D01*
X1227467Y1600177D01*
X1231288Y1597402D01*
X1235495Y1595258D01*
X1239986Y1593799D01*
X1244650Y1593060D01*
X1249372D01*
X1254036Y1593799D01*
X1258527Y1595258D01*
X1262734Y1597402D01*
X1266555Y1600177D01*
X1269894Y1603516D01*
X1272669Y1607337D01*
X1274813Y1611544D01*
X1276272Y1616035D01*
X1277011Y1620699D01*
Y1625421D01*
X1276272Y1630085D01*
X1274813Y1634576D01*
X1272669Y1638783D01*
X1269894Y1642604D01*
X1266555Y1645943D01*
X1262734Y1648718D01*
X1258527Y1650862D01*
X1254036Y1652321D01*
X1249372Y1653060D01*
D02*
G37*
G36*
X1052976Y1620160D02*
X1048544D01*
X1044197Y1619295D01*
X1040102Y1617599D01*
X1036417Y1615137D01*
X1033283Y1612003D01*
X1030821Y1608318D01*
X1029125Y1604223D01*
X1028260Y1599876D01*
Y1595444D01*
X1029125Y1591097D01*
X1030821Y1587002D01*
X1033283Y1583317D01*
X1036417Y1580183D01*
X1040102Y1577721D01*
X1044197Y1576025D01*
X1048544Y1575160D01*
X1052976D01*
X1057323Y1576025D01*
X1061418Y1577721D01*
X1065103Y1580183D01*
X1068237Y1583317D01*
X1070699Y1587002D01*
X1072395Y1591097D01*
X1073260Y1595444D01*
Y1599876D01*
X1072395Y1604223D01*
X1070699Y1608318D01*
X1068237Y1612003D01*
X1065103Y1615137D01*
X1061418Y1617599D01*
X1057323Y1619295D01*
X1052976Y1620160D01*
D02*
G37*
G36*
X1002976D02*
X998544D01*
X994197Y1619295D01*
X990102Y1617599D01*
X986417Y1615137D01*
X983283Y1612003D01*
X980821Y1608318D01*
X979125Y1604223D01*
X978260Y1599876D01*
Y1595444D01*
X979125Y1591097D01*
X980821Y1587002D01*
X983283Y1583317D01*
X986417Y1580183D01*
X990102Y1577721D01*
X994197Y1576025D01*
X998544Y1575160D01*
X1002976D01*
X1007323Y1576025D01*
X1011418Y1577721D01*
X1015103Y1580183D01*
X1018237Y1583317D01*
X1020699Y1587002D01*
X1022395Y1591097D01*
X1023260Y1595444D01*
Y1599876D01*
X1022395Y1604223D01*
X1020699Y1608318D01*
X1018237Y1612003D01*
X1015103Y1615137D01*
X1011418Y1617599D01*
X1007323Y1619295D01*
X1002976Y1620160D01*
D02*
G37*
G36*
X1564598Y1540500D02*
X1559718D01*
X1554899Y1539737D01*
X1550258Y1538229D01*
X1545911Y1536014D01*
X1541963Y1533145D01*
X1539983Y1531166D01*
X1538003Y1533145D01*
X1534056Y1536014D01*
X1529708Y1538229D01*
X1525067Y1539737D01*
X1520248Y1540500D01*
X1515368D01*
X1510549Y1539737D01*
X1505908Y1538229D01*
X1501561Y1536014D01*
X1497613Y1533145D01*
X1495633Y1531166D01*
X1493653Y1533145D01*
X1489706Y1536014D01*
X1485358Y1538229D01*
X1480717Y1539737D01*
X1475898Y1540500D01*
X1471019D01*
X1466199Y1539737D01*
X1461558Y1538229D01*
X1457211Y1536014D01*
X1453263Y1533145D01*
X1449813Y1529695D01*
X1446945Y1525748D01*
X1444729Y1521400D01*
X1443222Y1516759D01*
X1442458Y1511940D01*
Y1507060D01*
X1443222Y1502241D01*
X1444729Y1497600D01*
X1446945Y1493253D01*
X1449813Y1489305D01*
X1451793Y1487325D01*
X1449813Y1485345D01*
X1446945Y1481398D01*
X1444729Y1477050D01*
X1443222Y1472409D01*
X1442458Y1467590D01*
Y1462710D01*
X1443222Y1457891D01*
X1444729Y1453250D01*
X1446945Y1448902D01*
X1449813Y1444955D01*
X1451793Y1442975D01*
X1449813Y1440995D01*
X1446945Y1437047D01*
X1444729Y1432700D01*
X1443222Y1428059D01*
X1442458Y1423240D01*
Y1418360D01*
X1443222Y1413541D01*
X1444729Y1408900D01*
X1446945Y1404552D01*
X1449813Y1400605D01*
X1453263Y1397155D01*
X1457211Y1394286D01*
X1461558Y1392071D01*
X1466199Y1390563D01*
X1471019Y1389800D01*
X1475898D01*
X1480717Y1390563D01*
X1485358Y1392071D01*
X1489706Y1394286D01*
X1493653Y1397155D01*
X1495633Y1399134D01*
X1497613Y1397155D01*
X1501561Y1394286D01*
X1505908Y1392071D01*
X1510549Y1390563D01*
X1515368Y1389800D01*
X1520248D01*
X1525067Y1390563D01*
X1529708Y1392071D01*
X1534056Y1394286D01*
X1538003Y1397155D01*
X1539983Y1399134D01*
X1541963Y1397155D01*
X1545911Y1394286D01*
X1550258Y1392071D01*
X1554899Y1390563D01*
X1559718Y1389800D01*
X1564598D01*
X1569418Y1390563D01*
X1574058Y1392071D01*
X1578406Y1394286D01*
X1582353Y1397155D01*
X1585804Y1400605D01*
X1588672Y1404552D01*
X1590887Y1408900D01*
X1592395Y1413541D01*
X1593158Y1418360D01*
Y1423240D01*
X1592395Y1428059D01*
X1590887Y1432700D01*
X1588672Y1437047D01*
X1585804Y1440995D01*
X1583824Y1442975D01*
X1585804Y1444955D01*
X1588672Y1448902D01*
X1590887Y1453250D01*
X1592395Y1457891D01*
X1593158Y1462710D01*
Y1467590D01*
X1592395Y1472409D01*
X1590887Y1477050D01*
X1588672Y1481398D01*
X1585804Y1485345D01*
X1583824Y1487325D01*
X1585804Y1489305D01*
X1588672Y1493253D01*
X1590887Y1497600D01*
X1592395Y1502241D01*
X1593158Y1507060D01*
Y1511940D01*
X1592395Y1516759D01*
X1590887Y1521400D01*
X1588672Y1525748D01*
X1585804Y1529695D01*
X1582353Y1533145D01*
X1578406Y1536014D01*
X1574058Y1538229D01*
X1569418Y1539737D01*
X1564598Y1540500D01*
D02*
G37*
G36*
X1052976Y1549040D02*
X1048544D01*
X1044197Y1548175D01*
X1040102Y1546479D01*
X1036417Y1544017D01*
X1033283Y1540883D01*
X1030821Y1537198D01*
X1029125Y1533103D01*
X1028260Y1528756D01*
Y1524324D01*
X1029125Y1519977D01*
X1030821Y1515882D01*
X1033283Y1512197D01*
X1036417Y1509063D01*
X1040102Y1506601D01*
X1044197Y1504905D01*
X1048544Y1504040D01*
X1052976D01*
X1057323Y1504905D01*
X1061418Y1506601D01*
X1065103Y1509063D01*
X1068237Y1512197D01*
X1070699Y1515882D01*
X1072395Y1519977D01*
X1073260Y1524324D01*
Y1528756D01*
X1072395Y1533103D01*
X1070699Y1537198D01*
X1068237Y1540883D01*
X1065103Y1544017D01*
X1061418Y1546479D01*
X1057323Y1548175D01*
X1052976Y1549040D01*
D02*
G37*
G36*
X1002976D02*
X998544D01*
X994197Y1548175D01*
X990102Y1546479D01*
X986417Y1544017D01*
X983283Y1540883D01*
X980821Y1537198D01*
X979125Y1533103D01*
X978260Y1528756D01*
Y1524324D01*
X979125Y1519977D01*
X980821Y1515882D01*
X983283Y1512197D01*
X986417Y1509063D01*
X990102Y1506601D01*
X994197Y1504905D01*
X998544Y1504040D01*
X1002976D01*
X1007323Y1504905D01*
X1011418Y1506601D01*
X1015103Y1509063D01*
X1018237Y1512197D01*
X1020699Y1515882D01*
X1022395Y1519977D01*
X1023260Y1524324D01*
Y1528756D01*
X1022395Y1533103D01*
X1020699Y1537198D01*
X1018237Y1540883D01*
X1015103Y1544017D01*
X1011418Y1546479D01*
X1007323Y1548175D01*
X1002976Y1549040D01*
D02*
G37*
G36*
X1564598Y1325200D02*
X1559718D01*
X1554899Y1324437D01*
X1550258Y1322929D01*
X1545911Y1320714D01*
X1541963Y1317845D01*
X1539983Y1315866D01*
X1538003Y1317845D01*
X1534056Y1320714D01*
X1529708Y1322929D01*
X1525067Y1324437D01*
X1520248Y1325200D01*
X1515368D01*
X1510549Y1324437D01*
X1505908Y1322929D01*
X1501561Y1320714D01*
X1497613Y1317845D01*
X1495633Y1315866D01*
X1493653Y1317845D01*
X1489706Y1320714D01*
X1485358Y1322929D01*
X1480717Y1324437D01*
X1475898Y1325200D01*
X1471019D01*
X1466199Y1324437D01*
X1461558Y1322929D01*
X1457211Y1320714D01*
X1453263Y1317845D01*
X1449813Y1314395D01*
X1446945Y1310448D01*
X1444729Y1306100D01*
X1443222Y1301459D01*
X1442458Y1296640D01*
Y1291760D01*
X1443222Y1286941D01*
X1444729Y1282300D01*
X1446945Y1277952D01*
X1449813Y1274005D01*
X1451793Y1272025D01*
X1449813Y1270045D01*
X1446945Y1266097D01*
X1444729Y1261750D01*
X1443222Y1257109D01*
X1442458Y1252290D01*
Y1247410D01*
X1443222Y1242591D01*
X1444729Y1237950D01*
X1446945Y1233603D01*
X1449813Y1229655D01*
X1451793Y1227675D01*
X1449813Y1225695D01*
X1446945Y1221748D01*
X1444729Y1217400D01*
X1443222Y1212759D01*
X1442458Y1207940D01*
Y1203060D01*
X1443222Y1198241D01*
X1444729Y1193600D01*
X1446945Y1189252D01*
X1449813Y1185305D01*
X1453263Y1181854D01*
X1457211Y1178986D01*
X1461558Y1176771D01*
X1466199Y1175263D01*
X1471019Y1174500D01*
X1475898D01*
X1480717Y1175263D01*
X1485358Y1176771D01*
X1489706Y1178986D01*
X1493653Y1181854D01*
X1495633Y1183834D01*
X1497613Y1181854D01*
X1501561Y1178986D01*
X1505908Y1176771D01*
X1510549Y1175263D01*
X1515368Y1174500D01*
X1520248D01*
X1525067Y1175263D01*
X1529708Y1176771D01*
X1534056Y1178986D01*
X1538003Y1181854D01*
X1539983Y1183834D01*
X1541963Y1181854D01*
X1545911Y1178986D01*
X1550258Y1176771D01*
X1554899Y1175263D01*
X1559718Y1174500D01*
X1564598D01*
X1569418Y1175263D01*
X1574058Y1176771D01*
X1578406Y1178986D01*
X1582353Y1181854D01*
X1585804Y1185305D01*
X1588672Y1189252D01*
X1590887Y1193600D01*
X1592395Y1198241D01*
X1593158Y1203060D01*
Y1207940D01*
X1592395Y1212759D01*
X1590887Y1217400D01*
X1588672Y1221748D01*
X1585804Y1225695D01*
X1583824Y1227675D01*
X1585804Y1229655D01*
X1588672Y1233603D01*
X1590887Y1237950D01*
X1592395Y1242591D01*
X1593158Y1247410D01*
Y1252290D01*
X1592395Y1257109D01*
X1590887Y1261750D01*
X1588672Y1266097D01*
X1585804Y1270045D01*
X1583824Y1272025D01*
X1585804Y1274005D01*
X1588672Y1277952D01*
X1590887Y1282300D01*
X1592395Y1286941D01*
X1593158Y1291760D01*
Y1296640D01*
X1592395Y1301459D01*
X1590887Y1306100D01*
X1588672Y1310448D01*
X1585804Y1314395D01*
X1582353Y1317845D01*
X1578406Y1320714D01*
X1574058Y1322929D01*
X1569418Y1324437D01*
X1564598Y1325200D01*
D02*
G37*
G36*
X990395Y1414070D02*
X983185D01*
X976037Y1413129D01*
X969073Y1411263D01*
X962412Y1408504D01*
X956168Y1404899D01*
X950448Y1400510D01*
X945350Y1395412D01*
X940961Y1389692D01*
X937356Y1383448D01*
X934597Y1376787D01*
X932731Y1369823D01*
X931790Y1362675D01*
Y1355465D01*
X932731Y1348317D01*
X934597Y1341353D01*
X937356Y1334692D01*
X940961Y1328448D01*
X945350Y1322728D01*
X950448Y1317630D01*
X956168Y1313241D01*
X962412Y1309636D01*
X969073Y1306877D01*
X976037Y1305011D01*
X983185Y1304070D01*
X990395D01*
X997543Y1305011D01*
X1004507Y1306877D01*
X1011168Y1309636D01*
X1017412Y1313241D01*
X1023132Y1317630D01*
X1028230Y1322728D01*
X1032619Y1328448D01*
X1036224Y1334692D01*
X1038983Y1341353D01*
X1040849Y1348317D01*
X1041790Y1355465D01*
Y1362675D01*
X1040849Y1369823D01*
X1038983Y1376787D01*
X1036224Y1383448D01*
X1032619Y1389692D01*
X1028230Y1395412D01*
X1023132Y1400510D01*
X1017412Y1404899D01*
X1011168Y1408504D01*
X1004507Y1411263D01*
X997543Y1413129D01*
X990395Y1414070D01*
D02*
G37*
G36*
X1052976Y1273450D02*
X1048544D01*
X1044197Y1272585D01*
X1040102Y1270889D01*
X1036417Y1268427D01*
X1033283Y1265293D01*
X1030821Y1261608D01*
X1029125Y1257513D01*
X1028260Y1253166D01*
Y1248734D01*
X1029125Y1244387D01*
X1030821Y1240292D01*
X1033283Y1236607D01*
X1036417Y1233473D01*
X1040102Y1231011D01*
X1044197Y1229315D01*
X1048544Y1228450D01*
X1052976D01*
X1057323Y1229315D01*
X1061418Y1231011D01*
X1065103Y1233473D01*
X1068237Y1236607D01*
X1070699Y1240292D01*
X1072395Y1244387D01*
X1073260Y1248734D01*
Y1253166D01*
X1072395Y1257513D01*
X1070699Y1261608D01*
X1068237Y1265293D01*
X1065103Y1268427D01*
X1061418Y1270889D01*
X1057323Y1272585D01*
X1052976Y1273450D01*
D02*
G37*
G36*
X1002976D02*
X998544D01*
X994197Y1272585D01*
X990102Y1270889D01*
X986417Y1268427D01*
X983283Y1265293D01*
X980821Y1261608D01*
X979125Y1257513D01*
X978260Y1253166D01*
Y1248734D01*
X979125Y1244387D01*
X980821Y1240292D01*
X983283Y1236607D01*
X986417Y1233473D01*
X990102Y1231011D01*
X994197Y1229315D01*
X998544Y1228450D01*
X1002976D01*
X1007323Y1229315D01*
X1011418Y1231011D01*
X1015103Y1233473D01*
X1018237Y1236607D01*
X1020699Y1240292D01*
X1022395Y1244387D01*
X1023260Y1248734D01*
Y1253166D01*
X1022395Y1257513D01*
X1020699Y1261608D01*
X1018237Y1265293D01*
X1015103Y1268427D01*
X1011418Y1270889D01*
X1007323Y1272585D01*
X1002976Y1273450D01*
D02*
G37*
G36*
X1052976Y1202330D02*
X1048544D01*
X1044197Y1201465D01*
X1040102Y1199769D01*
X1036417Y1197307D01*
X1033283Y1194173D01*
X1030821Y1190488D01*
X1029125Y1186393D01*
X1028260Y1182046D01*
Y1177614D01*
X1029125Y1173267D01*
X1030821Y1169172D01*
X1033283Y1165487D01*
X1036417Y1162353D01*
X1040102Y1159891D01*
X1044197Y1158195D01*
X1048544Y1157330D01*
X1052976D01*
X1057323Y1158195D01*
X1061418Y1159891D01*
X1065103Y1162353D01*
X1068237Y1165487D01*
X1070699Y1169172D01*
X1072395Y1173267D01*
X1073260Y1177614D01*
Y1182046D01*
X1072395Y1186393D01*
X1070699Y1190488D01*
X1068237Y1194173D01*
X1065103Y1197307D01*
X1061418Y1199769D01*
X1057323Y1201465D01*
X1052976Y1202330D01*
D02*
G37*
G36*
X1002976D02*
X998544D01*
X994197Y1201465D01*
X990102Y1199769D01*
X986417Y1197307D01*
X983283Y1194173D01*
X980821Y1190488D01*
X979125Y1186393D01*
X978260Y1182046D01*
Y1177614D01*
X979125Y1173267D01*
X980821Y1169172D01*
X983283Y1165487D01*
X986417Y1162353D01*
X990102Y1159891D01*
X994197Y1158195D01*
X998544Y1157330D01*
X1002976D01*
X1007323Y1158195D01*
X1011418Y1159891D01*
X1015103Y1162353D01*
X1018237Y1165487D01*
X1020699Y1169172D01*
X1022395Y1173267D01*
X1023260Y1177614D01*
Y1182046D01*
X1022395Y1186393D01*
X1020699Y1190488D01*
X1018237Y1194173D01*
X1015103Y1197307D01*
X1011418Y1199769D01*
X1007323Y1201465D01*
X1002976Y1202330D01*
D02*
G37*
%LPD*%
D12*
X944880Y972820D02*
X1140214D01*
X937260Y980440D02*
X944880Y972820D01*
X796829Y980440D02*
X937260D01*
X776957Y960568D02*
X796829Y980440D01*
D32*
X1218080Y1025970D02*
D03*
X1173730D02*
D03*
X1129380D02*
D03*
X1218080Y1070320D02*
D03*
X1129380D02*
D03*
X1218080Y1114670D02*
D03*
X1173730D02*
D03*
X1129380D02*
D03*
X1173730Y1070320D02*
D03*
D33*
X1247011Y1248060D02*
D03*
X1149965Y1173060D02*
D03*
X1352965D02*
D03*
D34*
X1842750Y889470D02*
D03*
Y814470D02*
D03*
X1099265Y714465D02*
D03*
Y790665D02*
D03*
X1571080Y713740D02*
D03*
Y789940D02*
D03*
D36*
X1780540Y788670D02*
D03*
Y889470D02*
D03*
D37*
X776957Y960568D02*
D03*
D38*
X779999Y1630000D02*
D03*
Y1455000D02*
D03*
Y1260000D02*
D03*
Y1085000D02*
D03*
D40*
X1173730Y962660D02*
D03*
D41*
X1133160Y600710D02*
D03*
D43*
X1911350Y953170D02*
D03*
Y902370D02*
D03*
Y800770D02*
D03*
Y749970D02*
D03*
D48*
X1842350Y814070D02*
X1842750Y814470D01*
X1842350Y889070D02*
X1842750Y889470D01*
X1779023Y890987D02*
X1780940Y889070D01*
M02*
