G04*
G04 #@! TF.GenerationSoftware,Altium Limited,Altium Designer,22.8.2 (66)*
G04*
G04 Layer_Color=16711935*
%FSLAX44Y44*%
%MOMM*%
G71*
G04*
G04 #@! TF.SameCoordinates,40631429-7DBC-4EA8-B2E3-056BE841FA50*
G04*
G04*
G04 #@! TF.FilePolarity,Negative*
G04*
G01*
G75*
%ADD14C,3.7032*%
%ADD15C,3.2032*%
%ADD16C,0.2032*%
%ADD17C,2.7032*%
%ADD18C,3.4032*%
%ADD19C,1.7032*%
%ADD20C,1.8032*%
%ADD21O,7.4032X2.9532*%
%ADD22O,1.9032X1.7032*%
%ADD23O,4.7032X7.2032*%
%ADD24O,10.2032X2.2032*%
%ADD25C,2.9032*%
%ADD26O,3.2032X2.4032*%
%ADD27C,8.2032*%
%ADD28R,1.7032X1.7032*%
%ADD29R,1.7032X1.7032*%
%ADD30C,1.9532*%
%ADD51R,1.9532X2.6532*%
%ADD52R,1.1532X0.9032*%
D14*
X1323730Y1070320D02*
D03*
X1279380Y1114670D02*
D03*
X1323730D02*
D03*
X1368080D02*
D03*
X1279380Y1070320D02*
D03*
X1368080D02*
D03*
X1279380Y1025970D02*
D03*
X1323730D02*
D03*
X1368080D02*
D03*
X1218080D02*
D03*
X1173730D02*
D03*
X1129380D02*
D03*
X1218080Y1070320D02*
D03*
X1129380D02*
D03*
X1218080Y1114670D02*
D03*
X1173730D02*
D03*
X1129380D02*
D03*
X1173730Y1070320D02*
D03*
D15*
X1517808Y1249850D02*
D03*
Y1465150D02*
D03*
X1247011Y1623060D02*
D03*
Y1248060D02*
D03*
X1149965Y1173060D02*
D03*
Y1698060D02*
D03*
X1352965Y1173060D02*
D03*
Y1698060D02*
D03*
D16*
X1682750Y839470D02*
D03*
X986790Y1359070D02*
D03*
D17*
X1842750Y964470D02*
D03*
Y889470D02*
D03*
Y814470D02*
D03*
Y714470D02*
D03*
X1048465Y714465D02*
D03*
Y790665D02*
D03*
X1520280Y869950D02*
D03*
X1571080D02*
D03*
X1621880D02*
D03*
X1520280Y946150D02*
D03*
X1571080D02*
D03*
X1621880D02*
D03*
X1368080Y869950D02*
D03*
Y946150D02*
D03*
X1251465Y714465D02*
D03*
Y790665D02*
D03*
X997665Y714465D02*
D03*
X1099265D02*
D03*
X997665Y790665D02*
D03*
X1099265D02*
D03*
X1520280Y713740D02*
D03*
X1571080D02*
D03*
X1621880D02*
D03*
X1520280Y789940D02*
D03*
X1571080D02*
D03*
X1621880D02*
D03*
X1368080Y713740D02*
D03*
Y789940D02*
D03*
D18*
X1473458Y1509500D02*
D03*
X1517808D02*
D03*
X1562158D02*
D03*
X1473458Y1465150D02*
D03*
X1562158D02*
D03*
X1473458Y1420800D02*
D03*
X1517808D02*
D03*
X1562158D02*
D03*
X1473458Y1294200D02*
D03*
X1517808D02*
D03*
X1562158D02*
D03*
X1473458Y1249850D02*
D03*
X1562158D02*
D03*
X1473458Y1205500D02*
D03*
X1517808D02*
D03*
X1562158D02*
D03*
D19*
X1730540Y788670D02*
D03*
X1780540D02*
D03*
X1050760Y1179830D02*
D03*
X1000760D02*
D03*
X1050760Y1250950D02*
D03*
X1000760D02*
D03*
Y1526540D02*
D03*
X1050760D02*
D03*
X1000760Y1597660D02*
D03*
X1050760D02*
D03*
X1780540Y889470D02*
D03*
X1730540D02*
D03*
X1309772Y896620D02*
D03*
X719340Y749300D02*
D03*
X923290Y912660D02*
D03*
Y887260D02*
D03*
X1309772Y741680D02*
D03*
D20*
X636317Y847115D02*
D03*
X538179Y820819D02*
D03*
X776957Y847115D02*
D03*
X875095Y820819D02*
D03*
X776957Y764092D02*
D03*
X875095Y790388D02*
D03*
Y934272D02*
D03*
X776957Y960568D02*
D03*
X636317Y764092D02*
D03*
X538179Y790388D02*
D03*
X776957Y877545D02*
D03*
X875095Y903841D02*
D03*
X538179Y934272D02*
D03*
X636317Y960568D02*
D03*
Y877545D02*
D03*
X538179Y903841D02*
D03*
D21*
X1720000Y1030500D02*
D03*
Y1085000D02*
D03*
Y1139500D02*
D03*
Y1205500D02*
D03*
Y1260000D02*
D03*
Y1314500D02*
D03*
Y1400500D02*
D03*
Y1455000D02*
D03*
Y1509500D02*
D03*
Y1575500D02*
D03*
Y1630000D02*
D03*
Y1684500D02*
D03*
X779999Y1630000D02*
D03*
Y1684500D02*
D03*
Y1575500D02*
D03*
Y1509500D02*
D03*
Y1455000D02*
D03*
Y1400500D02*
D03*
Y1314500D02*
D03*
Y1260000D02*
D03*
Y1205500D02*
D03*
Y1030500D02*
D03*
Y1085000D02*
D03*
Y1139500D02*
D03*
D22*
X959730Y912660D02*
D03*
X959730Y893560D02*
D03*
X959730Y931760D02*
D03*
D23*
X1173730Y862660D02*
D03*
Y962660D02*
D03*
D24*
X736280Y600710D02*
D03*
X1361440D02*
D03*
X1758320D02*
D03*
X1133160D02*
D03*
D25*
X568960Y701040D02*
D03*
Y650240D02*
D03*
Y599440D02*
D03*
Y548640D02*
D03*
D26*
X1911350Y953170D02*
D03*
Y902370D02*
D03*
Y851570D02*
D03*
Y800770D02*
D03*
Y749970D02*
D03*
D27*
X707390Y814070D02*
D03*
X1517808Y1675000D02*
D03*
X976214D02*
D03*
X1517808Y1040000D02*
D03*
X976214D02*
D03*
X1925000Y620000D02*
D03*
D28*
X1309772Y922020D02*
D03*
X923290Y938060D02*
D03*
X1309772Y767080D02*
D03*
D29*
X693940Y749300D02*
D03*
D30*
X1658620Y1314500D02*
D03*
X1633220D02*
D03*
X1658620Y1139500D02*
D03*
X1633220D02*
D03*
X1658620Y1509500D02*
D03*
X1633220D02*
D03*
X1658620Y1684500D02*
D03*
X1633220D02*
D03*
X866779Y1030500D02*
D03*
X841379D02*
D03*
X866779Y1400500D02*
D03*
X841379D02*
D03*
X866779Y1575500D02*
D03*
X841379D02*
D03*
X866779Y1205500D02*
D03*
X841379D02*
D03*
D51*
X1338580Y929296D02*
D03*
Y886296D02*
D03*
X1281430Y731319D02*
D03*
Y774319D02*
D03*
X1633220Y1443500D02*
D03*
Y1400500D02*
D03*
X866779Y1314500D02*
D03*
Y1271500D02*
D03*
Y1466500D02*
D03*
Y1509500D02*
D03*
X1633220Y1575500D02*
D03*
Y1618500D02*
D03*
X866779Y1641500D02*
D03*
Y1684500D02*
D03*
Y1096500D02*
D03*
Y1139500D02*
D03*
X1633220Y1030500D02*
D03*
Y1073500D02*
D03*
Y1205500D02*
D03*
Y1248500D02*
D03*
D52*
X942340Y928520D02*
D03*
Y915520D02*
D03*
M02*
